G04*
G04 #@! TF.GenerationSoftware,Altium Limited,Altium Designer,22.9.1 (49)*
G04*
G04 Layer_Physical_Order=4*
G04 Layer_Color=16711680*
%FSLAX25Y25*%
%MOIN*%
G70*
G04*
G04 #@! TF.SameCoordinates,3F8A9F32-4B6F-401C-BF37-4CBD66F0855C*
G04*
G04*
G04 #@! TF.FilePolarity,Positive*
G04*
G01*
G75*
%ADD13C,0.01000*%
%ADD25R,0.03543X0.02756*%
%ADD27R,0.02756X0.03543*%
%ADD46R,0.04331X0.02362*%
%ADD56R,0.02362X0.04331*%
%ADD85R,0.05118X0.05118*%
%ADD86C,0.05118*%
G04:AMPARAMS|DCode=87|XSize=39.37mil|YSize=70.87mil|CornerRadius=19.68mil|HoleSize=0mil|Usage=FLASHONLY|Rotation=180.000|XOffset=0mil|YOffset=0mil|HoleType=Round|Shape=RoundedRectangle|*
%AMROUNDEDRECTD87*
21,1,0.03937,0.03150,0,0,180.0*
21,1,0.00000,0.07087,0,0,180.0*
1,1,0.03937,0.00000,0.01575*
1,1,0.03937,0.00000,0.01575*
1,1,0.03937,0.00000,-0.01575*
1,1,0.03937,0.00000,-0.01575*
%
%ADD87ROUNDEDRECTD87*%
G04:AMPARAMS|DCode=88|XSize=39.37mil|YSize=82.68mil|CornerRadius=19.68mil|HoleSize=0mil|Usage=FLASHONLY|Rotation=180.000|XOffset=0mil|YOffset=0mil|HoleType=Round|Shape=RoundedRectangle|*
%AMROUNDEDRECTD88*
21,1,0.03937,0.04331,0,0,180.0*
21,1,0.00000,0.08268,0,0,180.0*
1,1,0.03937,0.00000,0.02165*
1,1,0.03937,0.00000,0.02165*
1,1,0.03937,0.00000,-0.02165*
1,1,0.03937,0.00000,-0.02165*
%
%ADD88ROUNDEDRECTD88*%
%ADD89C,0.02559*%
%ADD93C,0.04921*%
%ADD94C,0.03937*%
%ADD99C,0.02362*%
%ADD101C,0.00800*%
%ADD102C,0.02000*%
%ADD103C,0.07323*%
%ADD104C,0.01575*%
%ADD105C,0.05906*%
%ADD106R,0.05906X0.05906*%
%ADD107C,0.15748*%
%ADD108R,0.08268X0.08268*%
%ADD109C,0.08268*%
%ADD110C,0.04000*%
%ADD111C,0.22047*%
%ADD112R,0.02362X0.07480*%
%ADD113R,0.08268X0.11024*%
%ADD114R,0.03150X0.03543*%
%ADD115R,0.17717X0.09055*%
%ADD116C,0.06000*%
G36*
X694000Y137500D02*
X627000D01*
X327000Y137500D01*
X321423Y143077D01*
Y161134D01*
X321870Y161362D01*
X324756D01*
Y167374D01*
X320122D01*
Y161700D01*
X249500D01*
Y161195D01*
X249475Y161134D01*
Y142974D01*
X244000Y137500D01*
X103000D01*
Y255500D01*
X694000D01*
Y137500D01*
D02*
G37*
%LPC*%
G36*
X616334Y249681D02*
X615666D01*
X615048Y249425D01*
X614575Y248952D01*
X614319Y248334D01*
Y247666D01*
X614575Y247048D01*
X615048Y246575D01*
X615666Y246319D01*
X616334D01*
X616952Y246575D01*
X617425Y247048D01*
X617681Y247666D01*
Y248334D01*
X617425Y248952D01*
X616952Y249425D01*
X616334Y249681D01*
D02*
G37*
G36*
X598334D02*
X597666D01*
X597048Y249425D01*
X596575Y248952D01*
X596319Y248334D01*
Y247666D01*
X596575Y247048D01*
X597048Y246575D01*
X597666Y246319D01*
X598334D01*
X598952Y246575D01*
X599425Y247048D01*
X599681Y247666D01*
Y248334D01*
X599425Y248952D01*
X598952Y249425D01*
X598334Y249681D01*
D02*
G37*
G36*
X580334D02*
X579666D01*
X579048Y249425D01*
X578575Y248952D01*
X578319Y248334D01*
Y247666D01*
X578575Y247048D01*
X579048Y246575D01*
X579666Y246319D01*
X580334D01*
X580952Y246575D01*
X581425Y247048D01*
X581681Y247666D01*
Y248334D01*
X581425Y248952D01*
X580952Y249425D01*
X580334Y249681D01*
D02*
G37*
G36*
X562334D02*
X561666D01*
X561048Y249425D01*
X560575Y248952D01*
X560319Y248334D01*
Y247666D01*
X560575Y247048D01*
X561048Y246575D01*
X561666Y246319D01*
X562334D01*
X562952Y246575D01*
X563425Y247048D01*
X563681Y247666D01*
Y248334D01*
X563425Y248952D01*
X562952Y249425D01*
X562334Y249681D01*
D02*
G37*
G36*
X544334D02*
X543666D01*
X543048Y249425D01*
X542575Y248952D01*
X542319Y248334D01*
Y247666D01*
X542575Y247048D01*
X543048Y246575D01*
X543666Y246319D01*
X544334D01*
X544952Y246575D01*
X545425Y247048D01*
X545681Y247666D01*
Y248334D01*
X545425Y248952D01*
X544952Y249425D01*
X544334Y249681D01*
D02*
G37*
G36*
X526334D02*
X525666D01*
X525048Y249425D01*
X524575Y248952D01*
X524319Y248334D01*
Y247666D01*
X524575Y247048D01*
X525048Y246575D01*
X525666Y246319D01*
X526334D01*
X526952Y246575D01*
X527425Y247048D01*
X527681Y247666D01*
Y248334D01*
X527425Y248952D01*
X526952Y249425D01*
X526334Y249681D01*
D02*
G37*
G36*
X508334D02*
X507666D01*
X507048Y249425D01*
X506575Y248952D01*
X506319Y248334D01*
Y247666D01*
X506575Y247048D01*
X507048Y246575D01*
X507666Y246319D01*
X508334D01*
X508952Y246575D01*
X509425Y247048D01*
X509681Y247666D01*
Y248334D01*
X509425Y248952D01*
X508952Y249425D01*
X508334Y249681D01*
D02*
G37*
G36*
X365508Y249090D02*
Y245087D01*
X368002D01*
Y246161D01*
X367900Y246936D01*
X367601Y247658D01*
X367125Y248279D01*
X366505Y248754D01*
X365783Y249054D01*
X365508Y249090D01*
D02*
G37*
G36*
X331492Y249090D02*
Y245087D01*
X333986D01*
Y246161D01*
X333884Y246936D01*
X333585Y247658D01*
X333109Y248279D01*
X332489Y248754D01*
X331767Y249054D01*
X331492Y249090D01*
D02*
G37*
G36*
X330492Y249090D02*
X330217Y249054D01*
X329495Y248754D01*
X328875Y248279D01*
X328399Y247658D01*
X328100Y246936D01*
X327998Y246161D01*
Y245087D01*
X330492D01*
Y249090D01*
D02*
G37*
G36*
X364508Y249090D02*
X364233Y249054D01*
X363511Y248754D01*
X362891Y248279D01*
X362415Y247658D01*
X362116Y246936D01*
X362014Y246161D01*
Y245087D01*
X364508D01*
Y249090D01*
D02*
G37*
G36*
X437420Y249166D02*
X436425D01*
X435506Y248785D01*
X434803Y248082D01*
X434423Y247163D01*
Y246169D01*
X434803Y245250D01*
X435506Y244547D01*
X436425Y244166D01*
X437420D01*
X438339Y244547D01*
X439042Y245250D01*
X439423Y246169D01*
Y247163D01*
X439042Y248082D01*
X438339Y248785D01*
X437420Y249166D01*
D02*
G37*
G36*
X197415Y248818D02*
X196421D01*
X195502Y248437D01*
X194799Y247734D01*
X194418Y246815D01*
Y245820D01*
X194799Y244902D01*
X195502Y244198D01*
X196421Y243818D01*
X197415D01*
X198334Y244198D01*
X199037Y244902D01*
X199418Y245820D01*
Y246815D01*
X199037Y247734D01*
X198334Y248437D01*
X197415Y248818D01*
D02*
G37*
G36*
X472920Y247607D02*
X471925D01*
X471006Y247226D01*
X470303Y246523D01*
X469923Y245604D01*
Y244610D01*
X470303Y243691D01*
X471006Y242988D01*
X471925Y242607D01*
X472920D01*
X473839Y242988D01*
X474542Y243691D01*
X474923Y244610D01*
Y245604D01*
X474542Y246523D01*
X473839Y247226D01*
X472920Y247607D01*
D02*
G37*
G36*
X368002Y244087D02*
X365508D01*
Y240084D01*
X365783Y240120D01*
X366505Y240419D01*
X367125Y240895D01*
X367601Y241515D01*
X367900Y242237D01*
X368002Y243012D01*
Y244087D01*
D02*
G37*
G36*
X330492D02*
X327998D01*
Y243012D01*
X328100Y242237D01*
X328399Y241515D01*
X328875Y240895D01*
X329495Y240419D01*
X330217Y240120D01*
X330492Y240084D01*
Y244087D01*
D02*
G37*
G36*
X333986D02*
X331492D01*
Y240084D01*
X331767Y240120D01*
X332489Y240419D01*
X333109Y240895D01*
X333585Y241515D01*
X333884Y242237D01*
X333986Y243012D01*
Y244087D01*
D02*
G37*
G36*
X364508D02*
X362014D01*
Y243012D01*
X362116Y242237D01*
X362415Y241515D01*
X362891Y240895D01*
X363511Y240419D01*
X364233Y240120D01*
X364508Y240084D01*
Y244087D01*
D02*
G37*
G36*
X134955Y246953D02*
X134045D01*
X133167Y246718D01*
X132380Y246263D01*
X131737Y245620D01*
X131282Y244833D01*
X131047Y243955D01*
Y243045D01*
X131282Y242167D01*
X131737Y241380D01*
X132380Y240737D01*
X133167Y240283D01*
X134045Y240047D01*
X134955D01*
X135833Y240283D01*
X136620Y240737D01*
X137263Y241380D01*
X137717Y242167D01*
X137953Y243045D01*
Y243955D01*
X137717Y244833D01*
X137263Y245620D01*
X136620Y246263D01*
X135833Y246718D01*
X134955Y246953D01*
D02*
G37*
G36*
X118997Y249000D02*
X118003D01*
X117084Y248619D01*
X116381Y247916D01*
X116000Y246997D01*
Y246003D01*
X116381Y245084D01*
X117084Y244381D01*
X117399Y244250D01*
Y243750D01*
X117084Y243619D01*
X116381Y242916D01*
X116000Y241997D01*
Y241003D01*
X116381Y240084D01*
X117084Y239381D01*
X118003Y239000D01*
X118997D01*
X119916Y239381D01*
X120619Y240084D01*
X121000Y241003D01*
Y241997D01*
X120619Y242916D01*
X119916Y243619D01*
X119601Y243750D01*
Y244250D01*
X119916Y244381D01*
X120619Y245084D01*
X121000Y246003D01*
Y246997D01*
X120619Y247916D01*
X119916Y248619D01*
X118997Y249000D01*
D02*
G37*
G36*
X448497Y242000D02*
X447503D01*
X446584Y241619D01*
X445881Y240916D01*
X445500Y239997D01*
Y239003D01*
X445881Y238084D01*
X446584Y237381D01*
X447503Y237000D01*
X448497D01*
X449416Y237381D01*
X450119Y238084D01*
X450500Y239003D01*
Y239997D01*
X450119Y240916D01*
X449416Y241619D01*
X448497Y242000D01*
D02*
G37*
G36*
X135020Y237453D02*
X135000D01*
Y234000D01*
X138453D01*
Y234020D01*
X138183Y235026D01*
X137663Y235927D01*
X136927Y236663D01*
X136026Y237183D01*
X135020Y237453D01*
D02*
G37*
G36*
X134000D02*
X133980D01*
X132974Y237183D01*
X132073Y236663D01*
X131337Y235927D01*
X130817Y235026D01*
X130547Y234020D01*
Y234000D01*
X134000D01*
Y237453D01*
D02*
G37*
G36*
X238500Y249020D02*
X203000D01*
X202610Y248942D01*
X202279Y248721D01*
X200279Y246721D01*
X200058Y246390D01*
X199980Y246000D01*
Y237422D01*
X186779Y224221D01*
X186558Y223890D01*
X186480Y223500D01*
Y186922D01*
X164578Y165020D01*
X129358D01*
X128952Y165425D01*
X128334Y165681D01*
X127666D01*
X127048Y165425D01*
X126575Y164952D01*
X126319Y164334D01*
Y163666D01*
X126575Y163048D01*
X127048Y162575D01*
X127666Y162319D01*
X128334D01*
X128952Y162575D01*
X129358Y162980D01*
X165000D01*
X165390Y163058D01*
X165721Y163279D01*
X188221Y185779D01*
X188442Y186110D01*
X188520Y186500D01*
Y223078D01*
X201721Y236279D01*
X201942Y236610D01*
X202020Y237000D01*
Y245578D01*
X202504Y246062D01*
X202928Y245779D01*
X202819Y245515D01*
Y244847D01*
X203075Y244229D01*
X203480Y243823D01*
Y242000D01*
X203558Y241610D01*
X203779Y241279D01*
X214480Y230578D01*
Y217838D01*
X211007Y214365D01*
X210786Y214034D01*
X210709Y213644D01*
Y205651D01*
X207051Y201993D01*
X206974Y201878D01*
X204228D01*
Y198122D01*
X208772D01*
Y199053D01*
X209249D01*
X209517Y198553D01*
X209471Y198486D01*
X209394Y198095D01*
Y191165D01*
X209471Y190774D01*
X209692Y190444D01*
X210945Y189191D01*
Y189166D01*
X211201Y188548D01*
X211543Y188205D01*
Y187240D01*
X210945D01*
Y183479D01*
X210445Y183343D01*
X210370Y183469D01*
Y187240D01*
X207008D01*
X206933Y187709D01*
Y187740D01*
X205252D01*
Y183000D01*
Y178260D01*
X206418D01*
Y177321D01*
X206799Y176402D01*
X207502Y175698D01*
X208421Y175318D01*
X209415D01*
X210334Y175698D01*
X211037Y176402D01*
X211418Y177321D01*
Y178315D01*
X211406Y178344D01*
X211684Y178760D01*
X214307D01*
Y187240D01*
X213646D01*
Y188142D01*
X214051Y188548D01*
X214307Y189166D01*
Y189834D01*
X214051Y190452D01*
X213925Y190579D01*
X214132Y191079D01*
X214802D01*
X215283Y190598D01*
Y190597D01*
X215138Y190452D01*
X214882Y189834D01*
Y189166D01*
X215138Y188548D01*
X215543Y188142D01*
Y187240D01*
X214882D01*
Y178760D01*
X218244D01*
Y187240D01*
X217583D01*
Y188142D01*
X217988Y188548D01*
X218244Y189166D01*
Y189834D01*
X217988Y190452D01*
X217515Y190925D01*
X217322Y191005D01*
Y191021D01*
X217244Y191411D01*
X217023Y191742D01*
X216244Y192521D01*
Y192963D01*
X217465Y194184D01*
X217686Y194515D01*
X217764Y194905D01*
Y203467D01*
X218221Y203925D01*
X218277Y204009D01*
X218470Y204066D01*
X218874Y204062D01*
X219236Y203700D01*
Y194905D01*
X219314Y194515D01*
X219535Y194184D01*
X220756Y192963D01*
Y192521D01*
X220040Y191804D01*
X219819Y191474D01*
X219741Y191084D01*
Y191005D01*
X219548Y190925D01*
X219075Y190452D01*
X218819Y189834D01*
Y189166D01*
X219075Y188548D01*
X219480Y188142D01*
Y187240D01*
X218819D01*
Y178760D01*
X222181D01*
Y187240D01*
X221520D01*
Y188142D01*
X221925Y188548D01*
X222181Y189166D01*
Y189834D01*
X221925Y190452D01*
X221780Y190597D01*
Y190661D01*
X222198Y191079D01*
X223913D01*
X224195Y190579D01*
X224122Y190457D01*
X224047Y190442D01*
X223716Y190221D01*
X223495Y189890D01*
X223417Y189500D01*
Y187240D01*
X222756D01*
Y178760D01*
X226118D01*
Y187240D01*
X225520D01*
Y188676D01*
X225580Y188716D01*
X227308Y190444D01*
X227529Y190774D01*
X227606Y191165D01*
Y198095D01*
X227529Y198486D01*
X227452Y198600D01*
X227714Y199100D01*
X228228D01*
Y198122D01*
X232772D01*
Y201878D01*
X230026D01*
X229949Y201993D01*
X226335Y205607D01*
Y213646D01*
X226257Y214036D01*
X226036Y214367D01*
X222520Y217883D01*
Y230578D01*
X229221Y237279D01*
X229442Y237610D01*
X229520Y238000D01*
Y243823D01*
X229925Y244229D01*
X230181Y244847D01*
Y245515D01*
X229925Y246133D01*
X229578Y246480D01*
X229756Y246980D01*
X238078D01*
X251779Y233279D01*
X252110Y233058D01*
X252500Y232980D01*
X256642D01*
X257048Y232575D01*
X257666Y232319D01*
X258334D01*
X258952Y232575D01*
X259425Y233048D01*
X259681Y233666D01*
Y234334D01*
X259425Y234952D01*
X258952Y235425D01*
X258334Y235681D01*
X257666D01*
X257048Y235425D01*
X256642Y235020D01*
X252922D01*
X239221Y248721D01*
X238890Y248942D01*
X238500Y249020D01*
D02*
G37*
G36*
X461880Y236383D02*
X460885D01*
X459967Y236002D01*
X459263Y235299D01*
X458883Y234380D01*
Y233385D01*
X459263Y232467D01*
X459967Y231763D01*
X460885Y231383D01*
X461880D01*
X462799Y231763D01*
X463502Y232467D01*
X463883Y233385D01*
Y234380D01*
X463502Y235299D01*
X462799Y236002D01*
X461880Y236383D01*
D02*
G37*
G36*
X265728Y237925D02*
X265272D01*
X265228Y237925D01*
X260728D01*
Y234169D01*
X261319D01*
Y233666D01*
X261575Y233048D01*
X262048Y232575D01*
X262666Y232319D01*
X263334D01*
X263952Y232575D01*
X264425Y233048D01*
X264681Y233666D01*
Y234169D01*
X265228D01*
X265272Y234169D01*
X265728D01*
X265772Y234169D01*
X266319D01*
Y233847D01*
X266575Y233229D01*
X267048Y232756D01*
X267666Y232500D01*
X268334D01*
X268952Y232756D01*
X269425Y233229D01*
X269681Y233847D01*
Y234169D01*
X270228D01*
X270272Y234169D01*
X270728Y234065D01*
Y231075D01*
X275272D01*
Y234831D01*
X274551D01*
X274425Y235133D01*
X273952Y235606D01*
X273334Y235862D01*
X272666D01*
X272048Y235606D01*
X271575Y235133D01*
X271449Y234831D01*
X270772D01*
X270728Y234831D01*
X270272Y234935D01*
Y237925D01*
X265772D01*
X265728Y237925D01*
D02*
G37*
G36*
X138453Y233000D02*
X135000D01*
Y229547D01*
X135020D01*
X136026Y229817D01*
X136927Y230337D01*
X137663Y231073D01*
X138183Y231974D01*
X138453Y232980D01*
Y233000D01*
D02*
G37*
G36*
X134000D02*
X130547D01*
Y232980D01*
X130817Y231974D01*
X131337Y231073D01*
X132073Y230337D01*
X132974Y229817D01*
X133980Y229547D01*
X134000D01*
Y233000D01*
D02*
G37*
G36*
X423497Y234500D02*
X422503D01*
X421584Y234119D01*
X420881Y233416D01*
X420500Y232497D01*
Y231503D01*
X420881Y230584D01*
X421584Y229881D01*
X422503Y229500D01*
X423497D01*
X424416Y229881D01*
X425119Y230584D01*
X425500Y231503D01*
Y232497D01*
X425119Y233416D01*
X424416Y234119D01*
X423497Y234500D01*
D02*
G37*
G36*
X359732Y231878D02*
X359024D01*
X358370Y231607D01*
X357869Y231106D01*
X357598Y230452D01*
Y229745D01*
X357869Y229090D01*
X358370Y228590D01*
X359024Y228319D01*
X359732D01*
X360386Y228590D01*
X360887Y229090D01*
X361157Y229745D01*
Y230452D01*
X360887Y231106D01*
X360386Y231607D01*
X359732Y231878D01*
D02*
G37*
G36*
X336976D02*
X336268D01*
X335614Y231607D01*
X335113Y231106D01*
X334842Y230452D01*
Y229745D01*
X335113Y229090D01*
X335614Y228590D01*
X336268Y228319D01*
X336976D01*
X337630Y228590D01*
X338131Y229090D01*
X338402Y229745D01*
Y230452D01*
X338131Y231106D01*
X337630Y231607D01*
X336976Y231878D01*
D02*
G37*
G36*
X492539Y229484D02*
X492425D01*
Y225323D01*
X496587D01*
Y225436D01*
X496269Y226622D01*
X495655Y227685D01*
X494787Y228553D01*
X493724Y229167D01*
X492539Y229484D01*
D02*
G37*
G36*
X491425D02*
X491312D01*
X490126Y229167D01*
X489063Y228553D01*
X488195Y227685D01*
X487581Y226622D01*
X487264Y225436D01*
Y225323D01*
X491425D01*
Y229484D01*
D02*
G37*
G36*
X440497Y231000D02*
X439503D01*
X438584Y230619D01*
X437881Y229916D01*
X437500Y228997D01*
Y228003D01*
X437881Y227084D01*
X438584Y226381D01*
X439503Y226000D01*
X440497D01*
X441416Y226381D01*
X442006Y226971D01*
X455866D01*
X457307Y225530D01*
X457112Y225018D01*
X457012Y225012D01*
X457000Y225012D01*
X452378D01*
Y219000D01*
X457012D01*
Y224474D01*
X457500Y224503D01*
X457881Y223584D01*
X458584Y222881D01*
X459503Y222500D01*
X460497D01*
X461416Y222881D01*
X462119Y223584D01*
X462500Y224503D01*
Y225497D01*
X462119Y226416D01*
X461416Y227119D01*
X460497Y227500D01*
X459663D01*
X457581Y229581D01*
X457085Y229913D01*
X456500Y230029D01*
X442006D01*
X441416Y230619D01*
X440497Y231000D01*
D02*
G37*
G36*
X496587Y224323D02*
X492425D01*
Y220161D01*
X492539D01*
X493724Y220479D01*
X494787Y221093D01*
X495655Y221961D01*
X496269Y223024D01*
X496587Y224209D01*
Y224323D01*
D02*
G37*
G36*
X491425D02*
X487264D01*
Y224209D01*
X487581Y223024D01*
X488195Y221961D01*
X489063Y221093D01*
X490126Y220479D01*
X491312Y220161D01*
X491425D01*
Y224323D01*
D02*
G37*
G36*
X137953Y226953D02*
X131047D01*
Y220047D01*
X137953D01*
Y226953D01*
D02*
G37*
G36*
X368002Y227630D02*
X365008D01*
X362014D01*
Y225965D01*
X362056Y225640D01*
X361727Y225264D01*
X360705D01*
Y219252D01*
X370972D01*
Y225264D01*
X368289D01*
X367959Y225640D01*
X368002Y225965D01*
Y227630D01*
D02*
G37*
G36*
X333986D02*
X330992D01*
X327998D01*
Y225965D01*
X328041Y225640D01*
X327711Y225264D01*
X324091D01*
Y219252D01*
X329224D01*
X334358D01*
Y225264D01*
X334273D01*
X333944Y225640D01*
X333986Y225965D01*
Y227630D01*
D02*
G37*
G36*
X451378Y225012D02*
X446744D01*
Y219000D01*
X451378D01*
Y225012D01*
D02*
G37*
G36*
X406890D02*
X402256D01*
Y219000D01*
X406890D01*
Y225012D01*
D02*
G37*
G36*
X164334Y218181D02*
X163666D01*
X163048Y217925D01*
X162575Y217452D01*
X162319Y216834D01*
Y216166D01*
X162575Y215548D01*
X163048Y215075D01*
X163666Y214819D01*
X164334D01*
X164952Y215075D01*
X165425Y215548D01*
X165681Y216166D01*
Y216834D01*
X165425Y217452D01*
X164952Y217925D01*
X164334Y218181D01*
D02*
G37*
G36*
X152334Y223681D02*
X151666D01*
X151048Y223425D01*
X150575Y222952D01*
X150319Y222334D01*
Y221761D01*
X139779Y211221D01*
X139558Y210890D01*
X139480Y210500D01*
Y207992D01*
X138858D01*
Y199512D01*
X142220D01*
Y207992D01*
X141520D01*
Y210078D01*
X147819Y216377D01*
X148319Y216170D01*
Y216166D01*
X148575Y215548D01*
X149048Y215075D01*
X149666Y214819D01*
X150334D01*
X150952Y215075D01*
X151425Y215548D01*
X151681Y216166D01*
Y216834D01*
X151425Y217452D01*
X150952Y217925D01*
X150334Y218181D01*
X150330D01*
X150123Y218681D01*
X151761Y220319D01*
X152334D01*
X152952Y220575D01*
X153425Y221048D01*
X153681Y221666D01*
Y222334D01*
X153425Y222952D01*
X152952Y223425D01*
X152334Y223681D01*
D02*
G37*
G36*
X244750Y249224D02*
X244081D01*
X243463Y248969D01*
X242990Y248496D01*
X242734Y247878D01*
Y247209D01*
X242990Y246591D01*
X243463Y246118D01*
X244081Y245862D01*
X244611D01*
X245833Y244640D01*
X246164Y244419D01*
X246554Y244342D01*
X248361D01*
X248751Y244419D01*
X249082Y244640D01*
X249422Y244980D01*
X264326D01*
X264517Y244518D01*
X263830Y243831D01*
X260728D01*
Y240075D01*
X265228D01*
X265272Y240075D01*
Y240075D01*
X265728D01*
Y240075D01*
X270272D01*
Y240933D01*
X276980D01*
Y228921D01*
X275913D01*
X275913Y225636D01*
X275840Y225576D01*
X275772Y225565D01*
X275272Y225996D01*
Y228925D01*
X270728D01*
Y225169D01*
X271980D01*
Y221500D01*
X272058Y221110D01*
X272279Y220779D01*
X274019Y219039D01*
X274350Y218818D01*
X274740Y218740D01*
X275913D01*
Y218079D01*
X277980D01*
Y216240D01*
X277319D01*
Y209444D01*
X276819Y209177D01*
X276744Y209227D01*
Y216240D01*
X273500D01*
Y216997D01*
X273119Y217916D01*
X272416Y218619D01*
X271497Y219000D01*
X270503D01*
X269584Y218619D01*
X268881Y217916D01*
X268500Y216997D01*
Y216240D01*
X265508D01*
X265433Y216709D01*
Y216740D01*
X263752D01*
Y212000D01*
Y207260D01*
X264500D01*
Y206503D01*
X264881Y205584D01*
X265584Y204881D01*
X266503Y204500D01*
X267497D01*
X268416Y204881D01*
X269119Y205584D01*
X269500Y206503D01*
Y207283D01*
X269500Y207497D01*
X269932Y207760D01*
X272324D01*
X272500Y207497D01*
Y206503D01*
X272881Y205584D01*
X273584Y204881D01*
X274503Y204500D01*
X275497D01*
X276416Y204881D01*
X276766Y205230D01*
X295607D01*
X305010Y195827D01*
Y194546D01*
X304381Y193916D01*
X304000Y192997D01*
Y192003D01*
X304381Y191084D01*
X305084Y190381D01*
X306003Y190000D01*
X306997D01*
X307916Y190381D01*
X308544Y191009D01*
X308545Y191009D01*
X308946Y191017D01*
X309118Y190981D01*
X309201Y190857D01*
X310676Y189382D01*
X310559Y188978D01*
X310489Y188882D01*
X279181D01*
X261303Y206760D01*
X261510Y207260D01*
X262752D01*
Y211500D01*
X261071D01*
Y210578D01*
X260571Y210371D01*
X259181Y211761D01*
Y212334D01*
X258925Y212952D01*
X258452Y213425D01*
X257834Y213681D01*
X257166D01*
X256548Y213425D01*
X256075Y212952D01*
X255819Y212334D01*
Y211666D01*
X256075Y211048D01*
X256548Y210575D01*
X257166Y210319D01*
X257739D01*
X258980Y209078D01*
Y208604D01*
X258480Y208397D01*
X258452Y208425D01*
X257834Y208681D01*
X257166D01*
X256548Y208425D01*
X256484Y208362D01*
X255984Y208569D01*
Y209260D01*
X251350D01*
Y208260D01*
X254984D01*
Y197236D01*
X251350D01*
Y196236D01*
X255984D01*
X255984Y196236D01*
Y196236D01*
X256038Y196124D01*
X256075Y196048D01*
X256269Y195854D01*
X256269Y195854D01*
X256282Y195840D01*
X256548Y195575D01*
X257166Y195319D01*
X257834D01*
X258452Y195575D01*
X258925Y196048D01*
X259181Y196666D01*
Y197334D01*
X258925Y197952D01*
X258452Y198425D01*
X257834Y198681D01*
X257166D01*
X256548Y198425D01*
X256484Y198362D01*
X255984Y198569D01*
Y200431D01*
X256484Y200638D01*
X256548Y200575D01*
X257166Y200319D01*
X257834D01*
X258452Y200575D01*
X258925Y201048D01*
X259000Y201229D01*
X259590Y201347D01*
X276093Y184844D01*
X275902Y184382D01*
X232560D01*
X231482Y185460D01*
X231151Y185681D01*
X231027Y185706D01*
X230925Y185952D01*
X230452Y186425D01*
X229834Y186681D01*
X229166D01*
X228548Y186425D01*
X228075Y185952D01*
X227819Y185334D01*
Y184666D01*
X228075Y184048D01*
X228368Y183754D01*
X228492Y183431D01*
X228368Y183108D01*
X228075Y182815D01*
X227819Y182197D01*
Y181528D01*
X228075Y180910D01*
X228548Y180437D01*
X229166Y180181D01*
X229834D01*
X230452Y180437D01*
X230858Y180843D01*
X310097D01*
X310304Y180343D01*
X309878Y179916D01*
X309497Y178997D01*
Y178003D01*
X309878Y177084D01*
X310581Y176381D01*
X311500Y176000D01*
X312495D01*
X313413Y176381D01*
X313884Y176851D01*
X314473Y176736D01*
X314594Y176444D01*
X314999Y176039D01*
Y175441D01*
X306078Y166520D01*
X205922D01*
X200020Y172422D01*
Y189078D01*
X203728Y192786D01*
X204228Y192579D01*
Y192217D01*
X208772D01*
Y195972D01*
X204228D01*
Y195114D01*
X203594D01*
X203204Y195036D01*
X202873Y194816D01*
X198279Y190221D01*
X198058Y189890D01*
X197980Y189500D01*
Y180269D01*
X197484Y180260D01*
X197480Y180260D01*
X192850D01*
Y173748D01*
X192350D01*
Y173248D01*
X187216D01*
Y168029D01*
X178506D01*
X177916Y168619D01*
X176997Y169000D01*
X176003D01*
X175084Y168619D01*
X174381Y167916D01*
X174000Y166997D01*
Y166003D01*
X174381Y165084D01*
X175084Y164381D01*
X176003Y164000D01*
X176997D01*
X177916Y164381D01*
X178506Y164971D01*
X196994D01*
X197584Y164381D01*
X198503Y164000D01*
X199497D01*
X200416Y164381D01*
X201119Y165084D01*
X201500Y166003D01*
Y166997D01*
X201250Y167601D01*
X201674Y167884D01*
X204779Y164779D01*
X205110Y164558D01*
X205500Y164480D01*
X306500D01*
X306890Y164558D01*
X307221Y164779D01*
X316740Y174298D01*
X316961Y174629D01*
X317039Y175019D01*
Y176039D01*
X317444Y176444D01*
X317580Y176771D01*
X318162Y176896D01*
X318279Y176779D01*
X318610Y176558D01*
X319000Y176480D01*
X326268D01*
X327900Y174848D01*
X327709Y174386D01*
X325756D01*
Y167874D01*
Y161362D01*
X330390D01*
Y167484D01*
X330453Y167532D01*
X330890Y167668D01*
X335282Y163276D01*
Y162660D01*
X335075Y162452D01*
X334819Y161834D01*
Y161166D01*
X335075Y160548D01*
X335548Y160075D01*
X336166Y159819D01*
X336834D01*
X337452Y160075D01*
X337925Y160548D01*
X338181Y161166D01*
Y161791D01*
X338295Y161887D01*
X338635Y162044D01*
X350400Y150279D01*
X350731Y150058D01*
X351121Y149980D01*
X364578D01*
X366319Y148239D01*
Y147666D01*
X366575Y147048D01*
X367048Y146575D01*
X367666Y146319D01*
X368334D01*
X368952Y146575D01*
X369425Y147048D01*
X369681Y147666D01*
Y148334D01*
X369425Y148952D01*
X368952Y149425D01*
X368334Y149681D01*
X367761D01*
X366424Y151019D01*
X366615Y151480D01*
X434596D01*
X434986Y151558D01*
X435317Y151779D01*
X439221Y155683D01*
X439442Y156014D01*
X439520Y156404D01*
Y163142D01*
X439925Y163548D01*
X440181Y164166D01*
Y164834D01*
X439925Y165452D01*
X439452Y165925D01*
X438834Y166181D01*
X438166D01*
X437548Y165925D01*
X437075Y165452D01*
X436819Y164834D01*
Y164166D01*
X437075Y163548D01*
X437480Y163142D01*
Y156826D01*
X436512Y155858D01*
X436022Y155955D01*
X435892Y156267D01*
X435486Y156673D01*
X435334Y157000D01*
X435486Y157327D01*
X435892Y157733D01*
X436197Y158468D01*
X434043D01*
Y158968D01*
X433543D01*
Y161122D01*
X432808Y160818D01*
X432272Y160281D01*
X431736Y160818D01*
X431000Y161122D01*
Y158968D01*
X430000D01*
Y161122D01*
X429264Y160818D01*
X428728Y160281D01*
X428192Y160818D01*
X427457Y161122D01*
Y158968D01*
X426957D01*
Y158468D01*
X424803D01*
X425108Y157733D01*
X425514Y157327D01*
X425666Y157000D01*
X425514Y156673D01*
X425108Y156267D01*
X424803Y155532D01*
X426957D01*
Y154532D01*
X424803D01*
X425015Y154020D01*
X424731Y153520D01*
X352165D01*
X335520Y170165D01*
Y172386D01*
X337158D01*
Y177126D01*
X338158D01*
Y172386D01*
X339839D01*
X340065Y171980D01*
Y168663D01*
X340181Y168078D01*
X340513Y167581D01*
X344529Y163566D01*
X344500Y163497D01*
Y162503D01*
X344881Y161584D01*
X345584Y160881D01*
X346503Y160500D01*
X347497D01*
X348416Y160881D01*
X349119Y161584D01*
X349500Y162503D01*
Y163497D01*
X349119Y164416D01*
X348416Y165119D01*
X347497Y165500D01*
X346920D01*
X343124Y169296D01*
Y172886D01*
X343276D01*
Y181366D01*
X342606D01*
X342408Y181823D01*
X342663Y182138D01*
X342834D01*
X343452Y182394D01*
X343925Y182867D01*
X344012Y183076D01*
X344512Y182977D01*
Y181366D01*
X343850D01*
Y172886D01*
X347213D01*
Y181366D01*
X346551D01*
Y183609D01*
X348422Y185480D01*
X349885D01*
X350077Y185019D01*
X348779Y183721D01*
X348558Y183390D01*
X348480Y183000D01*
Y181366D01*
X347787D01*
Y172886D01*
X351150D01*
Y181366D01*
X350520D01*
Y182578D01*
X351922Y183980D01*
X353388D01*
X353462Y183878D01*
X353576Y183480D01*
X352505Y182410D01*
X352174Y181914D01*
X352065Y181366D01*
X351724D01*
Y172886D01*
X355087D01*
Y176661D01*
X355587Y176938D01*
X355636Y176907D01*
X355661Y176852D01*
Y172886D01*
X359024D01*
Y176988D01*
X359619Y177584D01*
X360000Y178503D01*
Y179497D01*
X359619Y180416D01*
X359527Y180509D01*
X359718Y180971D01*
X371500D01*
X372085Y181087D01*
X372581Y181419D01*
X375976Y184813D01*
X376400Y184530D01*
X376319Y184334D01*
Y183666D01*
X376575Y183048D01*
X377048Y182575D01*
X377666Y182319D01*
X378334D01*
X378952Y182575D01*
X379425Y183048D01*
X379681Y183666D01*
Y184334D01*
X379425Y184952D01*
X379407Y184971D01*
X379614Y185471D01*
X403029D01*
X403500Y185000D01*
X404419Y184619D01*
X405413D01*
X406332Y185000D01*
X406878Y185546D01*
X407085Y185587D01*
X407581Y185919D01*
X407913Y186415D01*
X408029Y187000D01*
X407913Y187585D01*
X407581Y188081D01*
X407087Y188412D01*
X407035Y188535D01*
X406332Y189239D01*
X405413Y189619D01*
X404419D01*
X403500Y189239D01*
X402797Y188535D01*
X402794Y188529D01*
X396107D01*
X395973Y189029D01*
X396185Y189152D01*
X396848Y189815D01*
X397317Y190626D01*
X397551Y191500D01*
X394000D01*
X390449D01*
X390684Y190626D01*
X391152Y189815D01*
X391815Y189152D01*
X392027Y189029D01*
X391893Y188529D01*
X376000D01*
X375415Y188413D01*
X374919Y188081D01*
X370866Y184029D01*
X370114D01*
X369907Y184529D01*
X369925Y184548D01*
X370181Y185166D01*
Y185834D01*
X369925Y186452D01*
X369452Y186925D01*
X368834Y187181D01*
X368166D01*
X367804Y187031D01*
X367521Y187455D01*
X374645Y194579D01*
X379244D01*
Y196445D01*
X383756D01*
Y194579D01*
X384319D01*
X384419Y194079D01*
X384048Y193925D01*
X383575Y193452D01*
X383319Y192834D01*
Y192166D01*
X383575Y191548D01*
X384048Y191075D01*
X384666Y190819D01*
X385334D01*
X385952Y191075D01*
X386425Y191548D01*
X386681Y192166D01*
Y192834D01*
X386425Y193452D01*
X385952Y193925D01*
X385581Y194079D01*
X385681Y194579D01*
X389087D01*
Y195240D01*
X391555D01*
X391707Y194740D01*
X391152Y194185D01*
X390684Y193374D01*
X390449Y192500D01*
X394000D01*
X397551D01*
X397317Y193374D01*
X396848Y194185D01*
X396293Y194740D01*
X396445Y195240D01*
X397260D01*
X397650Y195318D01*
X397981Y195539D01*
X399221Y196779D01*
X399442Y197110D01*
X399520Y197500D01*
Y215036D01*
X399442Y215426D01*
X399221Y215757D01*
X398635Y216343D01*
X398304Y216564D01*
X397914Y216642D01*
X397059D01*
Y218681D01*
X390941D01*
Y216642D01*
X385331D01*
Y217772D01*
X381575D01*
Y213228D01*
X381575D01*
Y212772D01*
X381575D01*
Y208228D01*
X385331D01*
Y209480D01*
X388254D01*
X388303Y208980D01*
X388110Y208942D01*
X387779Y208721D01*
X385700Y206642D01*
X385479Y206311D01*
X385402Y205921D01*
Y205421D01*
X383756D01*
Y204760D01*
X379244D01*
Y205421D01*
X373913D01*
Y204760D01*
X372240D01*
X371850Y204682D01*
X371519Y204461D01*
X367279Y200221D01*
X367058Y199890D01*
X366980Y199500D01*
Y191922D01*
X362578Y187520D01*
X361315D01*
Y189126D01*
X358740D01*
Y189626D01*
X358240D01*
Y192398D01*
X356165D01*
Y190520D01*
X354819D01*
X354429Y190442D01*
X354098Y190221D01*
X353877Y189890D01*
X353835Y189678D01*
X353335Y189727D01*
Y191898D01*
X349185D01*
Y187520D01*
X348000D01*
X347610Y187442D01*
X347279Y187221D01*
X344811Y184752D01*
X344603Y184442D01*
X344486Y184418D01*
X344076Y184406D01*
X343925Y184771D01*
X343452Y185244D01*
X342834Y185500D01*
X342166D01*
X341548Y185244D01*
X341075Y184771D01*
X340819Y184153D01*
Y183484D01*
X340841Y183431D01*
X340517Y183020D01*
X339545D01*
X339180Y183520D01*
X339217Y183634D01*
X339835Y183890D01*
X340307Y184363D01*
X340563Y184981D01*
Y185650D01*
X340307Y186268D01*
X339835Y186741D01*
X339713Y186791D01*
X339812Y187291D01*
X343575D01*
Y188838D01*
X344358D01*
X344748Y188916D01*
X345079Y189137D01*
X345761Y189819D01*
X346334D01*
X346952Y190075D01*
X347425Y190548D01*
X347681Y191166D01*
Y191739D01*
X348147Y192205D01*
X348241Y192223D01*
X348571Y192444D01*
X349607Y193480D01*
X356761D01*
X357151Y193558D01*
X357482Y193779D01*
X362319Y198616D01*
X362819Y198409D01*
Y198166D01*
X363075Y197548D01*
X363548Y197075D01*
X364166Y196819D01*
X364834D01*
X365452Y197075D01*
X365925Y197548D01*
X366181Y198166D01*
Y198834D01*
X365925Y199452D01*
X365452Y199925D01*
X364834Y200181D01*
X364591D01*
X364384Y200681D01*
X365396Y201693D01*
X365617Y202024D01*
X365624Y202061D01*
X372654Y209090D01*
X372669Y209075D01*
X373287Y208819D01*
X373956D01*
X374574Y209075D01*
X374979Y209480D01*
X375669D01*
Y208228D01*
X379425D01*
Y212772D01*
X379425D01*
Y213228D01*
X379425D01*
Y217772D01*
X375669D01*
Y216989D01*
X375589Y216936D01*
X374921D01*
X374303Y216680D01*
X373830Y216207D01*
X373574Y215589D01*
Y215016D01*
X371434Y212876D01*
X370972Y213068D01*
Y218252D01*
X366339D01*
Y212240D01*
X370145D01*
X370336Y211778D01*
X357575Y199017D01*
X357075Y199224D01*
Y199772D01*
X352925D01*
Y198742D01*
X352834Y198681D01*
X352166D01*
X351548Y198425D01*
X351142Y198020D01*
X349564D01*
X349174Y197942D01*
X348843Y197721D01*
X347777Y196655D01*
X347315Y196846D01*
Y199709D01*
X343165D01*
Y195685D01*
X341165D01*
X340835Y195619D01*
X340706Y195656D01*
X340335Y195914D01*
Y196937D01*
X338260D01*
Y194665D01*
X339070D01*
X339262Y194203D01*
X337739Y192681D01*
X337166D01*
X336548Y192425D01*
X336075Y191952D01*
X335819Y191334D01*
Y190666D01*
X336075Y190048D01*
X336548Y189575D01*
X337166Y189319D01*
X337834D01*
X338452Y189575D01*
X338925Y190048D01*
X338925Y190048D01*
X339425Y189948D01*
Y187452D01*
X339311Y187202D01*
X339047Y186997D01*
X338548D01*
X337930Y186741D01*
X337457Y186268D01*
X337201Y185650D01*
Y184981D01*
X337221Y184933D01*
X336896Y184520D01*
X333831D01*
Y188728D01*
X333831Y188772D01*
Y189228D01*
X333831Y189272D01*
Y193728D01*
X333831Y193772D01*
Y194228D01*
X333831Y194272D01*
Y198728D01*
X333831Y198772D01*
X333831Y199228D01*
X333831Y199272D01*
Y203748D01*
X333831Y203772D01*
X333831D01*
X333784Y204228D01*
X333784D01*
Y208772D01*
X332925D01*
Y209622D01*
X332847Y210013D01*
X332627Y210343D01*
X331249Y211721D01*
X331220Y211740D01*
X331372Y212240D01*
X334358D01*
Y218252D01*
X329224D01*
X324091D01*
Y212520D01*
X324091Y212240D01*
X323682Y212020D01*
X321869D01*
X321546Y212520D01*
X321681Y212847D01*
Y213515D01*
X321425Y214133D01*
X321624Y214598D01*
X322902Y215876D01*
X323123Y216206D01*
X323201Y216597D01*
Y218403D01*
X323123Y218794D01*
X322902Y219124D01*
X322520Y219507D01*
Y226456D01*
X327860Y231796D01*
X328284Y231513D01*
X328100Y231070D01*
X327998Y230295D01*
Y228630D01*
X330992D01*
X333986D01*
Y230295D01*
X333884Y231070D01*
X333585Y231792D01*
X333109Y232412D01*
X332489Y232888D01*
X332267Y232980D01*
X332366Y233480D01*
X363634D01*
X363733Y232980D01*
X363511Y232888D01*
X362891Y232412D01*
X362415Y231792D01*
X362116Y231070D01*
X362014Y230295D01*
Y228630D01*
X365008D01*
X368002D01*
Y230295D01*
X367900Y231070D01*
X367601Y231792D01*
X367125Y232412D01*
X366505Y232888D01*
X366283Y232980D01*
X366382Y233480D01*
X371455D01*
X371503Y233000D01*
X370584Y232619D01*
X369881Y231916D01*
X369500Y230997D01*
Y230003D01*
X369881Y229084D01*
X370584Y228381D01*
X371503Y228000D01*
X372497D01*
X373416Y228381D01*
X374119Y229084D01*
X374500Y230003D01*
Y230997D01*
X374119Y231916D01*
X373416Y232619D01*
X372497Y233000D01*
X372545Y233480D01*
X405956D01*
X411980Y227456D01*
Y225012D01*
X407890D01*
Y218500D01*
Y211988D01*
X411980D01*
Y192757D01*
X412058Y192367D01*
X412279Y192036D01*
X423728Y180587D01*
Y179169D01*
X425224D01*
X425320Y179105D01*
X425710Y179028D01*
X426000D01*
X426390Y179105D01*
X426486Y179169D01*
X428272D01*
Y182773D01*
X430832D01*
X431716Y181889D01*
X431728Y181827D01*
Y179169D01*
X436272D01*
Y182925D01*
X433526D01*
X433449Y183040D01*
X431975Y184514D01*
X431884Y184575D01*
X432036Y185075D01*
X433014D01*
X433110Y185011D01*
X433500Y184933D01*
X433890Y185011D01*
X433986Y185075D01*
X436272D01*
Y188831D01*
X435421D01*
Y193744D01*
X434760D01*
Y198256D01*
X435421D01*
Y203587D01*
X434260D01*
Y205008D01*
X437220Y205008D01*
X437295Y204539D01*
Y204508D01*
X438976D01*
Y209248D01*
Y213988D01*
X437569D01*
X437295Y213988D01*
X437069Y214394D01*
Y215195D01*
X437345Y215471D01*
X439494D01*
X440084Y214881D01*
X441003Y214500D01*
X441997D01*
X442916Y214881D01*
X443619Y215584D01*
X444000Y216503D01*
Y217497D01*
X443619Y218416D01*
X442916Y219119D01*
X441997Y219500D01*
X441003D01*
X440084Y219119D01*
X439494Y218529D01*
X436711D01*
X436126Y218413D01*
X435630Y218081D01*
X434458Y216910D01*
X434126Y216414D01*
X434010Y215828D01*
Y213488D01*
X433858D01*
Y207257D01*
X433358Y206990D01*
X433284Y207040D01*
Y213488D01*
X429921D01*
Y205008D01*
X432050D01*
X432221Y204837D01*
Y204570D01*
X432181Y204087D01*
X430500D01*
Y200921D01*
X429500D01*
Y204087D01*
X427819D01*
Y203587D01*
X426779D01*
Y204338D01*
X427450Y205008D01*
X429347D01*
Y213488D01*
X425984D01*
Y208665D01*
X425965Y208567D01*
Y206816D01*
X425910Y206779D01*
X425410Y207046D01*
Y213488D01*
X425258D01*
Y214095D01*
X431081Y219919D01*
X431413Y220415D01*
X431529Y221000D01*
Y240828D01*
X431413Y241414D01*
X431081Y241910D01*
X424410Y248581D01*
X423914Y248913D01*
X423328Y249029D01*
X377050D01*
X376465Y248913D01*
X375969Y248581D01*
X371612Y244225D01*
X370778D01*
X369859Y243844D01*
X369156Y243141D01*
X368775Y242222D01*
Y241228D01*
X369156Y240309D01*
X369859Y239605D01*
X370778Y239225D01*
X371772D01*
X372691Y239605D01*
X373394Y240309D01*
X373775Y241228D01*
Y242062D01*
X377684Y245971D01*
X407228D01*
X407435Y245471D01*
X407123Y245159D01*
X406743Y244240D01*
Y243245D01*
X407123Y242326D01*
X407827Y241623D01*
X408745Y241243D01*
X409740D01*
X410659Y241623D01*
X411362Y242326D01*
X411743Y243245D01*
Y244240D01*
X411362Y245159D01*
X411050Y245471D01*
X411257Y245971D01*
X422695D01*
X428471Y240195D01*
Y221634D01*
X427830Y220993D01*
X427406Y221276D01*
X427500Y221503D01*
Y222497D01*
X427119Y223416D01*
X426416Y224119D01*
X425497Y224500D01*
X424503D01*
X424106Y224336D01*
X408721Y239721D01*
X408390Y239942D01*
X408000Y240020D01*
X393922D01*
X390681Y243261D01*
Y243834D01*
X390425Y244452D01*
X389952Y244925D01*
X389334Y245181D01*
X388666D01*
X388048Y244925D01*
X387575Y244452D01*
X387319Y243834D01*
Y243166D01*
X387575Y242548D01*
X388048Y242075D01*
X388666Y241819D01*
X389239D01*
X392779Y238279D01*
X393110Y238058D01*
X393500Y237980D01*
X407578D01*
X422664Y222894D01*
X422500Y222497D01*
Y221503D01*
X422881Y220584D01*
X423584Y219881D01*
X424503Y219500D01*
X425497D01*
X425724Y219594D01*
X426007Y219170D01*
X422647Y215810D01*
X422315Y215314D01*
X422199Y214728D01*
Y214091D01*
X421699Y213884D01*
X421463Y214119D01*
X420544Y214500D01*
X419550D01*
X418631Y214119D01*
X417928Y213416D01*
X417547Y212497D01*
Y211503D01*
X417928Y210584D01*
X418110Y210402D01*
Y205008D01*
X421473D01*
Y209508D01*
X421547Y209558D01*
X422047Y209291D01*
Y205008D01*
X422199D01*
Y204343D01*
X422166Y204293D01*
X422049Y203708D01*
Y198923D01*
X420796Y197669D01*
X420503D01*
X419584Y197289D01*
X418881Y196585D01*
X418500Y195667D01*
Y194672D01*
X418881Y193753D01*
X419584Y193050D01*
X420503Y192669D01*
X421497D01*
X422416Y193050D01*
X423119Y193753D01*
X423500Y194672D01*
Y195667D01*
X423388Y195936D01*
X424240Y196788D01*
X424740Y196581D01*
Y193744D01*
X424579D01*
Y188831D01*
X423728D01*
Y186756D01*
X423266Y186565D01*
X415520Y194311D01*
Y228500D01*
X415442Y228890D01*
X415221Y229221D01*
X407721Y236721D01*
X407390Y236942D01*
X407000Y237020D01*
X328500D01*
X328110Y236942D01*
X327779Y236721D01*
X319279Y228221D01*
X319058Y227890D01*
X318980Y227500D01*
Y218858D01*
X318575Y218452D01*
X318319Y217834D01*
Y217166D01*
X318575Y216548D01*
X319048Y216075D01*
X319320Y215962D01*
X319423Y215698D01*
X319458Y215364D01*
X319298Y215123D01*
X319220Y214733D01*
Y214678D01*
X319048Y214606D01*
X318575Y214133D01*
X318319Y213515D01*
Y212847D01*
X318454Y212520D01*
X318131Y212020D01*
X317020D01*
Y228000D01*
X316942Y228390D01*
X316721Y228721D01*
X315296Y230146D01*
X315421Y230728D01*
X315748Y230864D01*
X316221Y231337D01*
X316477Y231955D01*
Y232624D01*
X316221Y233241D01*
X315748Y233714D01*
X315130Y233970D01*
X314556D01*
X303169Y245357D01*
X303391Y245842D01*
X303952Y246075D01*
X304425Y246548D01*
X304681Y247166D01*
Y247834D01*
X304425Y248452D01*
X303952Y248925D01*
X303334Y249181D01*
X302666D01*
X302048Y248925D01*
X301684Y248562D01*
X248816D01*
X248410Y248967D01*
X247792Y249223D01*
X247123D01*
X246505Y248967D01*
X246264Y248726D01*
X245936Y248547D01*
X245610Y248726D01*
X245368Y248969D01*
X244750Y249224D01*
D02*
G37*
G36*
X262752Y216740D02*
X261071D01*
Y212500D01*
X262752D01*
Y216740D01*
D02*
G37*
G36*
X365339Y218252D02*
X360705D01*
Y212240D01*
X365339D01*
Y218252D01*
D02*
G37*
G36*
X457012Y218000D02*
X452378D01*
Y211988D01*
X457012D01*
Y218000D01*
D02*
G37*
G36*
X451378D02*
X446744D01*
Y211988D01*
X451378D01*
Y218000D01*
D02*
G37*
G36*
X406890D02*
X402256D01*
Y211988D01*
X406890D01*
Y218000D01*
D02*
G37*
G36*
X344834Y222181D02*
X344166D01*
X343548Y221925D01*
X343075Y221452D01*
X342819Y220834D01*
Y220166D01*
X343075Y219548D01*
X343548Y219075D01*
X344166Y218819D01*
X344371D01*
X344543Y218646D01*
Y213740D01*
X343882D01*
Y210149D01*
X343383Y209856D01*
X343307Y209984D01*
Y213740D01*
X339945D01*
Y205260D01*
X343307D01*
Y207016D01*
X343383Y207144D01*
X343882Y206851D01*
Y205260D01*
X347000D01*
Y204503D01*
X347381Y203584D01*
X348084Y202881D01*
X349003Y202500D01*
X349997D01*
X350916Y202881D01*
X351619Y203584D01*
X352000Y204503D01*
Y204760D01*
X352937D01*
Y209500D01*
X353437D01*
Y210000D01*
X355618D01*
Y214240D01*
X355271D01*
X355005Y214740D01*
X355181Y215166D01*
Y215834D01*
X354925Y216452D01*
X354452Y216925D01*
X353834Y217181D01*
X353166D01*
X352548Y216925D01*
X352075Y216452D01*
X351819Y215834D01*
Y215166D01*
X351995Y214740D01*
X351729Y214240D01*
X351256D01*
Y214209D01*
X351181Y213740D01*
X347819D01*
Y207290D01*
X347744Y207240D01*
X347244Y207507D01*
Y213740D01*
X346583D01*
Y219068D01*
X346505Y219459D01*
X346284Y219789D01*
X346101Y219972D01*
X346181Y220166D01*
Y220834D01*
X345925Y221452D01*
X345452Y221925D01*
X344834Y222181D01*
D02*
G37*
G36*
X439976Y213988D02*
Y209748D01*
X441657D01*
Y213988D01*
X439976D01*
D02*
G37*
G36*
X573962Y213828D02*
X564604D01*
Y208800D01*
X573962D01*
Y213828D01*
D02*
G37*
G36*
X563604D02*
X554246D01*
Y208800D01*
X563604D01*
Y213828D01*
D02*
G37*
G36*
X156334Y209681D02*
X155666D01*
X155048Y209425D01*
X154575Y208952D01*
X154333Y208367D01*
X154210Y208214D01*
X154008Y207992D01*
X153819Y207992D01*
X150681Y207992D01*
X150669Y207992D01*
X150181Y208021D01*
X150181Y208155D01*
Y208334D01*
X149925Y208952D01*
X149452Y209425D01*
X148834Y209681D01*
X148166D01*
X147548Y209425D01*
X147075Y208952D01*
X146819Y208334D01*
Y207992D01*
X146732D01*
Y199512D01*
X150094D01*
Y207194D01*
X150169Y207274D01*
X150669Y207077D01*
Y199512D01*
X150821D01*
Y190650D01*
X150937Y190064D01*
X151269Y189568D01*
X153500Y187337D01*
Y186503D01*
X153881Y185584D01*
X154584Y184881D01*
X155503Y184500D01*
X156497D01*
X157416Y184881D01*
X158119Y185584D01*
X158500Y186503D01*
Y187497D01*
X158119Y188416D01*
X157416Y189119D01*
X156497Y189500D01*
X155663D01*
X153880Y191283D01*
Y199512D01*
X154032D01*
Y206495D01*
X154532Y206722D01*
X154606Y206657D01*
Y199512D01*
X157968Y199512D01*
X158043Y199043D01*
Y199012D01*
X159724D01*
Y203752D01*
Y208492D01*
X158143D01*
X158043Y208492D01*
X157580Y208580D01*
X157425Y208952D01*
X156952Y209425D01*
X156334Y209681D01*
D02*
G37*
G36*
X128765Y212193D02*
X127770D01*
X126852Y211812D01*
X126148Y211109D01*
X125768Y210190D01*
Y209196D01*
X126148Y208277D01*
X126852Y207574D01*
X127770Y207193D01*
X128765D01*
X129684Y207574D01*
X130387Y208277D01*
X130768Y209196D01*
Y210190D01*
X130387Y211109D01*
X129684Y211812D01*
X128765Y212193D01*
D02*
G37*
G36*
X546091Y210769D02*
X545109D01*
X544202Y210393D01*
X543507Y209698D01*
X543131Y208791D01*
Y207809D01*
X543507Y206902D01*
X544202Y206207D01*
X545109Y205832D01*
X546091D01*
X546998Y206207D01*
X547693Y206902D01*
X548069Y207809D01*
Y208791D01*
X547693Y209698D01*
X546998Y210393D01*
X546091Y210769D01*
D02*
G37*
G36*
X516659Y211261D02*
X515879D01*
X515127Y211059D01*
X514451Y210669D01*
X513900Y210118D01*
X513510Y209443D01*
X513309Y208690D01*
Y207910D01*
X513510Y207157D01*
X513900Y206482D01*
X514451Y205931D01*
X515127Y205541D01*
X515879Y205339D01*
X516659D01*
X517412Y205541D01*
X518087Y205931D01*
X518638Y206482D01*
X519028Y207157D01*
X519230Y207910D01*
Y208690D01*
X519028Y209443D01*
X518638Y210118D01*
X518087Y210669D01*
X517412Y211059D01*
X516659Y211261D01*
D02*
G37*
G36*
X171834Y223681D02*
X171166D01*
X170548Y223425D01*
X170075Y222952D01*
X169819Y222334D01*
Y221666D01*
X170075Y221048D01*
X170480Y220642D01*
Y204772D01*
X169780D01*
Y207992D01*
X166417D01*
Y199512D01*
X169780D01*
Y202732D01*
X170914D01*
X171304Y202810D01*
X171635Y203031D01*
X172221Y203617D01*
X172442Y203948D01*
X172520Y204338D01*
Y220642D01*
X172925Y221048D01*
X173181Y221666D01*
Y222334D01*
X172925Y222952D01*
X172452Y223425D01*
X171834Y223681D01*
D02*
G37*
G36*
X355618Y209000D02*
X353937D01*
Y204760D01*
X355618D01*
Y209000D01*
D02*
G37*
G36*
X441657Y208748D02*
X439976D01*
Y204508D01*
X441657D01*
Y208748D01*
D02*
G37*
G36*
X508895Y213328D02*
X490179D01*
Y203272D01*
X508895D01*
Y213328D01*
D02*
G37*
G36*
X250350Y209260D02*
X245717D01*
Y203248D01*
X246717D01*
Y208260D01*
X250350D01*
Y209260D01*
D02*
G37*
G36*
X573962Y207800D02*
X564604D01*
Y202772D01*
X573962D01*
Y207800D01*
D02*
G37*
G36*
X563604D02*
X554246D01*
Y202772D01*
X563604D01*
Y207800D01*
D02*
G37*
G36*
X462997Y207500D02*
X462003D01*
X461084Y207119D01*
X460381Y206416D01*
X460000Y205497D01*
Y204503D01*
X460381Y203584D01*
X461084Y202881D01*
X462003Y202500D01*
X462997D01*
X463916Y202881D01*
X464619Y203584D01*
X465000Y204503D01*
Y205497D01*
X464619Y206416D01*
X463916Y207119D01*
X462997Y207500D01*
D02*
G37*
G36*
X343834Y204681D02*
X343166D01*
X342548Y204425D01*
X342075Y203952D01*
X341819Y203334D01*
Y202666D01*
X342075Y202048D01*
X342548Y201575D01*
X343166Y201319D01*
X343834D01*
X344452Y201575D01*
X344925Y202048D01*
X345181Y202666D01*
Y203334D01*
X344925Y203952D01*
X344452Y204425D01*
X343834Y204681D01*
D02*
G37*
G36*
X357653Y204181D02*
X356984D01*
X356367Y203925D01*
X355894Y203452D01*
X355638Y202834D01*
Y202166D01*
X355894Y201548D01*
X356367Y201075D01*
X356984Y200819D01*
X357653D01*
X358271Y201075D01*
X358744Y201548D01*
X359000Y202166D01*
Y202834D01*
X358744Y203452D01*
X358271Y203925D01*
X357653Y204181D01*
D02*
G37*
G36*
X144834Y209681D02*
X144166D01*
X143548Y209425D01*
X143075Y208952D01*
X142819Y208334D01*
Y207992D01*
X142795D01*
Y199512D01*
X146158D01*
Y207609D01*
X146181Y207666D01*
Y208334D01*
X145925Y208952D01*
X145452Y209425D01*
X144834Y209681D01*
D02*
G37*
G36*
X340335Y200209D02*
X338260D01*
Y197937D01*
X340335D01*
Y200209D01*
D02*
G37*
G36*
X337260D02*
X335185D01*
Y197937D01*
X337260D01*
Y200209D01*
D02*
G37*
G36*
X246717Y202248D02*
X245717D01*
Y196236D01*
X250350D01*
Y197236D01*
X246717D01*
Y202248D01*
D02*
G37*
G36*
X133272Y201012D02*
X128638D01*
Y195000D01*
X133272D01*
Y201012D01*
D02*
G37*
G36*
X185634D02*
X181000D01*
Y195000D01*
X185634D01*
Y201012D01*
D02*
G37*
G36*
X180000D02*
X175366D01*
Y195000D01*
X180000D01*
Y201012D01*
D02*
G37*
G36*
X127638D02*
X123004D01*
Y195000D01*
X127638D01*
Y201012D01*
D02*
G37*
G36*
X337260Y196937D02*
X335185D01*
Y194665D01*
X337260D01*
Y196937D01*
D02*
G37*
G36*
X232772Y195972D02*
X228228D01*
Y192217D01*
X228819D01*
Y191792D01*
X229075Y191174D01*
X229548Y190701D01*
X230166Y190445D01*
X230834D01*
X231452Y190701D01*
X231925Y191174D01*
X232181Y191792D01*
Y192217D01*
X232772D01*
Y195972D01*
D02*
G37*
G36*
X257834Y193681D02*
X257166D01*
X256548Y193425D01*
X256075Y192952D01*
X255819Y192334D01*
Y191666D01*
X256075Y191048D01*
X256548Y190575D01*
X257166Y190319D01*
X257834D01*
X258452Y190575D01*
X258925Y191048D01*
X259181Y191666D01*
Y192334D01*
X258925Y192952D01*
X258452Y193425D01*
X257834Y193681D01*
D02*
G37*
G36*
X361315Y192398D02*
X359240D01*
Y190126D01*
X361315D01*
Y192398D01*
D02*
G37*
G36*
X492473Y197488D02*
X491377D01*
X490319Y197205D01*
X489370Y196657D01*
X488595Y195882D01*
X488047Y194933D01*
X487764Y193875D01*
Y192779D01*
X488047Y191720D01*
X488595Y190772D01*
X489370Y189997D01*
X490319Y189449D01*
X491377Y189165D01*
X492473D01*
X493531Y189449D01*
X494480Y189997D01*
X495255Y190772D01*
X495803Y191720D01*
X496087Y192779D01*
Y193875D01*
X495803Y194933D01*
X495255Y195882D01*
X494480Y196657D01*
X493531Y197205D01*
X492473Y197488D01*
D02*
G37*
G36*
X185634Y194000D02*
X181000D01*
Y187988D01*
X185634D01*
Y194000D01*
D02*
G37*
G36*
X180000D02*
X175366D01*
Y187988D01*
X180000D01*
Y194000D01*
D02*
G37*
G36*
X133272D02*
X128638D01*
Y187988D01*
X133272D01*
Y194000D01*
D02*
G37*
G36*
X127638D02*
X123004D01*
Y187988D01*
X127638D01*
Y194000D01*
D02*
G37*
G36*
X160724Y208492D02*
Y203752D01*
Y199012D01*
X162406D01*
Y199043D01*
X162427Y199177D01*
X162959Y199341D01*
X163142Y199158D01*
Y189339D01*
X163219Y188948D01*
X163441Y188618D01*
X164279Y187779D01*
X164610Y187558D01*
X165000Y187480D01*
X168142D01*
X168548Y187075D01*
X169166Y186819D01*
X169834D01*
X170452Y187075D01*
X170925Y187548D01*
X171181Y188166D01*
Y188834D01*
X170925Y189452D01*
X170452Y189925D01*
X169834Y190181D01*
X169166D01*
X168548Y189925D01*
X168142Y189520D01*
X165422D01*
X165181Y189761D01*
Y199512D01*
X165842D01*
Y207992D01*
X162480Y207992D01*
X162406Y208461D01*
Y208492D01*
X160724D01*
D02*
G37*
G36*
X458997Y249500D02*
X458003D01*
X457084Y249119D01*
X456381Y248416D01*
X456000Y247497D01*
Y246503D01*
X456381Y245584D01*
X457084Y244881D01*
X458003Y244500D01*
X458837D01*
X466471Y236866D01*
Y220634D01*
X442238Y196400D01*
X441906Y195904D01*
X441789Y195319D01*
Y184953D01*
X441290Y184746D01*
X440916Y185119D01*
X439997Y185500D01*
X439003D01*
X438084Y185119D01*
X437381Y184416D01*
X437000Y183497D01*
Y182503D01*
X437381Y181584D01*
X438084Y180881D01*
X439003Y180500D01*
X439997D01*
X440916Y180881D01*
X441290Y181254D01*
X441789Y181047D01*
Y157395D01*
X441906Y156810D01*
X442238Y156314D01*
X445161Y153391D01*
Y152556D01*
X445541Y151638D01*
X446244Y150934D01*
X447163Y150554D01*
X448158D01*
X449077Y150934D01*
X449780Y151638D01*
X450161Y152556D01*
Y153551D01*
X449780Y154470D01*
X449077Y155173D01*
X448158Y155554D01*
X447323D01*
X444848Y158029D01*
Y159621D01*
X445348Y159950D01*
X445666Y159819D01*
X446334D01*
X446952Y160075D01*
X447358Y160480D01*
X481578D01*
X485279Y156779D01*
X485610Y156558D01*
X486000Y156480D01*
X488547D01*
Y153811D01*
X495453D01*
Y160716D01*
X488547D01*
Y158520D01*
X486422D01*
X482721Y162221D01*
X482390Y162442D01*
X482000Y162520D01*
X447358D01*
X446952Y162925D01*
X446334Y163181D01*
X445666D01*
X445348Y163050D01*
X444848Y163379D01*
Y194685D01*
X469081Y218919D01*
X469413Y219415D01*
X469529Y220000D01*
Y237500D01*
X469413Y238085D01*
X469081Y238581D01*
X461000Y246663D01*
Y247497D01*
X460619Y248416D01*
X459916Y249119D01*
X458997Y249500D01*
D02*
G37*
G36*
X389755Y184871D02*
X389086D01*
X388468Y184615D01*
X388316Y184463D01*
X387989Y184148D01*
X387663Y184463D01*
X387510Y184615D01*
X386892Y184871D01*
X386224D01*
X385606Y184615D01*
X385133Y184142D01*
X384877Y183524D01*
Y182855D01*
X385133Y182238D01*
X385606Y181765D01*
X386224Y181509D01*
X386575D01*
X408305Y159779D01*
X408635Y159558D01*
X409025Y159480D01*
X413311D01*
X413319Y159472D01*
Y159166D01*
X413575Y158548D01*
X414048Y158075D01*
X414666Y157819D01*
X415334D01*
X415952Y158075D01*
X416173Y158296D01*
X416500Y158501D01*
X416827Y158296D01*
X417048Y158075D01*
X417666Y157819D01*
X418334D01*
X418952Y158075D01*
X419425Y158548D01*
X419681Y159166D01*
Y159834D01*
X419425Y160452D01*
X418952Y160925D01*
X418334Y161181D01*
X417845D01*
X416305Y162721D01*
X415975Y162942D01*
X415585Y163020D01*
X410069D01*
X390847Y182242D01*
X391101Y182855D01*
Y183524D01*
X390845Y184142D01*
X390372Y184615D01*
X389755Y184871D01*
D02*
G37*
G36*
X204252Y187740D02*
X202571D01*
Y183500D01*
X204252D01*
Y187740D01*
D02*
G37*
G36*
Y182500D02*
X202571D01*
Y178260D01*
X204252D01*
Y182500D01*
D02*
G37*
G36*
X492520Y181217D02*
X492500D01*
Y177764D01*
X495953D01*
Y177784D01*
X495683Y178789D01*
X495163Y179691D01*
X494427Y180427D01*
X493526Y180947D01*
X492520Y181217D01*
D02*
G37*
G36*
X491500D02*
X491480D01*
X490474Y180947D01*
X489573Y180427D01*
X488837Y179691D01*
X488317Y178789D01*
X488047Y177784D01*
Y177764D01*
X491500D01*
Y181217D01*
D02*
G37*
G36*
X126497Y182000D02*
X125503D01*
X124584Y181619D01*
X123881Y180916D01*
X123500Y179997D01*
Y179003D01*
X123881Y178084D01*
X124584Y177381D01*
X125503Y177000D01*
X126497D01*
X127416Y177381D01*
X128119Y178084D01*
X128500Y179003D01*
Y179997D01*
X128119Y180916D01*
X127416Y181619D01*
X126497Y182000D01*
D02*
G37*
G36*
X191850Y180260D02*
X187216D01*
Y174248D01*
X191850D01*
Y180260D01*
D02*
G37*
G36*
X241972D02*
X237339D01*
Y174248D01*
X241972D01*
Y180260D01*
D02*
G37*
G36*
X236339D02*
X231705D01*
Y174248D01*
X236339D01*
Y180260D01*
D02*
G37*
G36*
X495953Y176764D02*
X492500D01*
Y173311D01*
X492520D01*
X493526Y173580D01*
X494427Y174101D01*
X495163Y174837D01*
X495683Y175738D01*
X495953Y176743D01*
Y176764D01*
D02*
G37*
G36*
X491500D02*
X488047D01*
Y176743D01*
X488317Y175738D01*
X488837Y174837D01*
X489573Y174101D01*
X490474Y173580D01*
X491480Y173311D01*
X491500D01*
Y176764D01*
D02*
G37*
G36*
X374878Y174386D02*
X370244D01*
Y168374D01*
X374878D01*
Y174386D01*
D02*
G37*
G36*
X369244D02*
X364610D01*
Y168374D01*
X369244D01*
Y174386D01*
D02*
G37*
G36*
X324756D02*
X320122D01*
Y168374D01*
X324756D01*
Y174386D01*
D02*
G37*
G36*
X447834Y171181D02*
X447166D01*
X446548Y170925D01*
X446075Y170452D01*
X445819Y169834D01*
Y169166D01*
X446075Y168548D01*
X446548Y168075D01*
X447166Y167819D01*
X447834D01*
X448452Y168075D01*
X448925Y168548D01*
X449181Y169166D01*
Y169834D01*
X448925Y170452D01*
X448452Y170925D01*
X447834Y171181D01*
D02*
G37*
G36*
X241972Y173248D02*
X237339D01*
Y167236D01*
X241972D01*
Y173248D01*
D02*
G37*
G36*
X236339D02*
X231705D01*
Y167236D01*
X236339D01*
Y173248D01*
D02*
G37*
G36*
X430834Y168681D02*
X430166D01*
X429548Y168425D01*
X429075Y167952D01*
X428819Y167334D01*
Y166666D01*
X429075Y166048D01*
X429548Y165575D01*
X430166Y165319D01*
X430834D01*
X431452Y165575D01*
X431925Y166048D01*
X432181Y166666D01*
Y167334D01*
X431925Y167952D01*
X431452Y168425D01*
X430834Y168681D01*
D02*
G37*
G36*
X492455Y170717D02*
X491545D01*
X490667Y170481D01*
X489880Y170027D01*
X489237Y169384D01*
X488783Y168596D01*
X488547Y167718D01*
Y166809D01*
X488783Y165931D01*
X489237Y165144D01*
X489880Y164501D01*
X490667Y164046D01*
X491545Y163811D01*
X492455D01*
X493333Y164046D01*
X494120Y164501D01*
X494763Y165144D01*
X495218Y165931D01*
X495453Y166809D01*
Y167718D01*
X495218Y168596D01*
X494763Y169384D01*
X494120Y170027D01*
X493333Y170481D01*
X492455Y170717D01*
D02*
G37*
G36*
X374878Y167374D02*
X370244D01*
Y161362D01*
X374878D01*
Y167374D01*
D02*
G37*
G36*
X369244D02*
X364610D01*
Y161362D01*
X369244D01*
Y167374D01*
D02*
G37*
G36*
X434543Y161122D02*
Y159468D01*
X436197D01*
X435892Y160204D01*
X435279Y160818D01*
X434543Y161122D01*
D02*
G37*
G36*
X426457D02*
X425721Y160818D01*
X425108Y160204D01*
X424803Y159468D01*
X426457D01*
Y161122D01*
D02*
G37*
G36*
X329334Y155681D02*
X328666D01*
X328048Y155425D01*
X327575Y154952D01*
X327319Y154334D01*
Y153666D01*
X327575Y153048D01*
X328048Y152575D01*
X328666Y152319D01*
X329334D01*
X329952Y152575D01*
X330425Y153048D01*
X330681Y153666D01*
Y154334D01*
X330425Y154952D01*
X329952Y155425D01*
X329334Y155681D01*
D02*
G37*
G36*
X398334Y150181D02*
X397666D01*
X397048Y149925D01*
X396575Y149452D01*
X396319Y148834D01*
Y148166D01*
X396575Y147548D01*
X397048Y147075D01*
X397666Y146819D01*
X398334D01*
X398952Y147075D01*
X399425Y147548D01*
X399681Y148166D01*
Y148834D01*
X399425Y149452D01*
X398952Y149925D01*
X398334Y150181D01*
D02*
G37*
G36*
X374334Y149681D02*
X373666D01*
X373048Y149425D01*
X372575Y148952D01*
X372319Y148334D01*
Y147666D01*
X372575Y147048D01*
X373048Y146575D01*
X373666Y146319D01*
X374334D01*
X374952Y146575D01*
X375425Y147048D01*
X375681Y147666D01*
Y148334D01*
X375425Y148952D01*
X374952Y149425D01*
X374334Y149681D01*
D02*
G37*
G36*
X348792Y149639D02*
X348123D01*
X347505Y149383D01*
X347033Y148910D01*
X346777Y148292D01*
Y147623D01*
X347033Y147005D01*
X347505Y146533D01*
X348123Y146277D01*
X348792D01*
X349410Y146533D01*
X349883Y147005D01*
X350139Y147623D01*
Y148292D01*
X349883Y148910D01*
X349410Y149383D01*
X348792Y149639D01*
D02*
G37*
G36*
X620700Y150567D02*
X602700D01*
Y144500D01*
X620700D01*
Y150567D01*
D02*
G37*
G36*
X688000Y249500D02*
X627000D01*
Y143500D01*
X688000D01*
Y249500D01*
D02*
G37*
%LPD*%
G36*
X211422Y246480D02*
X211075Y246133D01*
X210819Y245515D01*
Y244847D01*
X211075Y244229D01*
X211480Y243823D01*
Y237169D01*
X211035Y236948D01*
X210998Y236944D01*
X205520Y242422D01*
Y243823D01*
X205925Y244229D01*
X206181Y244847D01*
Y245515D01*
X205925Y246133D01*
X205578Y246480D01*
X205756Y246980D01*
X211244D01*
X211422Y246480D01*
D02*
G37*
G36*
X227422D02*
X227075Y246133D01*
X226819Y245515D01*
Y244847D01*
X227075Y244229D01*
X227480Y243823D01*
Y238422D01*
X222002Y232944D01*
X221965Y232948D01*
X221520Y233169D01*
Y243823D01*
X221925Y244229D01*
X222181Y244847D01*
Y245515D01*
X221925Y246133D01*
X221578Y246480D01*
X221756Y246980D01*
X227244D01*
X227422Y246480D01*
D02*
G37*
G36*
X219422D02*
X219075Y246133D01*
X218819Y245515D01*
Y244847D01*
X219075Y244229D01*
X219480Y243823D01*
Y233422D01*
X218805Y232747D01*
X218761Y232721D01*
X218239D01*
X218195Y232747D01*
X213520Y237422D01*
Y243823D01*
X213925Y244229D01*
X214181Y244847D01*
Y245515D01*
X213925Y246133D01*
X213578Y246480D01*
X213756Y246980D01*
X219244D01*
X219422Y246480D01*
D02*
G37*
G36*
X311641Y234001D02*
X311559Y233720D01*
X311416Y233520D01*
X294879D01*
X294489Y233442D01*
X294158Y233221D01*
X291279Y230342D01*
X291058Y230012D01*
X290980Y229621D01*
Y228921D01*
X289441D01*
Y229733D01*
X289363Y230123D01*
X289142Y230454D01*
X288556Y231040D01*
X288226Y231261D01*
X287836Y231339D01*
X280520D01*
Y243205D01*
X280442Y243595D01*
X280221Y243926D01*
X279628Y244518D01*
X279820Y244980D01*
X300662D01*
X311641Y234001D01*
D02*
G37*
G36*
X390941Y212563D02*
X397059D01*
X397480Y212373D01*
Y208510D01*
X396980Y208444D01*
X396851Y208929D01*
X396448Y209626D01*
X395878Y210196D01*
X395181Y210599D01*
X394403Y210807D01*
X393597D01*
X392819Y210599D01*
X392525Y210429D01*
X391733Y211221D01*
X391402Y211442D01*
X391012Y211520D01*
X385331D01*
Y212772D01*
X385331D01*
Y213228D01*
X385331D01*
Y214602D01*
X390941D01*
Y212563D01*
D02*
G37*
G36*
X305539Y216240D02*
X304878D01*
Y207760D01*
X308240D01*
Y216240D01*
X307579D01*
Y218048D01*
X308079Y218066D01*
X308903Y217242D01*
Y194340D01*
X308402Y194133D01*
X308069Y194467D01*
Y196461D01*
X307952Y197046D01*
X307621Y197542D01*
X297865Y207298D01*
X298056Y207760D01*
X300366D01*
Y212583D01*
X300386Y212681D01*
Y215374D01*
X300441Y215411D01*
X300941Y215143D01*
Y207760D01*
X304303D01*
Y216240D01*
X303642D01*
Y216972D01*
X303721Y217051D01*
X303942Y217382D01*
X303996Y217654D01*
X304177Y218079D01*
X305539D01*
Y216240D01*
D02*
G37*
G36*
X397480Y206986D02*
Y200636D01*
X396980Y200570D01*
X396851Y201055D01*
X396448Y201752D01*
X395878Y202322D01*
X395181Y202725D01*
X394403Y202933D01*
X393597D01*
X392819Y202725D01*
X392122Y202322D01*
X391552Y201752D01*
X391149Y201055D01*
X391123Y200957D01*
X389087D01*
Y201681D01*
X389087D01*
Y202059D01*
X389087D01*
Y205421D01*
X388070D01*
X387863Y205921D01*
X388922Y206980D01*
X391039D01*
X391149Y206567D01*
X391552Y205870D01*
X392122Y205300D01*
X392819Y204897D01*
X393597Y204689D01*
X394403D01*
X395181Y204897D01*
X395878Y205300D01*
X396448Y205870D01*
X396851Y206567D01*
X396980Y207052D01*
X397480Y206986D01*
D02*
G37*
G36*
X373913Y202181D02*
X373413D01*
Y200500D01*
X376579D01*
Y199500D01*
X373413D01*
Y197819D01*
X373913D01*
Y196731D01*
X369481Y192299D01*
X369020Y192491D01*
Y199078D01*
X372662Y202721D01*
X373913D01*
Y202181D01*
D02*
G37*
G36*
X328865Y200779D02*
X329196Y200558D01*
X329586Y200480D01*
X330075D01*
Y199272D01*
X330075Y199228D01*
X330075Y198772D01*
X330075Y198728D01*
Y198143D01*
X329548Y197925D01*
X329075Y197452D01*
X328819Y196834D01*
Y196166D01*
X329075Y195548D01*
X329548Y195075D01*
X330075Y194857D01*
Y194272D01*
X330075Y194228D01*
Y193772D01*
X330075Y193728D01*
Y193095D01*
X329582Y192891D01*
X329109Y192418D01*
X328853Y191800D01*
Y191131D01*
X329109Y190513D01*
X329582Y190040D01*
X330075Y189836D01*
Y189272D01*
X330075Y189228D01*
Y188772D01*
X330075Y188728D01*
Y188144D01*
X329548Y187925D01*
X329075Y187452D01*
X328819Y186834D01*
Y186166D01*
X329075Y185548D01*
X329548Y185075D01*
X329681Y185020D01*
X329582Y184520D01*
X327925D01*
Y188772D01*
X327925D01*
Y189228D01*
X327925D01*
Y193772D01*
X327925D01*
Y194228D01*
X327925D01*
Y198772D01*
X327925D01*
X327925Y199228D01*
X327925D01*
Y201012D01*
X328425Y201219D01*
X328865Y200779D01*
D02*
G37*
G36*
X619559Y146859D02*
X620186D01*
Y146013D01*
X619559D01*
Y145000D01*
X618626D01*
Y146013D01*
X616555D01*
Y146852D01*
X618742Y150067D01*
X619559D01*
Y146859D01*
D02*
G37*
G36*
X604170Y145000D02*
X603200D01*
Y145970D01*
X604170D01*
Y145000D01*
D02*
G37*
%LPC*%
G36*
X618626Y148594D02*
X617452Y146859D01*
X618626D01*
Y148594D01*
D02*
G37*
%LPD*%
D13*
X675500Y174500D02*
X680634D01*
X675500D02*
Y179634D01*
X670366Y174500D02*
X675500D01*
Y169366D02*
Y174500D01*
X164161Y189339D02*
Y203752D01*
X165000Y188500D02*
X169500D01*
X164161Y189339D02*
X165000Y188500D01*
X503500Y207000D02*
X507500Y211000D01*
X222740Y193441D02*
X223421Y192760D01*
X220500Y189500D02*
Y189767D01*
X221720Y193441D02*
X222740D01*
X220256Y194905D02*
Y204122D01*
Y194905D02*
X221720Y193441D01*
X221500Y217417D02*
X221543D01*
X225315Y213646D01*
Y205228D02*
Y213646D01*
X221500Y231000D02*
X228500Y238000D01*
X221500Y217417D02*
Y231000D01*
X229228Y200878D02*
X229986Y200120D01*
X229228Y200878D02*
Y201272D01*
X225315Y205185D02*
X229228Y201272D01*
X211728Y213644D02*
X215500Y217415D01*
Y231000D01*
X211728Y205228D02*
Y213644D01*
X204500Y242000D02*
X215500Y231000D01*
X206500Y199906D02*
X206547Y199953D01*
X220500Y233000D02*
Y245181D01*
X216744Y203890D02*
X217500Y204646D01*
X219500Y204878D02*
X220256Y204122D01*
X219500Y232000D02*
X220500Y233000D01*
X217500Y204646D02*
Y232000D01*
X219500Y204878D02*
Y232000D01*
X212500Y237000D02*
X217500Y232000D01*
X199000Y189500D02*
X203594Y194095D01*
X206500D01*
X224526Y200120D02*
X229986D01*
X230106Y200000D01*
X230500D01*
X206966Y200073D02*
X207772Y200878D01*
X206894Y200000D02*
X206966Y200073D01*
X206500Y200000D02*
X206894D01*
X206966Y200073D02*
X212427D01*
X207772Y201272D02*
X211728Y205228D01*
X207772Y200878D02*
Y201272D01*
X224526Y200120D02*
X225843Y198802D01*
X223541Y200120D02*
X224526D01*
X223421Y200240D02*
X223541Y200120D01*
X212427Y200073D02*
X213411D01*
X211157Y198802D02*
X212427Y200073D01*
X213411D02*
X213579Y200240D01*
X224437Y187000D02*
Y189500D01*
X225843Y198802D02*
X225880D01*
X220256Y204122D02*
X221181Y205047D01*
X204500Y242000D02*
Y245181D01*
X216744Y194905D02*
Y203890D01*
X215686Y204948D02*
X216744Y203890D01*
X220500Y188000D02*
Y189500D01*
X199000Y172000D02*
X205500Y165500D01*
X199000Y172000D02*
Y189500D01*
X210413Y198095D02*
X211121Y198802D01*
X211157D01*
X210413Y191165D02*
Y198095D01*
X212626Y187437D02*
Y189500D01*
X224437Y183000D02*
Y187000D01*
X215280Y193441D02*
X216744Y194905D01*
X213579Y192760D02*
X214260Y193441D01*
X215280D01*
X224859Y189437D02*
X226587Y191165D01*
Y198095D01*
X224500Y189437D02*
X224859D01*
X225880Y198802D02*
X226587Y198095D01*
X212365Y189761D02*
X212626Y189500D01*
X210413Y191165D02*
X211817Y189761D01*
X212365D01*
X216302D02*
Y191021D01*
Y189761D02*
X216563Y189500D01*
X213579Y192760D02*
X214563D01*
X216302Y191021D01*
X220500Y187000D02*
Y188000D01*
X220761Y191084D02*
X222437Y192760D01*
X220500Y189500D02*
X220761Y189761D01*
X222437Y192760D02*
X223421D01*
X220761Y189761D02*
Y191084D01*
X165000Y164000D02*
X187500Y186500D01*
X128000Y164000D02*
X165000D01*
X187500Y223500D02*
X201000Y237000D01*
X187500Y186500D02*
Y223500D01*
X201000Y237000D02*
Y246000D01*
X238500Y248000D02*
X252500Y234000D01*
X203000Y248000D02*
X238500D01*
X252500Y234000D02*
X258000D01*
X201000Y246000D02*
X203000Y248000D01*
X389000Y243500D02*
X393500Y239000D01*
X408000D01*
X425000Y222000D01*
X407000Y236000D02*
X414500Y228500D01*
X328500Y236000D02*
X407000D01*
X329121Y234500D02*
X406379D01*
X413000Y192757D02*
Y227879D01*
X406379Y234500D02*
X413000Y227879D01*
X414500Y193889D02*
Y228500D01*
Y193889D02*
X424596Y183793D01*
X321500Y226879D02*
X329121Y234500D01*
X320000Y227500D02*
X328500Y236000D01*
X413000Y192757D02*
X425710Y180047D01*
X426000D01*
X316019Y175019D02*
Y177396D01*
X306500Y165500D02*
X316019Y175019D01*
X316017Y183362D02*
X320379Y179000D01*
X321000Y180500D02*
X327932D01*
X338882Y184947D02*
Y185316D01*
X277517Y184862D02*
X316638D01*
X317259Y186362D02*
X321621Y182000D01*
X314638Y181862D02*
X319000Y177500D01*
X205500Y165500D02*
X306500D01*
X316638Y184862D02*
X321000Y180500D01*
X319000Y177500D02*
X326690D01*
X337733Y183798D02*
X338882Y184947D01*
X321621Y182000D02*
X341050D01*
X320379Y179000D02*
X327311D01*
X232138Y183362D02*
X316017D01*
X229500Y181862D02*
X314638D01*
X278138Y186362D02*
X317259D01*
X318138Y187862D02*
X322500Y183500D01*
X337733D01*
Y183798D01*
X354819Y189500D02*
X358614D01*
X230761Y184739D02*
X232138Y183362D01*
X336500Y161500D02*
Y163500D01*
X331500Y168500D02*
X336500Y163500D01*
X331500Y168500D02*
Y172690D01*
X334500Y169743D02*
X351743Y152500D01*
X351121Y151000D02*
X365000D01*
X351743Y152500D02*
X434596D01*
X333000Y169121D02*
X351121Y151000D01*
X333000Y169121D02*
Y173311D01*
X334500Y169743D02*
Y173932D01*
X424596Y183793D02*
X431254D01*
X372361Y210239D02*
X373361D01*
X373621Y210500D01*
X258652Y202783D02*
X259595D01*
X277517Y184862D01*
X257869Y202000D02*
X258652Y202783D01*
X257500Y212000D02*
X260000Y209500D01*
X257500Y202000D02*
X257869D01*
X260000Y206621D02*
Y209500D01*
X363624Y185000D02*
X376088Y197464D01*
X385437Y196260D02*
X397260D01*
X384233Y197464D02*
X385437Y196260D01*
X376088Y197464D02*
X384233D01*
X316586Y211000D02*
X330528D01*
X314500Y210964D02*
Y227379D01*
X310879Y231000D02*
X314500Y227379D01*
X293500Y229000D02*
X295500Y231000D01*
X316000Y211586D02*
X316586Y211000D01*
X315965Y209500D02*
X327564D01*
X314500Y210964D02*
X315965Y209500D01*
X316000Y211586D02*
Y228000D01*
X311500Y232500D02*
X316000Y228000D01*
X313586Y193000D02*
X321000D01*
X310257Y229500D02*
X313000Y226757D01*
X307827Y219760D02*
X309922Y217665D01*
X313000Y193586D02*
X313586Y193000D01*
X311491Y192595D02*
X312586Y191500D01*
X309922Y191578D02*
X311500Y190000D01*
X309922Y191578D02*
Y217665D01*
X311491Y192595D02*
Y226145D01*
X310396Y227240D02*
X311491Y226145D01*
X313000Y193586D02*
Y226757D01*
X306842Y219760D02*
X307827D01*
X446000Y161500D02*
X482000D01*
X356761Y194500D02*
X364675Y202414D01*
X349185Y194500D02*
X356761D01*
X355000Y197500D02*
X357500D01*
X375255Y215255D01*
X373621Y210500D02*
X377547D01*
X364675Y202414D02*
Y202554D01*
X372361Y210239D01*
X248361Y245361D02*
X249000Y246000D01*
X246554Y245361D02*
X248361D01*
X244415Y247500D02*
X246554Y245361D01*
X249000Y246000D02*
X301084D01*
X302958Y247542D02*
X303000Y247500D01*
X247458Y247542D02*
X302958D01*
X301084Y246000D02*
X314795Y232289D01*
X244415Y247500D02*
Y247543D01*
X263394Y241953D02*
X265941Y244500D01*
X278205D01*
X279500Y243205D01*
X277414Y241953D02*
X278000Y241367D01*
X268000Y241953D02*
X277414D01*
X278000Y227921D02*
Y241367D01*
X273000Y221500D02*
Y227047D01*
Y221500D02*
X274740Y219760D01*
X294879Y232500D02*
X311500D01*
X292000Y229621D02*
X294879Y232500D01*
X297000Y227240D02*
Y229000D01*
X297500Y229500D02*
X310257D01*
X297000Y229000D02*
X297500Y229500D01*
X295500Y231000D02*
X310879D01*
X293500Y221027D02*
Y229000D01*
X306842Y227240D02*
X310396D01*
X297000D02*
X297681Y226559D01*
X292000Y221500D02*
Y229621D01*
X347850Y193165D02*
X349185Y194500D01*
X347665Y193165D02*
X347850D01*
X349564Y197000D02*
X352197D01*
X346000Y191500D02*
X347665Y193165D01*
X352197Y197000D02*
X352500Y197303D01*
X341165Y194665D02*
X347229D01*
X349564Y197000D01*
X337500Y191000D02*
X341165Y194665D01*
X352500Y197303D02*
X352803Y197000D01*
X354500D02*
X355000Y197500D01*
X352803Y197000D02*
X354500D01*
X413733Y160500D02*
X414733Y159500D01*
X409025Y160500D02*
X413733D01*
X386558Y182967D02*
X409025Y160500D01*
X409647Y162000D02*
X415585D01*
X414733Y159500D02*
X415000D01*
X415585Y162000D02*
X418000Y159584D01*
X389681Y181966D02*
X409647Y162000D01*
X418000Y159500D02*
Y159584D01*
X389681Y181966D02*
Y182929D01*
X389420Y183190D02*
X389681Y182929D01*
X386558Y182967D02*
Y183190D01*
X438500Y156404D02*
Y164500D01*
X434596Y152500D02*
X438500Y156404D01*
X365000Y151000D02*
X368000Y148000D01*
X363000Y186500D02*
X368000Y191500D01*
X349500Y177157D02*
Y183000D01*
X351500Y185000D02*
X363624D01*
X348000Y186500D02*
X363000D01*
X349500Y183000D02*
X351500Y185000D01*
X368000Y191500D02*
Y199500D01*
X372240Y203740D01*
X375255Y215255D02*
X377302D01*
X372240Y203740D02*
X376579D01*
X386421D01*
X345532Y184031D02*
X348000Y186500D01*
X345532Y177126D02*
Y184031D01*
X433740Y191079D02*
Y200921D01*
X433500Y185953D02*
X433740Y186193D01*
Y191079D01*
X140500Y210500D02*
X152000Y222000D01*
X341050Y182000D02*
X342500Y183450D01*
X326690Y177500D02*
X331500Y172690D01*
X327311Y179000D02*
X333000Y173311D01*
X327932Y180500D02*
X334500Y173932D01*
X342500Y183450D02*
Y183819D01*
X278759Y187862D02*
X318138D01*
X260000Y206621D02*
X278759Y187862D01*
X257500Y207000D02*
X278138Y186362D01*
X321000Y190000D02*
X323755Y187245D01*
X321000Y193000D02*
X323755Y195755D01*
X325302D02*
X326047Y196500D01*
X323755Y195755D02*
X325302D01*
X325302Y187245D02*
X326047Y186500D01*
X323755Y187245D02*
X325302D01*
X311500Y190000D02*
X321000D01*
X346000Y191500D02*
Y191500D01*
X312586Y191500D02*
X326047D01*
X212500Y237000D02*
Y245181D01*
X228500Y238000D02*
Y245181D01*
X212563Y187437D02*
Y189437D01*
X212626Y189500D01*
Y183000D02*
Y187437D01*
X216563Y183000D02*
Y189500D01*
X220500Y183000D02*
Y187000D01*
X224437Y189500D02*
X224500Y189437D01*
Y187000D02*
Y189437D01*
X212563Y183063D02*
Y187437D01*
X358614Y189500D02*
X358740Y189626D01*
X344358Y189858D02*
X346000Y191500D01*
X341795Y189858D02*
X344358D01*
X341500Y189563D02*
X341795Y189858D01*
X377302Y215255D02*
X377547Y215500D01*
X431254Y183793D02*
X432728Y182319D01*
Y181925D02*
Y182319D01*
Y181925D02*
X433606Y181047D01*
X434000D01*
X397914Y215622D02*
X398500Y215036D01*
X394000Y215622D02*
X397914D01*
X398500Y197500D02*
Y215036D01*
X397260Y196260D02*
X398500Y197500D01*
X320240Y214733D02*
X320825Y215319D01*
X320000Y213181D02*
X320240Y213421D01*
X321500Y219085D02*
Y226879D01*
X320240Y213421D02*
Y214733D01*
X320903Y215319D02*
X322181Y216597D01*
X321500Y219085D02*
X322181Y218403D01*
X320825Y215319D02*
X320903D01*
X322181Y216597D02*
Y218403D01*
X320000Y217500D02*
Y227500D01*
X327564Y209500D02*
X328689Y208375D01*
X330528Y211000D02*
X331906Y209622D01*
X171500Y204338D02*
Y222000D01*
X170914Y203752D02*
X171500Y204338D01*
X168098Y203752D02*
X170914D01*
X274740Y219760D02*
X278579D01*
X281441Y226559D02*
X282500Y225500D01*
Y217879D02*
X282937Y217442D01*
X284000Y224500D02*
X286059Y226559D01*
X282500Y217879D02*
Y225500D01*
X284000Y218500D02*
X286193Y216307D01*
X284000Y218500D02*
Y224500D01*
X278539Y227382D02*
X278579D01*
X282937Y212000D02*
Y217442D01*
X279260Y226559D02*
X281441D01*
X278579Y227240D02*
X279260Y226559D01*
X303000Y225500D02*
X304059Y226559D01*
X302622Y217394D02*
X303000Y217772D01*
X299441Y226559D02*
X301500Y224500D01*
Y218393D02*
Y224500D01*
X303000Y217772D02*
Y225500D01*
X302622Y212000D02*
Y217394D01*
X299366Y216259D02*
X301500Y218393D01*
X344500Y220131D02*
X345563Y219068D01*
Y209500D02*
Y219068D01*
X344500Y220131D02*
Y220500D01*
X331906Y206500D02*
Y209622D01*
X386484Y199937D02*
X393937D01*
X394000Y199874D01*
X386421Y200000D02*
X386484Y199937D01*
X425760Y200921D02*
Y204760D01*
Y191079D02*
Y200921D01*
X426260Y186713D02*
Y191079D01*
X425500Y185953D02*
X426260Y186713D01*
X433240Y200921D02*
Y205260D01*
X426984Y208567D02*
X427665Y209248D01*
X425760Y204760D02*
X426984Y205984D01*
Y208567D01*
X431602Y206689D02*
Y209248D01*
X432283Y206008D02*
X432492D01*
X431602Y206689D02*
X432283Y206008D01*
X432492D02*
X433240Y205260D01*
X349468Y177126D02*
X349500Y177157D01*
X491764Y157500D02*
X492000Y157264D01*
X486000Y157500D02*
X491764D01*
X482000Y161500D02*
X486000Y157500D01*
X140500Y204978D02*
Y210500D01*
X383453Y210500D02*
X391012D01*
X393512Y208000D01*
X383831Y215622D02*
X394000D01*
X388500Y208000D02*
X393512D01*
X393764Y207748D01*
X394000D01*
X386421Y205921D02*
X388500Y208000D01*
X386421Y203740D02*
Y205921D01*
X279500Y230905D02*
X280086Y230319D01*
X279500Y230905D02*
Y243205D01*
X278000Y227921D02*
X278539Y227382D01*
X280086Y230319D02*
X287836D01*
X288421Y227240D02*
Y229733D01*
X287836Y230319D02*
X288421Y229733D01*
X297681Y226559D02*
X299441D01*
X306161D02*
X306842Y227240D01*
X304059Y226559D02*
X306161D01*
X287740Y226559D02*
X288421Y227240D01*
X286059Y226559D02*
X287740D01*
X263000Y241953D02*
X263394D01*
X289405Y219760D02*
X290087Y219079D01*
Y218094D02*
X290811Y217370D01*
X288421Y219760D02*
X289405D01*
X290087Y218094D02*
Y219079D01*
X290811Y212000D02*
Y217370D01*
X295335Y218094D02*
Y219079D01*
X296016Y219760D01*
X297000D01*
X294748Y212000D02*
Y217508D01*
X295335Y218094D01*
X289102Y220441D02*
X290941D01*
X288421Y219760D02*
X289102Y220441D01*
X290941D02*
X292000Y221500D01*
X293500Y221027D02*
X294086Y220441D01*
X296319D01*
X297000Y219760D01*
X328689Y202397D02*
Y208375D01*
Y202397D02*
X329586Y201500D01*
X331953D01*
X306559Y212000D02*
Y219717D01*
X279000Y212000D02*
Y219339D01*
X286193Y212681D02*
Y216307D01*
X299366Y212681D02*
Y216259D01*
X298685Y212000D02*
X299366Y212681D01*
X286193D02*
X286874Y212000D01*
D25*
X222543Y210906D02*
D03*
X230500Y200000D02*
D03*
Y194095D02*
D03*
X222543Y205000D02*
D03*
X206500Y200000D02*
D03*
Y194095D02*
D03*
X214500Y205095D02*
D03*
Y211000D02*
D03*
X426000Y181047D02*
D03*
Y186953D02*
D03*
X434000Y181047D02*
D03*
Y186953D02*
D03*
X263000Y236047D02*
D03*
Y241953D02*
D03*
X268000Y236047D02*
D03*
Y241953D02*
D03*
X273000Y232953D02*
D03*
Y227047D02*
D03*
D27*
X331953Y191500D02*
D03*
X326047D02*
D03*
X377547Y210500D02*
D03*
X383453D02*
D03*
X377547Y215500D02*
D03*
X383453D02*
D03*
X326047Y201500D02*
D03*
X331953D02*
D03*
X326000Y206500D02*
D03*
X331906D02*
D03*
X331953Y196500D02*
D03*
X326047D02*
D03*
X331953Y186500D02*
D03*
X326047D02*
D03*
D46*
X213579Y200240D02*
D03*
Y196500D02*
D03*
Y192760D02*
D03*
X223421D02*
D03*
Y196500D02*
D03*
Y200240D02*
D03*
X386421Y196260D02*
D03*
Y200000D02*
D03*
Y203740D02*
D03*
X376579D02*
D03*
Y200000D02*
D03*
Y196260D02*
D03*
X278579Y227240D02*
D03*
Y223500D02*
D03*
Y219760D02*
D03*
X288421D02*
D03*
Y223500D02*
D03*
Y227240D02*
D03*
X306842Y219760D02*
D03*
Y223500D02*
D03*
Y227240D02*
D03*
X297000D02*
D03*
Y223500D02*
D03*
Y219760D02*
D03*
D56*
X426260Y191079D02*
D03*
X430000D02*
D03*
X433740D02*
D03*
Y200921D02*
D03*
X430000D02*
D03*
X426260D02*
D03*
D85*
X394000Y215622D02*
D03*
D86*
Y207748D02*
D03*
Y199874D02*
D03*
Y192000D02*
D03*
D87*
X365008Y244587D02*
D03*
X330992D02*
D03*
D88*
X365008Y228130D02*
D03*
X330992D02*
D03*
D89*
X359378Y230098D02*
D03*
X336622D02*
D03*
D93*
X516269Y208300D02*
D03*
D94*
X545600D02*
D03*
D99*
X158914Y199154D02*
D03*
X145733Y246033D02*
D03*
X421833Y242633D02*
D03*
X503500Y207000D02*
D03*
X223421Y196500D02*
D03*
X230500Y192126D02*
D03*
X222543Y212874D02*
D03*
X214500Y212968D02*
D03*
X213579Y196500D02*
D03*
X290500Y232000D02*
D03*
X389000Y243500D02*
D03*
X316019Y177396D02*
D03*
X357319Y202500D02*
D03*
X354819Y189500D02*
D03*
X229500Y185000D02*
D03*
X336500Y161500D02*
D03*
X378000Y184000D02*
D03*
X368500Y185500D02*
D03*
X364500Y198500D02*
D03*
X373621Y210500D02*
D03*
X148500Y208000D02*
D03*
X144500D02*
D03*
X431333Y196333D02*
D03*
X315264Y198701D02*
D03*
X338882Y185316D02*
D03*
X257500Y202000D02*
D03*
Y212000D02*
D03*
X385000Y192500D02*
D03*
X446000Y161500D02*
D03*
X236451Y245181D02*
D03*
X204500D02*
D03*
X257500Y192000D02*
D03*
X330535Y191465D02*
D03*
X247458Y247542D02*
D03*
X314795Y232289D02*
D03*
X308500Y223500D02*
D03*
X418000Y159500D02*
D03*
X415000D02*
D03*
X386558Y183190D02*
D03*
X389420D02*
D03*
X375255Y215255D02*
D03*
X368000Y148000D02*
D03*
X398000Y148500D02*
D03*
X374000Y148000D02*
D03*
X508000Y248000D02*
D03*
X429785Y193209D02*
D03*
X228500Y245181D02*
D03*
X544000Y248000D02*
D03*
X526000D02*
D03*
X598000D02*
D03*
X616000D02*
D03*
X580000D02*
D03*
X562000D02*
D03*
X276000Y223500D02*
D03*
X152000Y222000D02*
D03*
X447500Y169500D02*
D03*
X426957Y155032D02*
D03*
X430500D02*
D03*
X434043D02*
D03*
X426957Y158968D02*
D03*
X430500D02*
D03*
X434043D02*
D03*
X438500Y164500D02*
D03*
X430500Y167000D02*
D03*
X342500Y183819D02*
D03*
X330500Y186500D02*
D03*
X335652Y194652D02*
D03*
X337500Y191000D02*
D03*
X348458Y147958D02*
D03*
X257500Y207000D02*
D03*
Y197000D02*
D03*
X220500Y245181D02*
D03*
X212500D02*
D03*
X212626Y189500D02*
D03*
X216563D02*
D03*
X220500D02*
D03*
X128000Y164000D02*
D03*
X156000Y208000D02*
D03*
X258000Y234000D02*
D03*
X229500Y181862D02*
D03*
X244415Y247543D02*
D03*
X329000Y154000D02*
D03*
Y159000D02*
D03*
X352500Y197000D02*
D03*
X346000Y191500D02*
D03*
X343500Y203000D02*
D03*
X342000Y208500D02*
D03*
X330500Y196500D02*
D03*
X372732Y197193D02*
D03*
X320000Y217500D02*
D03*
Y213181D02*
D03*
X169500Y188500D02*
D03*
X286181Y223500D02*
D03*
X299000D02*
D03*
X344500Y220500D02*
D03*
X325500Y206500D02*
D03*
X353500Y215500D02*
D03*
X348095D02*
D03*
X175000Y216500D02*
D03*
X140500D02*
D03*
X150000D02*
D03*
X164000D02*
D03*
X268000Y234181D02*
D03*
X263000Y234000D02*
D03*
X273000Y234181D02*
D03*
X325500Y201500D02*
D03*
X303000Y247500D02*
D03*
X171500Y222000D02*
D03*
D101*
X683562Y243367D02*
G03*
X683562Y212736I-1822J-15316D01*
G01*
X679571Y197000D02*
G03*
X683562Y201702I-4072J7500D01*
G01*
Y207298D02*
G03*
X671249Y211900I-8062J-2798D01*
G01*
X683562Y192298D02*
G03*
X679571Y197000I-8062J-2798D01*
G01*
X677791Y181279D02*
G03*
X683562Y186702I-2291J8221D01*
G01*
X673209Y181279D02*
G03*
X670963Y180034I2291J-6779D01*
G01*
X671249Y182100D02*
G03*
X673209Y181279I4250J7400D01*
G01*
D02*
G03*
X677791Y181279I2291J8221D01*
G01*
X680037Y180034D02*
G03*
X677791Y181279I-4537J-5534D01*
G01*
X681034Y169963D02*
G03*
X682656Y174500I-5534J4537D01*
G01*
D02*
G03*
X681034Y179037I-7156J0D01*
G01*
X670963Y168966D02*
G03*
X680037Y168966I4537J5534D01*
G01*
X683562Y164627D02*
G03*
X666378Y147938I-1822J-15316D01*
G01*
X669966Y179037D02*
G03*
X669966Y169963I5534J-4537D01*
G01*
X658590Y199267D02*
G03*
X663823Y197100I5233J5233D01*
G01*
X658589Y199269D02*
G03*
X663823Y197100I5234J5231D01*
G01*
X650994Y227794D02*
G03*
X640529Y217329I-7494J-2971D01*
G01*
X650500Y196900D02*
G03*
X645266Y194731I0J-7400D01*
G01*
X650500Y196900D02*
G03*
X645267Y194733I0J-7400D01*
G01*
X640529Y189994D02*
G03*
X650994Y179529I2971J-7494D01*
G01*
X683250Y208074D02*
X683562Y208386D01*
Y243367D02*
Y245062D01*
Y192298D02*
Y201702D01*
Y207298D02*
Y212736D01*
X679834Y245062D02*
X681424Y243472D01*
X680251Y196589D02*
X683562Y199901D01*
X682641Y199828D02*
X683562Y198907D01*
X680665Y180034D02*
X683562Y182930D01*
X681778Y183720D02*
X683562Y181937D01*
X680251Y196589D02*
X683562Y199901D01*
X680037Y180034D02*
X681034D01*
X674324Y241575D02*
X677811Y245062D01*
X671348D02*
X674658Y241753D01*
X678982Y212291D02*
X679484Y212793D01*
X677821Y213134D02*
X678445Y212510D01*
X670105Y211900D02*
X673328Y215123D01*
X666888Y211900D02*
X671249D01*
X672180Y180034D02*
X673380Y181234D01*
X676031Y180983D02*
X676980Y180034D01*
X670963D02*
X680037D01*
X669966D02*
X670963D01*
X669966Y179037D02*
Y180034D01*
X682581Y173464D02*
X683562Y174445D01*
X681034Y175979D02*
X682654Y174359D01*
X683562Y164627D02*
Y186702D01*
X681034Y179037D02*
Y180034D01*
Y169963D02*
Y179037D01*
X682654Y174359D02*
X683562Y173451D01*
X681034Y171917D02*
X682581Y173464D01*
X682326Y164724D02*
X683562Y165960D01*
X681034Y168966D02*
Y169963D01*
X680037Y168966D02*
X681034D01*
X679770Y168758D02*
X683562Y164966D01*
X669966Y169963D02*
Y179037D01*
X668622Y176476D02*
X669966Y177820D01*
X666428Y182100D02*
X669758Y178770D01*
X669617Y170425D02*
X669966Y170077D01*
X670963Y168966D02*
X680037D01*
X671077D02*
X671425Y168617D01*
X676536Y167420D02*
X678083Y168966D01*
X671425Y168617D02*
X676300Y163743D01*
X669966Y168966D02*
X670963D01*
X669966D02*
Y169963D01*
X665540Y147938D02*
X666328Y148725D01*
X662863Y245062D02*
X669941Y237984D01*
X654378Y245062D02*
X666965Y232475D01*
X651526Y227262D02*
X669326Y245062D01*
X655769Y223019D02*
X668216Y235467D01*
X631438Y245062D02*
X683562D01*
X647564Y231785D02*
X660841Y245062D01*
X637407D02*
X670569Y211900D01*
X645892Y245062D02*
X666823Y224132D01*
X664254Y214534D02*
X669032Y219312D01*
X660011Y218777D02*
X666559Y225325D01*
X663823Y197100D02*
X671249D01*
X650994Y227794D02*
X666888Y211900D01*
X650500Y196900D02*
X671249D01*
X638565Y218449D02*
X660113Y196900D01*
X638119Y230825D02*
X652356Y245062D01*
X631438Y224145D02*
X637498Y230204D01*
X631438Y225575D02*
X637126Y219887D01*
X631438Y232630D02*
X643870Y245062D01*
X631438Y241115D02*
X635385Y245062D01*
X631438Y242546D02*
X641383Y232601D01*
X631438Y234061D02*
X636565Y228933D01*
X640529Y217329D02*
X658589Y199269D01*
X631438Y198689D02*
X645303Y212554D01*
X655105Y196900D02*
X658031Y199826D01*
X631438Y208605D02*
X645289Y194754D01*
X631438Y207174D02*
X641061Y216797D01*
X631438Y215659D02*
X636538Y220759D01*
X631438Y217090D02*
X651628Y196900D01*
X653565Y182100D02*
X671249D01*
X638687Y188967D02*
X653789Y204069D01*
X657943Y182100D02*
X669617Y170425D01*
X650994Y179529D02*
X653565Y182100D01*
X631438Y183149D02*
X666354Y148233D01*
X631438Y156262D02*
X657276Y182100D01*
X631599Y147938D02*
X665761Y182100D01*
X631599Y147938D02*
X665761Y182100D01*
X651511Y180046D02*
X671090Y160467D01*
X651511Y180046D02*
X671090Y160467D01*
X657055Y147938D02*
X676536Y167420D01*
X648570Y147938D02*
X669966Y169334D01*
X647545Y175527D02*
X667600Y155472D01*
X631438Y174664D02*
X658164Y147938D01*
X640084D02*
X668622Y176476D01*
X631438Y147938D02*
X666378D01*
X640529Y189994D02*
X645266Y194731D01*
X631438Y191634D02*
X636527Y186545D01*
X631438Y200120D02*
X641046Y190511D01*
X631438Y200120D02*
X641046Y190511D01*
X631438Y190203D02*
X649546Y208312D01*
X631438Y147938D02*
Y245062D01*
Y166179D02*
X649679Y147938D01*
X631438Y157693D02*
X641193Y147938D01*
X631438Y149208D02*
X632708Y147938D01*
X631438Y181718D02*
X637033Y187313D01*
X631438Y173233D02*
X636576Y178371D01*
X631438Y164748D02*
X641406Y174715D01*
D102*
X208508Y183362D02*
X208870Y183000D01*
X208918Y177818D02*
Y183000D01*
X176500Y166500D02*
X199000D01*
X440000Y228500D02*
X456500D01*
X460000Y225000D01*
X371275Y241725D02*
X377050Y247500D01*
X423328D02*
X430000Y240828D01*
X377050Y247500D02*
X423328D01*
X430000Y221000D02*
Y240828D01*
X423728Y214728D02*
X430000Y221000D01*
X423728Y203858D02*
Y214728D01*
X376000Y187000D02*
X406500D01*
X423579Y198289D02*
Y203708D01*
X421000Y195711D02*
X423579Y198289D01*
X421000Y195169D02*
Y195711D01*
X353587Y181328D02*
X354758Y182500D01*
X353405Y177126D02*
X353587Y177307D01*
X371500Y182500D02*
X376000Y187000D01*
X353587Y177307D02*
Y181328D01*
X354758Y182500D02*
X371500D01*
X430181Y196917D02*
X430651D01*
X431235Y196333D01*
X431333D01*
X436711Y217000D02*
X441500D01*
X423579Y203708D02*
X423728Y203858D01*
X275240Y206760D02*
X296240D01*
X306539Y192539D02*
Y196461D01*
X296240Y206760D02*
X306539Y196461D01*
X306500Y192500D02*
X306539Y192539D01*
X275000Y207000D02*
X275240Y206760D01*
X443319Y195319D02*
X468000Y220000D01*
X443319Y157395D02*
Y195319D01*
Y157395D02*
X447661Y153054D01*
X458500Y247000D02*
X468000Y237500D01*
Y220000D02*
Y237500D01*
X341595Y168663D02*
X347000Y163257D01*
Y163000D02*
Y163257D01*
X341595Y168663D02*
Y177126D01*
X430181Y196917D02*
Y200740D01*
X430000Y200921D02*
X430181Y200740D01*
X435539Y215828D02*
X436711Y217000D01*
X435539Y209248D02*
Y215828D01*
X152350Y190650D02*
Y203752D01*
Y190650D02*
X156000Y187000D01*
D103*
X491925Y193327D02*
D03*
Y224823D02*
D03*
X643500Y182500D02*
D03*
Y224823D02*
D03*
D104*
X291354Y194638D02*
D03*
X296866D02*
D03*
X285842D02*
D03*
X296866Y200150D02*
D03*
X291354D02*
D03*
X285842D02*
D03*
X294110Y191882D02*
D03*
X288598D02*
D03*
X294110Y197394D02*
D03*
X288598D02*
D03*
X294110Y202906D02*
D03*
X288598D02*
D03*
D105*
X134500Y243500D02*
D03*
Y233500D02*
D03*
X492000Y167264D02*
D03*
Y177264D02*
D03*
D106*
X134500Y223500D02*
D03*
X492000Y157264D02*
D03*
D107*
X235205Y211000D02*
D03*
X198000D02*
D03*
D108*
X675500Y174500D02*
D03*
D109*
Y189500D02*
D03*
Y204500D02*
D03*
D110*
X409200Y204300D02*
D03*
X204000Y177818D02*
D03*
X208918D02*
D03*
X136500Y199500D02*
D03*
X353000Y231000D02*
D03*
X261500Y173000D02*
D03*
X181000Y232000D02*
D03*
X149000Y159500D02*
D03*
X176500Y166500D02*
D03*
X440000Y228500D02*
D03*
X372000Y230500D02*
D03*
X371275Y241725D02*
D03*
X425000Y222000D02*
D03*
X409243Y243743D02*
D03*
X461500Y175000D02*
D03*
X439500Y183000D02*
D03*
X417000Y183500D02*
D03*
X404916Y187119D02*
D03*
X421000Y195169D02*
D03*
X311997Y178500D02*
D03*
X357500Y179000D02*
D03*
X199000Y166500D02*
D03*
X405044Y218500D02*
D03*
X271000Y216500D02*
D03*
X441500Y217000D02*
D03*
X420047Y212000D02*
D03*
X306500Y192500D02*
D03*
X336500Y178500D02*
D03*
X263000Y218000D02*
D03*
X267000Y207000D02*
D03*
X275000D02*
D03*
X354500Y205000D02*
D03*
X349500D02*
D03*
X472423Y245107D02*
D03*
X347000Y163000D02*
D03*
X462500Y205000D02*
D03*
X466500Y209000D02*
D03*
X442000Y206000D02*
D03*
X461383Y233883D02*
D03*
X460000Y225000D02*
D03*
X458500Y247000D02*
D03*
X436923Y246666D02*
D03*
X126000Y179500D02*
D03*
X128268Y209693D02*
D03*
X447661Y153054D02*
D03*
X423000Y232000D02*
D03*
X118500Y246500D02*
D03*
X156000Y187000D02*
D03*
X196918Y246318D02*
D03*
X448000Y239500D02*
D03*
X118500Y241500D02*
D03*
D111*
X114811Y228051D02*
D03*
X681740Y149311D02*
D03*
Y228051D02*
D03*
X114811Y149311D02*
D03*
D112*
X279000Y212000D02*
D03*
X286874D02*
D03*
X298685D02*
D03*
X267189D02*
D03*
X306559D02*
D03*
X263252D02*
D03*
X302622D02*
D03*
X294748D02*
D03*
X290811D02*
D03*
X271126D02*
D03*
X275063D02*
D03*
X282937D02*
D03*
X341626Y209500D02*
D03*
X353437D02*
D03*
X349500D02*
D03*
X345563D02*
D03*
X349468Y177126D02*
D03*
X341595D02*
D03*
X357343D02*
D03*
X337657D02*
D03*
X353405D02*
D03*
X345532D02*
D03*
X148413Y203752D02*
D03*
X152350D02*
D03*
X156287D02*
D03*
X164161D02*
D03*
X140539D02*
D03*
X168098D02*
D03*
X144476D02*
D03*
X160224D02*
D03*
X427665Y209248D02*
D03*
X435539D02*
D03*
X419791D02*
D03*
X439476D02*
D03*
X423728D02*
D03*
X431602D02*
D03*
X216563Y183000D02*
D03*
X208689D02*
D03*
X224437D02*
D03*
X204752D02*
D03*
X220500D02*
D03*
X212626D02*
D03*
D113*
X250850Y202748D02*
D03*
X318961D02*
D03*
X365839Y218752D02*
D03*
X329224D02*
D03*
X325256Y167874D02*
D03*
X369744D02*
D03*
X180500Y194500D02*
D03*
X128138D02*
D03*
X451878Y218500D02*
D03*
X407390D02*
D03*
X192350Y173748D02*
D03*
X236839D02*
D03*
D114*
X355000Y197500D02*
D03*
X351260Y189626D02*
D03*
X358740D02*
D03*
X341500Y189563D02*
D03*
X345240Y197437D02*
D03*
X337760D02*
D03*
D115*
X499537Y208300D02*
D03*
X564104D02*
D03*
D116*
X643500Y224823D02*
X663823Y204500D01*
X643753Y182753D02*
X650500Y189500D01*
X675500D01*
X663823Y204500D02*
X675500D01*
M02*
