G04*
G04 #@! TF.GenerationSoftware,Altium Limited,Altium Designer,22.9.1 (49)*
G04*
G04 Layer_Color=8388736*
%FSLAX25Y25*%
%MOIN*%
G70*
G04*
G04 #@! TF.SameCoordinates,3F8A9F32-4B6F-401C-BF37-4CBD66F0855C*
G04*
G04*
G04 #@! TF.FilePolarity,Negative*
G04*
G01*
G75*
%ADD28R,0.06721X0.02425*%
G04:AMPARAMS|DCode=29|XSize=67.21mil|YSize=24.25mil|CornerRadius=12.12mil|HoleSize=0mil|Usage=FLASHONLY|Rotation=0.000|XOffset=0mil|YOffset=0mil|HoleType=Round|Shape=RoundedRectangle|*
%AMROUNDEDRECTD29*
21,1,0.06721,0.00000,0,0,0.0*
21,1,0.04296,0.02425,0,0,0.0*
1,1,0.02425,0.02148,0.00000*
1,1,0.02425,-0.02148,0.00000*
1,1,0.02425,-0.02148,0.00000*
1,1,0.02425,0.02148,0.00000*
%
%ADD29ROUNDEDRECTD29*%
%ADD30R,0.04134X0.05906*%
%ADD31R,0.09449X0.05906*%
%ADD32R,0.05906X0.04134*%
%ADD33R,0.05906X0.09449*%
%ADD35R,0.01181X0.04528*%
%ADD36R,0.02362X0.04528*%
%ADD48R,0.05269X0.02275*%
G04:AMPARAMS|DCode=49|XSize=52.69mil|YSize=22.75mil|CornerRadius=11.38mil|HoleSize=0mil|Usage=FLASHONLY|Rotation=0.000|XOffset=0mil|YOffset=0mil|HoleType=Round|Shape=RoundedRectangle|*
%AMROUNDEDRECTD49*
21,1,0.05269,0.00000,0,0,0.0*
21,1,0.02993,0.02275,0,0,0.0*
1,1,0.02275,0.01497,0.00000*
1,1,0.02275,-0.01497,0.00000*
1,1,0.02275,-0.01497,0.00000*
1,1,0.02275,0.01497,0.00000*
%
%ADD49ROUNDEDRECTD49*%
%ADD57R,0.05131X0.07887*%
%ADD58R,0.04343X0.06706*%
%ADD59R,0.04343X0.03556*%
%ADD60R,0.03950X0.04343*%
%ADD61C,0.06909*%
%ADD62C,0.00709*%
%ADD63R,0.03556X0.04343*%
%ADD64R,0.03950X0.02769*%
%ADD65R,0.04343X0.04343*%
%ADD66R,0.06706X0.04343*%
%ADD67R,0.04343X0.06706*%
%ADD68R,0.07887X0.06312*%
%ADD69R,0.07887X0.05524*%
%ADD70R,0.03950X0.07887*%
%ADD71R,0.04343X0.03950*%
%ADD72R,0.06945X0.06945*%
%ADD73R,0.06800X0.06800*%
%ADD74R,0.06800X0.06800*%
%ADD75R,0.05131X0.03162*%
%ADD76R,0.03950X0.03950*%
%ADD77R,0.02769X0.02020*%
%ADD78R,0.03359X0.02020*%
%ADD79R,0.02020X0.02769*%
%ADD80R,0.02020X0.03359*%
%ADD81R,0.05800X0.09068*%
%ADD82R,0.02375X0.02375*%
%ADD83R,0.03162X0.05131*%
%ADD84C,0.08123*%
%ADD85R,0.05118X0.05118*%
%ADD86C,0.05118*%
G04:AMPARAMS|DCode=87|XSize=39.37mil|YSize=70.87mil|CornerRadius=19.68mil|HoleSize=0mil|Usage=FLASHONLY|Rotation=180.000|XOffset=0mil|YOffset=0mil|HoleType=Round|Shape=RoundedRectangle|*
%AMROUNDEDRECTD87*
21,1,0.03937,0.03150,0,0,180.0*
21,1,0.00000,0.07087,0,0,180.0*
1,1,0.03937,0.00000,0.01575*
1,1,0.03937,0.00000,0.01575*
1,1,0.03937,0.00000,-0.01575*
1,1,0.03937,0.00000,-0.01575*
%
%ADD87ROUNDEDRECTD87*%
G04:AMPARAMS|DCode=88|XSize=39.37mil|YSize=82.68mil|CornerRadius=19.68mil|HoleSize=0mil|Usage=FLASHONLY|Rotation=180.000|XOffset=0mil|YOffset=0mil|HoleType=Round|Shape=RoundedRectangle|*
%AMROUNDEDRECTD88*
21,1,0.03937,0.04331,0,0,180.0*
21,1,0.00000,0.08268,0,0,180.0*
1,1,0.03937,0.00000,0.02165*
1,1,0.03937,0.00000,0.02165*
1,1,0.03937,0.00000,-0.02165*
1,1,0.03937,0.00000,-0.02165*
%
%ADD88ROUNDEDRECTD88*%
%ADD89C,0.02559*%
%ADD90C,0.06706*%
%ADD91R,0.06706X0.06706*%
%ADD92C,0.16548*%
%ADD93C,0.04921*%
%ADD94C,0.03937*%
%ADD95R,0.09068X0.09068*%
%ADD96C,0.09068*%
%ADD97C,0.03162*%
%ADD98C,0.04800*%
%ADD99C,0.02362*%
%ADD100C,0.22847*%
G36*
X693991Y137509D02*
X693973Y137491D01*
X102991D01*
Y254838D01*
X103453Y255029D01*
X103473Y255009D01*
X103681Y255509D01*
X693991D01*
Y137509D01*
D02*
G37*
%LPC*%
G36*
X687852Y249509D02*
X687835Y249491D01*
X108991D01*
Y143491D01*
X109009Y143509D01*
X687852D01*
Y249509D01*
D02*
G37*
%LPD*%
G36*
X461453Y241638D02*
X455547D01*
Y246362D01*
X461453D01*
Y241638D01*
D02*
G37*
G36*
X439953D02*
X434047D01*
Y246362D01*
X439953D01*
Y241638D01*
D02*
G37*
G36*
X418453D02*
X412547D01*
Y246362D01*
X418453D01*
Y241638D01*
D02*
G37*
G36*
X474362Y218516D02*
X469638D01*
Y224421D01*
X474362D01*
Y218516D01*
D02*
G37*
G36*
Y205547D02*
X469638D01*
Y211453D01*
X474362D01*
Y205547D01*
D02*
G37*
G36*
X429862Y199547D02*
X425138D01*
Y205453D01*
X429862D01*
Y199547D01*
D02*
G37*
G36*
X435323Y150504D02*
X434339D01*
Y153161D01*
X426661D01*
Y150504D01*
X425677D01*
Y163496D01*
X426661D01*
Y160839D01*
X434339D01*
Y163496D01*
X435323D01*
Y150504D01*
D02*
G37*
G36*
X439949Y160543D02*
X436918D01*
X436773Y160603D01*
X436662Y160714D01*
X436602Y160859D01*
Y160937D01*
Y161015D01*
X436662Y161160D01*
X436773Y161271D01*
X436918Y161331D01*
X439949D01*
Y160543D01*
D02*
G37*
G36*
X424227Y161271D02*
X424338Y161160D01*
X424398Y161015D01*
Y160937D01*
Y160859D01*
X424338Y160714D01*
X424227Y160603D01*
X424082Y160543D01*
X421051D01*
Y161331D01*
X424082D01*
X424227Y161271D01*
D02*
G37*
G36*
X439949Y158968D02*
X436918D01*
X436773Y159028D01*
X436662Y159139D01*
X436602Y159284D01*
Y159362D01*
Y159441D01*
X436662Y159585D01*
X436773Y159696D01*
X436918Y159756D01*
X436996D01*
Y159756D01*
X439949D01*
Y158968D01*
D02*
G37*
G36*
X424004Y159756D02*
X424082D01*
X424227Y159696D01*
X424338Y159585D01*
X424398Y159441D01*
Y159362D01*
Y159284D01*
X424338Y159139D01*
X424227Y159028D01*
X424082Y158968D01*
X421051D01*
Y159756D01*
X424004Y159756D01*
D02*
G37*
G36*
X439949Y157394D02*
X436918D01*
X436773Y157454D01*
X436662Y157564D01*
X436602Y157709D01*
Y157787D01*
Y157866D01*
X436662Y158010D01*
X436773Y158121D01*
X436918Y158181D01*
X439949D01*
Y157394D01*
D02*
G37*
G36*
X424227Y158121D02*
X424338Y158010D01*
X424398Y157866D01*
Y157787D01*
Y157709D01*
X424338Y157564D01*
X424227Y157454D01*
X424082Y157394D01*
X421051D01*
Y158181D01*
X424082D01*
X424227Y158121D01*
D02*
G37*
G36*
X439949Y155819D02*
X436918D01*
X436773Y155879D01*
X436662Y155990D01*
X436602Y156134D01*
Y156213D01*
Y156291D01*
X436662Y156436D01*
X436773Y156546D01*
X436918Y156606D01*
X439949D01*
Y155819D01*
D02*
G37*
G36*
X424227Y156546D02*
X424338Y156436D01*
X424398Y156291D01*
Y156213D01*
Y156134D01*
X424338Y155990D01*
X424227Y155879D01*
X424082Y155819D01*
X421051D01*
Y156606D01*
X424082D01*
X424227Y156546D01*
D02*
G37*
G36*
X439949Y154244D02*
X436996Y154244D01*
X436918D01*
X436773Y154304D01*
X436662Y154415D01*
X436602Y154560D01*
Y154638D01*
Y154716D01*
X436662Y154861D01*
X436773Y154972D01*
X436918Y155032D01*
X439949D01*
Y154244D01*
D02*
G37*
G36*
X424227Y154972D02*
X424338Y154861D01*
X424398Y154716D01*
Y154638D01*
Y154560D01*
X424338Y154415D01*
X424227Y154304D01*
X424082Y154244D01*
X424004D01*
Y154244D01*
X421051D01*
Y155032D01*
X424082D01*
X424227Y154972D01*
D02*
G37*
G36*
X439949Y152669D02*
X436918D01*
X436773Y152729D01*
X436662Y152840D01*
X436602Y152985D01*
Y153063D01*
Y153141D01*
X436662Y153286D01*
X436773Y153397D01*
X436918Y153457D01*
X439949D01*
Y152669D01*
D02*
G37*
G36*
X424227Y153397D02*
X424338Y153286D01*
X424398Y153141D01*
Y153063D01*
Y152985D01*
X424338Y152840D01*
X424227Y152729D01*
X424082Y152669D01*
X421051D01*
Y153457D01*
X424082D01*
X424227Y153397D01*
D02*
G37*
G36*
X620700Y144500D02*
X602700D01*
Y150700D01*
X620700D01*
Y144500D01*
D02*
G37*
D28*
X415773Y224240D02*
D03*
Y187240D02*
D03*
D29*
Y220500D02*
D03*
Y216760D02*
D03*
X425227D02*
D03*
Y224240D02*
D03*
X415773Y183500D02*
D03*
Y179760D02*
D03*
X425227D02*
D03*
Y187240D02*
D03*
D30*
X460000Y208000D02*
D03*
X460004Y220468D02*
D03*
D31*
X450650Y208000D02*
D03*
X450654Y220468D02*
D03*
D32*
X448000Y232496D02*
D03*
X469500Y232650D02*
D03*
X426500Y232496D02*
D03*
D33*
X448000Y241846D02*
D03*
X469500Y242000D02*
D03*
X426500Y241846D02*
D03*
D35*
X354890Y225866D02*
D03*
X352921D02*
D03*
X350953D02*
D03*
X348984D02*
D03*
X347016D02*
D03*
X345047D02*
D03*
X343079D02*
D03*
X341110D02*
D03*
D36*
X357449D02*
D03*
X338551D02*
D03*
X360598D02*
D03*
X335402D02*
D03*
D48*
X458106Y178740D02*
D03*
D49*
Y175000D02*
D03*
Y171260D02*
D03*
X466894D02*
D03*
Y178740D02*
D03*
D57*
X389216Y147795D02*
D03*
Y172205D02*
D03*
X403784Y147795D02*
D03*
Y172205D02*
D03*
X379575D02*
D03*
Y147795D02*
D03*
X365008Y172205D02*
D03*
Y147795D02*
D03*
X354283Y172205D02*
D03*
Y147795D02*
D03*
X339717Y172205D02*
D03*
Y147795D02*
D03*
D58*
X125992Y164209D02*
D03*
X113000D02*
D03*
Y183500D02*
D03*
X125992D02*
D03*
X125996Y213146D02*
D03*
X113004D02*
D03*
Y193854D02*
D03*
X125996D02*
D03*
D59*
X564000Y247453D02*
D03*
Y241547D02*
D03*
X416500Y204953D02*
D03*
Y199047D02*
D03*
X421500Y199047D02*
D03*
Y204953D02*
D03*
X158000Y235953D02*
D03*
Y230047D02*
D03*
X173000Y235953D02*
D03*
Y230047D02*
D03*
X153000Y235953D02*
D03*
Y230047D02*
D03*
X148000Y235953D02*
D03*
Y230047D02*
D03*
X168000Y235953D02*
D03*
Y230047D02*
D03*
X143000Y235953D02*
D03*
Y230047D02*
D03*
X163000Y235953D02*
D03*
Y230047D02*
D03*
X510000Y241547D02*
D03*
Y247453D02*
D03*
X528000Y241547D02*
D03*
Y247453D02*
D03*
X546000Y241547D02*
D03*
Y247453D02*
D03*
X582000Y241547D02*
D03*
Y247453D02*
D03*
X600000Y241547D02*
D03*
Y247453D02*
D03*
X618000Y241547D02*
D03*
Y247453D02*
D03*
X448500Y167453D02*
D03*
Y161547D02*
D03*
X443500Y161594D02*
D03*
Y167500D02*
D03*
X361500Y220953D02*
D03*
Y215047D02*
D03*
X446000Y156953D02*
D03*
Y151047D02*
D03*
X409000Y210000D02*
D03*
Y215905D02*
D03*
X465500Y218016D02*
D03*
Y223921D02*
D03*
X473500Y179047D02*
D03*
Y184953D02*
D03*
X465500Y205047D02*
D03*
Y210953D02*
D03*
X346000Y193047D02*
D03*
Y198953D02*
D03*
X341500Y193047D02*
D03*
Y198953D02*
D03*
X364500Y183047D02*
D03*
Y188953D02*
D03*
D60*
X344244Y173500D02*
D03*
X349756D02*
D03*
X393744D02*
D03*
X399256D02*
D03*
X122256Y188543D02*
D03*
X116744D02*
D03*
X412744Y154500D02*
D03*
X418256D02*
D03*
X416744Y147500D02*
D03*
X422256D02*
D03*
X375047Y173500D02*
D03*
X369535D02*
D03*
X377756Y206500D02*
D03*
X372244D02*
D03*
X136756Y211000D02*
D03*
X131244D02*
D03*
D61*
X430500Y157000D02*
D03*
D62*
X438276Y160937D02*
D03*
Y159362D02*
D03*
Y157787D02*
D03*
X438317Y156213D02*
D03*
Y154638D02*
D03*
Y153063D02*
D03*
X422724D02*
D03*
Y154638D02*
D03*
Y156213D02*
D03*
X422683Y157787D02*
D03*
Y159362D02*
D03*
Y160937D02*
D03*
D63*
X457547Y184500D02*
D03*
X463453D02*
D03*
X358547Y200000D02*
D03*
X364453D02*
D03*
X399453Y146500D02*
D03*
X393547D02*
D03*
X432547Y167000D02*
D03*
X438453D02*
D03*
X337953Y220500D02*
D03*
X332047D02*
D03*
X340953Y213500D02*
D03*
X335047D02*
D03*
X340953Y208500D02*
D03*
X335047D02*
D03*
X461953Y237000D02*
D03*
X456047D02*
D03*
X440406Y237000D02*
D03*
X434500D02*
D03*
X418953Y237000D02*
D03*
X413047D02*
D03*
X410047Y176000D02*
D03*
X415953D02*
D03*
X344047Y146500D02*
D03*
X349953D02*
D03*
X369339D02*
D03*
X375244D02*
D03*
X364453Y205000D02*
D03*
X358547D02*
D03*
X377953Y185500D02*
D03*
X372047D02*
D03*
X131047Y216500D02*
D03*
X136953D02*
D03*
X121047Y246500D02*
D03*
X126953D02*
D03*
X126953Y241500D02*
D03*
X121047D02*
D03*
X326047Y146500D02*
D03*
X331953D02*
D03*
D64*
X377831Y202299D02*
D03*
Y199150D02*
D03*
Y196000D02*
D03*
Y192850D02*
D03*
Y189701D02*
D03*
X369169D02*
D03*
Y192850D02*
D03*
Y196000D02*
D03*
Y199150D02*
D03*
Y202299D02*
D03*
D65*
X291354Y197394D02*
D03*
X296866D02*
D03*
X285842D02*
D03*
X296866Y202906D02*
D03*
X291354D02*
D03*
X285842D02*
D03*
X296866Y191882D02*
D03*
X291354D02*
D03*
X285842D02*
D03*
D66*
X319898Y167000D02*
D03*
Y172000D02*
D03*
Y177000D02*
D03*
Y182000D02*
D03*
Y187000D02*
D03*
Y192000D02*
D03*
Y197000D02*
D03*
Y202000D02*
D03*
Y207000D02*
D03*
Y212000D02*
D03*
Y217000D02*
D03*
Y222000D02*
D03*
Y227000D02*
D03*
Y232000D02*
D03*
X251000D02*
D03*
Y227000D02*
D03*
Y222000D02*
D03*
Y217000D02*
D03*
Y212000D02*
D03*
Y207000D02*
D03*
Y202000D02*
D03*
Y197000D02*
D03*
Y192000D02*
D03*
Y187000D02*
D03*
Y182000D02*
D03*
Y177000D02*
D03*
Y172000D02*
D03*
Y167000D02*
D03*
D67*
X312949Y236921D02*
D03*
X307949D02*
D03*
X302949D02*
D03*
X297949D02*
D03*
X292949D02*
D03*
X287949D02*
D03*
X282949D02*
D03*
X277949D02*
D03*
X272949D02*
D03*
X267949D02*
D03*
X262949D02*
D03*
X257949D02*
D03*
D68*
X170795Y201622D02*
D03*
X145205D02*
D03*
D69*
X173945Y148276D02*
D03*
X145008D02*
D03*
D70*
X173158Y193748D02*
D03*
X168827D02*
D03*
X164496D02*
D03*
X160165D02*
D03*
X155835D02*
D03*
X151504D02*
D03*
X147173D02*
D03*
X142842D02*
D03*
D71*
X331000Y172256D02*
D03*
Y166744D02*
D03*
X326000Y172256D02*
D03*
Y166744D02*
D03*
X431500Y218244D02*
D03*
Y223756D02*
D03*
X409500Y229756D02*
D03*
Y224244D02*
D03*
X431000Y181244D02*
D03*
Y186756D02*
D03*
X410000Y192756D02*
D03*
Y187244D02*
D03*
X451500Y177256D02*
D03*
Y171744D02*
D03*
X473500Y174756D02*
D03*
Y169244D02*
D03*
X380000Y242756D02*
D03*
Y237244D02*
D03*
D72*
X236728Y247988D02*
D03*
D73*
X228728D02*
D03*
X220730D02*
D03*
X212730D02*
D03*
X204732D02*
D03*
X196732D02*
D03*
D74*
X244063Y170968D02*
D03*
Y162969D02*
D03*
Y154969D02*
D03*
Y146968D02*
D03*
D75*
X162579Y212760D02*
D03*
Y216500D02*
D03*
Y220240D02*
D03*
X172421D02*
D03*
Y216500D02*
D03*
Y212760D02*
D03*
X152921Y220240D02*
D03*
Y216500D02*
D03*
Y212760D02*
D03*
X143079D02*
D03*
Y216500D02*
D03*
Y220240D02*
D03*
X346079Y219240D02*
D03*
Y215500D02*
D03*
Y211760D02*
D03*
X355921D02*
D03*
Y215500D02*
D03*
Y219240D02*
D03*
D76*
X504150Y242000D02*
D03*
X497850D02*
D03*
X522150D02*
D03*
X515850D02*
D03*
X540150D02*
D03*
X533850D02*
D03*
X558150D02*
D03*
X551850D02*
D03*
X576150D02*
D03*
X569850D02*
D03*
X594150D02*
D03*
X587850D02*
D03*
X612150D02*
D03*
X605850D02*
D03*
X464850Y191500D02*
D03*
X471150D02*
D03*
X451350D02*
D03*
X457650D02*
D03*
D77*
X462043Y242032D02*
D03*
Y245969D02*
D03*
X440543Y242032D02*
D03*
Y245969D02*
D03*
X419043Y242032D02*
D03*
Y245969D02*
D03*
D78*
X455252Y244000D02*
D03*
X433752D02*
D03*
X412252D02*
D03*
D79*
X425531Y198957D02*
D03*
X429468D02*
D03*
X470031Y217925D02*
D03*
X473969D02*
D03*
X470031Y204957D02*
D03*
X473969D02*
D03*
D80*
X427500Y205748D02*
D03*
X472000Y224716D02*
D03*
Y211748D02*
D03*
D81*
X472815Y159500D02*
D03*
X457185D02*
D03*
D82*
X393724Y246724D02*
D03*
Y243575D02*
D03*
Y240425D02*
D03*
Y237276D02*
D03*
X384276D02*
D03*
Y240425D02*
D03*
Y243575D02*
D03*
Y246724D02*
D03*
D83*
X332740Y161421D02*
D03*
X329000D02*
D03*
X325260D02*
D03*
Y151579D02*
D03*
X329000D02*
D03*
X332740D02*
D03*
D84*
X491925Y193327D02*
D03*
Y224823D02*
D03*
X643500Y182500D02*
D03*
Y224823D02*
D03*
D85*
X394000Y215622D02*
D03*
D86*
Y207748D02*
D03*
Y199874D02*
D03*
Y192000D02*
D03*
D87*
X365008Y244587D02*
D03*
X330992D02*
D03*
D88*
X365008Y228130D02*
D03*
X330992D02*
D03*
D89*
X359378Y230098D02*
D03*
X336622D02*
D03*
D90*
X134500Y243500D02*
D03*
Y233500D02*
D03*
X492000Y167264D02*
D03*
Y177264D02*
D03*
D91*
X134500Y223500D02*
D03*
X492000Y157264D02*
D03*
D92*
X235205Y211000D02*
D03*
X198000D02*
D03*
D93*
X516269Y208300D02*
D03*
D94*
X545600D02*
D03*
D95*
X675500Y174500D02*
D03*
D96*
Y189500D02*
D03*
Y204500D02*
D03*
D97*
X158914Y199154D02*
D03*
X145733Y246033D02*
D03*
X421833Y242633D02*
D03*
X503500Y207000D02*
D03*
X223421Y196500D02*
D03*
X230500Y192126D02*
D03*
X222543Y212874D02*
D03*
X214500Y212968D02*
D03*
X213579Y196500D02*
D03*
X290500Y232000D02*
D03*
X389000Y243500D02*
D03*
X316019Y177396D02*
D03*
X357319Y202500D02*
D03*
X354819Y189500D02*
D03*
X229500Y185000D02*
D03*
X336500Y161500D02*
D03*
X378000Y184000D02*
D03*
X368500Y185500D02*
D03*
X364500Y198500D02*
D03*
X373621Y210500D02*
D03*
X148500Y208000D02*
D03*
X144500D02*
D03*
X431333Y196333D02*
D03*
X315264Y198701D02*
D03*
X338882Y185316D02*
D03*
X257500Y202000D02*
D03*
Y212000D02*
D03*
X385000Y192500D02*
D03*
X446000Y161500D02*
D03*
X236451Y245181D02*
D03*
X204500D02*
D03*
X257500Y192000D02*
D03*
X330535Y191465D02*
D03*
X247458Y247542D02*
D03*
X314795Y232289D02*
D03*
X308500Y223500D02*
D03*
X418000Y159500D02*
D03*
X415000D02*
D03*
X386558Y183190D02*
D03*
X389420D02*
D03*
X375255Y215255D02*
D03*
X368000Y148000D02*
D03*
X398000Y148500D02*
D03*
X374000Y148000D02*
D03*
X508000Y248000D02*
D03*
X429785Y193209D02*
D03*
X228500Y245181D02*
D03*
X544000Y248000D02*
D03*
X526000D02*
D03*
X598000D02*
D03*
X616000D02*
D03*
X580000D02*
D03*
X562000D02*
D03*
X276000Y223500D02*
D03*
X152000Y222000D02*
D03*
X447500Y169500D02*
D03*
X438500Y164500D02*
D03*
X430500Y167000D02*
D03*
X342500Y183819D02*
D03*
X330500Y186500D02*
D03*
X335652Y194652D02*
D03*
X337500Y191000D02*
D03*
X348458Y147958D02*
D03*
X257500Y207000D02*
D03*
Y197000D02*
D03*
X220500Y245181D02*
D03*
X212500D02*
D03*
X212626Y189500D02*
D03*
X216563D02*
D03*
X220500D02*
D03*
X128000Y164000D02*
D03*
X156000Y208000D02*
D03*
X258000Y234000D02*
D03*
X229500Y181862D02*
D03*
X244415Y247543D02*
D03*
X329000Y154000D02*
D03*
Y159000D02*
D03*
X352500Y197000D02*
D03*
X346000Y191500D02*
D03*
X343500Y203000D02*
D03*
X342000Y208500D02*
D03*
X330500Y196500D02*
D03*
X372732Y197193D02*
D03*
X320000Y217500D02*
D03*
Y213181D02*
D03*
X169500Y188500D02*
D03*
X286181Y223500D02*
D03*
X299000D02*
D03*
X344500Y220500D02*
D03*
X325500Y206500D02*
D03*
X353500Y215500D02*
D03*
X348095D02*
D03*
X175000Y216500D02*
D03*
X140500D02*
D03*
X150000D02*
D03*
X164000D02*
D03*
X268000Y234181D02*
D03*
X263000Y234000D02*
D03*
X273000Y234181D02*
D03*
X325500Y201500D02*
D03*
X303000Y247500D02*
D03*
X171500Y222000D02*
D03*
D98*
X409200Y204300D02*
D03*
X204000Y177818D02*
D03*
X208918D02*
D03*
X136500Y199500D02*
D03*
X353000Y231000D02*
D03*
X261500Y173000D02*
D03*
X181000Y232000D02*
D03*
X149000Y159500D02*
D03*
X176500Y166500D02*
D03*
X440000Y228500D02*
D03*
X372000Y230500D02*
D03*
X371275Y241725D02*
D03*
X425000Y222000D02*
D03*
X409243Y243743D02*
D03*
X461500Y175000D02*
D03*
X439500Y183000D02*
D03*
X417000Y183500D02*
D03*
X404916Y187119D02*
D03*
X421000Y195169D02*
D03*
X311997Y178500D02*
D03*
X357500Y179000D02*
D03*
X199000Y166500D02*
D03*
X405044Y218500D02*
D03*
X271000Y216500D02*
D03*
X441500Y217000D02*
D03*
X420047Y212000D02*
D03*
X306500Y192500D02*
D03*
X336500Y178500D02*
D03*
X263000Y218000D02*
D03*
X267000Y207000D02*
D03*
X275000D02*
D03*
X354500Y205000D02*
D03*
X349500D02*
D03*
X472423Y245107D02*
D03*
X347000Y163000D02*
D03*
X462500Y205000D02*
D03*
X466500Y209000D02*
D03*
X442000Y206000D02*
D03*
X461383Y233883D02*
D03*
X460000Y225000D02*
D03*
X458500Y247000D02*
D03*
X436923Y246666D02*
D03*
X126000Y179500D02*
D03*
X128268Y209693D02*
D03*
X447661Y153054D02*
D03*
X423000Y232000D02*
D03*
X118500Y246500D02*
D03*
X156000Y187000D02*
D03*
X196918Y246318D02*
D03*
X448000Y239500D02*
D03*
X118500Y241500D02*
D03*
D99*
X426957Y155032D02*
D03*
X430500D02*
D03*
X434043D02*
D03*
X426957Y158968D02*
D03*
X430500D02*
D03*
X434043D02*
D03*
D100*
X114811Y228051D02*
D03*
X681740Y149311D02*
D03*
Y228051D02*
D03*
X114811Y149311D02*
D03*
M02*
