G04*
G04 #@! TF.GenerationSoftware,Altium Limited,Altium Designer,22.9.1 (49)*
G04*
G04 Layer_Physical_Order=2*
G04 Layer_Color=36540*
%FSLAX25Y25*%
%MOIN*%
G70*
G04*
G04 #@! TF.SameCoordinates,3F8A9F32-4B6F-401C-BF37-4CBD66F0855C*
G04*
G04*
G04 #@! TF.FilePolarity,Positive*
G04*
G01*
G75*
%ADD13C,0.01000*%
%ADD85R,0.05118X0.05118*%
%ADD86C,0.05118*%
G04:AMPARAMS|DCode=87|XSize=39.37mil|YSize=70.87mil|CornerRadius=19.68mil|HoleSize=0mil|Usage=FLASHONLY|Rotation=180.000|XOffset=0mil|YOffset=0mil|HoleType=Round|Shape=RoundedRectangle|*
%AMROUNDEDRECTD87*
21,1,0.03937,0.03150,0,0,180.0*
21,1,0.00000,0.07087,0,0,180.0*
1,1,0.03937,0.00000,0.01575*
1,1,0.03937,0.00000,0.01575*
1,1,0.03937,0.00000,-0.01575*
1,1,0.03937,0.00000,-0.01575*
%
%ADD87ROUNDEDRECTD87*%
G04:AMPARAMS|DCode=88|XSize=39.37mil|YSize=82.68mil|CornerRadius=19.68mil|HoleSize=0mil|Usage=FLASHONLY|Rotation=180.000|XOffset=0mil|YOffset=0mil|HoleType=Round|Shape=RoundedRectangle|*
%AMROUNDEDRECTD88*
21,1,0.03937,0.04331,0,0,180.0*
21,1,0.00000,0.08268,0,0,180.0*
1,1,0.03937,0.00000,0.02165*
1,1,0.03937,0.00000,0.02165*
1,1,0.03937,0.00000,-0.02165*
1,1,0.03937,0.00000,-0.02165*
%
%ADD88ROUNDEDRECTD88*%
%ADD89C,0.02559*%
%ADD93C,0.04921*%
%ADD94C,0.03937*%
%ADD99C,0.02362*%
%ADD101C,0.00800*%
%ADD103C,0.07323*%
%ADD104C,0.01575*%
%ADD105C,0.05906*%
%ADD106R,0.05906X0.05906*%
%ADD107C,0.15748*%
%ADD108R,0.08268X0.08268*%
%ADD109C,0.08268*%
%ADD110C,0.04000*%
%ADD111C,0.22047*%
G36*
X694000Y137500D02*
X327000D01*
X321423Y143077D01*
Y161134D01*
X321265Y161517D01*
X320882Y161675D01*
X250016D01*
X249633Y161517D01*
X249475Y161134D01*
Y142974D01*
X244000Y137500D01*
X103000D01*
Y255500D01*
X694000D01*
Y137500D01*
D02*
G37*
%LPC*%
G36*
X616334Y249681D02*
X615666D01*
X615048Y249425D01*
X614575Y248952D01*
X614319Y248334D01*
Y247666D01*
X614575Y247048D01*
X615048Y246575D01*
X615666Y246319D01*
X616334D01*
X616952Y246575D01*
X617425Y247048D01*
X617681Y247666D01*
Y248334D01*
X617425Y248952D01*
X616952Y249425D01*
X616334Y249681D01*
D02*
G37*
G36*
X598334D02*
X597666D01*
X597048Y249425D01*
X596575Y248952D01*
X596319Y248334D01*
Y247666D01*
X596575Y247048D01*
X597048Y246575D01*
X597666Y246319D01*
X598334D01*
X598952Y246575D01*
X599425Y247048D01*
X599681Y247666D01*
Y248334D01*
X599425Y248952D01*
X598952Y249425D01*
X598334Y249681D01*
D02*
G37*
G36*
X580334D02*
X579666D01*
X579048Y249425D01*
X578575Y248952D01*
X578319Y248334D01*
Y247666D01*
X578575Y247048D01*
X579048Y246575D01*
X579666Y246319D01*
X580334D01*
X580952Y246575D01*
X581425Y247048D01*
X581681Y247666D01*
Y248334D01*
X581425Y248952D01*
X580952Y249425D01*
X580334Y249681D01*
D02*
G37*
G36*
X562334D02*
X561666D01*
X561048Y249425D01*
X560575Y248952D01*
X560319Y248334D01*
Y247666D01*
X560575Y247048D01*
X561048Y246575D01*
X561666Y246319D01*
X562334D01*
X562952Y246575D01*
X563425Y247048D01*
X563681Y247666D01*
Y248334D01*
X563425Y248952D01*
X562952Y249425D01*
X562334Y249681D01*
D02*
G37*
G36*
X544334D02*
X543666D01*
X543048Y249425D01*
X542575Y248952D01*
X542319Y248334D01*
Y247666D01*
X542575Y247048D01*
X543048Y246575D01*
X543666Y246319D01*
X544334D01*
X544952Y246575D01*
X545425Y247048D01*
X545681Y247666D01*
Y248334D01*
X545425Y248952D01*
X544952Y249425D01*
X544334Y249681D01*
D02*
G37*
G36*
X526334D02*
X525666D01*
X525048Y249425D01*
X524575Y248952D01*
X524319Y248334D01*
Y247666D01*
X524575Y247048D01*
X525048Y246575D01*
X525666Y246319D01*
X526334D01*
X526952Y246575D01*
X527425Y247048D01*
X527681Y247666D01*
Y248334D01*
X527425Y248952D01*
X526952Y249425D01*
X526334Y249681D01*
D02*
G37*
G36*
X508334D02*
X507666D01*
X507048Y249425D01*
X506575Y248952D01*
X506319Y248334D01*
Y247666D01*
X506575Y247048D01*
X507048Y246575D01*
X507666Y246319D01*
X508334D01*
X508952Y246575D01*
X509425Y247048D01*
X509681Y247666D01*
Y248334D01*
X509425Y248952D01*
X508952Y249425D01*
X508334Y249681D01*
D02*
G37*
G36*
X244750Y249224D02*
X244081D01*
X243463Y248969D01*
X242990Y248496D01*
X242734Y247878D01*
Y247209D01*
X242990Y246591D01*
X243463Y246118D01*
X244081Y245862D01*
X244750D01*
X245368Y246118D01*
X245609Y246360D01*
X245937Y246538D01*
X246263Y246360D01*
X246505Y246117D01*
X247123Y245861D01*
X247792D01*
X248410Y246117D01*
X248883Y246590D01*
X249139Y247208D01*
Y247877D01*
X248883Y248495D01*
X248410Y248967D01*
X247792Y249223D01*
X247123D01*
X246505Y248967D01*
X246264Y248726D01*
X245936Y248547D01*
X245610Y248726D01*
X245368Y248969D01*
X244750Y249224D01*
D02*
G37*
G36*
X303334Y249181D02*
X302666D01*
X302048Y248925D01*
X301575Y248452D01*
X301319Y247834D01*
Y247166D01*
X301575Y246548D01*
X302048Y246075D01*
X302666Y245819D01*
X303334D01*
X303952Y246075D01*
X304425Y246548D01*
X304681Y247166D01*
Y247834D01*
X304425Y248452D01*
X303952Y248925D01*
X303334Y249181D01*
D02*
G37*
G36*
X365508Y249090D02*
Y245087D01*
X368002D01*
Y246161D01*
X367900Y246936D01*
X367601Y247658D01*
X367125Y248279D01*
X366505Y248754D01*
X365783Y249054D01*
X365508Y249090D01*
D02*
G37*
G36*
X331492Y249090D02*
Y245087D01*
X333986D01*
Y246161D01*
X333884Y246936D01*
X333585Y247658D01*
X333109Y248279D01*
X332489Y248754D01*
X331767Y249054D01*
X331492Y249090D01*
D02*
G37*
G36*
X330492Y249090D02*
X330217Y249054D01*
X329495Y248754D01*
X328875Y248279D01*
X328399Y247658D01*
X328100Y246936D01*
X327998Y246161D01*
Y245087D01*
X330492D01*
Y249090D01*
D02*
G37*
G36*
X364508Y249090D02*
X364233Y249054D01*
X363511Y248754D01*
X362891Y248279D01*
X362415Y247658D01*
X362116Y246936D01*
X362014Y246161D01*
Y245087D01*
X364508D01*
Y249090D01*
D02*
G37*
G36*
X236728Y249008D02*
X236338Y248930D01*
X236007Y248709D01*
X235786Y248378D01*
X235709Y247988D01*
X235786Y247598D01*
X236007Y247267D01*
X238334Y244941D01*
X238665Y244720D01*
X239055Y244642D01*
X239445Y244720D01*
X239776Y244941D01*
X239997Y245271D01*
X240074Y245662D01*
X239997Y246052D01*
X239776Y246383D01*
X237449Y248709D01*
X237119Y248930D01*
X236728Y249008D01*
D02*
G37*
G36*
X458997Y249500D02*
X458003D01*
X457084Y249119D01*
X456381Y248416D01*
X456000Y247497D01*
Y246503D01*
X456381Y245584D01*
X457084Y244881D01*
X458003Y244500D01*
X458997D01*
X459916Y244881D01*
X460619Y245584D01*
X461000Y246503D01*
Y247497D01*
X460619Y248416D01*
X459916Y249119D01*
X458997Y249500D01*
D02*
G37*
G36*
X437420Y249166D02*
X436425D01*
X435506Y248785D01*
X434803Y248082D01*
X434423Y247163D01*
Y246169D01*
X434803Y245250D01*
X435506Y244547D01*
X436425Y244166D01*
X437420D01*
X438339Y244547D01*
X439042Y245250D01*
X439423Y246169D01*
Y247163D01*
X439042Y248082D01*
X438339Y248785D01*
X437420Y249166D01*
D02*
G37*
G36*
X197415Y248818D02*
X196421D01*
X195502Y248437D01*
X194799Y247734D01*
X194418Y246815D01*
Y245820D01*
X194799Y244902D01*
X195502Y244198D01*
X196421Y243818D01*
X197415D01*
X198334Y244198D01*
X199037Y244902D01*
X199418Y245820D01*
Y246815D01*
X199037Y247734D01*
X198334Y248437D01*
X197415Y248818D01*
D02*
G37*
G36*
X228834Y246862D02*
X228166D01*
X227548Y246606D01*
X227075Y246133D01*
X226819Y245515D01*
Y244847D01*
X227075Y244229D01*
X227548Y243756D01*
X228166Y243500D01*
X228834D01*
X229452Y243756D01*
X229925Y244229D01*
X230181Y244847D01*
Y245515D01*
X229925Y246133D01*
X229452Y246606D01*
X228834Y246862D01*
D02*
G37*
G36*
X220834D02*
X220166D01*
X219548Y246606D01*
X219075Y246133D01*
X218819Y245515D01*
Y244847D01*
X219075Y244229D01*
X219548Y243756D01*
X220166Y243500D01*
X220834D01*
X221452Y243756D01*
X221925Y244229D01*
X222181Y244847D01*
Y245515D01*
X221925Y246133D01*
X221452Y246606D01*
X220834Y246862D01*
D02*
G37*
G36*
X212834D02*
X212166D01*
X211548Y246606D01*
X211075Y246133D01*
X210819Y245515D01*
Y244847D01*
X211075Y244229D01*
X211548Y243756D01*
X212166Y243500D01*
X212834D01*
X213452Y243756D01*
X213925Y244229D01*
X214181Y244847D01*
Y245515D01*
X213925Y246133D01*
X213452Y246606D01*
X212834Y246862D01*
D02*
G37*
G36*
X204834D02*
X204166D01*
X203548Y246606D01*
X203075Y246133D01*
X202819Y245515D01*
Y244847D01*
X203075Y244229D01*
X203548Y243756D01*
X204166Y243500D01*
X204834D01*
X205452Y243756D01*
X205925Y244229D01*
X206181Y244847D01*
Y245515D01*
X205925Y246133D01*
X205452Y246606D01*
X204834Y246862D01*
D02*
G37*
G36*
X472920Y247607D02*
X471925D01*
X471006Y247226D01*
X470303Y246523D01*
X469923Y245604D01*
Y244610D01*
X470303Y243691D01*
X471006Y242988D01*
X471925Y242607D01*
X472920D01*
X473839Y242988D01*
X474542Y243691D01*
X474923Y244610D01*
Y245604D01*
X474542Y246523D01*
X473839Y247226D01*
X472920Y247607D01*
D02*
G37*
G36*
X389334Y245181D02*
X388666D01*
X388048Y244925D01*
X387575Y244452D01*
X387319Y243834D01*
Y243166D01*
X387575Y242548D01*
X388048Y242075D01*
X388666Y241819D01*
X389334D01*
X389952Y242075D01*
X390425Y242548D01*
X390681Y243166D01*
Y243834D01*
X390425Y244452D01*
X389952Y244925D01*
X389334Y245181D01*
D02*
G37*
G36*
X409740Y246243D02*
X408745D01*
X407827Y245862D01*
X407123Y245159D01*
X406743Y244240D01*
Y243245D01*
X407123Y242326D01*
X407827Y241623D01*
X408745Y241243D01*
X409740D01*
X410659Y241623D01*
X411362Y242326D01*
X411743Y243245D01*
Y244240D01*
X411362Y245159D01*
X410659Y245862D01*
X409740Y246243D01*
D02*
G37*
G36*
X368002Y244087D02*
X365508D01*
Y240084D01*
X365783Y240120D01*
X366505Y240419D01*
X367125Y240895D01*
X367601Y241515D01*
X367900Y242237D01*
X368002Y243012D01*
Y244087D01*
D02*
G37*
G36*
X330492D02*
X327998D01*
Y243012D01*
X328100Y242237D01*
X328399Y241515D01*
X328875Y240895D01*
X329495Y240419D01*
X330217Y240120D01*
X330492Y240084D01*
Y244087D01*
D02*
G37*
G36*
X333986D02*
X331492D01*
Y240084D01*
X331767Y240120D01*
X332489Y240419D01*
X333109Y240895D01*
X333585Y241515D01*
X333884Y242237D01*
X333986Y243012D01*
Y244087D01*
D02*
G37*
G36*
X364508D02*
X362014D01*
Y243012D01*
X362116Y242237D01*
X362415Y241515D01*
X362891Y240895D01*
X363511Y240419D01*
X364233Y240120D01*
X364508Y240084D01*
Y244087D01*
D02*
G37*
G36*
X134955Y246953D02*
X134045D01*
X133167Y246718D01*
X132380Y246263D01*
X131737Y245620D01*
X131282Y244833D01*
X131047Y243955D01*
Y243045D01*
X131282Y242167D01*
X131737Y241380D01*
X132380Y240737D01*
X133167Y240283D01*
X134045Y240047D01*
X134955D01*
X135833Y240283D01*
X136620Y240737D01*
X137263Y241380D01*
X137717Y242167D01*
X137953Y243045D01*
Y243955D01*
X137717Y244833D01*
X137263Y245620D01*
X136620Y246263D01*
X135833Y246718D01*
X134955Y246953D01*
D02*
G37*
G36*
X371772Y244225D02*
X370778D01*
X369859Y243844D01*
X369156Y243141D01*
X368775Y242222D01*
Y241228D01*
X369156Y240309D01*
X369859Y239605D01*
X370778Y239225D01*
X371772D01*
X372691Y239605D01*
X373394Y240309D01*
X373775Y241228D01*
Y242222D01*
X373394Y243141D01*
X372691Y243844D01*
X371772Y244225D01*
D02*
G37*
G36*
X118997Y249000D02*
X118003D01*
X117084Y248619D01*
X116381Y247916D01*
X116000Y246997D01*
Y246003D01*
X116381Y245084D01*
X117084Y244381D01*
X117399Y244250D01*
Y243750D01*
X117084Y243619D01*
X116381Y242916D01*
X116000Y241997D01*
Y241003D01*
X116381Y240084D01*
X117084Y239381D01*
X118003Y239000D01*
X118997D01*
X119916Y239381D01*
X120619Y240084D01*
X121000Y241003D01*
Y241997D01*
X120619Y242916D01*
X119916Y243619D01*
X119601Y243750D01*
Y244250D01*
X119916Y244381D01*
X120619Y245084D01*
X121000Y246003D01*
Y246997D01*
X120619Y247916D01*
X119916Y248619D01*
X118997Y249000D01*
D02*
G37*
G36*
X448497Y242000D02*
X447503D01*
X446584Y241619D01*
X445881Y240916D01*
X445500Y239997D01*
Y239003D01*
X445881Y238084D01*
X446584Y237381D01*
X447503Y237000D01*
X448497D01*
X449416Y237381D01*
X450119Y238084D01*
X450500Y239003D01*
Y239997D01*
X450119Y240916D01*
X449416Y241619D01*
X448497Y242000D01*
D02*
G37*
G36*
X135020Y237453D02*
X135000D01*
Y234000D01*
X138453D01*
Y234020D01*
X138183Y235026D01*
X137663Y235927D01*
X136927Y236663D01*
X136026Y237183D01*
X135020Y237453D01*
D02*
G37*
G36*
X134000D02*
X133980D01*
X132974Y237183D01*
X132073Y236663D01*
X131337Y235927D01*
X130817Y235026D01*
X130547Y234020D01*
Y234000D01*
X134000D01*
Y237453D01*
D02*
G37*
G36*
X273334Y235862D02*
X272666D01*
X272048Y235606D01*
X271575Y235133D01*
X271319Y234516D01*
Y233847D01*
X271575Y233229D01*
X272048Y232756D01*
X272666Y232500D01*
X273334D01*
X273952Y232756D01*
X274425Y233229D01*
X274681Y233847D01*
Y234516D01*
X274425Y235133D01*
X273952Y235606D01*
X273334Y235862D01*
D02*
G37*
G36*
X268334D02*
X267666D01*
X267048Y235606D01*
X266575Y235133D01*
X266319Y234516D01*
Y233847D01*
X266575Y233229D01*
X267048Y232756D01*
X267666Y232500D01*
X268334D01*
X268952Y232756D01*
X269425Y233229D01*
X269681Y233847D01*
Y234516D01*
X269425Y235133D01*
X268952Y235606D01*
X268334Y235862D01*
D02*
G37*
G36*
X263334Y235681D02*
X262666D01*
X262048Y235425D01*
X261575Y234952D01*
X261319Y234334D01*
Y233666D01*
X261575Y233048D01*
X262048Y232575D01*
X262666Y232319D01*
X263334D01*
X263952Y232575D01*
X264425Y233048D01*
X264681Y233666D01*
Y234334D01*
X264425Y234952D01*
X263952Y235425D01*
X263334Y235681D01*
D02*
G37*
G36*
X258334D02*
X257666D01*
X257048Y235425D01*
X256575Y234952D01*
X256319Y234334D01*
Y233666D01*
X256575Y233048D01*
X257048Y232575D01*
X257666Y232319D01*
X258334D01*
X258952Y232575D01*
X259425Y233048D01*
X259681Y233666D01*
Y234334D01*
X259425Y234952D01*
X258952Y235425D01*
X258334Y235681D01*
D02*
G37*
G36*
X461880Y236383D02*
X460885D01*
X459967Y236002D01*
X459263Y235299D01*
X458883Y234380D01*
Y233385D01*
X459263Y232467D01*
X459967Y231763D01*
X460885Y231383D01*
X461880D01*
X462799Y231763D01*
X463502Y232467D01*
X463883Y233385D01*
Y234380D01*
X463502Y235299D01*
X462799Y236002D01*
X461880Y236383D01*
D02*
G37*
G36*
X315130Y233970D02*
X314461D01*
X313843Y233714D01*
X313370Y233241D01*
X313114Y232624D01*
Y231955D01*
X313370Y231337D01*
X313843Y230864D01*
X314461Y230608D01*
X315130D01*
X315748Y230864D01*
X316221Y231337D01*
X316477Y231955D01*
Y232624D01*
X316221Y233241D01*
X315748Y233714D01*
X315130Y233970D01*
D02*
G37*
G36*
X138453Y233000D02*
X135000D01*
Y229547D01*
X135020D01*
X136026Y229817D01*
X136927Y230337D01*
X137663Y231073D01*
X138183Y231974D01*
X138453Y232980D01*
Y233000D01*
D02*
G37*
G36*
X134000D02*
X130547D01*
Y232980D01*
X130817Y231974D01*
X131337Y231073D01*
X132073Y230337D01*
X132974Y229817D01*
X133980Y229547D01*
X134000D01*
Y233000D01*
D02*
G37*
G36*
X423497Y234500D02*
X422503D01*
X421584Y234119D01*
X420881Y233416D01*
X420500Y232497D01*
Y231503D01*
X420881Y230584D01*
X421584Y229881D01*
X422503Y229500D01*
X423497D01*
X424416Y229881D01*
X425119Y230584D01*
X425500Y231503D01*
Y232497D01*
X425119Y233416D01*
X424416Y234119D01*
X423497Y234500D01*
D02*
G37*
G36*
X365508Y233224D02*
Y228630D01*
X368002D01*
Y230295D01*
X367900Y231070D01*
X367601Y231792D01*
X367125Y232412D01*
X366505Y232888D01*
X365783Y233187D01*
X365508Y233224D01*
D02*
G37*
G36*
X331492Y233224D02*
Y228630D01*
X333986D01*
Y230295D01*
X333884Y231070D01*
X333585Y231792D01*
X333109Y232412D01*
X332489Y232888D01*
X331767Y233187D01*
X331492Y233224D01*
D02*
G37*
G36*
X330492Y233224D02*
X330217Y233187D01*
X329495Y232888D01*
X328875Y232412D01*
X328399Y231792D01*
X328100Y231070D01*
X327998Y230295D01*
Y228630D01*
X330492D01*
Y233224D01*
D02*
G37*
G36*
X364508Y233224D02*
X364233Y233187D01*
X363511Y232888D01*
X362891Y232412D01*
X362415Y231792D01*
X362116Y231070D01*
X362014Y230295D01*
Y228630D01*
X364508D01*
Y233224D01*
D02*
G37*
G36*
X359732Y231878D02*
X359024D01*
X358370Y231607D01*
X357869Y231106D01*
X357598Y230452D01*
Y229745D01*
X357869Y229090D01*
X358370Y228590D01*
X359024Y228319D01*
X359732D01*
X360386Y228590D01*
X360887Y229090D01*
X361157Y229745D01*
Y230452D01*
X360887Y231106D01*
X360386Y231607D01*
X359732Y231878D01*
D02*
G37*
G36*
X336976D02*
X336268D01*
X335614Y231607D01*
X335113Y231106D01*
X334842Y230452D01*
Y229745D01*
X335113Y229090D01*
X335614Y228590D01*
X336268Y228319D01*
X336976D01*
X337630Y228590D01*
X338131Y229090D01*
X338402Y229745D01*
Y230452D01*
X338131Y231106D01*
X337630Y231607D01*
X336976Y231878D01*
D02*
G37*
G36*
X372497Y233000D02*
X371503D01*
X370584Y232619D01*
X369881Y231916D01*
X369500Y230997D01*
Y230003D01*
X369881Y229084D01*
X370584Y228381D01*
X371503Y228000D01*
X372497D01*
X373416Y228381D01*
X374119Y229084D01*
X374500Y230003D01*
Y230997D01*
X374119Y231916D01*
X373416Y232619D01*
X372497Y233000D01*
D02*
G37*
G36*
X440497Y231000D02*
X439503D01*
X438584Y230619D01*
X437881Y229916D01*
X437500Y228997D01*
Y228003D01*
X437881Y227084D01*
X438584Y226381D01*
X439503Y226000D01*
X440497D01*
X441416Y226381D01*
X442119Y227084D01*
X442500Y228003D01*
Y228997D01*
X442119Y229916D01*
X441416Y230619D01*
X440497Y231000D01*
D02*
G37*
G36*
X492539Y229484D02*
X492425D01*
Y225323D01*
X496587D01*
Y225436D01*
X496269Y226622D01*
X495655Y227685D01*
X494787Y228553D01*
X493724Y229167D01*
X492539Y229484D01*
D02*
G37*
G36*
X491425D02*
X491312D01*
X490126Y229167D01*
X489063Y228553D01*
X488195Y227685D01*
X487581Y226622D01*
X487264Y225436D01*
Y225323D01*
X491425D01*
Y229484D01*
D02*
G37*
G36*
X368002Y227630D02*
X365508D01*
Y223036D01*
X365783Y223073D01*
X366505Y223372D01*
X367125Y223847D01*
X367601Y224467D01*
X367900Y225190D01*
X368002Y225965D01*
Y227630D01*
D02*
G37*
G36*
X330492D02*
X327998D01*
Y225965D01*
X328100Y225190D01*
X328399Y224467D01*
X328875Y223847D01*
X329495Y223372D01*
X330217Y223073D01*
X330492Y223036D01*
Y227630D01*
D02*
G37*
G36*
X333986D02*
X331492D01*
Y223036D01*
X331767Y223073D01*
X332489Y223372D01*
X333109Y223847D01*
X333585Y224467D01*
X333884Y225190D01*
X333986Y225965D01*
Y227630D01*
D02*
G37*
G36*
X364508D02*
X362014D01*
Y225965D01*
X362116Y225190D01*
X362415Y224467D01*
X362891Y223847D01*
X363511Y223372D01*
X364233Y223073D01*
X364508Y223036D01*
Y227630D01*
D02*
G37*
G36*
X460497Y227500D02*
X459503D01*
X458584Y227119D01*
X457881Y226416D01*
X457500Y225497D01*
Y224503D01*
X457881Y223584D01*
X458584Y222881D01*
X459503Y222500D01*
X460497D01*
X461416Y222881D01*
X462119Y223584D01*
X462500Y224503D01*
Y225497D01*
X462119Y226416D01*
X461416Y227119D01*
X460497Y227500D01*
D02*
G37*
G36*
X308834Y225181D02*
X308166D01*
X307548Y224925D01*
X307075Y224452D01*
X306819Y223834D01*
Y223166D01*
X307075Y222548D01*
X307548Y222075D01*
X308166Y221819D01*
X308834D01*
X309452Y222075D01*
X309925Y222548D01*
X310181Y223166D01*
Y223834D01*
X309925Y224452D01*
X309452Y224925D01*
X308834Y225181D01*
D02*
G37*
G36*
X276334D02*
X275666D01*
X275048Y224925D01*
X274575Y224452D01*
X274319Y223834D01*
Y223166D01*
X274575Y222548D01*
X275048Y222075D01*
X275666Y221819D01*
X276334D01*
X276952Y222075D01*
X277425Y222548D01*
X277681Y223166D01*
Y223834D01*
X277425Y224452D01*
X276952Y224925D01*
X276334Y225181D01*
D02*
G37*
G36*
X171834Y223681D02*
X171166D01*
X170548Y223425D01*
X170075Y222952D01*
X169819Y222334D01*
Y221666D01*
X170075Y221048D01*
X170548Y220575D01*
X171166Y220319D01*
X171834D01*
X172452Y220575D01*
X172925Y221048D01*
X173181Y221666D01*
Y222334D01*
X172925Y222952D01*
X172452Y223425D01*
X171834Y223681D01*
D02*
G37*
G36*
X152334D02*
X151666D01*
X151048Y223425D01*
X150575Y222952D01*
X150319Y222334D01*
Y221666D01*
X150575Y221048D01*
X151048Y220575D01*
X151666Y220319D01*
X152334D01*
X152952Y220575D01*
X153425Y221048D01*
X153681Y221666D01*
Y222334D01*
X153425Y222952D01*
X152952Y223425D01*
X152334Y223681D01*
D02*
G37*
G36*
X496587Y224323D02*
X492425D01*
Y220161D01*
X492539D01*
X493724Y220479D01*
X494787Y221093D01*
X495655Y221961D01*
X496269Y223024D01*
X496587Y224209D01*
Y224323D01*
D02*
G37*
G36*
X491425D02*
X487264D01*
Y224209D01*
X487581Y223024D01*
X488195Y221961D01*
X489063Y221093D01*
X490126Y220479D01*
X491312Y220161D01*
X491425D01*
Y224323D01*
D02*
G37*
G36*
X137953Y226953D02*
X131047D01*
Y220047D01*
X137953D01*
Y226953D01*
D02*
G37*
G36*
X425497Y224500D02*
X424503D01*
X423584Y224119D01*
X422881Y223416D01*
X422500Y222497D01*
Y221503D01*
X422881Y220584D01*
X423584Y219881D01*
X424503Y219500D01*
X425497D01*
X426416Y219881D01*
X427119Y220584D01*
X427500Y221503D01*
Y222497D01*
X427119Y223416D01*
X426416Y224119D01*
X425497Y224500D01*
D02*
G37*
G36*
X344834Y222181D02*
X344166D01*
X343548Y221925D01*
X343075Y221452D01*
X342819Y220834D01*
Y220166D01*
X343075Y219548D01*
X343548Y219075D01*
X344166Y218819D01*
X344834D01*
X345452Y219075D01*
X345925Y219548D01*
X346181Y220166D01*
Y220834D01*
X345925Y221452D01*
X345452Y221925D01*
X344834Y222181D01*
D02*
G37*
G36*
X320334Y219181D02*
X319666D01*
X319048Y218925D01*
X318575Y218452D01*
X318319Y217834D01*
Y217166D01*
X318575Y216548D01*
X319048Y216075D01*
X319666Y215819D01*
X320334D01*
X320952Y216075D01*
X321425Y216548D01*
X321681Y217166D01*
Y217834D01*
X321425Y218452D01*
X320952Y218925D01*
X320334Y219181D01*
D02*
G37*
G36*
X164334Y218181D02*
X163666D01*
X163048Y217925D01*
X162575Y217452D01*
X162319Y216834D01*
Y216166D01*
X162575Y215548D01*
X163048Y215075D01*
X163666Y214819D01*
X164334D01*
X164952Y215075D01*
X165425Y215548D01*
X165681Y216166D01*
Y216834D01*
X165425Y217452D01*
X164952Y217925D01*
X164334Y218181D01*
D02*
G37*
G36*
X150334D02*
X149666D01*
X149048Y217925D01*
X148575Y217452D01*
X148319Y216834D01*
Y216166D01*
X148575Y215548D01*
X149048Y215075D01*
X149666Y214819D01*
X150334D01*
X150952Y215075D01*
X151425Y215548D01*
X151681Y216166D01*
Y216834D01*
X151425Y217452D01*
X150952Y217925D01*
X150334Y218181D01*
D02*
G37*
G36*
X441997Y219500D02*
X441003D01*
X440084Y219119D01*
X439381Y218416D01*
X439000Y217497D01*
Y216503D01*
X439381Y215584D01*
X440084Y214881D01*
X441003Y214500D01*
X441997D01*
X442916Y214881D01*
X443619Y215584D01*
X444000Y216503D01*
Y217497D01*
X443619Y218416D01*
X442916Y219119D01*
X441997Y219500D01*
D02*
G37*
G36*
X271497Y219000D02*
X270503D01*
X269584Y218619D01*
X268881Y217916D01*
X268500Y216997D01*
Y216003D01*
X268881Y215084D01*
X269584Y214381D01*
X270503Y214000D01*
X271497D01*
X272416Y214381D01*
X273119Y215084D01*
X273500Y216003D01*
Y216997D01*
X273119Y217916D01*
X272416Y218619D01*
X271497Y219000D01*
D02*
G37*
G36*
X353834Y217181D02*
X353166D01*
X352548Y216925D01*
X352075Y216452D01*
X351819Y215834D01*
Y215166D01*
X352075Y214548D01*
X352548Y214075D01*
X353166Y213819D01*
X353834D01*
X354452Y214075D01*
X354925Y214548D01*
X355181Y215166D01*
Y215834D01*
X354925Y216452D01*
X354452Y216925D01*
X353834Y217181D01*
D02*
G37*
G36*
X375589Y216936D02*
X374921D01*
X374303Y216680D01*
X373830Y216207D01*
X373574Y215589D01*
Y214921D01*
X373830Y214303D01*
X374303Y213830D01*
X374921Y213574D01*
X375589D01*
X376207Y213830D01*
X376680Y214303D01*
X376936Y214921D01*
Y215589D01*
X376680Y216207D01*
X376207Y216680D01*
X375589Y216936D01*
D02*
G37*
G36*
X397059Y218681D02*
X390941D01*
Y212563D01*
X397059D01*
Y218681D01*
D02*
G37*
G36*
X320334Y214862D02*
X319666D01*
X319048Y214606D01*
X318575Y214133D01*
X318319Y213515D01*
Y212847D01*
X318575Y212229D01*
X319048Y211756D01*
X319666Y211500D01*
X320334D01*
X320952Y211756D01*
X321425Y212229D01*
X321681Y212847D01*
Y213515D01*
X321425Y214133D01*
X320952Y214606D01*
X320334Y214862D01*
D02*
G37*
G36*
X214834Y214650D02*
X214166D01*
X213548Y214394D01*
X213075Y213921D01*
X212819Y213303D01*
Y212634D01*
X213075Y212016D01*
X213548Y211543D01*
X214166Y211287D01*
X214834D01*
X215452Y211543D01*
X215925Y212016D01*
X216181Y212634D01*
Y213303D01*
X215925Y213921D01*
X215452Y214394D01*
X214834Y214650D01*
D02*
G37*
G36*
X222878Y214555D02*
X222209D01*
X221591Y214299D01*
X221118Y213826D01*
X220862Y213208D01*
Y212540D01*
X221118Y211922D01*
X221591Y211449D01*
X222209Y211193D01*
X222878D01*
X223496Y211449D01*
X223969Y211922D01*
X224224Y212540D01*
Y213208D01*
X223969Y213826D01*
X223496Y214299D01*
X222878Y214555D01*
D02*
G37*
G36*
X257834Y213681D02*
X257166D01*
X256548Y213425D01*
X256075Y212952D01*
X255819Y212334D01*
Y211666D01*
X256075Y211048D01*
X256548Y210575D01*
X257166Y210319D01*
X257834D01*
X258452Y210575D01*
X258925Y211048D01*
X259181Y211666D01*
Y212334D01*
X258925Y212952D01*
X258452Y213425D01*
X257834Y213681D01*
D02*
G37*
G36*
X420544Y214500D02*
X419550D01*
X418631Y214119D01*
X417928Y213416D01*
X417547Y212497D01*
Y211503D01*
X417928Y210584D01*
X418631Y209881D01*
X419550Y209500D01*
X420544D01*
X421463Y209881D01*
X422167Y210584D01*
X422547Y211503D01*
Y212497D01*
X422167Y213416D01*
X421463Y214119D01*
X420544Y214500D01*
D02*
G37*
G36*
X373956Y212181D02*
X373287D01*
X372669Y211925D01*
X372196Y211452D01*
X371940Y210834D01*
Y210166D01*
X372196Y209548D01*
X372669Y209075D01*
X373287Y208819D01*
X373956D01*
X374574Y209075D01*
X375046Y209548D01*
X375302Y210166D01*
Y210834D01*
X375046Y211452D01*
X374574Y211925D01*
X373956Y212181D01*
D02*
G37*
G36*
X128765Y212193D02*
X127770D01*
X126852Y211812D01*
X126148Y211109D01*
X125768Y210190D01*
Y209196D01*
X126148Y208277D01*
X126852Y207574D01*
X127770Y207193D01*
X128765D01*
X129684Y207574D01*
X130387Y208277D01*
X130768Y209196D01*
Y210190D01*
X130387Y211109D01*
X129684Y211812D01*
X128765Y212193D01*
D02*
G37*
G36*
X342334Y210181D02*
X341666D01*
X341048Y209925D01*
X340575Y209452D01*
X340319Y208834D01*
Y208166D01*
X340575Y207548D01*
X341048Y207075D01*
X341666Y206819D01*
X342334D01*
X342952Y207075D01*
X343425Y207548D01*
X343681Y208166D01*
Y208834D01*
X343425Y209452D01*
X342952Y209925D01*
X342334Y210181D01*
D02*
G37*
G36*
X156334Y209681D02*
X155666D01*
X155048Y209425D01*
X154575Y208952D01*
X154319Y208334D01*
Y207666D01*
X154575Y207048D01*
X155048Y206575D01*
X155666Y206319D01*
X156334D01*
X156952Y206575D01*
X157425Y207048D01*
X157681Y207666D01*
Y208334D01*
X157425Y208952D01*
X156952Y209425D01*
X156334Y209681D01*
D02*
G37*
G36*
X148834D02*
X148166D01*
X147548Y209425D01*
X147075Y208952D01*
X146819Y208334D01*
Y207666D01*
X147075Y207048D01*
X147548Y206575D01*
X148166Y206319D01*
X148834D01*
X149452Y206575D01*
X149925Y207048D01*
X150181Y207666D01*
Y208334D01*
X149925Y208952D01*
X149452Y209425D01*
X148834Y209681D01*
D02*
G37*
G36*
X144834D02*
X144166D01*
X143548Y209425D01*
X143075Y208952D01*
X142819Y208334D01*
Y207666D01*
X143075Y207048D01*
X143548Y206575D01*
X144166Y206319D01*
X144834D01*
X145452Y206575D01*
X145925Y207048D01*
X146181Y207666D01*
Y208334D01*
X145925Y208952D01*
X145452Y209425D01*
X144834Y209681D01*
D02*
G37*
G36*
X546091Y210769D02*
X545109D01*
X544202Y210393D01*
X543507Y209698D01*
X543131Y208791D01*
Y207809D01*
X543507Y206902D01*
X544202Y206207D01*
X545109Y205832D01*
X546091D01*
X546998Y206207D01*
X547693Y206902D01*
X548069Y207809D01*
Y208791D01*
X547693Y209698D01*
X546998Y210393D01*
X546091Y210769D01*
D02*
G37*
G36*
X516659Y211261D02*
X515879D01*
X515127Y211059D01*
X514451Y210669D01*
X513900Y210118D01*
X513510Y209443D01*
X513309Y208690D01*
Y207910D01*
X513510Y207157D01*
X513900Y206482D01*
X514451Y205931D01*
X515127Y205541D01*
X515879Y205339D01*
X516659D01*
X517412Y205541D01*
X518087Y205931D01*
X518638Y206482D01*
X519028Y207157D01*
X519230Y207910D01*
Y208690D01*
X519028Y209443D01*
X518638Y210118D01*
X518087Y210669D01*
X517412Y211059D01*
X516659Y211261D01*
D02*
G37*
G36*
X503834Y208681D02*
X503166D01*
X502548Y208425D01*
X502075Y207952D01*
X501819Y207334D01*
Y206666D01*
X502075Y206048D01*
X502548Y205575D01*
X503166Y205319D01*
X503834D01*
X504452Y205575D01*
X504925Y206048D01*
X505181Y206666D01*
Y207334D01*
X504925Y207952D01*
X504452Y208425D01*
X503834Y208681D01*
D02*
G37*
G36*
X257834D02*
X257166D01*
X256548Y208425D01*
X256075Y207952D01*
X255819Y207334D01*
Y206666D01*
X256075Y206048D01*
X256548Y205575D01*
X257166Y205319D01*
X257834D01*
X258452Y205575D01*
X258925Y206048D01*
X259181Y206666D01*
Y207334D01*
X258925Y207952D01*
X258452Y208425D01*
X257834Y208681D01*
D02*
G37*
G36*
X325834Y208181D02*
X325166D01*
X324548Y207925D01*
X324075Y207452D01*
X323819Y206834D01*
Y206166D01*
X324075Y205548D01*
X324548Y205075D01*
X325166Y204819D01*
X325834D01*
X326452Y205075D01*
X326925Y205548D01*
X327181Y206166D01*
Y206834D01*
X326925Y207452D01*
X326452Y207925D01*
X325834Y208181D01*
D02*
G37*
G36*
X394403Y210807D02*
X393597D01*
X392819Y210599D01*
X392122Y210196D01*
X391552Y209626D01*
X391149Y208929D01*
X390941Y208151D01*
Y207345D01*
X391149Y206567D01*
X391552Y205870D01*
X392122Y205300D01*
X392819Y204897D01*
X393597Y204689D01*
X394403D01*
X395181Y204897D01*
X395878Y205300D01*
X396448Y205870D01*
X396851Y206567D01*
X397059Y207345D01*
Y208151D01*
X396851Y208929D01*
X396448Y209626D01*
X395878Y210196D01*
X395181Y210599D01*
X394403Y210807D01*
D02*
G37*
G36*
X275497Y209500D02*
X274503D01*
X273584Y209119D01*
X272881Y208416D01*
X272500Y207497D01*
Y206503D01*
X272881Y205584D01*
X273584Y204881D01*
X274503Y204500D01*
X275497D01*
X276416Y204881D01*
X277119Y205584D01*
X277500Y206503D01*
Y207497D01*
X277119Y208416D01*
X276416Y209119D01*
X275497Y209500D01*
D02*
G37*
G36*
X267497D02*
X266503D01*
X265584Y209119D01*
X264881Y208416D01*
X264500Y207497D01*
Y206503D01*
X264881Y205584D01*
X265584Y204881D01*
X266503Y204500D01*
X267497D01*
X268416Y204881D01*
X269119Y205584D01*
X269500Y206503D01*
Y207497D01*
X269119Y208416D01*
X268416Y209119D01*
X267497Y209500D01*
D02*
G37*
G36*
X462997Y207500D02*
X462003D01*
X461084Y207119D01*
X460381Y206416D01*
X460000Y205497D01*
Y204503D01*
X460381Y203584D01*
X461084Y202881D01*
X462003Y202500D01*
X462997D01*
X463916Y202881D01*
X464619Y203584D01*
X465000Y204503D01*
Y205497D01*
X464619Y206416D01*
X463916Y207119D01*
X462997Y207500D01*
D02*
G37*
G36*
X349997D02*
X349003D01*
X348084Y207119D01*
X347381Y206416D01*
X347000Y205497D01*
Y204503D01*
X347381Y203584D01*
X348084Y202881D01*
X349003Y202500D01*
X349997D01*
X350916Y202881D01*
X351619Y203584D01*
X352000Y204503D01*
Y205497D01*
X351619Y206416D01*
X350916Y207119D01*
X349997Y207500D01*
D02*
G37*
G36*
X343834Y204681D02*
X343166D01*
X342548Y204425D01*
X342075Y203952D01*
X341819Y203334D01*
Y202666D01*
X342075Y202048D01*
X342548Y201575D01*
X343166Y201319D01*
X343834D01*
X344452Y201575D01*
X344925Y202048D01*
X345181Y202666D01*
Y203334D01*
X344925Y203952D01*
X344452Y204425D01*
X343834Y204681D01*
D02*
G37*
G36*
X357653Y204181D02*
X356984D01*
X356367Y203925D01*
X355894Y203452D01*
X355638Y202834D01*
Y202166D01*
X355894Y201548D01*
X356367Y201075D01*
X356984Y200819D01*
X357653D01*
X358271Y201075D01*
X358744Y201548D01*
X359000Y202166D01*
Y202834D01*
X358744Y203452D01*
X358271Y203925D01*
X357653Y204181D01*
D02*
G37*
G36*
X257834Y203681D02*
X257166D01*
X256548Y203425D01*
X256075Y202952D01*
X255819Y202334D01*
Y201666D01*
X256075Y201048D01*
X256548Y200575D01*
X257166Y200319D01*
X257834D01*
X258452Y200575D01*
X258925Y201048D01*
X259181Y201666D01*
Y202334D01*
X258925Y202952D01*
X258452Y203425D01*
X257834Y203681D01*
D02*
G37*
G36*
X325834Y203181D02*
X325166D01*
X324548Y202925D01*
X324075Y202452D01*
X323819Y201834D01*
Y201166D01*
X324075Y200548D01*
X324548Y200075D01*
X325166Y199819D01*
X325834D01*
X326452Y200075D01*
X326925Y200548D01*
X327181Y201166D01*
Y201834D01*
X326925Y202452D01*
X326452Y202925D01*
X325834Y203181D01*
D02*
G37*
G36*
X364834Y200181D02*
X364166D01*
X363548Y199925D01*
X363075Y199452D01*
X362819Y198834D01*
Y198166D01*
X363075Y197548D01*
X363548Y197075D01*
X364166Y196819D01*
X364834D01*
X365452Y197075D01*
X365925Y197548D01*
X366181Y198166D01*
Y198834D01*
X365925Y199452D01*
X365452Y199925D01*
X364834Y200181D01*
D02*
G37*
G36*
X394403Y202933D02*
X393597D01*
X392819Y202725D01*
X392122Y202322D01*
X391552Y201752D01*
X391149Y201055D01*
X390941Y200277D01*
Y199471D01*
X391149Y198693D01*
X391552Y197996D01*
X392122Y197426D01*
X392819Y197023D01*
X393597Y196815D01*
X394403D01*
X395181Y197023D01*
X395878Y197426D01*
X396448Y197996D01*
X396851Y198693D01*
X397059Y199471D01*
Y200277D01*
X396851Y201055D01*
X396448Y201752D01*
X395878Y202322D01*
X395181Y202725D01*
X394403Y202933D01*
D02*
G37*
G36*
X352834Y198681D02*
X352166D01*
X351548Y198425D01*
X351075Y197952D01*
X350819Y197334D01*
Y196666D01*
X351075Y196048D01*
X351548Y195575D01*
X352166Y195319D01*
X352834D01*
X353452Y195575D01*
X353925Y196048D01*
X354181Y196666D01*
Y197334D01*
X353925Y197952D01*
X353452Y198425D01*
X352834Y198681D01*
D02*
G37*
G36*
X257834D02*
X257166D01*
X256548Y198425D01*
X256075Y197952D01*
X255819Y197334D01*
Y196666D01*
X256075Y196048D01*
X256548Y195575D01*
X257166Y195319D01*
X257834D01*
X258452Y195575D01*
X258925Y196048D01*
X259181Y196666D01*
Y197334D01*
X258925Y197952D01*
X258452Y198425D01*
X257834Y198681D01*
D02*
G37*
G36*
X330834Y198181D02*
X330166D01*
X329548Y197925D01*
X329075Y197452D01*
X328819Y196834D01*
Y196166D01*
X329075Y195548D01*
X329548Y195075D01*
X330166Y194819D01*
X330834D01*
X331452Y195075D01*
X331925Y195548D01*
X332181Y196166D01*
Y196834D01*
X331925Y197452D01*
X331452Y197925D01*
X330834Y198181D01*
D02*
G37*
G36*
X213913D02*
X213244D01*
X212627Y197925D01*
X212154Y197452D01*
X211898Y196834D01*
Y196166D01*
X212154Y195548D01*
X212627Y195075D01*
X213244Y194819D01*
X213913D01*
X214531Y195075D01*
X215004Y195548D01*
X215260Y196166D01*
Y196834D01*
X215004Y197452D01*
X214531Y197925D01*
X213913Y198181D01*
D02*
G37*
G36*
X421497Y197669D02*
X420503D01*
X419584Y197289D01*
X418881Y196585D01*
X418500Y195667D01*
Y194672D01*
X418881Y193753D01*
X419584Y193050D01*
X420503Y192669D01*
X421497D01*
X422416Y193050D01*
X423119Y193753D01*
X423500Y194672D01*
Y195667D01*
X423119Y196585D01*
X422416Y197289D01*
X421497Y197669D01*
D02*
G37*
G36*
X394500Y195551D02*
Y192500D01*
X397551D01*
X397317Y193374D01*
X396848Y194185D01*
X396185Y194848D01*
X395374Y195317D01*
X394500Y195551D01*
D02*
G37*
G36*
X393500D02*
X392626Y195317D01*
X391815Y194848D01*
X391152Y194185D01*
X390684Y193374D01*
X390449Y192500D01*
X393500D01*
Y195551D01*
D02*
G37*
G36*
X430119Y194890D02*
X429450D01*
X428832Y194634D01*
X428359Y194161D01*
X428103Y193543D01*
Y192874D01*
X428359Y192256D01*
X428832Y191784D01*
X429450Y191528D01*
X430119D01*
X430737Y191784D01*
X431210Y192256D01*
X431466Y192874D01*
Y193543D01*
X431210Y194161D01*
X430737Y194634D01*
X430119Y194890D01*
D02*
G37*
G36*
X385334Y194181D02*
X384666D01*
X384048Y193925D01*
X383575Y193452D01*
X383319Y192834D01*
Y192166D01*
X383575Y191548D01*
X384048Y191075D01*
X384666Y190819D01*
X385334D01*
X385952Y191075D01*
X386425Y191548D01*
X386681Y192166D01*
Y192834D01*
X386425Y193452D01*
X385952Y193925D01*
X385334Y194181D01*
D02*
G37*
G36*
X230834Y193807D02*
X230166D01*
X229548Y193551D01*
X229075Y193078D01*
X228819Y192460D01*
Y191792D01*
X229075Y191174D01*
X229548Y190701D01*
X230166Y190445D01*
X230834D01*
X231452Y190701D01*
X231925Y191174D01*
X232181Y191792D01*
Y192460D01*
X231925Y193078D01*
X231452Y193551D01*
X230834Y193807D01*
D02*
G37*
G36*
X257834Y193681D02*
X257166D01*
X256548Y193425D01*
X256075Y192952D01*
X255819Y192334D01*
Y191666D01*
X256075Y191048D01*
X256548Y190575D01*
X257166Y190319D01*
X257834D01*
X258452Y190575D01*
X258925Y191048D01*
X259181Y191666D01*
Y192334D01*
X258925Y192952D01*
X258452Y193425D01*
X257834Y193681D01*
D02*
G37*
G36*
X306997Y195000D02*
X306003D01*
X305084Y194619D01*
X304381Y193916D01*
X304000Y192997D01*
Y192003D01*
X304381Y191084D01*
X305084Y190381D01*
X306003Y190000D01*
X306997D01*
X307916Y190381D01*
X308619Y191084D01*
X309000Y192003D01*
Y192997D01*
X308619Y193916D01*
X307916Y194619D01*
X306997Y195000D01*
D02*
G37*
G36*
X346334Y193181D02*
X345666D01*
X345048Y192925D01*
X344575Y192452D01*
X344319Y191834D01*
Y191166D01*
X344575Y190548D01*
X345048Y190075D01*
X345666Y189819D01*
X346334D01*
X346952Y190075D01*
X347425Y190548D01*
X347681Y191166D01*
Y191834D01*
X347425Y192452D01*
X346952Y192925D01*
X346334Y193181D01*
D02*
G37*
G36*
X330869Y193147D02*
X330200D01*
X329582Y192891D01*
X329109Y192418D01*
X328853Y191800D01*
Y191131D01*
X329109Y190513D01*
X329582Y190040D01*
X330200Y189784D01*
X330869D01*
X331487Y190040D01*
X331960Y190513D01*
X332216Y191131D01*
Y191800D01*
X331960Y192418D01*
X331487Y192891D01*
X330869Y193147D01*
D02*
G37*
G36*
X337834Y192681D02*
X337166D01*
X336548Y192425D01*
X336075Y191952D01*
X335819Y191334D01*
Y190666D01*
X336075Y190048D01*
X336548Y189575D01*
X337166Y189319D01*
X337834D01*
X338452Y189575D01*
X338925Y190048D01*
X339181Y190666D01*
Y191334D01*
X338925Y191952D01*
X338452Y192425D01*
X337834Y192681D01*
D02*
G37*
G36*
X492473Y197488D02*
X491377D01*
X490319Y197205D01*
X489370Y196657D01*
X488595Y195882D01*
X488047Y194933D01*
X487764Y193875D01*
Y192779D01*
X488047Y191720D01*
X488595Y190772D01*
X489370Y189997D01*
X490319Y189449D01*
X491377Y189165D01*
X492473D01*
X493531Y189449D01*
X494480Y189997D01*
X495255Y190772D01*
X495803Y191720D01*
X496087Y192779D01*
Y193875D01*
X495803Y194933D01*
X495255Y195882D01*
X494480Y196657D01*
X493531Y197205D01*
X492473Y197488D01*
D02*
G37*
G36*
X397551Y191500D02*
X394500D01*
Y188449D01*
X395374Y188683D01*
X396185Y189152D01*
X396848Y189815D01*
X397317Y190626D01*
X397551Y191500D01*
D02*
G37*
G36*
X393500D02*
X390449D01*
X390684Y190626D01*
X391152Y189815D01*
X391815Y189152D01*
X392626Y188683D01*
X393500Y188449D01*
Y191500D01*
D02*
G37*
G36*
X220834Y191181D02*
X220166D01*
X219548Y190925D01*
X219075Y190452D01*
X218819Y189834D01*
Y189166D01*
X219075Y188548D01*
X219548Y188075D01*
X220166Y187819D01*
X220834D01*
X221452Y188075D01*
X221925Y188548D01*
X222181Y189166D01*
Y189834D01*
X221925Y190452D01*
X221452Y190925D01*
X220834Y191181D01*
D02*
G37*
G36*
X216897D02*
X216229D01*
X215611Y190925D01*
X215138Y190452D01*
X214882Y189834D01*
Y189166D01*
X215138Y188548D01*
X215611Y188075D01*
X216229Y187819D01*
X216897D01*
X217515Y188075D01*
X217988Y188548D01*
X218244Y189166D01*
Y189834D01*
X217988Y190452D01*
X217515Y190925D01*
X216897Y191181D01*
D02*
G37*
G36*
X212960D02*
X212292D01*
X211674Y190925D01*
X211201Y190452D01*
X210945Y189834D01*
Y189166D01*
X211201Y188548D01*
X211674Y188075D01*
X212292Y187819D01*
X212960D01*
X213578Y188075D01*
X214051Y188548D01*
X214307Y189166D01*
Y189834D01*
X214051Y190452D01*
X213578Y190925D01*
X212960Y191181D01*
D02*
G37*
G36*
X169834Y190181D02*
X169166D01*
X168548Y189925D01*
X168075Y189452D01*
X167819Y188834D01*
Y188166D01*
X168075Y187548D01*
X168548Y187075D01*
X169166Y186819D01*
X169834D01*
X170452Y187075D01*
X170925Y187548D01*
X171181Y188166D01*
Y188834D01*
X170925Y189452D01*
X170452Y189925D01*
X169834Y190181D01*
D02*
G37*
G36*
X330834Y188181D02*
X330166D01*
X329548Y187925D01*
X329075Y187452D01*
X328819Y186834D01*
Y186166D01*
X329075Y185548D01*
X329548Y185075D01*
X330166Y184819D01*
X330834D01*
X331452Y185075D01*
X331925Y185548D01*
X332181Y186166D01*
Y186834D01*
X331925Y187452D01*
X331452Y187925D01*
X330834Y188181D01*
D02*
G37*
G36*
X405413Y189619D02*
X404419D01*
X403500Y189239D01*
X402797Y188535D01*
X402416Y187617D01*
Y186622D01*
X402797Y185703D01*
X403500Y185000D01*
X404419Y184619D01*
X405413D01*
X406332Y185000D01*
X407035Y185703D01*
X407416Y186622D01*
Y187617D01*
X407035Y188535D01*
X406332Y189239D01*
X405413Y189619D01*
D02*
G37*
G36*
X156497Y189500D02*
X155503D01*
X154584Y189119D01*
X153881Y188416D01*
X153500Y187497D01*
Y186503D01*
X153881Y185584D01*
X154584Y184881D01*
X155503Y184500D01*
X156497D01*
X157416Y184881D01*
X158119Y185584D01*
X158500Y186503D01*
Y187497D01*
X158119Y188416D01*
X157416Y189119D01*
X156497Y189500D01*
D02*
G37*
G36*
X389755Y184871D02*
X389086D01*
X388468Y184615D01*
X388316Y184463D01*
X387989Y184148D01*
X387663Y184463D01*
X387510Y184615D01*
X386892Y184871D01*
X386224D01*
X385606Y184615D01*
X385133Y184142D01*
X384877Y183524D01*
Y182855D01*
X385133Y182238D01*
X385606Y181765D01*
X386224Y181509D01*
X386892D01*
X387510Y181765D01*
X387663Y181917D01*
X387989Y182232D01*
X388316Y181917D01*
X388468Y181765D01*
X389086Y181509D01*
X389755D01*
X390372Y181765D01*
X390845Y182238D01*
X391101Y182855D01*
Y183524D01*
X390845Y184142D01*
X390372Y184615D01*
X389755Y184871D01*
D02*
G37*
G36*
X368834Y187181D02*
X368166D01*
X367548Y186925D01*
X367075Y186452D01*
X366819Y185834D01*
Y185166D01*
X367075Y184548D01*
X367548Y184075D01*
X368166Y183819D01*
X368834D01*
X369452Y184075D01*
X369925Y184548D01*
X370181Y185166D01*
Y185834D01*
X369925Y186452D01*
X369452Y186925D01*
X368834Y187181D01*
D02*
G37*
G36*
X339217Y186997D02*
X338548D01*
X337930Y186741D01*
X337457Y186268D01*
X337201Y185650D01*
Y184981D01*
X337457Y184363D01*
X337930Y183890D01*
X338548Y183634D01*
X339217D01*
X339835Y183890D01*
X340307Y184363D01*
X340563Y184981D01*
Y185650D01*
X340307Y186268D01*
X339835Y186741D01*
X339217Y186997D01*
D02*
G37*
G36*
X378334Y185681D02*
X377666D01*
X377048Y185425D01*
X376575Y184952D01*
X376319Y184334D01*
Y183666D01*
X376575Y183048D01*
X377048Y182575D01*
X377666Y182319D01*
X378334D01*
X378952Y182575D01*
X379425Y183048D01*
X379681Y183666D01*
Y184334D01*
X379425Y184952D01*
X378952Y185425D01*
X378334Y185681D01*
D02*
G37*
G36*
X342834Y185500D02*
X342166D01*
X341548Y185244D01*
X341075Y184771D01*
X340819Y184153D01*
Y183484D01*
X341075Y182867D01*
X341548Y182394D01*
X342166Y182138D01*
X342834D01*
X343452Y182394D01*
X343925Y182867D01*
X344181Y183484D01*
Y184153D01*
X343925Y184771D01*
X343452Y185244D01*
X342834Y185500D01*
D02*
G37*
G36*
X439997D02*
X439003D01*
X438084Y185119D01*
X437381Y184416D01*
X437000Y183497D01*
Y182503D01*
X437381Y181584D01*
X438084Y180881D01*
X439003Y180500D01*
X439997D01*
X440916Y180881D01*
X441619Y181584D01*
X442000Y182503D01*
Y183497D01*
X441619Y184416D01*
X440916Y185119D01*
X439997Y185500D01*
D02*
G37*
G36*
X229834Y186681D02*
X229166D01*
X228548Y186425D01*
X228075Y185952D01*
X227819Y185334D01*
Y184666D01*
X228075Y184048D01*
X228368Y183754D01*
X228492Y183431D01*
X228368Y183108D01*
X228075Y182815D01*
X227819Y182197D01*
Y181528D01*
X228075Y180910D01*
X228548Y180437D01*
X229166Y180181D01*
X229834D01*
X230452Y180437D01*
X230925Y180910D01*
X231181Y181528D01*
Y182197D01*
X230925Y182815D01*
X230632Y183108D01*
X230507Y183431D01*
X230632Y183754D01*
X230925Y184048D01*
X231181Y184666D01*
Y185334D01*
X230925Y185952D01*
X230452Y186425D01*
X229834Y186681D01*
D02*
G37*
G36*
X492520Y181217D02*
X492500D01*
Y177764D01*
X495953D01*
Y177784D01*
X495683Y178789D01*
X495163Y179691D01*
X494427Y180427D01*
X493526Y180947D01*
X492520Y181217D01*
D02*
G37*
G36*
X491500D02*
X491480D01*
X490474Y180947D01*
X489573Y180427D01*
X488837Y179691D01*
X488317Y178789D01*
X488047Y177784D01*
Y177764D01*
X491500D01*
Y181217D01*
D02*
G37*
G36*
X126497Y182000D02*
X125503D01*
X124584Y181619D01*
X123881Y180916D01*
X123500Y179997D01*
Y179003D01*
X123881Y178084D01*
X124584Y177381D01*
X125503Y177000D01*
X126497D01*
X127416Y177381D01*
X128119Y178084D01*
X128500Y179003D01*
Y179997D01*
X128119Y180916D01*
X127416Y181619D01*
X126497Y182000D01*
D02*
G37*
G36*
X357997Y181500D02*
X357003D01*
X356084Y181119D01*
X355381Y180416D01*
X355000Y179497D01*
Y178503D01*
X355381Y177584D01*
X356084Y176881D01*
X357003Y176500D01*
X357997D01*
X358916Y176881D01*
X359619Y177584D01*
X360000Y178503D01*
Y179497D01*
X359619Y180416D01*
X358916Y181119D01*
X357997Y181500D01*
D02*
G37*
G36*
X312495Y181000D02*
X311500D01*
X310581Y180619D01*
X309878Y179916D01*
X309497Y178997D01*
Y178003D01*
X309878Y177084D01*
X310581Y176381D01*
X311500Y176000D01*
X312495D01*
X313413Y176381D01*
X313884Y176851D01*
X314473Y176736D01*
X314594Y176444D01*
X315067Y175971D01*
X315685Y175715D01*
X316353D01*
X316971Y175971D01*
X317444Y176444D01*
X317700Y177062D01*
Y177731D01*
X317444Y178349D01*
X316971Y178822D01*
X316353Y179077D01*
X315685D01*
X315067Y178822D01*
X314997Y178752D01*
X314497Y178959D01*
Y178997D01*
X314117Y179916D01*
X313413Y180619D01*
X312495Y181000D01*
D02*
G37*
G36*
X209415Y180318D02*
X208421D01*
X207502Y179937D01*
X206799Y179234D01*
X206418Y178315D01*
Y177321D01*
X206799Y176402D01*
X207502Y175698D01*
X208421Y175318D01*
X209415D01*
X210334Y175698D01*
X211037Y176402D01*
X211418Y177321D01*
Y178315D01*
X211037Y179234D01*
X210334Y179937D01*
X209415Y180318D01*
D02*
G37*
G36*
X495953Y176764D02*
X492500D01*
Y173311D01*
X492520D01*
X493526Y173580D01*
X494427Y174101D01*
X495163Y174837D01*
X495683Y175738D01*
X495953Y176743D01*
Y176764D01*
D02*
G37*
G36*
X491500D02*
X488047D01*
Y176743D01*
X488317Y175738D01*
X488837Y174837D01*
X489573Y174101D01*
X490474Y173580D01*
X491480Y173311D01*
X491500D01*
Y176764D01*
D02*
G37*
G36*
X447834Y171181D02*
X447166D01*
X446548Y170925D01*
X446075Y170452D01*
X445819Y169834D01*
Y169166D01*
X446075Y168548D01*
X446548Y168075D01*
X447166Y167819D01*
X447834D01*
X448452Y168075D01*
X448925Y168548D01*
X449181Y169166D01*
Y169834D01*
X448925Y170452D01*
X448452Y170925D01*
X447834Y171181D01*
D02*
G37*
G36*
X430834Y168681D02*
X430166D01*
X429548Y168425D01*
X429075Y167952D01*
X428819Y167334D01*
Y166666D01*
X429075Y166048D01*
X429548Y165575D01*
X430166Y165319D01*
X430834D01*
X431452Y165575D01*
X431925Y166048D01*
X432181Y166666D01*
Y167334D01*
X431925Y167952D01*
X431452Y168425D01*
X430834Y168681D01*
D02*
G37*
G36*
X199497Y169000D02*
X198503D01*
X197584Y168619D01*
X196881Y167916D01*
X196500Y166997D01*
Y166003D01*
X196881Y165084D01*
X197584Y164381D01*
X198503Y164000D01*
X199497D01*
X200416Y164381D01*
X201119Y165084D01*
X201500Y166003D01*
Y166997D01*
X201119Y167916D01*
X200416Y168619D01*
X199497Y169000D01*
D02*
G37*
G36*
X176997D02*
X176003D01*
X175084Y168619D01*
X174381Y167916D01*
X174000Y166997D01*
Y166003D01*
X174381Y165084D01*
X175084Y164381D01*
X176003Y164000D01*
X176997D01*
X177916Y164381D01*
X178619Y165084D01*
X179000Y166003D01*
Y166997D01*
X178619Y167916D01*
X177916Y168619D01*
X176997Y169000D01*
D02*
G37*
G36*
X492455Y170717D02*
X491545D01*
X490667Y170481D01*
X489880Y170027D01*
X489237Y169384D01*
X488783Y168596D01*
X488547Y167718D01*
Y166809D01*
X488783Y165931D01*
X489237Y165144D01*
X489880Y164501D01*
X490667Y164046D01*
X491545Y163811D01*
X492455D01*
X493333Y164046D01*
X494120Y164501D01*
X494763Y165144D01*
X495218Y165931D01*
X495453Y166809D01*
Y167718D01*
X495218Y168596D01*
X494763Y169384D01*
X494120Y170027D01*
X493333Y170481D01*
X492455Y170717D01*
D02*
G37*
G36*
X438834Y166181D02*
X438166D01*
X437548Y165925D01*
X437075Y165452D01*
X436819Y164834D01*
Y164166D01*
X437075Y163548D01*
X437548Y163075D01*
X438166Y162819D01*
X438834D01*
X439452Y163075D01*
X439925Y163548D01*
X440181Y164166D01*
Y164834D01*
X439925Y165452D01*
X439452Y165925D01*
X438834Y166181D01*
D02*
G37*
G36*
X128334Y165681D02*
X127666D01*
X127048Y165425D01*
X126575Y164952D01*
X126319Y164334D01*
Y163666D01*
X126575Y163048D01*
X127048Y162575D01*
X127666Y162319D01*
X128334D01*
X128952Y162575D01*
X129425Y163048D01*
X129681Y163666D01*
Y164334D01*
X129425Y164952D01*
X128952Y165425D01*
X128334Y165681D01*
D02*
G37*
G36*
X347497Y165500D02*
X346503D01*
X345584Y165119D01*
X344881Y164416D01*
X344500Y163497D01*
Y162503D01*
X344881Y161584D01*
X345584Y160881D01*
X346503Y160500D01*
X347497D01*
X348416Y160881D01*
X349119Y161584D01*
X349500Y162503D01*
Y163497D01*
X349119Y164416D01*
X348416Y165119D01*
X347497Y165500D01*
D02*
G37*
G36*
X418334Y161181D02*
X417666D01*
X417048Y160925D01*
X416827Y160704D01*
X416500Y160499D01*
X416173Y160704D01*
X415952Y160925D01*
X415334Y161181D01*
X414666D01*
X414048Y160925D01*
X413575Y160452D01*
X413319Y159834D01*
Y159166D01*
X413575Y158548D01*
X414048Y158075D01*
X414666Y157819D01*
X415334D01*
X415952Y158075D01*
X416173Y158296D01*
X416500Y158501D01*
X416827Y158296D01*
X417048Y158075D01*
X417666Y157819D01*
X418334D01*
X418952Y158075D01*
X419425Y158548D01*
X419681Y159166D01*
Y159834D01*
X419425Y160452D01*
X418952Y160925D01*
X418334Y161181D01*
D02*
G37*
G36*
X433543Y161122D02*
X432808Y160818D01*
X432272Y160281D01*
X431736Y160818D01*
X431000Y161122D01*
Y158968D01*
X430000D01*
Y161122D01*
X429264Y160818D01*
X428728Y160281D01*
X428192Y160818D01*
X427457Y161122D01*
Y158968D01*
X426957D01*
Y158468D01*
X424803D01*
X425108Y157733D01*
X425514Y157327D01*
X425666Y157000D01*
X425514Y156673D01*
X425108Y156267D01*
X424803Y155532D01*
X426957D01*
Y155032D01*
X427457D01*
Y152878D01*
X428192Y153182D01*
X428728Y153719D01*
X429264Y153182D01*
X430000Y152878D01*
Y155032D01*
X431000D01*
Y152878D01*
X431736Y153182D01*
X432272Y153719D01*
X432808Y153182D01*
X433543Y152878D01*
Y155032D01*
X434043D01*
Y155532D01*
X436197D01*
X435892Y156267D01*
X435486Y156673D01*
X435334Y157000D01*
X435486Y157327D01*
X435892Y157733D01*
X436197Y158468D01*
X434043D01*
Y158968D01*
X433543D01*
Y161122D01*
D02*
G37*
G36*
X446334Y163181D02*
X445666D01*
X445048Y162925D01*
X444575Y162452D01*
X444319Y161834D01*
Y161166D01*
X444575Y160548D01*
X445048Y160075D01*
X445666Y159819D01*
X446334D01*
X446952Y160075D01*
X447425Y160548D01*
X447681Y161166D01*
Y161834D01*
X447425Y162452D01*
X446952Y162925D01*
X446334Y163181D01*
D02*
G37*
G36*
X336834D02*
X336166D01*
X335548Y162925D01*
X335075Y162452D01*
X334819Y161834D01*
Y161166D01*
X335075Y160548D01*
X335548Y160075D01*
X336166Y159819D01*
X336834D01*
X337452Y160075D01*
X337925Y160548D01*
X338181Y161166D01*
Y161834D01*
X337925Y162452D01*
X337452Y162925D01*
X336834Y163181D01*
D02*
G37*
G36*
X434543Y161122D02*
Y159468D01*
X436197D01*
X435892Y160204D01*
X435279Y160818D01*
X434543Y161122D01*
D02*
G37*
G36*
X426457D02*
X425721Y160818D01*
X425108Y160204D01*
X424803Y159468D01*
X426457D01*
Y161122D01*
D02*
G37*
G36*
X495453Y160716D02*
X488547D01*
Y153811D01*
X495453D01*
Y160716D01*
D02*
G37*
G36*
X436197Y154532D02*
X434543D01*
Y152878D01*
X435279Y153182D01*
X435892Y153796D01*
X436197Y154532D01*
D02*
G37*
G36*
X426457D02*
X424803D01*
X425108Y153796D01*
X425721Y153182D01*
X426457Y152878D01*
Y154532D01*
D02*
G37*
G36*
X329334Y155681D02*
X328666D01*
X328048Y155425D01*
X327575Y154952D01*
X327319Y154334D01*
Y153666D01*
X327575Y153048D01*
X328048Y152575D01*
X328666Y152319D01*
X329334D01*
X329952Y152575D01*
X330425Y153048D01*
X330681Y153666D01*
Y154334D01*
X330425Y154952D01*
X329952Y155425D01*
X329334Y155681D01*
D02*
G37*
G36*
X448158Y155554D02*
X447163D01*
X446244Y155173D01*
X445541Y154470D01*
X445161Y153551D01*
Y152556D01*
X445541Y151638D01*
X446244Y150934D01*
X447163Y150554D01*
X448158D01*
X449077Y150934D01*
X449780Y151638D01*
X450161Y152556D01*
Y153551D01*
X449780Y154470D01*
X449077Y155173D01*
X448158Y155554D01*
D02*
G37*
G36*
X398334Y150181D02*
X397666D01*
X397048Y149925D01*
X396575Y149452D01*
X396319Y148834D01*
Y148166D01*
X396575Y147548D01*
X397048Y147075D01*
X397666Y146819D01*
X398334D01*
X398952Y147075D01*
X399425Y147548D01*
X399681Y148166D01*
Y148834D01*
X399425Y149452D01*
X398952Y149925D01*
X398334Y150181D01*
D02*
G37*
G36*
X374334Y149681D02*
X373666D01*
X373048Y149425D01*
X372575Y148952D01*
X372319Y148334D01*
Y147666D01*
X372575Y147048D01*
X373048Y146575D01*
X373666Y146319D01*
X374334D01*
X374952Y146575D01*
X375425Y147048D01*
X375681Y147666D01*
Y148334D01*
X375425Y148952D01*
X374952Y149425D01*
X374334Y149681D01*
D02*
G37*
G36*
X368334D02*
X367666D01*
X367048Y149425D01*
X366575Y148952D01*
X366319Y148334D01*
Y147666D01*
X366575Y147048D01*
X367048Y146575D01*
X367666Y146319D01*
X368334D01*
X368952Y146575D01*
X369425Y147048D01*
X369681Y147666D01*
Y148334D01*
X369425Y148952D01*
X368952Y149425D01*
X368334Y149681D01*
D02*
G37*
G36*
X348792Y149639D02*
X348123D01*
X347505Y149383D01*
X347033Y148910D01*
X346777Y148292D01*
Y147623D01*
X347033Y147005D01*
X347505Y146533D01*
X348123Y146277D01*
X348792D01*
X349410Y146533D01*
X349883Y147005D01*
X350139Y147623D01*
Y148292D01*
X349883Y148910D01*
X349410Y149383D01*
X348792Y149639D01*
D02*
G37*
G36*
X620700Y150618D02*
X602700D01*
Y144500D01*
X620700D01*
Y150618D01*
D02*
G37*
G36*
X688000Y249500D02*
X627000D01*
Y143500D01*
X688000D01*
Y249500D01*
D02*
G37*
%LPD*%
G36*
X610665Y150067D02*
X610731Y150059D01*
X610804Y150052D01*
X610884Y150037D01*
X610971Y150023D01*
X611161Y149972D01*
X611350Y149899D01*
X611452Y149855D01*
X611540Y149804D01*
X611634Y149739D01*
X611715Y149666D01*
X611722Y149658D01*
X611737Y149651D01*
X611751Y149622D01*
X611780Y149593D01*
X611817Y149556D01*
X611853Y149505D01*
X611890Y149454D01*
X611933Y149389D01*
X612006Y149243D01*
X612079Y149075D01*
X612108Y148980D01*
X612123Y148878D01*
X612138Y148769D01*
X612145Y148660D01*
Y148645D01*
Y148601D01*
X612138Y148536D01*
X612130Y148456D01*
X612116Y148353D01*
X612094Y148244D01*
X612065Y148127D01*
X612021Y148011D01*
X612014Y147996D01*
X611999Y147960D01*
X611970Y147894D01*
X611926Y147814D01*
X611875Y147719D01*
X611809Y147610D01*
X611729Y147493D01*
X611634Y147369D01*
X611627Y147362D01*
X611598Y147326D01*
X611554Y147274D01*
X611489Y147202D01*
X611401Y147114D01*
X611292Y146997D01*
X611161Y146873D01*
X611000Y146720D01*
X610993Y146713D01*
X610978Y146706D01*
X610957Y146684D01*
X610927Y146655D01*
X610847Y146582D01*
X610752Y146494D01*
X610658Y146400D01*
X610563Y146305D01*
X610475Y146225D01*
X610446Y146188D01*
X610417Y146159D01*
X610410Y146152D01*
X610395Y146137D01*
X610373Y146108D01*
X610344Y146072D01*
X610279Y145991D01*
X610220Y145897D01*
X612145D01*
Y145000D01*
X608755D01*
Y145007D01*
Y145022D01*
X608762Y145051D01*
X608770Y145088D01*
X608777Y145131D01*
X608784Y145182D01*
X608813Y145314D01*
X608857Y145459D01*
X608915Y145620D01*
X608988Y145795D01*
X609083Y145962D01*
Y145970D01*
X609098Y145984D01*
X609112Y146013D01*
X609141Y146043D01*
X609170Y146093D01*
X609214Y146144D01*
X609265Y146210D01*
X609324Y146283D01*
X609389Y146370D01*
X609469Y146458D01*
X609557Y146560D01*
X609659Y146669D01*
X609768Y146779D01*
X609892Y146903D01*
X610023Y147034D01*
X610169Y147172D01*
X610177Y147180D01*
X610198Y147202D01*
X610228Y147231D01*
X610271Y147274D01*
X610330Y147318D01*
X610388Y147377D01*
X610519Y147508D01*
X610650Y147646D01*
X610782Y147785D01*
X610840Y147843D01*
X610898Y147909D01*
X610942Y147960D01*
X610971Y148003D01*
X610978Y148018D01*
X611000Y148055D01*
X611037Y148113D01*
X611073Y148193D01*
X611110Y148281D01*
X611146Y148383D01*
X611168Y148485D01*
X611175Y148594D01*
Y148601D01*
Y148609D01*
Y148645D01*
X611168Y148711D01*
X611153Y148784D01*
X611131Y148864D01*
X611102Y148944D01*
X611059Y149024D01*
X611000Y149097D01*
X610993Y149104D01*
X610971Y149126D01*
X610927Y149155D01*
X610876Y149185D01*
X610804Y149214D01*
X610723Y149243D01*
X610629Y149265D01*
X610519Y149272D01*
X610468D01*
X610410Y149265D01*
X610344Y149250D01*
X610264Y149228D01*
X610184Y149192D01*
X610104Y149148D01*
X610031Y149090D01*
X610023Y149082D01*
X610002Y149053D01*
X609972Y149010D01*
X609943Y148944D01*
X609907Y148864D01*
X609878Y148754D01*
X609848Y148630D01*
X609834Y148485D01*
X608872Y148579D01*
Y148587D01*
X608879Y148616D01*
Y148652D01*
X608893Y148711D01*
X608901Y148776D01*
X608923Y148849D01*
X608945Y148929D01*
X608966Y149024D01*
X609039Y149206D01*
X609127Y149396D01*
X609185Y149491D01*
X609251Y149578D01*
X609324Y149651D01*
X609404Y149724D01*
X609411Y149731D01*
X609426Y149739D01*
X609447Y149753D01*
X609484Y149782D01*
X609528Y149804D01*
X609586Y149833D01*
X609644Y149870D01*
X609717Y149899D01*
X609797Y149935D01*
X609885Y149964D01*
X610075Y150023D01*
X610300Y150059D01*
X610417Y150067D01*
X610541Y150074D01*
X610614D01*
X610665Y150067D01*
D02*
G37*
G36*
X604170Y145000D02*
X603200D01*
Y145970D01*
X604170D01*
Y145000D01*
D02*
G37*
D13*
X675500Y174500D02*
X680634D01*
X675500D02*
Y179634D01*
X670366Y174500D02*
X675500D01*
Y169366D02*
Y174500D01*
X236728Y247988D02*
X239055Y245662D01*
D85*
X394000Y215622D02*
D03*
D86*
Y207748D02*
D03*
Y199874D02*
D03*
Y192000D02*
D03*
D87*
X365008Y244587D02*
D03*
X330992D02*
D03*
D88*
X365008Y228130D02*
D03*
X330992D02*
D03*
D89*
X359378Y230098D02*
D03*
X336622D02*
D03*
D93*
X516269Y208300D02*
D03*
D94*
X545600D02*
D03*
D99*
X158914Y199154D02*
D03*
X145733Y246033D02*
D03*
X421833Y242633D02*
D03*
X503500Y207000D02*
D03*
X223421Y196500D02*
D03*
X230500Y192126D02*
D03*
X222543Y212874D02*
D03*
X214500Y212968D02*
D03*
X213579Y196500D02*
D03*
X290500Y232000D02*
D03*
X389000Y243500D02*
D03*
X316019Y177396D02*
D03*
X357319Y202500D02*
D03*
X354819Y189500D02*
D03*
X229500Y185000D02*
D03*
X336500Y161500D02*
D03*
X378000Y184000D02*
D03*
X368500Y185500D02*
D03*
X364500Y198500D02*
D03*
X373621Y210500D02*
D03*
X148500Y208000D02*
D03*
X144500D02*
D03*
X431333Y196333D02*
D03*
X315264Y198701D02*
D03*
X338882Y185316D02*
D03*
X257500Y202000D02*
D03*
Y212000D02*
D03*
X385000Y192500D02*
D03*
X446000Y161500D02*
D03*
X236451Y245181D02*
D03*
X204500D02*
D03*
X257500Y192000D02*
D03*
X330535Y191465D02*
D03*
X247458Y247542D02*
D03*
X314795Y232289D02*
D03*
X308500Y223500D02*
D03*
X418000Y159500D02*
D03*
X415000D02*
D03*
X386558Y183190D02*
D03*
X389420D02*
D03*
X375255Y215255D02*
D03*
X368000Y148000D02*
D03*
X398000Y148500D02*
D03*
X374000Y148000D02*
D03*
X508000Y248000D02*
D03*
X429785Y193209D02*
D03*
X228500Y245181D02*
D03*
X544000Y248000D02*
D03*
X526000D02*
D03*
X598000D02*
D03*
X616000D02*
D03*
X580000D02*
D03*
X562000D02*
D03*
X276000Y223500D02*
D03*
X152000Y222000D02*
D03*
X447500Y169500D02*
D03*
X426957Y155032D02*
D03*
X430500D02*
D03*
X434043D02*
D03*
X426957Y158968D02*
D03*
X430500D02*
D03*
X434043D02*
D03*
X438500Y164500D02*
D03*
X430500Y167000D02*
D03*
X342500Y183819D02*
D03*
X330500Y186500D02*
D03*
X335652Y194652D02*
D03*
X337500Y191000D02*
D03*
X348458Y147958D02*
D03*
X257500Y207000D02*
D03*
Y197000D02*
D03*
X220500Y245181D02*
D03*
X212500D02*
D03*
X212626Y189500D02*
D03*
X216563D02*
D03*
X220500D02*
D03*
X128000Y164000D02*
D03*
X156000Y208000D02*
D03*
X258000Y234000D02*
D03*
X229500Y181862D02*
D03*
X244415Y247543D02*
D03*
X329000Y154000D02*
D03*
Y159000D02*
D03*
X352500Y197000D02*
D03*
X346000Y191500D02*
D03*
X343500Y203000D02*
D03*
X342000Y208500D02*
D03*
X330500Y196500D02*
D03*
X372732Y197193D02*
D03*
X320000Y217500D02*
D03*
Y213181D02*
D03*
X169500Y188500D02*
D03*
X286181Y223500D02*
D03*
X299000D02*
D03*
X344500Y220500D02*
D03*
X325500Y206500D02*
D03*
X353500Y215500D02*
D03*
X348095D02*
D03*
X175000Y216500D02*
D03*
X140500D02*
D03*
X150000D02*
D03*
X164000D02*
D03*
X268000Y234181D02*
D03*
X263000Y234000D02*
D03*
X273000Y234181D02*
D03*
X325500Y201500D02*
D03*
X303000Y247500D02*
D03*
X171500Y222000D02*
D03*
D101*
X679571Y197000D02*
G03*
X683562Y201702I-4072J7500D01*
G01*
Y192298D02*
G03*
X679571Y197000I-8062J-2798D01*
G01*
X677791Y181279D02*
G03*
X683562Y186702I-2291J8221D01*
G01*
X673209Y181279D02*
G03*
X677791Y181279I2291J8221D01*
G01*
X671428Y197000D02*
G03*
X673209Y181279I4072J-7500D01*
G01*
D02*
G03*
X670963Y180034I2291J-6779D01*
G01*
X680037D02*
G03*
X677791Y181279I-4537J-5534D01*
G01*
X681034Y169963D02*
G03*
X682656Y174500I-5534J4537D01*
G01*
D02*
G03*
X681034Y179037I-7156J0D01*
G01*
X670963Y168966D02*
G03*
X680037Y168966I4537J5534D01*
G01*
X669966Y179037D02*
G03*
X669966Y169963I5534J-4537D01*
G01*
X683562Y243367D02*
G03*
X683562Y212736I-1822J-15316D01*
G01*
Y207298D02*
G03*
X671428Y197000I-8062J-2798D01*
G01*
X651561Y224823D02*
G03*
X651561Y224823I-8061J0D01*
G01*
X683562Y164627D02*
G03*
X666378Y147938I-1822J-15316D01*
G01*
X651561Y182500D02*
G03*
X651561Y182500I-8061J0D01*
G01*
X683250Y208074D02*
X683562Y208386D01*
Y243367D02*
Y245062D01*
Y192298D02*
Y201702D01*
Y207298D02*
Y212736D01*
X679834Y245062D02*
X681424Y243472D01*
X680251Y196589D02*
X683562Y199901D01*
X681778Y183720D02*
X683562Y181937D01*
X682641Y199828D02*
X683562Y198907D01*
X680665Y180034D02*
X683562Y182930D01*
X681034Y179037D02*
Y180034D01*
X680251Y196589D02*
X683562Y199901D01*
X677821Y213134D02*
X678445Y212510D01*
X674324Y241575D02*
X677811Y245062D01*
X678982Y212291D02*
X679484Y212793D01*
X671348Y245062D02*
X674658Y241753D01*
X676031Y180983D02*
X676980Y180034D01*
X672180D02*
X673380Y181234D01*
X680037Y180034D02*
X681034D01*
X670963D02*
X680037D01*
X669966D02*
X670963D01*
X669966Y179037D02*
Y180034D01*
X682581Y173464D02*
X683562Y174445D01*
X681034Y175979D02*
X682654Y174359D01*
X683562Y164627D02*
Y186702D01*
X681034Y169963D02*
Y179037D01*
X682654Y174359D02*
X683562Y173451D01*
X681034Y171917D02*
X682581Y173464D01*
X682326Y164724D02*
X683562Y165960D01*
X681034Y168966D02*
Y169963D01*
X680037Y168966D02*
X681034D01*
X679770Y168758D02*
X683562Y164966D01*
X669966Y169963D02*
Y179037D01*
X669617Y170425D02*
X669966Y170077D01*
X668622Y176476D02*
X669966Y177820D01*
X676536Y167420D02*
X678083Y168966D01*
X671077D02*
X671425Y168617D01*
X676300Y163743D01*
X669966Y168966D02*
X670963D01*
X669966D02*
Y169963D01*
X670963Y168966D02*
X680037D01*
X662863Y245062D02*
X669941Y237984D01*
X654378Y245062D02*
X666965Y232475D01*
X651262Y226998D02*
X669326Y245062D01*
X631438D02*
X683562D01*
X645892D02*
X666823Y224132D01*
X637407Y245062D02*
X670828Y211641D01*
X651278Y222706D02*
X667261Y206723D01*
X647629Y189424D02*
X673328Y215123D01*
X647611Y217888D02*
X669720Y195779D01*
X631438Y198689D02*
X668216Y235467D01*
X631438Y190203D02*
X666559Y225325D01*
X638565Y218449D02*
X666983Y190031D01*
X647564Y231785D02*
X660841Y245062D01*
X638119Y230825D02*
X652356Y245062D01*
X631438Y234061D02*
X636565Y228933D01*
X631438Y232630D02*
X643870Y245062D01*
X631438Y241115D02*
X635385Y245062D01*
X631438Y242546D02*
X641383Y232601D01*
X631438Y207174D02*
X641325Y217060D01*
X631438Y200120D02*
X641302Y190256D01*
X631438Y200120D02*
X641302Y190256D01*
X631438Y224145D02*
X637498Y230204D01*
X631438Y225575D02*
X637126Y219887D01*
X631438Y215659D02*
X636538Y220759D01*
X638687Y188967D02*
X669032Y219312D01*
X651285Y184594D02*
X667709Y201018D01*
X631599Y147938D02*
X668411Y184749D01*
X631599Y147938D02*
X668411Y184749D01*
X631438Y217090D02*
X669758Y178770D01*
X631438Y208605D02*
X669617Y170425D01*
X631438Y156262D02*
X667419Y192243D01*
X651256Y180302D02*
X671090Y160467D01*
X651256Y180302D02*
X671090Y160467D01*
X657055Y147938D02*
X676536Y167420D01*
X640084Y147938D02*
X668622Y176476D01*
X647545Y175527D02*
X667600Y155472D01*
X648570Y147938D02*
X669966Y169334D01*
X631438Y173233D02*
X636576Y178371D01*
X631438Y183149D02*
X666354Y148233D01*
X631438Y164748D02*
X641406Y174715D01*
X631438Y181718D02*
X637033Y187313D01*
X631438Y191634D02*
X636527Y186545D01*
X631438Y147938D02*
Y245062D01*
Y147938D02*
X666378D01*
X631438Y149208D02*
X632708Y147938D01*
X665540D02*
X666328Y148725D01*
X631438Y174664D02*
X658164Y147938D01*
X631438Y166179D02*
X649679Y147938D01*
X631438Y157693D02*
X641193Y147938D01*
D103*
X491925Y193327D02*
D03*
Y224823D02*
D03*
X643500Y182500D02*
D03*
Y224823D02*
D03*
D104*
X291354Y194638D02*
D03*
X296866D02*
D03*
X285842D02*
D03*
X296866Y200150D02*
D03*
X291354D02*
D03*
X285842D02*
D03*
X294110Y191882D02*
D03*
X288598D02*
D03*
X294110Y197394D02*
D03*
X288598D02*
D03*
X294110Y202906D02*
D03*
X288598D02*
D03*
D105*
X134500Y243500D02*
D03*
Y233500D02*
D03*
X492000Y167264D02*
D03*
Y177264D02*
D03*
D106*
X134500Y223500D02*
D03*
X492000Y157264D02*
D03*
D107*
X235205Y211000D02*
D03*
X198000D02*
D03*
D108*
X675500Y174500D02*
D03*
D109*
Y189500D02*
D03*
Y204500D02*
D03*
D110*
X409200Y204300D02*
D03*
X204000Y177818D02*
D03*
X208918D02*
D03*
X136500Y199500D02*
D03*
X353000Y231000D02*
D03*
X261500Y173000D02*
D03*
X181000Y232000D02*
D03*
X149000Y159500D02*
D03*
X176500Y166500D02*
D03*
X440000Y228500D02*
D03*
X372000Y230500D02*
D03*
X371275Y241725D02*
D03*
X425000Y222000D02*
D03*
X409243Y243743D02*
D03*
X461500Y175000D02*
D03*
X439500Y183000D02*
D03*
X417000Y183500D02*
D03*
X404916Y187119D02*
D03*
X421000Y195169D02*
D03*
X311997Y178500D02*
D03*
X357500Y179000D02*
D03*
X199000Y166500D02*
D03*
X405044Y218500D02*
D03*
X271000Y216500D02*
D03*
X441500Y217000D02*
D03*
X420047Y212000D02*
D03*
X306500Y192500D02*
D03*
X336500Y178500D02*
D03*
X263000Y218000D02*
D03*
X267000Y207000D02*
D03*
X275000D02*
D03*
X354500Y205000D02*
D03*
X349500D02*
D03*
X472423Y245107D02*
D03*
X347000Y163000D02*
D03*
X462500Y205000D02*
D03*
X466500Y209000D02*
D03*
X442000Y206000D02*
D03*
X461383Y233883D02*
D03*
X460000Y225000D02*
D03*
X458500Y247000D02*
D03*
X436923Y246666D02*
D03*
X126000Y179500D02*
D03*
X128268Y209693D02*
D03*
X447661Y153054D02*
D03*
X423000Y232000D02*
D03*
X118500Y246500D02*
D03*
X156000Y187000D02*
D03*
X196918Y246318D02*
D03*
X448000Y239500D02*
D03*
X118500Y241500D02*
D03*
D111*
X114811Y228051D02*
D03*
X681740Y149311D02*
D03*
Y228051D02*
D03*
X114811Y149311D02*
D03*
M02*
