G04*
G04 #@! TF.GenerationSoftware,Altium Limited,Altium Designer,22.9.1 (49)*
G04*
G04 Layer_Physical_Order=3*
G04 Layer_Color=16440176*
%FSLAX25Y25*%
%MOIN*%
G70*
G04*
G04 #@! TF.SameCoordinates,3F8A9F32-4B6F-401C-BF37-4CBD66F0855C*
G04*
G04*
G04 #@! TF.FilePolarity,Positive*
G04*
G01*
G75*
%ADD13C,0.01000*%
%ADD85R,0.05118X0.05118*%
%ADD86C,0.05118*%
G04:AMPARAMS|DCode=87|XSize=39.37mil|YSize=70.87mil|CornerRadius=19.68mil|HoleSize=0mil|Usage=FLASHONLY|Rotation=180.000|XOffset=0mil|YOffset=0mil|HoleType=Round|Shape=RoundedRectangle|*
%AMROUNDEDRECTD87*
21,1,0.03937,0.03150,0,0,180.0*
21,1,0.00000,0.07087,0,0,180.0*
1,1,0.03937,0.00000,0.01575*
1,1,0.03937,0.00000,0.01575*
1,1,0.03937,0.00000,-0.01575*
1,1,0.03937,0.00000,-0.01575*
%
%ADD87ROUNDEDRECTD87*%
G04:AMPARAMS|DCode=88|XSize=39.37mil|YSize=82.68mil|CornerRadius=19.68mil|HoleSize=0mil|Usage=FLASHONLY|Rotation=180.000|XOffset=0mil|YOffset=0mil|HoleType=Round|Shape=RoundedRectangle|*
%AMROUNDEDRECTD88*
21,1,0.03937,0.04331,0,0,180.0*
21,1,0.00000,0.08268,0,0,180.0*
1,1,0.03937,0.00000,0.02165*
1,1,0.03937,0.00000,0.02165*
1,1,0.03937,0.00000,-0.02165*
1,1,0.03937,0.00000,-0.02165*
%
%ADD88ROUNDEDRECTD88*%
%ADD89C,0.02559*%
%ADD93C,0.04921*%
%ADD94C,0.03937*%
%ADD99C,0.02362*%
%ADD101C,0.00800*%
%ADD102C,0.02000*%
%ADD103C,0.07323*%
%ADD104C,0.01575*%
%ADD105C,0.05906*%
%ADD106R,0.05906X0.05906*%
%ADD107C,0.15748*%
%ADD108R,0.08268X0.08268*%
%ADD109C,0.08268*%
%ADD110C,0.04000*%
%ADD111C,0.22047*%
G36*
X278971Y238367D02*
Y221634D01*
X275530Y218193D01*
X272843D01*
X272416Y218619D01*
X271497Y219000D01*
X270503D01*
X269584Y218619D01*
X269029Y218065D01*
X268529Y218272D01*
Y219971D01*
X274000D01*
X274585Y220087D01*
X275081Y220419D01*
X276586Y221923D01*
X276952Y222075D01*
X277425Y222548D01*
X277681Y223166D01*
Y223834D01*
X277425Y224452D01*
X276952Y224925D01*
X276334Y225181D01*
X275666D01*
X275048Y224925D01*
X274575Y224452D01*
X274423Y224086D01*
X273366Y223029D01*
X254500D01*
X253915Y222913D01*
X253419Y222581D01*
X249419Y218581D01*
X249087Y218085D01*
X248971Y217500D01*
Y202634D01*
X235548Y189210D01*
X228390D01*
X227804Y189094D01*
X227308Y188762D01*
X223575Y185029D01*
X160134D01*
X158500Y186663D01*
Y187497D01*
X158119Y188416D01*
X157416Y189119D01*
X156497Y189500D01*
X156204D01*
X154318Y191386D01*
Y206597D01*
X154818Y206804D01*
X155048Y206575D01*
X155666Y206319D01*
X156334D01*
X156952Y206575D01*
X157425Y207048D01*
X157681Y207666D01*
Y208334D01*
X157425Y208952D01*
X156952Y209425D01*
X156334Y209681D01*
X155666D01*
X155048Y209425D01*
X154818Y209196D01*
X154318Y209403D01*
Y213711D01*
X154202Y214296D01*
X154085Y214471D01*
X154353Y214971D01*
X163299D01*
X163666Y214819D01*
X164334D01*
X164952Y215075D01*
X165425Y215548D01*
X165681Y216166D01*
Y216834D01*
X165425Y217452D01*
X164952Y217925D01*
X164334Y218181D01*
X163666D01*
X163299Y218029D01*
X150701D01*
X150586Y218077D01*
X144667Y223996D01*
Y244113D01*
X145167Y244448D01*
X145398Y244352D01*
X146067D01*
X146685Y244608D01*
X147158Y245080D01*
X147414Y245698D01*
Y246367D01*
X147158Y246985D01*
X146685Y247458D01*
X146067Y247714D01*
X145398D01*
X144781Y247458D01*
X144308Y246985D01*
X144184Y246686D01*
X143594Y246569D01*
X141654Y248509D01*
X141846Y248971D01*
X195483D01*
X195582Y248471D01*
X195502Y248437D01*
X194799Y247734D01*
X194418Y246815D01*
Y245820D01*
X194799Y244902D01*
X195388Y244312D01*
Y233929D01*
X195505Y233344D01*
X195836Y232848D01*
X207471Y221214D01*
Y201079D01*
X207587Y200494D01*
X207919Y199997D01*
X212002Y195914D01*
X212154Y195548D01*
X212627Y195075D01*
X213244Y194819D01*
X213913D01*
X214531Y195075D01*
X215004Y195548D01*
X215260Y196166D01*
Y196834D01*
X215004Y197452D01*
X214531Y197925D01*
X214165Y198077D01*
X210529Y201712D01*
Y221847D01*
X210413Y222432D01*
X210081Y222929D01*
X198447Y234563D01*
Y244312D01*
X199037Y244902D01*
X199418Y245820D01*
Y246815D01*
X199037Y247734D01*
X198334Y248437D01*
X198253Y248471D01*
X198353Y248971D01*
X242758D01*
X242990Y248496D01*
X242734Y247878D01*
Y247209D01*
X242990Y246591D01*
X243463Y246118D01*
X244081Y245862D01*
X244750D01*
X245368Y246118D01*
X245609Y246360D01*
X245937Y246538D01*
X246263Y246360D01*
X246505Y246117D01*
X247123Y245861D01*
X247792D01*
X248410Y246117D01*
X248883Y246590D01*
X249139Y247208D01*
Y247877D01*
X248883Y248495D01*
X249114Y248971D01*
X268367D01*
X278971Y238367D01*
D02*
G37*
G36*
X127846Y248509D02*
X122366Y243029D01*
X120506D01*
X119916Y243619D01*
X119601Y243750D01*
Y244250D01*
X119916Y244381D01*
X120619Y245084D01*
X121000Y246003D01*
Y246837D01*
X123134Y248971D01*
X127654D01*
X127846Y248509D01*
D02*
G37*
G36*
X627000Y140500D02*
X328000D01*
X324000Y144500D01*
Y163500D01*
X247500D01*
Y144500D01*
X243000Y140000D01*
X122410D01*
X122255Y140475D01*
X122318Y140521D01*
X123601Y141804D01*
X124667Y143271D01*
X125490Y144887D01*
X126051Y146613D01*
X126335Y148404D01*
Y150218D01*
X126051Y152009D01*
X125490Y153735D01*
X124667Y155351D01*
X123601Y156818D01*
X122318Y158101D01*
X120851Y159167D01*
X119235Y159990D01*
X117509Y160551D01*
X115718Y160835D01*
X113904D01*
X112113Y160551D01*
X110388Y159990D01*
X108771Y159167D01*
X107304Y158101D01*
X106500Y157297D01*
X106000Y157504D01*
Y219858D01*
X106500Y220065D01*
X107304Y219262D01*
X108771Y218195D01*
X110388Y217372D01*
X112113Y216811D01*
X113904Y216528D01*
X115718D01*
X117509Y216811D01*
X119235Y217372D01*
X120851Y218195D01*
X122318Y219262D01*
X123601Y220544D01*
X124667Y222011D01*
X125490Y223628D01*
X126051Y225353D01*
X126238Y226536D01*
X126738Y226497D01*
Y211699D01*
X126148Y211109D01*
X125768Y210190D01*
Y209196D01*
X126148Y208277D01*
X126738Y207687D01*
Y182401D01*
X126337Y182000D01*
X125503D01*
X124584Y181619D01*
X123881Y180916D01*
X123500Y179997D01*
Y179003D01*
X123881Y178084D01*
X124584Y177381D01*
X125503Y177000D01*
X126497D01*
X127416Y177381D01*
X128119Y178084D01*
X128500Y179003D01*
Y179837D01*
X129349Y180686D01*
X129681Y181182D01*
X129797Y181768D01*
Y207687D01*
X130387Y208277D01*
X130768Y209196D01*
Y210190D01*
X130387Y211109D01*
X129797Y211699D01*
Y236634D01*
X133387Y240224D01*
X134045Y240047D01*
X134955D01*
X135833Y240283D01*
X136620Y240737D01*
X137263Y241380D01*
X137717Y242167D01*
X137953Y243045D01*
Y243955D01*
X137717Y244833D01*
X137263Y245620D01*
X136912Y245971D01*
X137119Y246471D01*
X139366D01*
X141608Y244229D01*
Y223362D01*
X141725Y222777D01*
X142056Y222281D01*
X148423Y215914D01*
X148575Y215548D01*
X149048Y215075D01*
X149414Y214923D01*
X151260Y213078D01*
Y190752D01*
X151376Y190167D01*
X151707Y189671D01*
X153612Y187767D01*
X153500Y187497D01*
Y186503D01*
X153881Y185584D01*
X154584Y184881D01*
X155503Y184500D01*
X156337D01*
X174000Y166837D01*
Y166003D01*
X174381Y165084D01*
X175084Y164381D01*
X176003Y164000D01*
X176997D01*
X177916Y164381D01*
X178619Y165084D01*
X179000Y166003D01*
Y166997D01*
X178619Y167916D01*
X177916Y168619D01*
X176997Y169000D01*
X176163D01*
X163654Y181509D01*
X163846Y181971D01*
X224208D01*
X224794Y182087D01*
X225290Y182419D01*
X227357Y184486D01*
X227943Y184365D01*
X228075Y184048D01*
X228368Y183754D01*
X228492Y183431D01*
X228368Y183108D01*
X228075Y182815D01*
X227819Y182197D01*
Y181528D01*
X228075Y180910D01*
X228548Y180437D01*
X229166Y180181D01*
X229347D01*
X229554Y179681D01*
X228837Y178964D01*
X211149D01*
X211037Y179234D01*
X210334Y179937D01*
X209415Y180318D01*
X208421D01*
X207502Y179937D01*
X206799Y179234D01*
X206709Y179018D01*
X206209D01*
X206119Y179234D01*
X205416Y179937D01*
X204497Y180318D01*
X203503D01*
X202584Y179937D01*
X201881Y179234D01*
X201500Y178315D01*
Y177321D01*
X201881Y176402D01*
X202584Y175698D01*
X203503Y175318D01*
X204497D01*
X205416Y175698D01*
X206119Y176402D01*
X206209Y176618D01*
X206709D01*
X206799Y176402D01*
X207502Y175698D01*
X208421Y175318D01*
X209415D01*
X210334Y175698D01*
X210541Y175906D01*
X229471D01*
X230056Y176022D01*
X230552Y176354D01*
X254081Y199883D01*
X254413Y200379D01*
X254529Y200964D01*
Y213195D01*
X254805Y213471D01*
X255886D01*
X256093Y212971D01*
X256075Y212952D01*
X255819Y212334D01*
Y211666D01*
X256075Y211048D01*
X256548Y210575D01*
X257166Y210319D01*
X257834D01*
X258452Y210575D01*
X258925Y211048D01*
X258971Y211157D01*
X259471Y211058D01*
Y207942D01*
X258971Y207842D01*
X258925Y207952D01*
X258452Y208425D01*
X257834Y208681D01*
X257166D01*
X256548Y208425D01*
X256075Y207952D01*
X255819Y207334D01*
Y206666D01*
X256075Y206048D01*
X256548Y205575D01*
X257166Y205319D01*
X257834D01*
X258452Y205575D01*
X258925Y206048D01*
X258971Y206157D01*
X259471Y206058D01*
Y203672D01*
X259587Y203086D01*
X259919Y202590D01*
X261090Y201419D01*
X261586Y201087D01*
X262172Y200971D01*
X280000D01*
X280585Y201087D01*
X281081Y201419D01*
X285633Y205971D01*
X301000D01*
X301585Y206087D01*
X302081Y206419D01*
X328633Y232971D01*
X329653D01*
X329804Y232471D01*
X329212Y232075D01*
X328667Y231258D01*
X328475Y230295D01*
Y225965D01*
X328667Y225001D01*
X329212Y224185D01*
X330029Y223639D01*
X330992Y223448D01*
X331955Y223639D01*
X332772Y224185D01*
X333317Y225001D01*
X333509Y225965D01*
Y230295D01*
X333317Y231258D01*
X332772Y232075D01*
X332180Y232471D01*
X332331Y232971D01*
X350782D01*
X350973Y232509D01*
X350881Y232416D01*
X350500Y231497D01*
Y230503D01*
X350881Y229584D01*
X351584Y228881D01*
X352503Y228500D01*
X353497D01*
X354416Y228881D01*
X355119Y229584D01*
X355500Y230503D01*
Y231497D01*
X355119Y232416D01*
X355027Y232509D01*
X355218Y232971D01*
X363669D01*
X363820Y232471D01*
X363228Y232075D01*
X362683Y231258D01*
X362491Y230295D01*
Y225965D01*
X362683Y225001D01*
X363228Y224185D01*
X364045Y223639D01*
X365008Y223448D01*
X365971Y223639D01*
X366788Y224185D01*
X367333Y225001D01*
X367525Y225965D01*
Y230295D01*
X367333Y231258D01*
X366788Y232075D01*
X366196Y232471D01*
X366347Y232971D01*
X370228D01*
X370435Y232471D01*
X369881Y231916D01*
X369500Y230997D01*
Y230003D01*
X369881Y229084D01*
X370471Y228494D01*
Y226133D01*
X361367Y217029D01*
X354201D01*
X353834Y217181D01*
X353166D01*
X352548Y216925D01*
X352075Y216452D01*
X351923Y216086D01*
X348419Y212581D01*
X348087Y212085D01*
X347971Y211500D01*
Y207006D01*
X347381Y206416D01*
X347000Y205497D01*
Y204503D01*
X347381Y203584D01*
X348084Y202881D01*
X349003Y202500D01*
X349997D01*
X350916Y202881D01*
X351619Y203584D01*
X351750Y203899D01*
X352250D01*
X352381Y203584D01*
X353084Y202881D01*
X354003Y202500D01*
X354997D01*
X355916Y202881D01*
X356619Y203584D01*
X357000Y204503D01*
Y205497D01*
X356619Y206416D01*
X355916Y207119D01*
X354997Y207500D01*
X354003D01*
X353084Y207119D01*
X352381Y206416D01*
X352250Y206101D01*
X351750D01*
X351619Y206416D01*
X351029Y207006D01*
Y210866D01*
X354086Y213923D01*
X354201Y213971D01*
X362000D01*
X362585Y214087D01*
X363081Y214419D01*
X373081Y224419D01*
X373081Y224419D01*
X374634Y225971D01*
X438459D01*
X439044Y226087D01*
X439139Y226151D01*
X439503Y226000D01*
X440497D01*
X441416Y226381D01*
X442119Y227084D01*
X442500Y228003D01*
Y228997D01*
X442249Y229604D01*
X442521Y230168D01*
X442644Y230193D01*
X460971Y211866D01*
Y207006D01*
X460381Y206416D01*
X460000Y205497D01*
Y204503D01*
X460381Y203584D01*
X460473Y203491D01*
X460282Y203029D01*
X458134D01*
X444489Y216674D01*
X444000Y217001D01*
Y217497D01*
X443619Y218416D01*
X442916Y219119D01*
X441997Y219500D01*
X441163D01*
X437581Y223081D01*
X437085Y223413D01*
X436500Y223529D01*
X427006D01*
X426416Y224119D01*
X425497Y224500D01*
X424503D01*
X423584Y224119D01*
X422881Y223416D01*
X422500Y222497D01*
Y221503D01*
X422881Y220584D01*
X423584Y219881D01*
X424503Y219500D01*
X425497D01*
X426416Y219881D01*
X427006Y220471D01*
X435866D01*
X439000Y217337D01*
Y216663D01*
X423740Y201403D01*
X410046D01*
X409947Y201903D01*
X410616Y202181D01*
X411319Y202884D01*
X411700Y203803D01*
Y204797D01*
X411319Y205716D01*
X410616Y206419D01*
X409697Y206800D01*
X408703D01*
X407784Y206419D01*
X407081Y205716D01*
X406700Y204797D01*
Y203803D01*
X407081Y202884D01*
X407784Y202181D01*
X408453Y201903D01*
X408354Y201403D01*
X396649D01*
X396448Y201752D01*
X395878Y202322D01*
X395181Y202725D01*
X394403Y202933D01*
X393597D01*
X392819Y202725D01*
X392122Y202322D01*
X391552Y201752D01*
X391351Y201403D01*
X386374D01*
X385789Y201287D01*
X385293Y200955D01*
X380419Y196081D01*
X380087Y195585D01*
X379971Y195000D01*
Y184942D01*
X379471Y184843D01*
X379425Y184952D01*
X378952Y185425D01*
X378334Y185681D01*
X377666D01*
X377048Y185425D01*
X376642Y185020D01*
X374000D01*
X373610Y184942D01*
X373279Y184721D01*
X372982Y184423D01*
X372520Y184615D01*
Y191500D01*
X372442Y191890D01*
X372221Y192221D01*
X366181Y198261D01*
Y198834D01*
X365925Y199452D01*
X365452Y199925D01*
X364834Y200181D01*
X364166D01*
X363548Y199925D01*
X363075Y199452D01*
X362819Y198834D01*
Y198166D01*
X363075Y197548D01*
X363548Y197075D01*
X364166Y196819D01*
X364739D01*
X370480Y191078D01*
Y177544D01*
X367956Y175020D01*
X282544D01*
X261842Y195721D01*
X261511Y195942D01*
X261121Y196020D01*
X259922D01*
X259181Y196761D01*
Y197334D01*
X258925Y197952D01*
X258452Y198425D01*
X257834Y198681D01*
X257166D01*
X256548Y198425D01*
X256075Y197952D01*
X255819Y197334D01*
Y196666D01*
X256075Y196048D01*
X256548Y195575D01*
X257166Y195319D01*
X257739D01*
X258253Y194805D01*
X258279Y194221D01*
X257739Y193681D01*
X257166D01*
X256548Y193425D01*
X256075Y192952D01*
X255819Y192334D01*
Y191666D01*
X256075Y191048D01*
X256548Y190575D01*
X257166Y190319D01*
X257834D01*
X258452Y190575D01*
X258925Y191048D01*
X259181Y191666D01*
Y192239D01*
X259422Y192480D01*
X260078D01*
X280779Y171779D01*
X281110Y171558D01*
X281500Y171480D01*
X369000D01*
X369390Y171558D01*
X369721Y171779D01*
X373721Y175779D01*
X373942Y176110D01*
X374020Y176500D01*
Y182578D01*
X374422Y182980D01*
X376642D01*
X377048Y182575D01*
X377666Y182319D01*
X378334D01*
X378952Y182575D01*
X379425Y183048D01*
X379471Y183158D01*
X379971Y183058D01*
Y174134D01*
X370367Y164529D01*
X349006D01*
X348416Y165119D01*
X347497Y165500D01*
X346663D01*
X343081Y169081D01*
X342585Y169413D01*
X342000Y169529D01*
X201041D01*
X200456Y169413D01*
X199960Y169081D01*
X199767Y168888D01*
X199497Y169000D01*
X198503D01*
X197584Y168619D01*
X196881Y167916D01*
X196500Y166997D01*
Y166003D01*
X196881Y165084D01*
X197584Y164381D01*
X198503Y164000D01*
X199497D01*
X200416Y164381D01*
X201119Y165084D01*
X201500Y166003D01*
Y166296D01*
X201675Y166471D01*
X341367D01*
X344500Y163337D01*
Y162503D01*
X344881Y161584D01*
X345584Y160881D01*
X346503Y160500D01*
X347497D01*
X348416Y160881D01*
X349006Y161471D01*
X371000D01*
X371585Y161587D01*
X372081Y161919D01*
X382581Y172419D01*
X382913Y172915D01*
X383029Y173500D01*
Y191558D01*
X383529Y191657D01*
X383575Y191548D01*
X383980Y191142D01*
Y189000D01*
X384058Y188610D01*
X384279Y188279D01*
X386779Y185779D01*
X387110Y185558D01*
X387500Y185480D01*
X393078D01*
X399779Y178779D01*
X400110Y178558D01*
X400500Y178480D01*
X480086D01*
X480500Y178480D01*
X480890Y178558D01*
X481221Y178779D01*
X486422Y183980D01*
X495900D01*
X496290Y184058D01*
X496621Y184279D01*
X504221Y191879D01*
X504442Y192210D01*
X504520Y192600D01*
Y205642D01*
X504925Y206048D01*
X505181Y206666D01*
Y207334D01*
X504925Y207952D01*
X504452Y208425D01*
X503834Y208681D01*
X503166D01*
X502548Y208425D01*
X502075Y207952D01*
X501819Y207334D01*
Y206666D01*
X502075Y206048D01*
X502480Y205642D01*
Y193022D01*
X495478Y186020D01*
X486000D01*
X485610Y185942D01*
X485279Y185721D01*
X480078Y180520D01*
X417545D01*
X417497Y181000D01*
X418416Y181381D01*
X419119Y182084D01*
X419500Y183003D01*
Y183997D01*
X419119Y184916D01*
X418416Y185619D01*
X417497Y186000D01*
X416503D01*
X415584Y185619D01*
X414881Y184916D01*
X414500Y183997D01*
Y183003D01*
X414881Y182084D01*
X415584Y181381D01*
X416503Y181000D01*
X416455Y180520D01*
X400922D01*
X394221Y187221D01*
X393890Y187442D01*
X393500Y187520D01*
X387922D01*
X386020Y189422D01*
Y191142D01*
X386425Y191548D01*
X386681Y192166D01*
Y192834D01*
X386425Y193452D01*
X385952Y193925D01*
X385334Y194181D01*
X384666D01*
X384048Y193925D01*
X383575Y193452D01*
X383529Y193342D01*
X383029Y193442D01*
Y194367D01*
X387007Y198345D01*
X391351D01*
X391552Y197996D01*
X392122Y197426D01*
X392819Y197023D01*
X393597Y196815D01*
X394403D01*
X395181Y197023D01*
X395878Y197426D01*
X396448Y197996D01*
X396649Y198345D01*
X423366D01*
X428122Y193589D01*
X428103Y193543D01*
Y192874D01*
X428359Y192256D01*
X428587Y192029D01*
X428379Y191529D01*
X426803D01*
X423500Y194832D01*
Y195667D01*
X423119Y196585D01*
X422416Y197289D01*
X421497Y197669D01*
X420503D01*
X419584Y197289D01*
X418994Y196699D01*
X412966D01*
X412381Y196582D01*
X411885Y196251D01*
X405253Y189619D01*
X404419D01*
X403500Y189239D01*
X402797Y188535D01*
X402416Y187617D01*
Y186622D01*
X402797Y185703D01*
X403500Y185000D01*
X404419Y184619D01*
X405413D01*
X406332Y185000D01*
X407035Y185703D01*
X407416Y186622D01*
Y187457D01*
X413599Y193640D01*
X418994D01*
X419584Y193050D01*
X420503Y192669D01*
X421337D01*
X425088Y188919D01*
X425584Y188587D01*
X426169Y188471D01*
X446500D01*
X447085Y188587D01*
X447581Y188919D01*
X456134Y197471D01*
X482678D01*
X483263Y197587D01*
X483759Y197919D01*
X519811Y233971D01*
X603500D01*
X604085Y234087D01*
X604581Y234419D01*
X616586Y246423D01*
X616952Y246575D01*
X617425Y247048D01*
X617681Y247666D01*
Y248334D01*
X617425Y248952D01*
X616952Y249425D01*
X616334Y249681D01*
X615666D01*
X615048Y249425D01*
X614575Y248952D01*
X614423Y248586D01*
X602867Y237029D01*
X571846D01*
X571654Y237491D01*
X580586Y246423D01*
X580952Y246575D01*
X581425Y247048D01*
X581681Y247666D01*
Y248334D01*
X581425Y248952D01*
X580952Y249425D01*
X580334Y249681D01*
X579666D01*
X579048Y249425D01*
X578575Y248952D01*
X578423Y248586D01*
X569367Y239529D01*
X556346D01*
X556154Y239991D01*
X562586Y246423D01*
X562952Y246575D01*
X563425Y247048D01*
X563681Y247666D01*
Y248334D01*
X563425Y248952D01*
X562952Y249425D01*
X562334Y249681D01*
X561666D01*
X561048Y249425D01*
X560575Y248952D01*
X560423Y248586D01*
X553866Y242029D01*
X540846D01*
X540654Y242491D01*
X544586Y246423D01*
X544952Y246575D01*
X545425Y247048D01*
X545681Y247666D01*
Y248334D01*
X545425Y248952D01*
X544952Y249425D01*
X544334Y249681D01*
X543666D01*
X543048Y249425D01*
X542575Y248952D01*
X542423Y248586D01*
X538367Y244529D01*
X516881D01*
X516690Y244991D01*
X518169Y246471D01*
X525299D01*
X525666Y246319D01*
X526334D01*
X526952Y246575D01*
X527425Y247048D01*
X527681Y247666D01*
Y248334D01*
X527425Y248952D01*
X526952Y249425D01*
X526334Y249681D01*
X525666D01*
X525299Y249529D01*
X517535D01*
X516950Y249413D01*
X516454Y249081D01*
X509991Y242619D01*
X509529Y242810D01*
Y247299D01*
X509681Y247666D01*
Y248334D01*
X509425Y248952D01*
X508952Y249425D01*
X508334Y249681D01*
X507666D01*
X507048Y249425D01*
X506575Y248952D01*
X506319Y248334D01*
Y247666D01*
X506471Y247299D01*
Y242634D01*
X502366Y238529D01*
X464134D01*
X460029Y242634D01*
Y244994D01*
X460619Y245584D01*
X461000Y246503D01*
Y247497D01*
X460619Y248416D01*
X459916Y249119D01*
X458997Y249500D01*
X458003D01*
X457084Y249119D01*
X456381Y248416D01*
X456000Y247497D01*
Y246503D01*
X456381Y245584D01*
X456971Y244994D01*
Y242000D01*
X457087Y241415D01*
X457419Y240919D01*
X461454Y236883D01*
X461247Y236383D01*
X460885D01*
X459967Y236002D01*
X459263Y235299D01*
X458883Y234380D01*
Y233385D01*
X459263Y232467D01*
X459967Y231763D01*
X460885Y231383D01*
X461880D01*
X462799Y231763D01*
X463502Y232467D01*
X463614Y232736D01*
X464920D01*
X465111Y232274D01*
X460337Y227500D01*
X459503D01*
X458584Y227119D01*
X457881Y226416D01*
X457500Y225497D01*
Y224503D01*
X457881Y223584D01*
X458584Y222881D01*
X459503Y222500D01*
X460497D01*
X461416Y222881D01*
X462119Y223584D01*
X462500Y224503D01*
Y225337D01*
X467633Y230471D01*
X504261D01*
X504452Y230009D01*
X479973Y205529D01*
X464987D01*
X464619Y206416D01*
X464255Y206780D01*
X464290Y206967D01*
X464830Y207134D01*
X465084Y206881D01*
X466003Y206500D01*
X466997D01*
X467916Y206881D01*
X468619Y207584D01*
X469000Y208503D01*
Y209497D01*
X468619Y210416D01*
X467916Y211119D01*
X466997Y211500D01*
X466003D01*
X465084Y211119D01*
X464529Y210565D01*
X464029Y210772D01*
Y212500D01*
X463913Y213085D01*
X463581Y213581D01*
X444081Y233081D01*
X443585Y233413D01*
X443000Y233529D01*
X425006D01*
X424416Y234119D01*
X423497Y234500D01*
X422991D01*
X421910Y235581D01*
X421414Y235913D01*
X420828Y236029D01*
X328000D01*
X327415Y235913D01*
X326919Y235581D01*
X300366Y209029D01*
X285000D01*
X284415Y208913D01*
X283919Y208581D01*
X279366Y204029D01*
X275568D01*
X275497Y204500D01*
X276416Y204881D01*
X277119Y205584D01*
X277500Y206503D01*
Y207497D01*
X277119Y208416D01*
X276416Y209119D01*
X275497Y209500D01*
X274503D01*
X273584Y209119D01*
X272881Y208416D01*
X272500Y207497D01*
Y206503D01*
X272881Y205584D01*
X273584Y204881D01*
X274503Y204500D01*
X274432Y204029D01*
X267568D01*
X267497Y204500D01*
X268416Y204881D01*
X269119Y205584D01*
X269500Y206503D01*
Y207337D01*
X272634Y210471D01*
X297000D01*
X297585Y210587D01*
X298081Y210919D01*
X309086Y221923D01*
X309452Y222075D01*
X309925Y222548D01*
X310181Y223166D01*
Y223834D01*
X309925Y224452D01*
X309452Y224925D01*
X308834Y225181D01*
X308166D01*
X307548Y224925D01*
X307075Y224452D01*
X306923Y224086D01*
X296367Y213529D01*
X272000D01*
X271415Y213413D01*
X270919Y213081D01*
X268991Y211154D01*
X268529Y211346D01*
Y214728D01*
X269029Y214935D01*
X269584Y214381D01*
X270503Y214000D01*
X271497D01*
X272416Y214381D01*
X273119Y215084D01*
X273140Y215134D01*
X276163D01*
X276749Y215250D01*
X277245Y215582D01*
X281581Y219919D01*
X281913Y220415D01*
X282029Y221000D01*
Y237971D01*
X368509D01*
X369094Y238087D01*
X369590Y238419D01*
X370508Y239336D01*
X370778Y239225D01*
X371772D01*
X372691Y239605D01*
X373394Y240309D01*
X373775Y241228D01*
Y242222D01*
X373394Y243141D01*
X372691Y243844D01*
X371772Y244225D01*
X370778D01*
X369859Y243844D01*
X369156Y243141D01*
X368775Y242222D01*
Y241929D01*
X367876Y241029D01*
X367253D01*
X366986Y241529D01*
X367333Y242049D01*
X367525Y243012D01*
Y246161D01*
X367333Y247125D01*
X366788Y247941D01*
X365971Y248487D01*
X365008Y248678D01*
X364045Y248487D01*
X363228Y247941D01*
X362683Y247125D01*
X362491Y246161D01*
Y243012D01*
X362683Y242049D01*
X363030Y241529D01*
X362762Y241029D01*
X333238D01*
X332970Y241529D01*
X333317Y242049D01*
X333509Y243012D01*
Y246161D01*
X333317Y247125D01*
X332772Y247941D01*
X331955Y248487D01*
X330992Y248678D01*
X330029Y248487D01*
X329212Y247941D01*
X328667Y247125D01*
X328475Y246161D01*
Y243012D01*
X328667Y242049D01*
X329014Y241529D01*
X328747Y241029D01*
X280633D01*
X270081Y251581D01*
X269585Y251913D01*
X269000Y252029D01*
X122500D01*
X121915Y251913D01*
X121419Y251581D01*
X118837Y249000D01*
X118003D01*
X117084Y248619D01*
X116381Y247916D01*
X116000Y246997D01*
Y246003D01*
X116381Y245084D01*
X117084Y244381D01*
X117399Y244250D01*
Y243750D01*
X117084Y243619D01*
X116381Y242916D01*
X116000Y241997D01*
Y241003D01*
X116381Y240084D01*
X116509Y239956D01*
X116270Y239487D01*
X115718Y239575D01*
X113904D01*
X112113Y239291D01*
X110388Y238731D01*
X108771Y237907D01*
X107304Y236841D01*
X106500Y236037D01*
X106000Y236244D01*
Y249000D01*
Y253000D01*
X440441D01*
X440632Y252538D01*
X437260Y249166D01*
X436425D01*
X435506Y248785D01*
X434803Y248082D01*
X434423Y247163D01*
Y246169D01*
X434803Y245250D01*
X435506Y244547D01*
X436425Y244166D01*
X437420D01*
X438339Y244547D01*
X439042Y245250D01*
X439423Y246169D01*
Y247003D01*
X442890Y250471D01*
X464355D01*
X469923Y244903D01*
Y244610D01*
X470303Y243691D01*
X471006Y242988D01*
X471925Y242607D01*
X472920D01*
X473839Y242988D01*
X474542Y243691D01*
X474923Y244610D01*
Y245604D01*
X474542Y246523D01*
X473839Y247226D01*
X472920Y247607D01*
X471925D01*
X471656Y247495D01*
X466613Y252538D01*
X466805Y253000D01*
X627000D01*
Y140500D01*
D02*
G37*
G36*
X132088Y245971D02*
X131737Y245620D01*
X131282Y244833D01*
X131047Y243955D01*
Y243045D01*
X131224Y242387D01*
X127186Y238349D01*
X126855Y237853D01*
X126738Y237268D01*
Y229606D01*
X126238Y229566D01*
X126051Y230750D01*
X125490Y232475D01*
X124667Y234091D01*
X123601Y235558D01*
X122318Y236841D01*
X120851Y237907D01*
X119422Y238635D01*
X119429Y239179D01*
X119916Y239381D01*
X120506Y239971D01*
X123000D01*
X123585Y240087D01*
X124081Y240419D01*
X130133Y246471D01*
X131881D01*
X132088Y245971D01*
D02*
G37*
G36*
X420549Y232616D02*
X420500Y232497D01*
Y231503D01*
X420881Y230584D01*
X421584Y229881D01*
X422503Y229500D01*
X422432Y229029D01*
X374638D01*
X374304Y229529D01*
X374500Y230003D01*
Y230997D01*
X374119Y231916D01*
X373565Y232471D01*
X373772Y232971D01*
X420195D01*
X420549Y232616D01*
D02*
G37*
G36*
X260973Y219509D02*
X260881Y219416D01*
X260500Y218497D01*
Y217503D01*
X260813Y216748D01*
X260414Y216413D01*
X259828Y216529D01*
X254172D01*
X253586Y216413D01*
X253090Y216081D01*
X252491Y215483D01*
X252029Y215674D01*
Y216866D01*
X255134Y219971D01*
X260782D01*
X260973Y219509D01*
D02*
G37*
G36*
X265471Y216228D02*
Y209006D01*
X264881Y208416D01*
X264500Y207497D01*
Y206503D01*
X264881Y205584D01*
X265584Y204881D01*
X266503Y204500D01*
X266432Y204029D01*
X262805D01*
X262529Y204305D01*
Y213828D01*
X262413Y214414D01*
X262081Y214910D01*
X261700Y215291D01*
X261983Y215715D01*
X262503Y215500D01*
X263497D01*
X264416Y215881D01*
X264971Y216435D01*
X265471Y216228D01*
D02*
G37*
G36*
X442326Y214511D02*
X455846Y200991D01*
X455654Y200529D01*
X455500D01*
X454915Y200413D01*
X454419Y200081D01*
X445866Y191529D01*
X431190D01*
X430983Y192029D01*
X431210Y192256D01*
X431466Y192874D01*
Y193543D01*
X431210Y194161D01*
X431297Y194471D01*
X431446Y194652D01*
X431667D01*
X432285Y194908D01*
X432758Y195380D01*
X433014Y195998D01*
Y196667D01*
X432758Y197285D01*
X432285Y197758D01*
X431667Y198014D01*
X430998D01*
X430381Y197758D01*
X429908Y197285D01*
X429776Y196968D01*
X429190Y196847D01*
X426350Y199687D01*
X441163Y214500D01*
X441997D01*
X442261Y214609D01*
X442326Y214511D01*
D02*
G37*
%LPC*%
G36*
X236785Y246862D02*
X236117D01*
X235499Y246606D01*
X235026Y246133D01*
X234770Y245515D01*
Y244847D01*
X235026Y244229D01*
X235499Y243756D01*
X236117Y243500D01*
X236785D01*
X237403Y243756D01*
X237876Y244229D01*
X238132Y244847D01*
Y245515D01*
X237876Y246133D01*
X237403Y246606D01*
X236785Y246862D01*
D02*
G37*
G36*
X228834D02*
X228166D01*
X227548Y246606D01*
X227075Y246133D01*
X226819Y245515D01*
Y244847D01*
X227075Y244229D01*
X227548Y243756D01*
X228166Y243500D01*
X228834D01*
X229452Y243756D01*
X229925Y244229D01*
X230181Y244847D01*
Y245515D01*
X229925Y246133D01*
X229452Y246606D01*
X228834Y246862D01*
D02*
G37*
G36*
X220834D02*
X220166D01*
X219548Y246606D01*
X219075Y246133D01*
X218819Y245515D01*
Y244847D01*
X219075Y244229D01*
X219548Y243756D01*
X220166Y243500D01*
X220834D01*
X221452Y243756D01*
X221925Y244229D01*
X222181Y244847D01*
Y245515D01*
X221925Y246133D01*
X221452Y246606D01*
X220834Y246862D01*
D02*
G37*
G36*
X212834D02*
X212166D01*
X211548Y246606D01*
X211075Y246133D01*
X210819Y245515D01*
Y244847D01*
X211075Y244229D01*
X211548Y243756D01*
X212166Y243500D01*
X212834D01*
X213452Y243756D01*
X213925Y244229D01*
X214181Y244847D01*
Y245515D01*
X213925Y246133D01*
X213452Y246606D01*
X212834Y246862D01*
D02*
G37*
G36*
X204834D02*
X204166D01*
X203548Y246606D01*
X203075Y246133D01*
X202819Y245515D01*
Y244847D01*
X203075Y244229D01*
X203548Y243756D01*
X204166Y243500D01*
X204834D01*
X205452Y243756D01*
X205925Y244229D01*
X206181Y244847D01*
Y245515D01*
X205925Y246133D01*
X205452Y246606D01*
X204834Y246862D01*
D02*
G37*
G36*
X273334Y235862D02*
X272666D01*
X272048Y235606D01*
X271575Y235133D01*
X271319Y234516D01*
Y233847D01*
X271575Y233229D01*
X272048Y232756D01*
X272666Y232500D01*
X273334D01*
X273952Y232756D01*
X274425Y233229D01*
X274681Y233847D01*
Y234516D01*
X274425Y235133D01*
X273952Y235606D01*
X273334Y235862D01*
D02*
G37*
G36*
X268334D02*
X267666D01*
X267048Y235606D01*
X266575Y235133D01*
X266319Y234516D01*
Y233847D01*
X266575Y233229D01*
X267048Y232756D01*
X267666Y232500D01*
X268334D01*
X268952Y232756D01*
X269425Y233229D01*
X269681Y233847D01*
Y234516D01*
X269425Y235133D01*
X268952Y235606D01*
X268334Y235862D01*
D02*
G37*
G36*
X263334Y235681D02*
X262666D01*
X262048Y235425D01*
X261575Y234952D01*
X261319Y234334D01*
Y233666D01*
X261575Y233048D01*
X262048Y232575D01*
X262666Y232319D01*
X263334D01*
X263952Y232575D01*
X264425Y233048D01*
X264681Y233666D01*
Y234334D01*
X264425Y234952D01*
X263952Y235425D01*
X263334Y235681D01*
D02*
G37*
G36*
X258334D02*
X257666D01*
X257048Y235425D01*
X256575Y234952D01*
X256319Y234334D01*
Y233666D01*
X256575Y233048D01*
X257048Y232575D01*
X257666Y232319D01*
X258334D01*
X258952Y232575D01*
X259425Y233048D01*
X259681Y233666D01*
Y234334D01*
X259425Y234952D01*
X258952Y235425D01*
X258334Y235681D01*
D02*
G37*
G36*
X181497Y234500D02*
X180503D01*
X179584Y234119D01*
X178881Y233416D01*
X178500Y232497D01*
Y231503D01*
X178881Y230584D01*
X179584Y229881D01*
X180503Y229500D01*
X181497D01*
X182416Y229881D01*
X183119Y230584D01*
X183500Y231503D01*
Y232497D01*
X183119Y233416D01*
X182416Y234119D01*
X181497Y234500D01*
D02*
G37*
G36*
X171834Y223681D02*
X171166D01*
X170548Y223425D01*
X170075Y222952D01*
X169819Y222334D01*
Y221666D01*
X170075Y221048D01*
X170548Y220575D01*
X171166Y220319D01*
X171834D01*
X172452Y220575D01*
X172925Y221048D01*
X173181Y221666D01*
Y222334D01*
X172925Y222952D01*
X172452Y223425D01*
X171834Y223681D01*
D02*
G37*
G36*
X152334D02*
X151666D01*
X151048Y223425D01*
X150575Y222952D01*
X150319Y222334D01*
Y221666D01*
X150575Y221048D01*
X151048Y220575D01*
X151666Y220319D01*
X152334D01*
X152952Y220575D01*
X153425Y221048D01*
X153681Y221666D01*
Y222334D01*
X153425Y222952D01*
X152952Y223425D01*
X152334Y223681D01*
D02*
G37*
G36*
X175334Y218181D02*
X174666D01*
X174048Y217925D01*
X173575Y217452D01*
X173319Y216834D01*
Y216166D01*
X173575Y215548D01*
X174048Y215075D01*
X174666Y214819D01*
X175334D01*
X175952Y215075D01*
X176425Y215548D01*
X176681Y216166D01*
Y216834D01*
X176425Y217452D01*
X175952Y217925D01*
X175334Y218181D01*
D02*
G37*
G36*
X214834Y214650D02*
X214166D01*
X213548Y214394D01*
X213075Y213921D01*
X212819Y213303D01*
Y212634D01*
X213075Y212016D01*
X213548Y211543D01*
X214166Y211287D01*
X214834D01*
X215452Y211543D01*
X215925Y212016D01*
X216181Y212634D01*
Y213303D01*
X215925Y213921D01*
X215452Y214394D01*
X214834Y214650D01*
D02*
G37*
G36*
X222878Y214555D02*
X222209D01*
X221591Y214299D01*
X221118Y213826D01*
X220862Y213208D01*
Y212540D01*
X221118Y211922D01*
X221591Y211449D01*
X222209Y211193D01*
X222878D01*
X223496Y211449D01*
X223969Y211922D01*
X224224Y212540D01*
Y213208D01*
X223969Y213826D01*
X223496Y214299D01*
X222878Y214555D01*
D02*
G37*
G36*
X236030Y219374D02*
X234380D01*
X232762Y219052D01*
X231238Y218421D01*
X229867Y217505D01*
X228700Y216338D01*
X227784Y214967D01*
X227152Y213443D01*
X226831Y211825D01*
Y210175D01*
X227152Y208557D01*
X227784Y207033D01*
X228700Y205662D01*
X229867Y204496D01*
X231238Y203579D01*
X232762Y202948D01*
X234380Y202626D01*
X236030D01*
X237647Y202948D01*
X239171Y203579D01*
X240543Y204496D01*
X241709Y205662D01*
X242626Y207033D01*
X243257Y208557D01*
X243579Y210175D01*
Y211825D01*
X243257Y213443D01*
X242626Y214967D01*
X241709Y216338D01*
X240543Y217505D01*
X239171Y218421D01*
X237647Y219052D01*
X236030Y219374D01*
D02*
G37*
G36*
X198825D02*
X197175D01*
X195557Y219052D01*
X194033Y218421D01*
X192662Y217505D01*
X191496Y216338D01*
X190579Y214967D01*
X189948Y213443D01*
X189626Y211825D01*
Y210175D01*
X189948Y208557D01*
X190579Y207033D01*
X191496Y205662D01*
X192662Y204496D01*
X194033Y203579D01*
X195557Y202948D01*
X197175Y202626D01*
X198825D01*
X200443Y202948D01*
X201967Y203579D01*
X203338Y204496D01*
X204504Y205662D01*
X205421Y207033D01*
X206052Y208557D01*
X206374Y210175D01*
Y211825D01*
X206052Y213443D01*
X205421Y214967D01*
X204504Y216338D01*
X203338Y217505D01*
X201967Y218421D01*
X200443Y219052D01*
X198825Y219374D01*
D02*
G37*
G36*
X159249Y200835D02*
X158580D01*
X157962Y200579D01*
X157489Y200107D01*
X157233Y199489D01*
Y198820D01*
X157489Y198202D01*
X157962Y197729D01*
X158580Y197473D01*
X159249D01*
X159867Y197729D01*
X160340Y198202D01*
X160596Y198820D01*
Y199489D01*
X160340Y200107D01*
X159867Y200579D01*
X159249Y200835D01*
D02*
G37*
G36*
X223756Y198181D02*
X223087D01*
X222469Y197925D01*
X221996Y197452D01*
X221740Y196834D01*
Y196166D01*
X221996Y195548D01*
X222469Y195075D01*
X223087Y194819D01*
X223756D01*
X224374Y195075D01*
X224846Y195548D01*
X225102Y196166D01*
Y196834D01*
X224846Y197452D01*
X224374Y197925D01*
X223756Y198181D01*
D02*
G37*
G36*
X230834Y193807D02*
X230166D01*
X229548Y193551D01*
X229075Y193078D01*
X228819Y192460D01*
Y191792D01*
X229075Y191174D01*
X229548Y190701D01*
X230166Y190445D01*
X230834D01*
X231452Y190701D01*
X231925Y191174D01*
X232181Y191792D01*
Y192460D01*
X231925Y193078D01*
X231452Y193551D01*
X230834Y193807D01*
D02*
G37*
G36*
X220834Y191181D02*
X220166D01*
X219548Y190925D01*
X219075Y190452D01*
X218819Y189834D01*
Y189166D01*
X219075Y188548D01*
X219548Y188075D01*
X220166Y187819D01*
X220834D01*
X221452Y188075D01*
X221925Y188548D01*
X222181Y189166D01*
Y189834D01*
X221925Y190452D01*
X221452Y190925D01*
X220834Y191181D01*
D02*
G37*
G36*
X216897D02*
X216229D01*
X215611Y190925D01*
X215138Y190452D01*
X214882Y189834D01*
Y189166D01*
X215138Y188548D01*
X215611Y188075D01*
X216229Y187819D01*
X216897D01*
X217515Y188075D01*
X217988Y188548D01*
X218244Y189166D01*
Y189834D01*
X217988Y190452D01*
X217515Y190925D01*
X216897Y191181D01*
D02*
G37*
G36*
X212960D02*
X212292D01*
X211674Y190925D01*
X211201Y190452D01*
X210945Y189834D01*
Y189166D01*
X211201Y188548D01*
X211674Y188075D01*
X212292Y187819D01*
X212960D01*
X213578Y188075D01*
X214051Y188548D01*
X214307Y189166D01*
Y189834D01*
X214051Y190452D01*
X213578Y190925D01*
X212960Y191181D01*
D02*
G37*
G36*
X169834Y190181D02*
X169166D01*
X168548Y189925D01*
X168075Y189452D01*
X167819Y188834D01*
Y188166D01*
X168075Y187548D01*
X168548Y187075D01*
X169166Y186819D01*
X169834D01*
X170452Y187075D01*
X170925Y187548D01*
X171181Y188166D01*
Y188834D01*
X170925Y189452D01*
X170452Y189925D01*
X169834Y190181D01*
D02*
G37*
G36*
X303334Y249181D02*
X302666D01*
X302048Y248925D01*
X301575Y248452D01*
X301319Y247834D01*
Y247166D01*
X301575Y246548D01*
X302048Y246075D01*
X302666Y245819D01*
X303334D01*
X303952Y246075D01*
X304425Y246548D01*
X304681Y247166D01*
Y247834D01*
X304425Y248452D01*
X303952Y248925D01*
X303334Y249181D01*
D02*
G37*
G36*
X389334Y245181D02*
X388666D01*
X388048Y244925D01*
X387575Y244452D01*
X387319Y243834D01*
Y243166D01*
X387575Y242548D01*
X388048Y242075D01*
X388666Y241819D01*
X389334D01*
X389952Y242075D01*
X390425Y242548D01*
X390681Y243166D01*
Y243834D01*
X390425Y244452D01*
X389952Y244925D01*
X389334Y245181D01*
D02*
G37*
G36*
X409740Y246243D02*
X408745D01*
X407827Y245862D01*
X407123Y245159D01*
X406743Y244240D01*
Y243245D01*
X407123Y242326D01*
X407827Y241623D01*
X408745Y241243D01*
X409544D01*
X412368Y238419D01*
X412864Y238087D01*
X413450Y237971D01*
X445994D01*
X446584Y237381D01*
X447503Y237000D01*
X448497D01*
X449416Y237381D01*
X450119Y238084D01*
X450500Y239003D01*
Y239997D01*
X450119Y240916D01*
X449416Y241619D01*
X448497Y242000D01*
X447503D01*
X446584Y241619D01*
X445994Y241029D01*
X423314D01*
X423107Y241529D01*
X423258Y241681D01*
X423514Y242298D01*
Y242967D01*
X423258Y243585D01*
X422785Y244058D01*
X422167Y244314D01*
X421498D01*
X420881Y244058D01*
X420408Y243585D01*
X420152Y242967D01*
Y242298D01*
X420408Y241681D01*
X420559Y241529D01*
X420352Y241029D01*
X414083D01*
X411743Y243370D01*
Y244240D01*
X411362Y245159D01*
X410659Y245862D01*
X409740Y246243D01*
D02*
G37*
G36*
X315130Y233970D02*
X314461D01*
X313843Y233714D01*
X313370Y233241D01*
X313114Y232624D01*
Y231955D01*
X313370Y231337D01*
X313843Y230864D01*
X314461Y230608D01*
X315130D01*
X315748Y230864D01*
X316221Y231337D01*
X316477Y231955D01*
Y232624D01*
X316221Y233241D01*
X315748Y233714D01*
X315130Y233970D01*
D02*
G37*
G36*
X290834Y233681D02*
X290166D01*
X289548Y233425D01*
X289075Y232952D01*
X288819Y232334D01*
Y231666D01*
X289075Y231048D01*
X289548Y230575D01*
X290166Y230319D01*
X290834D01*
X291452Y230575D01*
X291925Y231048D01*
X292181Y231666D01*
Y232334D01*
X291925Y232952D01*
X291452Y233425D01*
X290834Y233681D01*
D02*
G37*
G36*
X134955Y236953D02*
X134045D01*
X133167Y236718D01*
X132380Y236263D01*
X131737Y235620D01*
X131282Y234833D01*
X131047Y233955D01*
Y233045D01*
X131282Y232167D01*
X131737Y231380D01*
X132380Y230737D01*
X133167Y230282D01*
X134045Y230047D01*
X134955D01*
X135833Y230282D01*
X136620Y230737D01*
X137263Y231380D01*
X137717Y232167D01*
X137953Y233045D01*
Y233955D01*
X137717Y234833D01*
X137263Y235620D01*
X136620Y236263D01*
X135833Y236718D01*
X134955Y236953D01*
D02*
G37*
G36*
X359732Y231878D02*
X359024D01*
X358370Y231607D01*
X357869Y231106D01*
X357598Y230452D01*
Y229745D01*
X357869Y229090D01*
X358370Y228590D01*
X359024Y228319D01*
X359732D01*
X360386Y228590D01*
X360887Y229090D01*
X361157Y229745D01*
Y230452D01*
X360887Y231106D01*
X360386Y231607D01*
X359732Y231878D01*
D02*
G37*
G36*
X336976D02*
X336268D01*
X335614Y231607D01*
X335113Y231106D01*
X334842Y230452D01*
Y229745D01*
X335113Y229090D01*
X335614Y228590D01*
X336268Y228319D01*
X336976D01*
X337630Y228590D01*
X338131Y229090D01*
X338402Y229745D01*
Y230452D01*
X338131Y231106D01*
X337630Y231607D01*
X336976Y231878D01*
D02*
G37*
G36*
X299334Y225181D02*
X298666D01*
X298048Y224925D01*
X297575Y224452D01*
X297319Y223834D01*
Y223166D01*
X297575Y222548D01*
X298048Y222075D01*
X298666Y221819D01*
X299334D01*
X299952Y222075D01*
X300425Y222548D01*
X300681Y223166D01*
Y223834D01*
X300425Y224452D01*
X299952Y224925D01*
X299334Y225181D01*
D02*
G37*
G36*
X286515D02*
X285847D01*
X285229Y224925D01*
X284756Y224452D01*
X284500Y223834D01*
Y223166D01*
X284756Y222548D01*
X285229Y222075D01*
X285847Y221819D01*
X286515D01*
X287133Y222075D01*
X287606Y222548D01*
X287862Y223166D01*
Y223834D01*
X287606Y224452D01*
X287133Y224925D01*
X286515Y225181D01*
D02*
G37*
G36*
X492473Y228984D02*
X491377D01*
X490319Y228701D01*
X489370Y228153D01*
X488595Y227378D01*
X488047Y226429D01*
X487764Y225371D01*
Y224275D01*
X488047Y223217D01*
X488595Y222268D01*
X489370Y221493D01*
X490319Y220945D01*
X491377Y220661D01*
X492473D01*
X493531Y220945D01*
X494480Y221493D01*
X495255Y222268D01*
X495803Y223217D01*
X496087Y224275D01*
Y225371D01*
X495803Y226429D01*
X495255Y227378D01*
X494480Y228153D01*
X493531Y228701D01*
X492473Y228984D01*
D02*
G37*
G36*
X137953Y226953D02*
X131047D01*
Y220047D01*
X137953D01*
Y226953D01*
D02*
G37*
G36*
X344834Y222181D02*
X344166D01*
X343548Y221925D01*
X343075Y221452D01*
X342819Y220834D01*
Y220166D01*
X343075Y219548D01*
X343548Y219075D01*
X344166Y218819D01*
X344834D01*
X345452Y219075D01*
X345925Y219548D01*
X346181Y220166D01*
Y220834D01*
X345925Y221452D01*
X345452Y221925D01*
X344834Y222181D01*
D02*
G37*
G36*
X320334Y219181D02*
X319666D01*
X319048Y218925D01*
X318575Y218452D01*
X318319Y217834D01*
Y217166D01*
X318575Y216548D01*
X319048Y216075D01*
X319666Y215819D01*
X320334D01*
X320952Y216075D01*
X321425Y216548D01*
X321681Y217166D01*
Y217834D01*
X321425Y218452D01*
X320952Y218925D01*
X320334Y219181D01*
D02*
G37*
G36*
X140834Y218181D02*
X140166D01*
X139548Y217925D01*
X139075Y217452D01*
X138819Y216834D01*
Y216166D01*
X139075Y215548D01*
X139548Y215075D01*
X140166Y214819D01*
X140834D01*
X141452Y215075D01*
X141925Y215548D01*
X142181Y216166D01*
Y216834D01*
X141925Y217452D01*
X141452Y217925D01*
X140834Y218181D01*
D02*
G37*
G36*
X348430Y217181D02*
X347761D01*
X347143Y216925D01*
X346670Y216452D01*
X346414Y215834D01*
Y215166D01*
X346670Y214548D01*
X347143Y214075D01*
X347761Y213819D01*
X348430D01*
X349048Y214075D01*
X349520Y214548D01*
X349776Y215166D01*
Y215834D01*
X349520Y216452D01*
X349048Y216925D01*
X348430Y217181D01*
D02*
G37*
G36*
X375589Y216936D02*
X374921D01*
X374303Y216680D01*
X373830Y216207D01*
X373574Y215589D01*
Y214921D01*
X373830Y214303D01*
X374303Y213830D01*
X374921Y213574D01*
X375589D01*
X376207Y213830D01*
X376680Y214303D01*
X376936Y214921D01*
Y215589D01*
X376680Y216207D01*
X376207Y216680D01*
X375589Y216936D01*
D02*
G37*
G36*
X320334Y214862D02*
X319666D01*
X319048Y214606D01*
X318575Y214133D01*
X318319Y213515D01*
Y212847D01*
X318575Y212229D01*
X319048Y211756D01*
X319666Y211500D01*
X320334D01*
X320952Y211756D01*
X321425Y212229D01*
X321681Y212847D01*
Y213515D01*
X321425Y214133D01*
X320952Y214606D01*
X320334Y214862D01*
D02*
G37*
G36*
X396500Y223029D02*
X375500D01*
X374915Y222913D01*
X374419Y222581D01*
X358919Y207081D01*
X358587Y206585D01*
X358471Y206000D01*
Y182133D01*
X357837Y181500D01*
X357003D01*
X356084Y181119D01*
X355494Y180529D01*
X342133D01*
X339581Y183081D01*
X339431Y183182D01*
X339487Y183746D01*
X339835Y183890D01*
X340307Y184363D01*
X340563Y184981D01*
Y185650D01*
X340307Y186268D01*
X339835Y186741D01*
X339217Y186997D01*
X338548D01*
X337930Y186741D01*
X337457Y186268D01*
X337201Y185650D01*
Y184981D01*
X337457Y184363D01*
X337791Y184029D01*
X337595Y183529D01*
X317634D01*
X309000Y192163D01*
Y192997D01*
X308619Y193916D01*
X307916Y194619D01*
X306997Y195000D01*
X306003D01*
X305084Y194619D01*
X304381Y193916D01*
X304000Y192997D01*
Y192003D01*
X304381Y191084D01*
X305084Y190381D01*
X306003Y190000D01*
X306837D01*
X315919Y180919D01*
X316415Y180587D01*
X317000Y180471D01*
X334282D01*
X334473Y180009D01*
X334381Y179916D01*
X334000Y178997D01*
Y178003D01*
X334381Y177084D01*
X335084Y176381D01*
X336003Y176000D01*
X336997D01*
X337916Y176381D01*
X338619Y177084D01*
X339000Y178003D01*
Y178630D01*
X339500Y178837D01*
X340419Y177919D01*
X340915Y177587D01*
X341500Y177471D01*
X355494D01*
X356084Y176881D01*
X357003Y176500D01*
X357997D01*
X358916Y176881D01*
X359619Y177584D01*
X360000Y178503D01*
Y179337D01*
X361081Y180419D01*
X361413Y180915D01*
X361529Y181500D01*
Y205366D01*
X376133Y219971D01*
X395866D01*
X396656Y219181D01*
X396449Y218681D01*
X390941D01*
Y212563D01*
X397059D01*
Y218071D01*
X397559Y218278D01*
X404919Y210919D01*
X405415Y210587D01*
X406000Y210471D01*
X418041D01*
X418631Y209881D01*
X419550Y209500D01*
X420544D01*
X421463Y209881D01*
X422167Y210584D01*
X422547Y211503D01*
Y212497D01*
X422167Y213416D01*
X421463Y214119D01*
X420544Y214500D01*
X419550D01*
X418631Y214119D01*
X418041Y213529D01*
X406634D01*
X404663Y215500D01*
X404870Y216000D01*
X405542D01*
X406460Y216381D01*
X407164Y217084D01*
X407544Y218003D01*
Y218997D01*
X407164Y219916D01*
X406460Y220619D01*
X405542Y221000D01*
X404547D01*
X403628Y220619D01*
X402925Y219916D01*
X402544Y218997D01*
Y218326D01*
X402044Y218119D01*
X397581Y222581D01*
X397085Y222913D01*
X396500Y223029D01*
D02*
G37*
G36*
X373956Y212181D02*
X373287D01*
X372669Y211925D01*
X372196Y211452D01*
X371940Y210834D01*
Y210166D01*
X372196Y209548D01*
X372669Y209075D01*
X373287Y208819D01*
X373956D01*
X374574Y209075D01*
X375046Y209548D01*
X375302Y210166D01*
Y210834D01*
X375046Y211452D01*
X374574Y211925D01*
X373956Y212181D01*
D02*
G37*
G36*
X342334Y210181D02*
X341666D01*
X341048Y209925D01*
X340575Y209452D01*
X340319Y208834D01*
Y208166D01*
X340575Y207548D01*
X341048Y207075D01*
X341666Y206819D01*
X342334D01*
X342952Y207075D01*
X343425Y207548D01*
X343681Y208166D01*
Y208834D01*
X343425Y209452D01*
X342952Y209925D01*
X342334Y210181D01*
D02*
G37*
G36*
X148834Y209681D02*
X148166D01*
X147548Y209425D01*
X147075Y208952D01*
X146819Y208334D01*
Y207666D01*
X147075Y207048D01*
X147548Y206575D01*
X148166Y206319D01*
X148834D01*
X149452Y206575D01*
X149925Y207048D01*
X150181Y207666D01*
Y208334D01*
X149925Y208952D01*
X149452Y209425D01*
X148834Y209681D01*
D02*
G37*
G36*
X144834D02*
X144166D01*
X143548Y209425D01*
X143075Y208952D01*
X142819Y208334D01*
Y207666D01*
X143075Y207048D01*
X143548Y206575D01*
X144166Y206319D01*
X144834D01*
X145452Y206575D01*
X145925Y207048D01*
X146181Y207666D01*
Y208334D01*
X145925Y208952D01*
X145452Y209425D01*
X144834Y209681D01*
D02*
G37*
G36*
X546091Y210769D02*
X545109D01*
X544202Y210393D01*
X543507Y209698D01*
X543131Y208791D01*
Y207809D01*
X543507Y206902D01*
X544202Y206207D01*
X545109Y205832D01*
X546091D01*
X546998Y206207D01*
X547693Y206902D01*
X548069Y207809D01*
Y208791D01*
X547693Y209698D01*
X546998Y210393D01*
X546091Y210769D01*
D02*
G37*
G36*
X516659Y211261D02*
X515879D01*
X515127Y211059D01*
X514451Y210669D01*
X513900Y210118D01*
X513510Y209443D01*
X513309Y208690D01*
Y207910D01*
X513510Y207157D01*
X513900Y206482D01*
X514451Y205931D01*
X515127Y205541D01*
X515879Y205339D01*
X516659D01*
X517412Y205541D01*
X518087Y205931D01*
X518638Y206482D01*
X519028Y207157D01*
X519230Y207910D01*
Y208690D01*
X519028Y209443D01*
X518638Y210118D01*
X518087Y210669D01*
X517412Y211059D01*
X516659Y211261D01*
D02*
G37*
G36*
X325834Y208181D02*
X325166D01*
X324548Y207925D01*
X324075Y207452D01*
X323819Y206834D01*
Y206166D01*
X324075Y205548D01*
X324548Y205075D01*
X325166Y204819D01*
X325834D01*
X326452Y205075D01*
X326925Y205548D01*
X327181Y206166D01*
Y206834D01*
X326925Y207452D01*
X326452Y207925D01*
X325834Y208181D01*
D02*
G37*
G36*
X394403Y210807D02*
X393597D01*
X392819Y210599D01*
X392122Y210196D01*
X391552Y209626D01*
X391149Y208929D01*
X390941Y208151D01*
Y207345D01*
X391149Y206567D01*
X391552Y205870D01*
X392122Y205300D01*
X392819Y204897D01*
X393597Y204689D01*
X394403D01*
X395181Y204897D01*
X395878Y205300D01*
X396448Y205870D01*
X396851Y206567D01*
X397059Y207345D01*
Y208151D01*
X396851Y208929D01*
X396448Y209626D01*
X395878Y210196D01*
X395181Y210599D01*
X394403Y210807D01*
D02*
G37*
G36*
X294366Y204193D02*
X293854D01*
X293381Y203997D01*
X293019Y203635D01*
X292823Y203162D01*
Y202649D01*
X293019Y202176D01*
X293381Y201814D01*
X293854Y201618D01*
X294366D01*
X294840Y201814D01*
X295202Y202176D01*
X295398Y202649D01*
Y203162D01*
X295202Y203635D01*
X294840Y203997D01*
X294366Y204193D01*
D02*
G37*
G36*
X288855D02*
X288342D01*
X287869Y203997D01*
X287507Y203635D01*
X287311Y203162D01*
Y202649D01*
X287507Y202176D01*
X287869Y201814D01*
X288342Y201618D01*
X288855D01*
X289328Y201814D01*
X289690Y202176D01*
X289886Y202649D01*
Y203162D01*
X289690Y203635D01*
X289328Y203997D01*
X288855Y204193D01*
D02*
G37*
G36*
X257834Y203681D02*
X257166D01*
X256548Y203425D01*
X256075Y202952D01*
X255819Y202334D01*
Y201666D01*
X256075Y201048D01*
X256548Y200575D01*
X257166Y200319D01*
X257834D01*
X258452Y200575D01*
X258925Y201048D01*
X259181Y201666D01*
Y202334D01*
X258925Y202952D01*
X258452Y203425D01*
X257834Y203681D01*
D02*
G37*
G36*
X325834Y203181D02*
X325166D01*
X324548Y202925D01*
X324075Y202452D01*
X323819Y201834D01*
Y201166D01*
X324075Y200548D01*
X324548Y200075D01*
X325166Y199819D01*
X325834D01*
X326452Y200075D01*
X326925Y200548D01*
X327181Y201166D01*
Y201834D01*
X326925Y202452D01*
X326452Y202925D01*
X325834Y203181D01*
D02*
G37*
G36*
X297122Y201437D02*
X296610D01*
X296137Y201241D01*
X295775Y200879D01*
X295579Y200406D01*
Y199893D01*
X295775Y199420D01*
X296137Y199058D01*
X296610Y198862D01*
X297122D01*
X297595Y199058D01*
X297957Y199420D01*
X298153Y199893D01*
Y200406D01*
X297957Y200879D01*
X297595Y201241D01*
X297122Y201437D01*
D02*
G37*
G36*
X291610D02*
X291098D01*
X290625Y201241D01*
X290263Y200879D01*
X290067Y200406D01*
Y199893D01*
X290263Y199420D01*
X290625Y199058D01*
X291098Y198862D01*
X291610D01*
X292084Y199058D01*
X292446Y199420D01*
X292642Y199893D01*
Y200406D01*
X292446Y200879D01*
X292084Y201241D01*
X291610Y201437D01*
D02*
G37*
G36*
X286099D02*
X285586D01*
X285113Y201241D01*
X284751Y200879D01*
X284555Y200406D01*
Y199893D01*
X284751Y199420D01*
X285113Y199058D01*
X285586Y198862D01*
X286099D01*
X286572Y199058D01*
X286934Y199420D01*
X287130Y199893D01*
Y200406D01*
X286934Y200879D01*
X286572Y201241D01*
X286099Y201437D01*
D02*
G37*
G36*
X315598Y200382D02*
X314929D01*
X314312Y200126D01*
X313839Y199653D01*
X313583Y199035D01*
Y198366D01*
X313839Y197748D01*
X314312Y197275D01*
X314929Y197020D01*
X315598D01*
X316216Y197275D01*
X316689Y197748D01*
X316945Y198366D01*
Y199035D01*
X316689Y199653D01*
X316216Y200126D01*
X315598Y200382D01*
D02*
G37*
G36*
X136997Y202000D02*
X136003D01*
X135084Y201619D01*
X134381Y200916D01*
X134000Y199997D01*
Y199003D01*
X134381Y198084D01*
X135084Y197381D01*
X136003Y197000D01*
X136997D01*
X137916Y197381D01*
X138619Y198084D01*
X139000Y199003D01*
Y199997D01*
X138619Y200916D01*
X137916Y201619D01*
X136997Y202000D01*
D02*
G37*
G36*
X294366Y198681D02*
X293854D01*
X293381Y198485D01*
X293019Y198123D01*
X292823Y197650D01*
Y197138D01*
X293019Y196665D01*
X293381Y196302D01*
X293854Y196106D01*
X294366D01*
X294840Y196302D01*
X295202Y196665D01*
X295398Y197138D01*
Y197650D01*
X295202Y198123D01*
X294840Y198485D01*
X294366Y198681D01*
D02*
G37*
G36*
X288855D02*
X288342D01*
X287869Y198485D01*
X287507Y198123D01*
X287311Y197650D01*
Y197138D01*
X287507Y196665D01*
X287869Y196302D01*
X288342Y196106D01*
X288855D01*
X289328Y196302D01*
X289690Y196665D01*
X289886Y197138D01*
Y197650D01*
X289690Y198123D01*
X289328Y198485D01*
X288855Y198681D01*
D02*
G37*
G36*
X373067Y198874D02*
X372398D01*
X371780Y198618D01*
X371307Y198145D01*
X371051Y197527D01*
Y196859D01*
X371307Y196241D01*
X371780Y195768D01*
X372398Y195512D01*
X373067D01*
X373685Y195768D01*
X374157Y196241D01*
X374413Y196859D01*
Y197527D01*
X374157Y198145D01*
X373685Y198618D01*
X373067Y198874D01*
D02*
G37*
G36*
X352834Y198681D02*
X352166D01*
X351548Y198425D01*
X351075Y197952D01*
X350819Y197334D01*
Y196666D01*
X351075Y196048D01*
X351548Y195575D01*
X352166Y195319D01*
X352834D01*
X353452Y195575D01*
X353925Y196048D01*
X354181Y196666D01*
Y197334D01*
X353925Y197952D01*
X353452Y198425D01*
X352834Y198681D01*
D02*
G37*
G36*
X330834Y198181D02*
X330166D01*
X329548Y197925D01*
X329075Y197452D01*
X328819Y196834D01*
Y196166D01*
X329075Y195548D01*
X329548Y195075D01*
X330166Y194819D01*
X330834D01*
X331452Y195075D01*
X331925Y195548D01*
X332181Y196166D01*
Y196834D01*
X331925Y197452D01*
X331452Y197925D01*
X330834Y198181D01*
D02*
G37*
G36*
X297122Y195925D02*
X296610D01*
X296137Y195729D01*
X295775Y195367D01*
X295579Y194894D01*
Y194382D01*
X295775Y193909D01*
X296137Y193546D01*
X296610Y193350D01*
X297122D01*
X297595Y193546D01*
X297957Y193909D01*
X298153Y194382D01*
Y194894D01*
X297957Y195367D01*
X297595Y195729D01*
X297122Y195925D01*
D02*
G37*
G36*
X291610D02*
X291098D01*
X290625Y195729D01*
X290263Y195367D01*
X290067Y194894D01*
Y194382D01*
X290263Y193909D01*
X290625Y193546D01*
X291098Y193350D01*
X291610D01*
X292084Y193546D01*
X292446Y193909D01*
X292642Y194382D01*
Y194894D01*
X292446Y195367D01*
X292084Y195729D01*
X291610Y195925D01*
D02*
G37*
G36*
X286099D02*
X285586D01*
X285113Y195729D01*
X284751Y195367D01*
X284555Y194894D01*
Y194382D01*
X284751Y193909D01*
X285113Y193546D01*
X285586Y193350D01*
X286099D01*
X286572Y193546D01*
X286934Y193909D01*
X287130Y194382D01*
Y194894D01*
X286934Y195367D01*
X286572Y195729D01*
X286099Y195925D01*
D02*
G37*
G36*
X335987Y196333D02*
X335318D01*
X334700Y196077D01*
X334227Y195604D01*
X333971Y194987D01*
Y194318D01*
X334227Y193700D01*
X334700Y193227D01*
X335318Y192971D01*
X335987D01*
X336604Y193227D01*
X337077Y193700D01*
X337333Y194318D01*
Y194987D01*
X337077Y195604D01*
X336604Y196077D01*
X335987Y196333D01*
D02*
G37*
G36*
X294366Y193169D02*
X293854D01*
X293381Y192973D01*
X293019Y192611D01*
X292823Y192138D01*
Y191626D01*
X293019Y191153D01*
X293381Y190790D01*
X293854Y190594D01*
X294366D01*
X294840Y190790D01*
X295202Y191153D01*
X295398Y191626D01*
Y192138D01*
X295202Y192611D01*
X294840Y192973D01*
X294366Y193169D01*
D02*
G37*
G36*
X288855D02*
X288342D01*
X287869Y192973D01*
X287507Y192611D01*
X287311Y192138D01*
Y191626D01*
X287507Y191153D01*
X287869Y190790D01*
X288342Y190594D01*
X288855D01*
X289328Y190790D01*
X289690Y191153D01*
X289886Y191626D01*
Y192138D01*
X289690Y192611D01*
X289328Y192973D01*
X288855Y193169D01*
D02*
G37*
G36*
X346334Y193181D02*
X345666D01*
X345048Y192925D01*
X344575Y192452D01*
X344319Y191834D01*
Y191166D01*
X344575Y190548D01*
X345048Y190075D01*
X345666Y189819D01*
X346334D01*
X346952Y190075D01*
X347425Y190548D01*
X347681Y191166D01*
Y191834D01*
X347425Y192452D01*
X346952Y192925D01*
X346334Y193181D01*
D02*
G37*
G36*
X330869Y193147D02*
X330200D01*
X329582Y192891D01*
X329109Y192418D01*
X328853Y191800D01*
Y191131D01*
X329109Y190513D01*
X329582Y190040D01*
X330200Y189784D01*
X330869D01*
X331487Y190040D01*
X331960Y190513D01*
X332216Y191131D01*
Y191800D01*
X331960Y192418D01*
X331487Y192891D01*
X330869Y193147D01*
D02*
G37*
G36*
X337834Y192681D02*
X337166D01*
X336548Y192425D01*
X336075Y191952D01*
X335819Y191334D01*
Y190666D01*
X336075Y190048D01*
X336548Y189575D01*
X337166Y189319D01*
X337834D01*
X338452Y189575D01*
X338925Y190048D01*
X339181Y190666D01*
Y191334D01*
X338925Y191952D01*
X338452Y192425D01*
X337834Y192681D01*
D02*
G37*
G36*
X492473Y197488D02*
X491377D01*
X490319Y197205D01*
X489370Y196657D01*
X488595Y195882D01*
X488047Y194933D01*
X487764Y193875D01*
Y192779D01*
X488047Y191720D01*
X488595Y190772D01*
X489370Y189997D01*
X490319Y189449D01*
X491377Y189165D01*
X492473D01*
X493531Y189449D01*
X494480Y189997D01*
X495255Y190772D01*
X495803Y191720D01*
X496087Y192779D01*
Y193875D01*
X495803Y194933D01*
X495255Y195882D01*
X494480Y196657D01*
X493531Y197205D01*
X492473Y197488D01*
D02*
G37*
G36*
X394403Y195059D02*
X393597D01*
X392819Y194851D01*
X392122Y194448D01*
X391552Y193878D01*
X391149Y193181D01*
X390941Y192403D01*
Y191597D01*
X391149Y190819D01*
X391552Y190122D01*
X392122Y189552D01*
X392819Y189149D01*
X393597Y188941D01*
X394403D01*
X395181Y189149D01*
X395878Y189552D01*
X396448Y190122D01*
X396851Y190819D01*
X397059Y191597D01*
Y192403D01*
X396851Y193181D01*
X396448Y193878D01*
X395878Y194448D01*
X395181Y194851D01*
X394403Y195059D01*
D02*
G37*
G36*
X355153Y191181D02*
X354485D01*
X353867Y190925D01*
X353394Y190452D01*
X353138Y189834D01*
Y189166D01*
X353394Y188548D01*
X353867Y188075D01*
X354485Y187819D01*
X355153D01*
X355771Y188075D01*
X356244Y188548D01*
X356500Y189166D01*
Y189834D01*
X356244Y190452D01*
X355771Y190925D01*
X355153Y191181D01*
D02*
G37*
G36*
X330834Y188181D02*
X330166D01*
X329548Y187925D01*
X329075Y187452D01*
X328819Y186834D01*
Y186166D01*
X329075Y185548D01*
X329548Y185075D01*
X330166Y184819D01*
X330834D01*
X331452Y185075D01*
X331925Y185548D01*
X332181Y186166D01*
Y186834D01*
X331925Y187452D01*
X331452Y187925D01*
X330834Y188181D01*
D02*
G37*
G36*
X389755Y184871D02*
X389086D01*
X388468Y184615D01*
X388316Y184463D01*
X387989Y184148D01*
X387663Y184463D01*
X387510Y184615D01*
X386892Y184871D01*
X386224D01*
X385606Y184615D01*
X385133Y184142D01*
X384877Y183524D01*
Y182855D01*
X385133Y182238D01*
X385606Y181765D01*
X386224Y181509D01*
X386892D01*
X387510Y181765D01*
X387663Y181917D01*
X387989Y182232D01*
X388316Y181917D01*
X388468Y181765D01*
X389086Y181509D01*
X389755D01*
X390372Y181765D01*
X390845Y182238D01*
X391101Y182855D01*
Y183524D01*
X390845Y184142D01*
X390372Y184615D01*
X389755Y184871D01*
D02*
G37*
G36*
X342834Y185500D02*
X342166D01*
X341548Y185244D01*
X341075Y184771D01*
X340819Y184153D01*
Y183484D01*
X341075Y182867D01*
X341548Y182394D01*
X342166Y182138D01*
X342834D01*
X343452Y182394D01*
X343925Y182867D01*
X344181Y183484D01*
Y184153D01*
X343925Y184771D01*
X343452Y185244D01*
X342834Y185500D01*
D02*
G37*
G36*
X316353Y179077D02*
X315685D01*
X315067Y178822D01*
X314594Y178349D01*
X314338Y177731D01*
Y177062D01*
X314594Y176444D01*
X315067Y175971D01*
X315685Y175715D01*
X316353D01*
X316971Y175971D01*
X317444Y176444D01*
X317700Y177062D01*
Y177731D01*
X317444Y178349D01*
X316971Y178822D01*
X316353Y179077D01*
D02*
G37*
G36*
X492455Y180717D02*
X491545D01*
X490667Y180481D01*
X489880Y180027D01*
X489237Y179384D01*
X488783Y178596D01*
X488547Y177718D01*
Y176809D01*
X488783Y175931D01*
X489237Y175144D01*
X489880Y174501D01*
X490667Y174046D01*
X491545Y173811D01*
X492455D01*
X493333Y174046D01*
X494120Y174501D01*
X494763Y175144D01*
X495218Y175931D01*
X495453Y176809D01*
Y177718D01*
X495218Y178596D01*
X494763Y179384D01*
X494120Y180027D01*
X493333Y180481D01*
X492455Y180717D01*
D02*
G37*
G36*
X461997Y177500D02*
X461003D01*
X460084Y177119D01*
X459381Y176416D01*
X459000Y175497D01*
Y174503D01*
X459381Y173584D01*
X460084Y172881D01*
X461003Y172500D01*
X461997D01*
X462916Y172881D01*
X463619Y173584D01*
X464000Y174503D01*
Y175497D01*
X463619Y176416D01*
X462916Y177119D01*
X461997Y177500D01*
D02*
G37*
G36*
X261997Y175500D02*
X261003D01*
X260084Y175119D01*
X259381Y174416D01*
X259000Y173497D01*
Y172503D01*
X259381Y171584D01*
X260084Y170881D01*
X261003Y170500D01*
X261997D01*
X262916Y170881D01*
X263619Y171584D01*
X264000Y172503D01*
Y173497D01*
X263619Y174416D01*
X262916Y175119D01*
X261997Y175500D01*
D02*
G37*
G36*
X492455Y170717D02*
X491545D01*
X490667Y170481D01*
X489880Y170027D01*
X489237Y169384D01*
X488783Y168596D01*
X488547Y167718D01*
Y166809D01*
X488783Y165931D01*
X489237Y165144D01*
X489880Y164501D01*
X490667Y164046D01*
X491545Y163811D01*
X492455D01*
X493333Y164046D01*
X494120Y164501D01*
X494763Y165144D01*
X495218Y165931D01*
X495453Y166809D01*
Y167718D01*
X495218Y168596D01*
X494763Y169384D01*
X494120Y170027D01*
X493333Y170481D01*
X492455Y170717D01*
D02*
G37*
G36*
X438834Y166181D02*
X438166D01*
X437548Y165925D01*
X437075Y165452D01*
X436819Y164834D01*
Y164166D01*
X437075Y163548D01*
X437548Y163075D01*
X438166Y162819D01*
X438834D01*
X439452Y163075D01*
X439925Y163548D01*
X440181Y164166D01*
Y164834D01*
X439925Y165452D01*
X439452Y165925D01*
X438834Y166181D01*
D02*
G37*
G36*
X128334Y165681D02*
X127666D01*
X127048Y165425D01*
X126575Y164952D01*
X126319Y164334D01*
Y163666D01*
X126575Y163048D01*
X127048Y162575D01*
X127666Y162319D01*
X128334D01*
X128952Y162575D01*
X129425Y163048D01*
X129681Y163666D01*
Y164334D01*
X129425Y164952D01*
X128952Y165425D01*
X128334Y165681D01*
D02*
G37*
G36*
X418334Y161181D02*
X417666D01*
X417048Y160925D01*
X416827Y160704D01*
X416500Y160499D01*
X416173Y160704D01*
X415952Y160925D01*
X415334Y161181D01*
X414666D01*
X414048Y160925D01*
X413575Y160452D01*
X413319Y159834D01*
Y159166D01*
X413575Y158548D01*
X414048Y158075D01*
X414666Y157819D01*
X415334D01*
X415952Y158075D01*
X416173Y158296D01*
X416500Y158501D01*
X416827Y158296D01*
X417048Y158075D01*
X417666Y157819D01*
X418334D01*
X418952Y158075D01*
X419425Y158548D01*
X419681Y159166D01*
Y159834D01*
X419425Y160452D01*
X418952Y160925D01*
X418334Y161181D01*
D02*
G37*
G36*
X446334Y163181D02*
X445666D01*
X445048Y162925D01*
X444575Y162452D01*
X444319Y161834D01*
Y161166D01*
X444575Y160548D01*
X445048Y160075D01*
X445666Y159819D01*
X446334D01*
X446952Y160075D01*
X447425Y160548D01*
X447681Y161166D01*
Y161834D01*
X447425Y162452D01*
X446952Y162925D01*
X446334Y163181D01*
D02*
G37*
G36*
X336834D02*
X336166D01*
X335548Y162925D01*
X335075Y162452D01*
X334819Y161834D01*
Y161166D01*
X335075Y160548D01*
X335548Y160075D01*
X336166Y159819D01*
X336834D01*
X337452Y160075D01*
X337925Y160548D01*
X338181Y161166D01*
Y161834D01*
X337925Y162452D01*
X337452Y162925D01*
X336834Y163181D01*
D02*
G37*
G36*
X434378Y160650D02*
X433709D01*
X433091Y160394D01*
X432618Y159921D01*
X432542Y159738D01*
X432001D01*
X431925Y159921D01*
X431452Y160394D01*
X430834Y160650D01*
X430166D01*
X429548Y160394D01*
X429075Y159921D01*
X428999Y159738D01*
X428458D01*
X428382Y159921D01*
X427909Y160394D01*
X427291Y160650D01*
X426622D01*
X426004Y160394D01*
X425531Y159921D01*
X425276Y159303D01*
Y158634D01*
X425531Y158016D01*
X426004Y157543D01*
X426622Y157287D01*
X427291D01*
X427909Y157543D01*
X428382Y158016D01*
X428458Y158200D01*
X428999D01*
X429075Y158016D01*
X429548Y157543D01*
X430166Y157287D01*
X430834D01*
X431452Y157543D01*
X431925Y158016D01*
X432001Y158200D01*
X432542D01*
X432618Y158016D01*
X433091Y157543D01*
X433709Y157287D01*
X434378D01*
X434996Y157543D01*
X435468Y158016D01*
X435724Y158634D01*
Y159303D01*
X435468Y159921D01*
X434996Y160394D01*
X434378Y160650D01*
D02*
G37*
G36*
X329334Y160681D02*
X328666D01*
X328048Y160425D01*
X327575Y159952D01*
X327319Y159334D01*
Y158666D01*
X327575Y158048D01*
X328048Y157575D01*
X328666Y157319D01*
X329334D01*
X329952Y157575D01*
X330425Y158048D01*
X330681Y158666D01*
Y159334D01*
X330425Y159952D01*
X329952Y160425D01*
X329334Y160681D01*
D02*
G37*
G36*
X149497Y162000D02*
X148503D01*
X147584Y161619D01*
X146881Y160916D01*
X146500Y159997D01*
Y159003D01*
X146881Y158084D01*
X147584Y157381D01*
X148503Y157000D01*
X149497D01*
X150416Y157381D01*
X151119Y158084D01*
X151500Y159003D01*
Y159997D01*
X151119Y160916D01*
X150416Y161619D01*
X149497Y162000D01*
D02*
G37*
G36*
X434378Y156713D02*
X433709D01*
X433091Y156457D01*
X432618Y155984D01*
X432542Y155800D01*
X432001D01*
X431925Y155984D01*
X431452Y156457D01*
X430834Y156713D01*
X430166D01*
X429548Y156457D01*
X429075Y155984D01*
X428999Y155800D01*
X428458D01*
X428382Y155984D01*
X427909Y156457D01*
X427291Y156713D01*
X426622D01*
X426004Y156457D01*
X425531Y155984D01*
X425276Y155366D01*
Y154697D01*
X425531Y154079D01*
X426004Y153606D01*
X426622Y153350D01*
X427291D01*
X427909Y153606D01*
X428382Y154079D01*
X428458Y154262D01*
X428999D01*
X429075Y154079D01*
X429548Y153606D01*
X430166Y153350D01*
X430834D01*
X431452Y153606D01*
X431925Y154079D01*
X432001Y154262D01*
X432542D01*
X432618Y154079D01*
X433091Y153606D01*
X433709Y153350D01*
X434378D01*
X434996Y153606D01*
X435468Y154079D01*
X435724Y154697D01*
Y155366D01*
X435468Y155984D01*
X434996Y156457D01*
X434378Y156713D01*
D02*
G37*
G36*
X495453Y160716D02*
X488547D01*
Y153811D01*
X495453D01*
Y160716D01*
D02*
G37*
G36*
X448158Y155554D02*
X447163D01*
X446244Y155173D01*
X445541Y154470D01*
X445161Y153551D01*
Y152556D01*
X445541Y151638D01*
X446244Y150934D01*
X447163Y150554D01*
X448158D01*
X449077Y150934D01*
X449780Y151638D01*
X450161Y152556D01*
Y153551D01*
X449780Y154470D01*
X449077Y155173D01*
X448158Y155554D01*
D02*
G37*
G36*
X368334Y149681D02*
X367666D01*
X367048Y149425D01*
X366575Y148952D01*
X366319Y148334D01*
Y147666D01*
X366575Y147048D01*
X367048Y146575D01*
X367666Y146319D01*
X368334D01*
X368952Y146575D01*
X369425Y147048D01*
X369681Y147666D01*
Y148334D01*
X369425Y148952D01*
X368952Y149425D01*
X368334Y149681D01*
D02*
G37*
G36*
X620700Y150669D02*
X602700D01*
Y144500D01*
X620700D01*
Y150669D01*
D02*
G37*
%LPD*%
G36*
X614507Y150161D02*
X614572Y150154D01*
X614638Y150147D01*
X614718Y150132D01*
X614798Y150110D01*
X614981Y150059D01*
X615075Y150023D01*
X615177Y149972D01*
X615272Y149921D01*
X615360Y149862D01*
X615454Y149790D01*
X615535Y149709D01*
X615542Y149702D01*
X615549Y149695D01*
X615571Y149673D01*
X615593Y149644D01*
X615651Y149571D01*
X615717Y149469D01*
X615782Y149345D01*
X615834Y149199D01*
X615877Y149039D01*
X615885Y148959D01*
X615892Y148871D01*
Y148864D01*
Y148842D01*
X615885Y148805D01*
X615877Y148762D01*
X615870Y148703D01*
X615855Y148638D01*
X615834Y148565D01*
X615804Y148485D01*
X615761Y148404D01*
X615717Y148317D01*
X615659Y148230D01*
X615586Y148142D01*
X615498Y148055D01*
X615404Y147967D01*
X615294Y147887D01*
X615163Y147807D01*
X615170D01*
X615185Y147799D01*
X615207D01*
X615236Y147785D01*
X615316Y147763D01*
X615411Y147719D01*
X615520Y147661D01*
X615637Y147588D01*
X615753Y147493D01*
X615855Y147384D01*
X615870Y147369D01*
X615899Y147326D01*
X615936Y147260D01*
X615987Y147165D01*
X616038Y147056D01*
X616074Y146917D01*
X616103Y146772D01*
X616118Y146604D01*
Y146597D01*
Y146575D01*
Y146538D01*
X616111Y146494D01*
X616103Y146436D01*
X616089Y146370D01*
X616074Y146290D01*
X616060Y146210D01*
X616001Y146035D01*
X615957Y145940D01*
X615914Y145838D01*
X615855Y145744D01*
X615790Y145649D01*
X615717Y145554D01*
X615629Y145467D01*
X615622Y145459D01*
X615608Y145445D01*
X615578Y145423D01*
X615542Y145394D01*
X615491Y145357D01*
X615440Y145321D01*
X615367Y145277D01*
X615294Y145233D01*
X615214Y145189D01*
X615119Y145146D01*
X615017Y145109D01*
X614915Y145073D01*
X614798Y145044D01*
X614682Y145022D01*
X614550Y145007D01*
X614419Y145000D01*
X614354D01*
X614303Y145007D01*
X614244Y145015D01*
X614179Y145022D01*
X614106Y145036D01*
X614018Y145051D01*
X613843Y145095D01*
X613654Y145168D01*
X613552Y145211D01*
X613464Y145262D01*
X613370Y145328D01*
X613282Y145394D01*
X613275Y145401D01*
X613260Y145415D01*
X613238Y145437D01*
X613209Y145467D01*
X613173Y145503D01*
X613136Y145554D01*
X613093Y145605D01*
X613049Y145671D01*
X613005Y145744D01*
X612954Y145817D01*
X612874Y145991D01*
X612808Y146196D01*
X612779Y146305D01*
X612765Y146422D01*
X613698Y146538D01*
Y146531D01*
Y146524D01*
X613705Y146480D01*
X613720Y146414D01*
X613741Y146334D01*
X613778Y146247D01*
X613814Y146152D01*
X613873Y146064D01*
X613938Y145984D01*
X613945Y145977D01*
X613975Y145955D01*
X614018Y145926D01*
X614069Y145897D01*
X614142Y145860D01*
X614222Y145831D01*
X614310Y145809D01*
X614412Y145802D01*
X614427D01*
X614463Y145809D01*
X614514Y145817D01*
X614587Y145831D01*
X614667Y145860D01*
X614747Y145897D01*
X614835Y145955D01*
X614915Y146028D01*
X614922Y146035D01*
X614952Y146072D01*
X614981Y146123D01*
X615024Y146188D01*
X615061Y146276D01*
X615097Y146385D01*
X615119Y146509D01*
X615126Y146648D01*
Y146655D01*
Y146662D01*
Y146706D01*
X615119Y146772D01*
X615105Y146859D01*
X615075Y146954D01*
X615039Y147048D01*
X614988Y147143D01*
X614922Y147231D01*
X614915Y147238D01*
X614886Y147267D01*
X614842Y147304D01*
X614791Y147340D01*
X614718Y147384D01*
X614638Y147413D01*
X614550Y147442D01*
X614448Y147449D01*
X614376D01*
X614325Y147442D01*
X614259Y147435D01*
X614179Y147420D01*
X614099Y147398D01*
X614004Y147377D01*
X614106Y148157D01*
X614172D01*
X614244Y148164D01*
X614332Y148171D01*
X614427Y148193D01*
X614529Y148222D01*
X614623Y148266D01*
X614711Y148324D01*
X614718Y148331D01*
X614747Y148361D01*
X614777Y148397D01*
X614820Y148456D01*
X614857Y148521D01*
X614893Y148601D01*
X614915Y148696D01*
X614922Y148805D01*
Y148820D01*
Y148849D01*
X614915Y148893D01*
X614900Y148951D01*
X614886Y149017D01*
X614857Y149082D01*
X614820Y149155D01*
X614769Y149214D01*
X614762Y149221D01*
X614740Y149235D01*
X614711Y149265D01*
X614660Y149294D01*
X614602Y149316D01*
X614536Y149345D01*
X614448Y149359D01*
X614361Y149367D01*
X614317D01*
X614274Y149359D01*
X614215Y149345D01*
X614150Y149323D01*
X614077Y149294D01*
X614004Y149250D01*
X613938Y149192D01*
X613931Y149185D01*
X613909Y149163D01*
X613880Y149119D01*
X613843Y149060D01*
X613807Y148995D01*
X613778Y148907D01*
X613749Y148805D01*
X613727Y148689D01*
X612837Y148835D01*
Y148842D01*
X612845Y148856D01*
Y148878D01*
X612852Y148915D01*
X612874Y148995D01*
X612903Y149104D01*
X612947Y149221D01*
X612991Y149345D01*
X613049Y149461D01*
X613114Y149571D01*
X613122Y149585D01*
X613151Y149615D01*
X613195Y149666D01*
X613253Y149731D01*
X613326Y149797D01*
X613413Y149870D01*
X613523Y149943D01*
X613639Y150008D01*
X613647D01*
X613654Y150015D01*
X613698Y150030D01*
X613770Y150059D01*
X613858Y150088D01*
X613967Y150118D01*
X614099Y150147D01*
X614237Y150161D01*
X614390Y150169D01*
X614456D01*
X614507Y150161D01*
D02*
G37*
G36*
X604170Y145095D02*
X603200D01*
Y146064D01*
X604170D01*
Y145095D01*
D02*
G37*
%LPC*%
G36*
X442497Y208500D02*
X441503D01*
X440584Y208119D01*
X439881Y207416D01*
X439500Y206497D01*
Y205503D01*
X439881Y204584D01*
X440584Y203881D01*
X441503Y203500D01*
X442497D01*
X443416Y203881D01*
X444119Y204584D01*
X444500Y205503D01*
Y206497D01*
X444119Y207416D01*
X443416Y208119D01*
X442497Y208500D01*
D02*
G37*
%LPD*%
D13*
X675500Y174500D02*
X680634D01*
X675500D02*
Y179634D01*
X670366Y174500D02*
X675500D01*
Y169366D02*
Y174500D01*
X495900Y185000D02*
X503500Y192600D01*
Y207000D01*
X480500Y179500D02*
X486000Y185000D01*
X495900D01*
X480086Y179500D02*
X480500Y179500D01*
X400500Y179500D02*
X480086D01*
X387500Y186500D02*
X393500D01*
X400500Y179500D01*
X385000Y189000D02*
Y192500D01*
Y189000D02*
X387500Y186500D01*
X369000Y172500D02*
X373000Y176500D01*
X368379Y174000D02*
X371500Y177121D01*
X261121Y195000D02*
X282121Y174000D01*
X281500Y172500D02*
X369000D01*
X260500Y193500D02*
X281500Y172500D01*
X282121Y174000D02*
X368379D01*
X374000Y184000D02*
X378000D01*
X364500Y198500D02*
X371500Y191500D01*
X257500Y192000D02*
X259000Y193500D01*
X257500Y197000D02*
X259500Y195000D01*
X261121D01*
X259000Y193500D02*
X260500D01*
X373000Y183000D02*
X374000Y184000D01*
X373000Y176500D02*
Y183000D01*
X371500Y177121D02*
Y191500D01*
D85*
X394000Y215622D02*
D03*
D86*
Y207748D02*
D03*
Y199874D02*
D03*
Y192000D02*
D03*
D87*
X365008Y244587D02*
D03*
X330992D02*
D03*
D88*
X365008Y228130D02*
D03*
X330992D02*
D03*
D89*
X359378Y230098D02*
D03*
X336622D02*
D03*
D93*
X516269Y208300D02*
D03*
D94*
X545600D02*
D03*
D99*
X158914Y199154D02*
D03*
X145733Y246033D02*
D03*
X421833Y242633D02*
D03*
X503500Y207000D02*
D03*
X223421Y196500D02*
D03*
X230500Y192126D02*
D03*
X222543Y212874D02*
D03*
X214500Y212968D02*
D03*
X213579Y196500D02*
D03*
X290500Y232000D02*
D03*
X389000Y243500D02*
D03*
X316019Y177396D02*
D03*
X357319Y202500D02*
D03*
X354819Y189500D02*
D03*
X229500Y185000D02*
D03*
X336500Y161500D02*
D03*
X378000Y184000D02*
D03*
X368500Y185500D02*
D03*
X364500Y198500D02*
D03*
X373621Y210500D02*
D03*
X148500Y208000D02*
D03*
X144500D02*
D03*
X431333Y196333D02*
D03*
X315264Y198701D02*
D03*
X338882Y185316D02*
D03*
X257500Y202000D02*
D03*
Y212000D02*
D03*
X385000Y192500D02*
D03*
X446000Y161500D02*
D03*
X236451Y245181D02*
D03*
X204500D02*
D03*
X257500Y192000D02*
D03*
X330535Y191465D02*
D03*
X247458Y247542D02*
D03*
X314795Y232289D02*
D03*
X308500Y223500D02*
D03*
X418000Y159500D02*
D03*
X415000D02*
D03*
X386558Y183190D02*
D03*
X389420D02*
D03*
X375255Y215255D02*
D03*
X368000Y148000D02*
D03*
X398000Y148500D02*
D03*
X374000Y148000D02*
D03*
X508000Y248000D02*
D03*
X429785Y193209D02*
D03*
X228500Y245181D02*
D03*
X544000Y248000D02*
D03*
X526000D02*
D03*
X598000D02*
D03*
X616000D02*
D03*
X580000D02*
D03*
X562000D02*
D03*
X276000Y223500D02*
D03*
X152000Y222000D02*
D03*
X447500Y169500D02*
D03*
X426957Y155032D02*
D03*
X430500D02*
D03*
X434043D02*
D03*
X426957Y158968D02*
D03*
X430500D02*
D03*
X434043D02*
D03*
X438500Y164500D02*
D03*
X430500Y167000D02*
D03*
X342500Y183819D02*
D03*
X330500Y186500D02*
D03*
X335652Y194652D02*
D03*
X337500Y191000D02*
D03*
X348458Y147958D02*
D03*
X257500Y207000D02*
D03*
Y197000D02*
D03*
X220500Y245181D02*
D03*
X212500D02*
D03*
X212626Y189500D02*
D03*
X216563D02*
D03*
X220500D02*
D03*
X128000Y164000D02*
D03*
X156000Y208000D02*
D03*
X258000Y234000D02*
D03*
X229500Y181862D02*
D03*
X244415Y247543D02*
D03*
X329000Y154000D02*
D03*
Y159000D02*
D03*
X352500Y197000D02*
D03*
X346000Y191500D02*
D03*
X343500Y203000D02*
D03*
X342000Y208500D02*
D03*
X330500Y196500D02*
D03*
X372732Y197193D02*
D03*
X320000Y217500D02*
D03*
Y213181D02*
D03*
X169500Y188500D02*
D03*
X286181Y223500D02*
D03*
X299000D02*
D03*
X344500Y220500D02*
D03*
X325500Y206500D02*
D03*
X353500Y215500D02*
D03*
X348095D02*
D03*
X175000Y216500D02*
D03*
X140500D02*
D03*
X150000D02*
D03*
X164000D02*
D03*
X268000Y234181D02*
D03*
X263000Y234000D02*
D03*
X273000Y234181D02*
D03*
X325500Y201500D02*
D03*
X303000Y247500D02*
D03*
X171500Y222000D02*
D03*
D101*
X679571Y197000D02*
G03*
X683600Y201814I-4072J7500D01*
G01*
Y192186D02*
G03*
X679571Y197000I-8100J-2686D01*
G01*
X677791Y181279D02*
G03*
X683600Y186814I-2291J8221D01*
G01*
X673209Y181279D02*
G03*
X677791Y181279I2291J8221D01*
G01*
X671428Y197000D02*
G03*
X673209Y181279I4072J-7500D01*
G01*
D02*
G03*
X670963Y180034I2291J-6779D01*
G01*
X680037D02*
G03*
X677791Y181279I-4537J-5534D01*
G01*
X681034Y169963D02*
G03*
X682656Y174500I-5534J4537D01*
G01*
D02*
G03*
X681034Y179037I-7156J0D01*
G01*
X670963Y168966D02*
G03*
X680037Y168966I4537J5534D01*
G01*
X669966Y179037D02*
G03*
X669966Y169963I5534J-4537D01*
G01*
X683600Y243362D02*
G03*
X683600Y212740I-1860J-15311D01*
G01*
Y207186D02*
G03*
X671428Y197000I-8100J-2686D01*
G01*
X651561Y224823D02*
G03*
X651561Y224823I-8061J0D01*
G01*
X683600Y164622D02*
G03*
X666381Y147900I-1860J-15311D01*
G01*
X651561Y182500D02*
G03*
X651561Y182500I-8061J0D01*
G01*
X683250Y208074D02*
X683600Y208424D01*
Y243362D02*
Y245100D01*
Y192186D02*
Y201814D01*
Y207186D02*
Y212740D01*
X679796Y245100D02*
X681424Y243472D01*
X680251Y196589D02*
X683600Y199939D01*
X681778Y183720D02*
X683600Y181899D01*
X682641Y199828D02*
X683600Y198869D01*
X680665Y180034D02*
X683600Y182968D01*
X681034Y179037D02*
Y180034D01*
X680251Y196589D02*
X683600Y199939D01*
X677821Y213134D02*
X678445Y212510D01*
X674324Y241575D02*
X677849Y245100D01*
X678982Y212291D02*
X679484Y212793D01*
X671310Y245100D02*
X674658Y241753D01*
X676031Y180983D02*
X676980Y180034D01*
X672180D02*
X673380Y181234D01*
X680037Y180034D02*
X681034D01*
X670963D02*
X680037D01*
X669966D02*
X670963D01*
X669966Y179037D02*
Y180034D01*
X682581Y173464D02*
X683600Y174483D01*
X681034Y175979D02*
X682654Y174359D01*
X683600Y164622D02*
Y186814D01*
X681034Y169963D02*
Y179037D01*
X682654Y174359D02*
X683600Y173413D01*
X681034Y171917D02*
X682581Y173464D01*
X682326Y164724D02*
X683600Y165998D01*
X681034Y168966D02*
Y169963D01*
X680037Y168966D02*
X681034D01*
X679770Y168758D02*
X683600Y164928D01*
X669966Y169963D02*
Y179037D01*
X669617Y170425D02*
X669966Y170077D01*
X668622Y176476D02*
X669966Y177820D01*
X676536Y167420D02*
X678083Y168966D01*
X671077D02*
X671425Y168617D01*
X676300Y163743D01*
X669966Y168966D02*
X670963D01*
X669966D02*
Y169963D01*
X670963Y168966D02*
X680037D01*
X662825Y245100D02*
X669941Y237984D01*
X654340Y245100D02*
X666965Y232475D01*
X651262Y226998D02*
X669364Y245100D01*
X631438D02*
X683600D01*
X645855D02*
X666823Y224132D01*
X637369Y245100D02*
X670828Y211641D01*
X651278Y222706D02*
X667261Y206723D01*
X647629Y189424D02*
X673328Y215123D01*
X647611Y217888D02*
X669720Y195779D01*
X631438Y198689D02*
X668216Y235467D01*
X631438Y190203D02*
X666559Y225325D01*
X638565Y218449D02*
X666983Y190031D01*
X647564Y231785D02*
X660879Y245100D01*
X638119Y230825D02*
X652393Y245100D01*
X631438Y234061D02*
X636565Y228933D01*
X631438Y232630D02*
X643908Y245100D01*
X631438Y241115D02*
X635423Y245100D01*
X631438Y242546D02*
X641383Y232601D01*
X631438Y207174D02*
X641325Y217060D01*
X631438Y200120D02*
X641302Y190256D01*
X631438Y200120D02*
X641302Y190256D01*
X631438Y224145D02*
X637498Y230204D01*
X631438Y225575D02*
X637126Y219887D01*
X631438Y215659D02*
X636538Y220759D01*
X638687Y188967D02*
X669032Y219312D01*
X651285Y184594D02*
X667709Y201018D01*
X631561Y147900D02*
X668411Y184749D01*
X631561Y147900D02*
X668411Y184749D01*
X631438Y217090D02*
X669758Y178770D01*
X631438Y208605D02*
X669617Y170425D01*
X631438Y156262D02*
X667419Y192243D01*
X651256Y180302D02*
X671090Y160467D01*
X651256Y180302D02*
X671090Y160467D01*
X657017Y147900D02*
X676536Y167420D01*
X640046Y147900D02*
X668622Y176476D01*
X647545Y175527D02*
X667600Y155472D01*
X648532Y147900D02*
X669966Y169334D01*
X631438Y173233D02*
X636576Y178371D01*
X631438Y183149D02*
X666354Y148233D01*
X631438Y164748D02*
X641406Y174715D01*
X631438Y181718D02*
X637033Y187313D01*
X631438Y191634D02*
X636527Y186545D01*
X631438Y147900D02*
Y245100D01*
Y147900D02*
X666381D01*
X631438Y149208D02*
X632746Y147900D01*
X665502D02*
X666328Y148725D01*
X631438Y174664D02*
X658202Y147900D01*
X631438Y166179D02*
X649716Y147900D01*
X631438Y157693D02*
X641231Y147900D01*
D102*
X208918Y177818D02*
X209301Y177435D01*
X229471D01*
X196918Y233929D02*
X209000Y221847D01*
Y201079D02*
Y221847D01*
Y201079D02*
X213579Y196500D01*
X196918Y233929D02*
Y246318D01*
X128268Y181768D02*
Y237268D01*
X126000Y179500D02*
X128268Y181768D01*
X156000Y187000D02*
X176500Y166500D01*
X439459Y228500D02*
X440000D01*
X438459Y227500D02*
X439459Y228500D01*
X372000Y225500D02*
X374000Y227500D01*
X438459D01*
X423000Y232000D02*
X443000D01*
X462500Y205000D02*
Y212500D01*
X443000Y232000D02*
X462500Y212500D01*
X328000Y234500D02*
X420828D01*
X423000Y232328D01*
X301000Y207500D02*
X328000Y234500D01*
X423000Y232000D02*
Y232328D01*
X362000Y215500D02*
X372000Y225500D01*
Y230500D01*
X368509Y239500D02*
X370734Y241725D01*
X280000Y239500D02*
X368509D01*
X370734Y241725D02*
X371275D01*
X425000Y222000D02*
X436500D01*
X409243Y243707D02*
Y243743D01*
Y243707D02*
X413450Y239500D01*
X436500Y222000D02*
X441500Y217000D01*
X412966Y195169D02*
X421000D01*
X404916Y187119D02*
X412966Y195169D01*
X426169Y190000D02*
X446500D01*
X421000Y195169D02*
X426169Y190000D01*
X342000Y168000D02*
X347000Y163000D01*
X199000Y166500D02*
X199541D01*
X201041Y168000D01*
X342000D01*
X353500Y215500D02*
X362000D01*
X357500Y179000D02*
X360000Y181500D01*
Y206000D01*
X375500Y221500D01*
X338500Y182000D02*
X341500Y179000D01*
X357500D01*
X159571Y183500D02*
X224208D01*
X347000Y163000D02*
X371000D01*
X236181Y187681D02*
X250500Y202000D01*
Y217500D02*
X254500Y221500D01*
X250500Y202000D02*
Y217500D01*
X253000Y200964D02*
Y213828D01*
X254172Y215000D01*
X259828D01*
X229471Y177435D02*
X253000Y200964D01*
X228390Y187681D02*
X236181D01*
X224208Y183500D02*
X228390Y187681D01*
X254500Y221500D02*
X267000D01*
X375500D02*
X396500D01*
X406000Y212000D02*
X420047D01*
X396500Y221500D02*
X406000Y212000D01*
X317000Y182000D02*
X338500D01*
X306500Y192500D02*
X317000Y182000D01*
X267000Y221500D02*
X274000D01*
X276000Y223500D01*
X267000Y207000D02*
Y221500D01*
X271163Y216663D02*
X276163D01*
X271000Y216500D02*
X271163Y216663D01*
X276163D02*
X280500Y221000D01*
X152789Y190752D02*
Y213711D01*
X150000Y216500D02*
X152789Y213711D01*
X150000Y216500D02*
X164000D01*
X152789Y190752D02*
X156000Y187541D01*
Y187000D02*
Y187541D01*
X371000Y163000D02*
X381500Y173500D01*
X424000Y199874D02*
X429603Y194271D01*
X424374Y199874D02*
X441500Y217000D01*
X394000Y199874D02*
X424374D01*
X386374D02*
X394000D01*
X443408Y215592D02*
X457500Y201500D01*
X481642D01*
X413450Y239500D02*
X448000D01*
X280500Y221000D02*
Y239000D01*
X285000Y207500D02*
X301000D01*
X280000Y202500D02*
X285000Y207500D01*
X261000Y203672D02*
X262172Y202500D01*
X261000Y203672D02*
Y213828D01*
X262172Y202500D02*
X280000D01*
X259828Y215000D02*
X261000Y213828D01*
X269000Y250500D02*
X280500Y239000D01*
X143138Y223362D02*
X150000Y216500D01*
X297000Y212000D02*
X308500Y223500D01*
X272000Y212000D02*
X297000D01*
X267000Y207000D02*
X272000Y212000D01*
X446500Y190000D02*
X455500Y199000D01*
X381500Y173500D02*
Y195000D01*
X386374Y199874D01*
X349500Y205000D02*
Y211500D01*
X353500Y215500D01*
X471881Y245107D02*
X472423D01*
X464989Y252000D02*
X471881Y245107D01*
X122500Y250500D02*
X269000D01*
X118500Y246500D02*
X122500Y250500D01*
X140000Y248000D02*
X143138Y244863D01*
X123000Y241500D02*
X129500Y248000D01*
X140000D01*
X455500Y199000D02*
X482678D01*
X519178Y235500D01*
X504036Y234500D02*
X517535Y248000D01*
X503000Y237000D02*
X508000Y242000D01*
X463041Y205000D02*
X464041Y204000D01*
X481642Y201500D02*
X518142Y238000D01*
X570000D01*
X467000Y232000D02*
X505071D01*
X519178Y235500D02*
X603500D01*
X465965Y234500D02*
X504036D01*
X463500Y237000D02*
X503000D01*
X517107Y240500D02*
X554500D01*
X516071Y243000D02*
X539000D01*
X480607Y204000D02*
X517107Y240500D01*
X505071Y232000D02*
X516071Y243000D01*
X508000Y242000D02*
Y248000D01*
X464041Y204000D02*
X480607D01*
X461383Y233883D02*
X461765Y234265D01*
X458500Y242000D02*
X463500Y237000D01*
X465730Y234265D02*
X465965Y234500D01*
X458500Y242000D02*
Y247000D01*
X460000Y225000D02*
X467000Y232000D01*
X461765Y234265D02*
X465730D01*
X517535Y248000D02*
X526000D01*
X603500Y235500D02*
X616000Y248000D01*
X570000Y238000D02*
X580000Y248000D01*
X554500Y240500D02*
X562000Y248000D01*
X539000Y243000D02*
X544000Y248000D01*
X442257Y252000D02*
X464989D01*
X436923Y246666D02*
X442257Y252000D01*
X143138Y223362D02*
Y244863D01*
X118500Y241500D02*
X123000D01*
X128268Y237268D02*
X134500Y243500D01*
D103*
X491925Y193327D02*
D03*
Y224823D02*
D03*
X643500Y182500D02*
D03*
Y224823D02*
D03*
D104*
X291354Y194638D02*
D03*
X296866D02*
D03*
X285842D02*
D03*
X296866Y200150D02*
D03*
X291354D02*
D03*
X285842D02*
D03*
X294110Y191882D02*
D03*
X288598D02*
D03*
X294110Y197394D02*
D03*
X288598D02*
D03*
X294110Y202906D02*
D03*
X288598D02*
D03*
D105*
X134500Y243500D02*
D03*
Y233500D02*
D03*
X492000Y167264D02*
D03*
Y177264D02*
D03*
D106*
X134500Y223500D02*
D03*
X492000Y157264D02*
D03*
D107*
X235205Y211000D02*
D03*
X198000D02*
D03*
D108*
X675500Y174500D02*
D03*
D109*
Y189500D02*
D03*
Y204500D02*
D03*
D110*
X409200Y204300D02*
D03*
X204000Y177818D02*
D03*
X208918D02*
D03*
X136500Y199500D02*
D03*
X353000Y231000D02*
D03*
X261500Y173000D02*
D03*
X181000Y232000D02*
D03*
X149000Y159500D02*
D03*
X176500Y166500D02*
D03*
X440000Y228500D02*
D03*
X372000Y230500D02*
D03*
X371275Y241725D02*
D03*
X425000Y222000D02*
D03*
X409243Y243743D02*
D03*
X461500Y175000D02*
D03*
X439500Y183000D02*
D03*
X417000Y183500D02*
D03*
X404916Y187119D02*
D03*
X421000Y195169D02*
D03*
X311997Y178500D02*
D03*
X357500Y179000D02*
D03*
X199000Y166500D02*
D03*
X405044Y218500D02*
D03*
X271000Y216500D02*
D03*
X441500Y217000D02*
D03*
X420047Y212000D02*
D03*
X306500Y192500D02*
D03*
X336500Y178500D02*
D03*
X263000Y218000D02*
D03*
X267000Y207000D02*
D03*
X275000D02*
D03*
X354500Y205000D02*
D03*
X349500D02*
D03*
X472423Y245107D02*
D03*
X347000Y163000D02*
D03*
X462500Y205000D02*
D03*
X466500Y209000D02*
D03*
X442000Y206000D02*
D03*
X461383Y233883D02*
D03*
X460000Y225000D02*
D03*
X458500Y247000D02*
D03*
X436923Y246666D02*
D03*
X126000Y179500D02*
D03*
X128268Y209693D02*
D03*
X447661Y153054D02*
D03*
X423000Y232000D02*
D03*
X118500Y246500D02*
D03*
X156000Y187000D02*
D03*
X196918Y246318D02*
D03*
X448000Y239500D02*
D03*
X118500Y241500D02*
D03*
D111*
X114811Y228051D02*
D03*
X681740Y149311D02*
D03*
Y228051D02*
D03*
X114811Y149311D02*
D03*
M02*
