G04*
G04 #@! TF.GenerationSoftware,Altium Limited,Altium Designer,22.9.1 (49)*
G04*
G04 Layer_Color=65535*
%FSLAX25Y25*%
%MOIN*%
G70*
G04*
G04 #@! TF.SameCoordinates,3F8A9F32-4B6F-401C-BF37-4CBD66F0855C*
G04*
G04*
G04 #@! TF.FilePolarity,Positive*
G04*
G01*
G75*
%ADD10C,0.00984*%
%ADD11C,0.00787*%
%ADD12C,0.00500*%
%ADD13C,0.01000*%
%ADD14C,0.01575*%
G36*
X402806Y176500D02*
X390500D01*
Y182341D01*
X402806D01*
Y176500D01*
D02*
G37*
G36*
X378492D02*
X366291D01*
Y182474D01*
X378492D01*
Y176500D01*
D02*
G37*
G36*
X612799Y243500D02*
X604500D01*
Y249407D01*
X612799D01*
Y243500D01*
D02*
G37*
G36*
X594293D02*
X585300D01*
Y249424D01*
X594293D01*
Y243500D01*
D02*
G37*
G36*
X576919Y244500D02*
X566500D01*
Y249408D01*
X576919D01*
Y244500D01*
D02*
G37*
G36*
X560235Y243500D02*
X548500D01*
Y249474D01*
X560235D01*
Y243500D01*
D02*
G37*
G36*
X542246D02*
X530500D01*
Y249402D01*
X542246D01*
Y243500D01*
D02*
G37*
G36*
X523053D02*
X513095D01*
Y249341D01*
X523053D01*
Y243500D01*
D02*
G37*
G36*
X506401D02*
X494500D01*
Y249402D01*
X506401D01*
Y243500D01*
D02*
G37*
G36*
X353200Y176513D02*
X340800D01*
Y182487D01*
X353200D01*
Y176513D01*
D02*
G37*
%LPC*%
G36*
X401806Y181341D02*
X401335D01*
Y180802D01*
X401806D01*
Y181341D01*
D02*
G37*
G36*
X397333D02*
X396861D01*
Y180802D01*
X397333D01*
Y181341D01*
D02*
G37*
G36*
X396445D02*
X395929D01*
X395329Y178871D01*
X395285Y178699D01*
X395252Y178543D01*
X395218Y178399D01*
X395191Y178277D01*
X395174Y178221D01*
X395169Y178172D01*
X395158Y178133D01*
X395152Y178099D01*
X395141Y178072D01*
Y178050D01*
X395135Y178038D01*
Y178033D01*
X395096Y178277D01*
X395046Y178516D01*
X394997Y178743D01*
X394974Y178849D01*
X394947Y178954D01*
X394924Y179049D01*
X394902Y179132D01*
X394880Y179204D01*
X394863Y179271D01*
X394852Y179320D01*
X394841Y179359D01*
X394830Y179387D01*
Y179393D01*
X394286Y181341D01*
X393670D01*
X392943Y178743D01*
X392937Y178721D01*
X392926Y178688D01*
X392915Y178643D01*
X392904Y178593D01*
X392887Y178538D01*
X392876Y178477D01*
X392843Y178355D01*
X392815Y178233D01*
X392799Y178177D01*
X392788Y178133D01*
X392782Y178088D01*
X392771Y178060D01*
X392765Y178038D01*
Y178033D01*
X392738Y178177D01*
X392710Y178321D01*
X392682Y178455D01*
X392654Y178571D01*
X392643Y178627D01*
X392632Y178677D01*
X392621Y178716D01*
X392616Y178754D01*
X392610Y178782D01*
X392604Y178804D01*
X392599Y178815D01*
Y178821D01*
X392027Y181341D01*
X391500D01*
X392505Y177500D01*
X393037D01*
X393848Y180425D01*
X393870Y180497D01*
X393886Y180575D01*
X393909Y180652D01*
X393925Y180719D01*
X393942Y180780D01*
X393953Y180830D01*
X393959Y180863D01*
X393964Y180869D01*
Y180874D01*
X393970Y180858D01*
X393975Y180830D01*
X393992Y180769D01*
X394014Y180697D01*
X394036Y180619D01*
X394053Y180547D01*
X394070Y180486D01*
X394075Y180458D01*
X394081Y180441D01*
X394086Y180430D01*
Y180425D01*
X394891Y177500D01*
X395391D01*
X396445Y181341D01*
D02*
G37*
G36*
X401806Y180286D02*
X401335D01*
Y177500D01*
X401806D01*
Y180286D01*
D02*
G37*
G36*
X400735Y181341D02*
X398138D01*
Y177500D01*
X398648D01*
Y179243D01*
X400452D01*
Y179698D01*
X398648D01*
Y180886D01*
X400735D01*
Y181341D01*
D02*
G37*
G36*
X397333Y180286D02*
X396861D01*
Y177500D01*
X397333D01*
Y180286D01*
D02*
G37*
G36*
X372553Y181474D02*
X372481D01*
X372336Y181468D01*
X372209Y181452D01*
X372087Y181429D01*
X371981Y181407D01*
X371898Y181385D01*
X371859Y181374D01*
X371831Y181363D01*
X371809Y181352D01*
X371792Y181346D01*
X371781Y181341D01*
X371776D01*
X371665Y181285D01*
X371565Y181224D01*
X371482Y181157D01*
X371415Y181096D01*
X371365Y181041D01*
X371326Y180997D01*
X371298Y180963D01*
X371293Y180958D01*
Y180952D01*
X371237Y180858D01*
X371199Y180763D01*
X371171Y180669D01*
X371154Y180586D01*
X371143Y180514D01*
X371132Y180458D01*
Y180436D01*
Y180419D01*
Y180414D01*
Y180408D01*
X371137Y180314D01*
X371154Y180225D01*
X371176Y180142D01*
X371199Y180070D01*
X371221Y180014D01*
X371243Y179970D01*
X371260Y179942D01*
X371265Y179931D01*
X371321Y179853D01*
X371387Y179781D01*
X371454Y179720D01*
X371520Y179670D01*
X371576Y179626D01*
X371626Y179598D01*
X371659Y179576D01*
X371665Y179570D01*
X371670D01*
X371715Y179548D01*
X371765Y179526D01*
X371876Y179487D01*
X372003Y179448D01*
X372125Y179409D01*
X372236Y179376D01*
X372286Y179365D01*
X372331Y179354D01*
X372364Y179343D01*
X372392Y179337D01*
X372408Y179332D01*
X372414D01*
X372508Y179309D01*
X372597Y179287D01*
X372675Y179265D01*
X372741Y179248D01*
X372808Y179232D01*
X372864Y179215D01*
X372914Y179204D01*
X372952Y179187D01*
X372991Y179176D01*
X373019Y179171D01*
X373063Y179154D01*
X373091Y179148D01*
X373097Y179143D01*
X373180Y179110D01*
X373252Y179071D01*
X373313Y179032D01*
X373358Y178998D01*
X373396Y178965D01*
X373418Y178943D01*
X373435Y178926D01*
X373441Y178921D01*
X373480Y178871D01*
X373507Y178815D01*
X373524Y178760D01*
X373541Y178716D01*
X373546Y178671D01*
X373552Y178638D01*
Y178610D01*
Y178604D01*
X373546Y178538D01*
X373535Y178477D01*
X373518Y178421D01*
X373496Y178377D01*
X373474Y178332D01*
X373457Y178305D01*
X373446Y178282D01*
X373441Y178277D01*
X373396Y178221D01*
X373341Y178177D01*
X373285Y178138D01*
X373235Y178099D01*
X373185Y178077D01*
X373147Y178055D01*
X373119Y178044D01*
X373108Y178038D01*
X373025Y178011D01*
X372936Y177988D01*
X372847Y177977D01*
X372769Y177966D01*
X372703Y177961D01*
X372647Y177955D01*
X372597D01*
X372475Y177961D01*
X372364Y177972D01*
X372264Y177988D01*
X372175Y178011D01*
X372103Y178033D01*
X372048Y178050D01*
X372031Y178055D01*
X372014Y178060D01*
X372009Y178066D01*
X372003D01*
X371915Y178111D01*
X371831Y178160D01*
X371770Y178210D01*
X371715Y178260D01*
X371670Y178299D01*
X371642Y178338D01*
X371626Y178360D01*
X371620Y178366D01*
X371582Y178438D01*
X371543Y178516D01*
X371520Y178599D01*
X371498Y178671D01*
X371482Y178743D01*
X371470Y178793D01*
Y178815D01*
X371465Y178832D01*
Y178838D01*
Y178843D01*
X370988Y178799D01*
X370999Y178660D01*
X371021Y178527D01*
X371054Y178410D01*
X371093Y178305D01*
X371132Y178221D01*
X371149Y178188D01*
X371160Y178160D01*
X371176Y178138D01*
X371182Y178122D01*
X371193Y178111D01*
Y178105D01*
X371276Y177999D01*
X371365Y177905D01*
X371459Y177827D01*
X371548Y177761D01*
X371626Y177711D01*
X371692Y177678D01*
X371715Y177666D01*
X371731Y177655D01*
X371742Y177650D01*
X371748D01*
X371887Y177600D01*
X372031Y177561D01*
X372175Y177539D01*
X372314Y177517D01*
X372381Y177511D01*
X372436Y177506D01*
X372486D01*
X372531Y177500D01*
X372619D01*
X372769Y177506D01*
X372908Y177522D01*
X373036Y177550D01*
X373141Y177578D01*
X373230Y177600D01*
X373269Y177617D01*
X373302Y177628D01*
X373324Y177639D01*
X373341Y177644D01*
X373352Y177650D01*
X373358D01*
X373474Y177711D01*
X373574Y177778D01*
X373663Y177850D01*
X373735Y177916D01*
X373790Y177972D01*
X373829Y178022D01*
X373857Y178055D01*
X373863Y178060D01*
Y178066D01*
X373924Y178172D01*
X373968Y178271D01*
X373996Y178366D01*
X374018Y178455D01*
X374029Y178532D01*
X374040Y178593D01*
Y178643D01*
X374035Y178754D01*
X374018Y178860D01*
X373990Y178954D01*
X373962Y179032D01*
X373929Y179098D01*
X373907Y179148D01*
X373885Y179176D01*
X373879Y179187D01*
X373813Y179271D01*
X373735Y179348D01*
X373652Y179415D01*
X373568Y179476D01*
X373496Y179520D01*
X373435Y179553D01*
X373413Y179565D01*
X373396Y179576D01*
X373385Y179581D01*
X373380D01*
X373335Y179603D01*
X373280Y179620D01*
X373219Y179642D01*
X373152Y179665D01*
X373013Y179703D01*
X372869Y179742D01*
X372802Y179759D01*
X372741Y179776D01*
X372680Y179792D01*
X372630Y179803D01*
X372592Y179814D01*
X372558Y179820D01*
X372536Y179825D01*
X372531D01*
X372420Y179853D01*
X372320Y179875D01*
X372231Y179903D01*
X372153Y179925D01*
X372081Y179953D01*
X372020Y179975D01*
X371964Y179998D01*
X371915Y180014D01*
X371876Y180036D01*
X371842Y180053D01*
X371820Y180064D01*
X371798Y180081D01*
X371770Y180097D01*
X371765Y180103D01*
X371715Y180158D01*
X371681Y180214D01*
X371654Y180270D01*
X371637Y180325D01*
X371626Y180369D01*
X371620Y180408D01*
Y180430D01*
Y180441D01*
X371631Y180530D01*
X371654Y180608D01*
X371687Y180675D01*
X371726Y180736D01*
X371759Y180780D01*
X371792Y180819D01*
X371815Y180841D01*
X371826Y180847D01*
X371870Y180874D01*
X371915Y180902D01*
X372020Y180947D01*
X372131Y180974D01*
X372242Y180997D01*
X372342Y181008D01*
X372386Y181013D01*
X372420Y181019D01*
X372497D01*
X372653Y181013D01*
X372791Y180991D01*
X372902Y180958D01*
X372997Y180924D01*
X373069Y180891D01*
X373124Y180858D01*
X373152Y180835D01*
X373163Y180830D01*
X373241Y180752D01*
X373302Y180669D01*
X373352Y180580D01*
X373385Y180491D01*
X373407Y180408D01*
X373424Y180347D01*
X373430Y180319D01*
X373435Y180303D01*
Y180292D01*
Y180286D01*
X373924Y180325D01*
X373913Y180447D01*
X373885Y180558D01*
X373857Y180664D01*
X373818Y180752D01*
X373785Y180824D01*
X373757Y180880D01*
X373746Y180897D01*
X373735Y180913D01*
X373729Y180919D01*
Y180924D01*
X373657Y181019D01*
X373580Y181102D01*
X373496Y181174D01*
X373413Y181230D01*
X373341Y181280D01*
X373285Y181307D01*
X373263Y181318D01*
X373247Y181330D01*
X373235Y181335D01*
X373230D01*
X373108Y181379D01*
X372974Y181413D01*
X372852Y181440D01*
X372736Y181457D01*
X372630Y181468D01*
X372592D01*
X372553Y181474D01*
D02*
G37*
G36*
X377492Y181407D02*
X374451D01*
Y180952D01*
X375716D01*
Y177567D01*
X376227D01*
Y180952D01*
X377492D01*
Y181407D01*
D02*
G37*
G36*
X369073D02*
X367291D01*
Y177567D01*
X367802D01*
Y179271D01*
X368457D01*
X368518Y179265D01*
X368562D01*
X368601Y179259D01*
X368629Y179254D01*
X368651D01*
X368662Y179248D01*
X368668D01*
X368757Y179220D01*
X368795Y179204D01*
X368829Y179187D01*
X368862Y179171D01*
X368884Y179159D01*
X368895Y179154D01*
X368901Y179148D01*
X368945Y179115D01*
X368990Y179076D01*
X369073Y178993D01*
X369112Y178954D01*
X369140Y178921D01*
X369156Y178899D01*
X369162Y178893D01*
X369217Y178815D01*
X369278Y178732D01*
X369339Y178643D01*
X369400Y178560D01*
X369450Y178482D01*
X369489Y178421D01*
X369506Y178399D01*
X369517Y178382D01*
X369528Y178371D01*
Y178366D01*
X370033Y177567D01*
X370666D01*
X370005Y178610D01*
X369928Y178721D01*
X369855Y178821D01*
X369783Y178904D01*
X369722Y178982D01*
X369667Y179037D01*
X369622Y179082D01*
X369595Y179110D01*
X369584Y179121D01*
X369539Y179154D01*
X369489Y179193D01*
X369389Y179254D01*
X369345Y179276D01*
X369311Y179298D01*
X369289Y179309D01*
X369278Y179315D01*
X369378Y179332D01*
X369473Y179348D01*
X369556Y179376D01*
X369639Y179398D01*
X369711Y179426D01*
X369778Y179459D01*
X369839Y179487D01*
X369894Y179515D01*
X369939Y179548D01*
X369983Y179576D01*
X370016Y179598D01*
X370044Y179620D01*
X370066Y179637D01*
X370083Y179653D01*
X370089Y179659D01*
X370094Y179665D01*
X370139Y179720D01*
X370183Y179776D01*
X370250Y179892D01*
X370294Y180009D01*
X370327Y180120D01*
X370349Y180214D01*
X370355Y180253D01*
Y180292D01*
X370360Y180319D01*
Y180342D01*
Y180353D01*
Y180358D01*
X370355Y180475D01*
X370338Y180580D01*
X370310Y180680D01*
X370283Y180763D01*
X370250Y180835D01*
X370227Y180891D01*
X370205Y180924D01*
X370199Y180930D01*
Y180935D01*
X370133Y181024D01*
X370066Y181102D01*
X369994Y181169D01*
X369928Y181219D01*
X369866Y181257D01*
X369817Y181280D01*
X369783Y181296D01*
X369778Y181302D01*
X369772D01*
X369722Y181318D01*
X369661Y181335D01*
X369539Y181363D01*
X369406Y181379D01*
X369284Y181396D01*
X369167Y181402D01*
X369117D01*
X369073Y181407D01*
D02*
G37*
%LPD*%
G36*
X369162Y180974D02*
X369289Y180952D01*
X369400Y180924D01*
X369484Y180891D01*
X369556Y180858D01*
X369600Y180830D01*
X369628Y180808D01*
X369639Y180802D01*
X369706Y180730D01*
X369756Y180658D01*
X369789Y180580D01*
X369817Y180514D01*
X369828Y180447D01*
X369833Y180397D01*
X369839Y180364D01*
Y180358D01*
Y180353D01*
X369833Y180286D01*
X369822Y180219D01*
X369806Y180164D01*
X369789Y180114D01*
X369767Y180070D01*
X369750Y180036D01*
X369739Y180014D01*
X369733Y180009D01*
X369694Y179953D01*
X369644Y179903D01*
X369595Y179864D01*
X369545Y179831D01*
X369500Y179809D01*
X369467Y179792D01*
X369445Y179781D01*
X369434Y179776D01*
X369356Y179753D01*
X369267Y179737D01*
X369178Y179726D01*
X369090Y179720D01*
X369012Y179715D01*
X368945Y179709D01*
X367802D01*
Y180980D01*
X369012D01*
X369162Y180974D01*
D02*
G37*
%LPC*%
G36*
X611799Y248407D02*
X611283D01*
X610240Y245616D01*
X610195Y245499D01*
X610156Y245388D01*
X610123Y245283D01*
X610095Y245188D01*
X610068Y245105D01*
X610051Y245044D01*
X610045Y245022D01*
X610040Y245005D01*
X610034Y244994D01*
Y244988D01*
X609968Y245210D01*
X609935Y245316D01*
X609901Y245410D01*
X609873Y245493D01*
X609862Y245527D01*
X609857Y245560D01*
X609846Y245582D01*
X609840Y245599D01*
X609835Y245610D01*
Y245616D01*
X608836Y248407D01*
X608281D01*
X609768Y244567D01*
X610301D01*
X611799Y248407D01*
D02*
G37*
G36*
X607864Y248357D02*
X605955D01*
X605583Y246381D01*
X606027Y246320D01*
X606066Y246381D01*
X606116Y246431D01*
X606160Y246481D01*
X606205Y246520D01*
X606249Y246548D01*
X606283Y246576D01*
X606305Y246587D01*
X606310Y246592D01*
X606382Y246626D01*
X606455Y246653D01*
X606521Y246670D01*
X606588Y246687D01*
X606643Y246692D01*
X606688Y246698D01*
X606793D01*
X606860Y246687D01*
X606976Y246659D01*
X607076Y246620D01*
X607165Y246581D01*
X607232Y246537D01*
X607281Y246498D01*
X607309Y246470D01*
X607320Y246465D01*
Y246459D01*
X607398Y246365D01*
X607454Y246265D01*
X607492Y246160D01*
X607520Y246054D01*
X607537Y245965D01*
X607542Y245926D01*
Y245893D01*
X607548Y245865D01*
Y245843D01*
Y245832D01*
Y245827D01*
Y245749D01*
X607537Y245677D01*
X607509Y245538D01*
X607470Y245421D01*
X607431Y245327D01*
X607387Y245249D01*
X607348Y245188D01*
X607332Y245171D01*
X607320Y245155D01*
X607315Y245149D01*
X607309Y245144D01*
X607265Y245099D01*
X607221Y245061D01*
X607121Y244994D01*
X607026Y244950D01*
X606932Y244922D01*
X606854Y244900D01*
X606788Y244894D01*
X606765Y244888D01*
X606732D01*
X606627Y244894D01*
X606532Y244916D01*
X606449Y244944D01*
X606382Y244977D01*
X606321Y245011D01*
X606277Y245038D01*
X606255Y245061D01*
X606244Y245066D01*
X606177Y245144D01*
X606122Y245227D01*
X606077Y245321D01*
X606044Y245405D01*
X606022Y245488D01*
X606005Y245549D01*
X606000Y245577D01*
X605994Y245593D01*
Y245604D01*
Y245610D01*
X605500Y245571D01*
X605511Y245482D01*
X605528Y245399D01*
X605578Y245244D01*
X605639Y245111D01*
X605672Y245049D01*
X605705Y245000D01*
X605733Y244950D01*
X605766Y244905D01*
X605794Y244872D01*
X605822Y244844D01*
X605844Y244822D01*
X605855Y244800D01*
X605866Y244794D01*
X605872Y244789D01*
X605938Y244739D01*
X606005Y244694D01*
X606077Y244655D01*
X606149Y244622D01*
X606288Y244572D01*
X606427Y244539D01*
X606488Y244522D01*
X606549Y244517D01*
X606599Y244511D01*
X606643Y244506D01*
X606682Y244500D01*
X606732D01*
X606849Y244506D01*
X606960Y244522D01*
X607065Y244544D01*
X607160Y244572D01*
X607248Y244611D01*
X607332Y244650D01*
X607409Y244689D01*
X607476Y244733D01*
X607537Y244777D01*
X607592Y244816D01*
X607637Y244861D01*
X607676Y244894D01*
X607703Y244922D01*
X607726Y244944D01*
X607737Y244961D01*
X607742Y244966D01*
X607798Y245038D01*
X607842Y245116D01*
X607887Y245188D01*
X607920Y245266D01*
X607975Y245416D01*
X608009Y245560D01*
X608020Y245621D01*
X608031Y245682D01*
X608036Y245732D01*
X608042Y245777D01*
X608047Y245815D01*
Y245865D01*
X608042Y245965D01*
X608031Y246059D01*
X608014Y246154D01*
X607992Y246237D01*
X607964Y246315D01*
X607936Y246392D01*
X607903Y246459D01*
X607875Y246520D01*
X607842Y246576D01*
X607809Y246626D01*
X607781Y246665D01*
X607753Y246703D01*
X607731Y246731D01*
X607715Y246748D01*
X607703Y246759D01*
X607698Y246764D01*
X607631Y246826D01*
X607565Y246881D01*
X607492Y246925D01*
X607420Y246964D01*
X607348Y247003D01*
X607276Y247031D01*
X607143Y247070D01*
X607082Y247086D01*
X607026Y247097D01*
X606976Y247103D01*
X606932Y247109D01*
X606899Y247114D01*
X606777D01*
X606710Y247103D01*
X606577Y247075D01*
X606455Y247036D01*
X606344Y246992D01*
X606255Y246948D01*
X606216Y246925D01*
X606183Y246909D01*
X606155Y246892D01*
X606138Y246881D01*
X606127Y246875D01*
X606122Y246870D01*
X606327Y247908D01*
X607864D01*
Y248357D01*
D02*
G37*
G36*
X592033Y248424D02*
X591894D01*
X591817Y248413D01*
X591667Y248385D01*
X591539Y248341D01*
X591428Y248296D01*
X591378Y248268D01*
X591339Y248246D01*
X591301Y248224D01*
X591273Y248202D01*
X591251Y248185D01*
X591234Y248174D01*
X591223Y248169D01*
X591217Y248163D01*
X591112Y248058D01*
X591029Y247941D01*
X590962Y247819D01*
X590906Y247697D01*
X590873Y247591D01*
X590857Y247547D01*
X590845Y247508D01*
X590840Y247475D01*
X590834Y247453D01*
X590829Y247436D01*
Y247430D01*
X591301Y247347D01*
X591323Y247469D01*
X591356Y247575D01*
X591395Y247663D01*
X591434Y247736D01*
X591473Y247791D01*
X591506Y247830D01*
X591528Y247858D01*
X591534Y247863D01*
X591606Y247919D01*
X591683Y247963D01*
X591756Y247991D01*
X591828Y248013D01*
X591894Y248024D01*
X591944Y248035D01*
X591989D01*
X592089Y248030D01*
X592177Y248008D01*
X592255Y247980D01*
X592322Y247952D01*
X592372Y247919D01*
X592411Y247891D01*
X592438Y247869D01*
X592444Y247863D01*
X592505Y247797D01*
X592549Y247725D01*
X592577Y247652D01*
X592599Y247586D01*
X592610Y247525D01*
X592622Y247480D01*
Y247447D01*
Y247442D01*
Y247436D01*
Y247375D01*
X592610Y247319D01*
X592583Y247225D01*
X592544Y247142D01*
X592499Y247070D01*
X592455Y247020D01*
X592416Y246981D01*
X592388Y246959D01*
X592383Y246953D01*
X592377D01*
X592283Y246903D01*
X592194Y246864D01*
X592100Y246836D01*
X592017Y246820D01*
X591944Y246809D01*
X591883Y246798D01*
X591811D01*
X591789Y246803D01*
X591761D01*
X591706Y246387D01*
X591778Y246404D01*
X591844Y246415D01*
X591900Y246426D01*
X591950Y246431D01*
X591989Y246437D01*
X592039D01*
X592155Y246426D01*
X592261Y246404D01*
X592355Y246370D01*
X592433Y246332D01*
X592494Y246293D01*
X592538Y246259D01*
X592566Y246237D01*
X592577Y246226D01*
X592649Y246143D01*
X592705Y246054D01*
X592743Y245965D01*
X592766Y245876D01*
X592782Y245804D01*
X592788Y245743D01*
X592794Y245721D01*
Y245704D01*
Y245693D01*
Y245688D01*
X592782Y245566D01*
X592755Y245455D01*
X592721Y245360D01*
X592677Y245277D01*
X592632Y245210D01*
X592599Y245160D01*
X592571Y245127D01*
X592560Y245116D01*
X592472Y245038D01*
X592377Y244983D01*
X592283Y244944D01*
X592194Y244916D01*
X592116Y244900D01*
X592055Y244894D01*
X592033Y244888D01*
X592000D01*
X591900Y244894D01*
X591806Y244916D01*
X591722Y244944D01*
X591656Y244977D01*
X591600Y245005D01*
X591556Y245033D01*
X591534Y245055D01*
X591523Y245061D01*
X591456Y245138D01*
X591400Y245227D01*
X591351Y245321D01*
X591312Y245421D01*
X591284Y245505D01*
X591273Y245543D01*
X591267Y245577D01*
X591262Y245604D01*
X591256Y245627D01*
X591251Y245638D01*
Y245643D01*
X590779Y245582D01*
X590790Y245493D01*
X590807Y245410D01*
X590857Y245255D01*
X590918Y245122D01*
X590951Y245066D01*
X590984Y245011D01*
X591017Y244961D01*
X591051Y244922D01*
X591079Y244883D01*
X591106Y244855D01*
X591123Y244833D01*
X591140Y244816D01*
X591151Y244805D01*
X591156Y244800D01*
X591223Y244750D01*
X591290Y244700D01*
X591356Y244661D01*
X591428Y244628D01*
X591567Y244572D01*
X591700Y244539D01*
X591761Y244528D01*
X591817Y244517D01*
X591867Y244511D01*
X591911Y244506D01*
X591944Y244500D01*
X591994D01*
X592100Y244506D01*
X592194Y244517D01*
X592288Y244533D01*
X592377Y244555D01*
X592460Y244583D01*
X592533Y244611D01*
X592605Y244644D01*
X592666Y244678D01*
X592727Y244705D01*
X592777Y244739D01*
X592821Y244766D01*
X592855Y244794D01*
X592882Y244816D01*
X592905Y244833D01*
X592916Y244844D01*
X592921Y244850D01*
X592988Y244916D01*
X593043Y244988D01*
X593093Y245061D01*
X593138Y245133D01*
X593171Y245199D01*
X593204Y245271D01*
X593249Y245405D01*
X593260Y245466D01*
X593271Y245521D01*
X593282Y245571D01*
X593287Y245616D01*
X593293Y245649D01*
Y245699D01*
X593287Y245832D01*
X593265Y245954D01*
X593232Y246059D01*
X593199Y246148D01*
X593165Y246220D01*
X593132Y246276D01*
X593110Y246309D01*
X593104Y246320D01*
X593027Y246404D01*
X592943Y246476D01*
X592855Y246531D01*
X592766Y246576D01*
X592688Y246609D01*
X592627Y246631D01*
X592605Y246637D01*
X592588Y246642D01*
X592577Y246648D01*
X592571D01*
X592666Y246698D01*
X592743Y246748D01*
X592810Y246803D01*
X592866Y246853D01*
X592910Y246898D01*
X592943Y246936D01*
X592960Y246959D01*
X592966Y246970D01*
X593010Y247047D01*
X593043Y247125D01*
X593071Y247203D01*
X593088Y247275D01*
X593099Y247336D01*
X593104Y247380D01*
Y247414D01*
Y247425D01*
X593099Y247519D01*
X593082Y247614D01*
X593060Y247697D01*
X593032Y247769D01*
X593004Y247830D01*
X592982Y247880D01*
X592966Y247908D01*
X592960Y247919D01*
X592905Y248002D01*
X592838Y248074D01*
X592771Y248135D01*
X592705Y248191D01*
X592649Y248230D01*
X592599Y248263D01*
X592566Y248280D01*
X592560Y248285D01*
X592555D01*
X592455Y248329D01*
X592355Y248363D01*
X592255Y248391D01*
X592166Y248407D01*
X592094Y248418D01*
X592033Y248424D01*
D02*
G37*
G36*
X587554D02*
X587416D01*
X587338Y248413D01*
X587188Y248385D01*
X587060Y248341D01*
X586949Y248296D01*
X586899Y248268D01*
X586861Y248246D01*
X586822Y248224D01*
X586794Y248202D01*
X586772Y248185D01*
X586755Y248174D01*
X586744Y248169D01*
X586738Y248163D01*
X586633Y248058D01*
X586550Y247941D01*
X586483Y247819D01*
X586428Y247697D01*
X586394Y247591D01*
X586378Y247547D01*
X586367Y247508D01*
X586361Y247475D01*
X586355Y247453D01*
X586350Y247436D01*
Y247430D01*
X586822Y247347D01*
X586844Y247469D01*
X586877Y247575D01*
X586916Y247663D01*
X586955Y247736D01*
X586994Y247791D01*
X587027Y247830D01*
X587049Y247858D01*
X587055Y247863D01*
X587127Y247919D01*
X587205Y247963D01*
X587277Y247991D01*
X587349Y248013D01*
X587416Y248024D01*
X587465Y248035D01*
X587510D01*
X587610Y248030D01*
X587699Y248008D01*
X587776Y247980D01*
X587843Y247952D01*
X587893Y247919D01*
X587932Y247891D01*
X587959Y247869D01*
X587965Y247863D01*
X588026Y247797D01*
X588070Y247725D01*
X588098Y247652D01*
X588120Y247586D01*
X588132Y247525D01*
X588143Y247480D01*
Y247447D01*
Y247442D01*
Y247436D01*
Y247375D01*
X588132Y247319D01*
X588104Y247225D01*
X588065Y247142D01*
X588021Y247070D01*
X587976Y247020D01*
X587937Y246981D01*
X587910Y246959D01*
X587904Y246953D01*
X587898D01*
X587804Y246903D01*
X587715Y246864D01*
X587621Y246836D01*
X587538Y246820D01*
X587465Y246809D01*
X587404Y246798D01*
X587332D01*
X587310Y246803D01*
X587282D01*
X587227Y246387D01*
X587299Y246404D01*
X587366Y246415D01*
X587421Y246426D01*
X587471Y246431D01*
X587510Y246437D01*
X587560D01*
X587676Y246426D01*
X587782Y246404D01*
X587876Y246370D01*
X587954Y246332D01*
X588015Y246293D01*
X588059Y246259D01*
X588087Y246237D01*
X588098Y246226D01*
X588170Y246143D01*
X588226Y246054D01*
X588265Y245965D01*
X588287Y245876D01*
X588304Y245804D01*
X588309Y245743D01*
X588315Y245721D01*
Y245704D01*
Y245693D01*
Y245688D01*
X588304Y245566D01*
X588276Y245455D01*
X588242Y245360D01*
X588198Y245277D01*
X588154Y245210D01*
X588120Y245160D01*
X588093Y245127D01*
X588082Y245116D01*
X587993Y245038D01*
X587898Y244983D01*
X587804Y244944D01*
X587715Y244916D01*
X587638Y244900D01*
X587576Y244894D01*
X587554Y244888D01*
X587521D01*
X587421Y244894D01*
X587327Y244916D01*
X587244Y244944D01*
X587177Y244977D01*
X587121Y245005D01*
X587077Y245033D01*
X587055Y245055D01*
X587044Y245061D01*
X586977Y245138D01*
X586922Y245227D01*
X586872Y245321D01*
X586833Y245421D01*
X586805Y245505D01*
X586794Y245543D01*
X586788Y245577D01*
X586783Y245604D01*
X586777Y245627D01*
X586772Y245638D01*
Y245643D01*
X586300Y245582D01*
X586311Y245493D01*
X586328Y245410D01*
X586378Y245255D01*
X586439Y245122D01*
X586472Y245066D01*
X586505Y245011D01*
X586539Y244961D01*
X586572Y244922D01*
X586600Y244883D01*
X586627Y244855D01*
X586644Y244833D01*
X586661Y244816D01*
X586672Y244805D01*
X586677Y244800D01*
X586744Y244750D01*
X586811Y244700D01*
X586877Y244661D01*
X586949Y244628D01*
X587088Y244572D01*
X587221Y244539D01*
X587282Y244528D01*
X587338Y244517D01*
X587388Y244511D01*
X587432Y244506D01*
X587465Y244500D01*
X587515D01*
X587621Y244506D01*
X587715Y244517D01*
X587810Y244533D01*
X587898Y244555D01*
X587982Y244583D01*
X588054Y244611D01*
X588126Y244644D01*
X588187Y244678D01*
X588248Y244705D01*
X588298Y244739D01*
X588342Y244766D01*
X588376Y244794D01*
X588403Y244816D01*
X588426Y244833D01*
X588437Y244844D01*
X588442Y244850D01*
X588509Y244916D01*
X588564Y244988D01*
X588614Y245061D01*
X588659Y245133D01*
X588692Y245199D01*
X588725Y245271D01*
X588770Y245405D01*
X588781Y245466D01*
X588792Y245521D01*
X588803Y245571D01*
X588809Y245616D01*
X588814Y245649D01*
Y245699D01*
X588809Y245832D01*
X588786Y245954D01*
X588753Y246059D01*
X588720Y246148D01*
X588687Y246220D01*
X588653Y246276D01*
X588631Y246309D01*
X588625Y246320D01*
X588548Y246404D01*
X588464Y246476D01*
X588376Y246531D01*
X588287Y246576D01*
X588209Y246609D01*
X588148Y246631D01*
X588126Y246637D01*
X588109Y246642D01*
X588098Y246648D01*
X588093D01*
X588187Y246698D01*
X588265Y246748D01*
X588331Y246803D01*
X588387Y246853D01*
X588431Y246898D01*
X588464Y246936D01*
X588481Y246959D01*
X588487Y246970D01*
X588531Y247047D01*
X588564Y247125D01*
X588592Y247203D01*
X588609Y247275D01*
X588620Y247336D01*
X588625Y247380D01*
Y247414D01*
Y247425D01*
X588620Y247519D01*
X588603Y247614D01*
X588581Y247697D01*
X588553Y247769D01*
X588526Y247830D01*
X588503Y247880D01*
X588487Y247908D01*
X588481Y247919D01*
X588426Y248002D01*
X588359Y248074D01*
X588293Y248135D01*
X588226Y248191D01*
X588170Y248230D01*
X588120Y248263D01*
X588087Y248280D01*
X588082Y248285D01*
X588076D01*
X587976Y248329D01*
X587876Y248363D01*
X587776Y248391D01*
X587687Y248407D01*
X587615Y248418D01*
X587554Y248424D01*
D02*
G37*
G36*
X590085Y245105D02*
X589547D01*
Y244567D01*
X590085D01*
Y245105D01*
D02*
G37*
G36*
X575853Y248347D02*
X575281D01*
X574809Y247687D01*
X574737Y247581D01*
X574704Y247531D01*
X574671Y247481D01*
X574643Y247443D01*
X574621Y247409D01*
X574604Y247387D01*
X574598Y247381D01*
X574571Y247431D01*
X574537Y247481D01*
X574504Y247531D01*
X574476Y247581D01*
X574449Y247620D01*
X574426Y247659D01*
X574410Y247681D01*
X574404Y247687D01*
X573966Y248347D01*
X573389D01*
X574327Y247004D01*
X573311Y245561D01*
X573882D01*
X574632Y246627D01*
X574765Y246421D01*
X575342Y245561D01*
X575919D01*
X574904Y247004D01*
X575853Y248347D01*
D02*
G37*
G36*
X572895D02*
X572423D01*
Y246854D01*
X572417Y246726D01*
X572412Y246616D01*
X572401Y246521D01*
X572384Y246444D01*
X572367Y246382D01*
X572356Y246338D01*
X572351Y246316D01*
X572345Y246305D01*
X572312Y246238D01*
X572273Y246183D01*
X572229Y246133D01*
X572184Y246088D01*
X572145Y246055D01*
X572112Y246033D01*
X572090Y246016D01*
X572079Y246011D01*
X572007Y245977D01*
X571935Y245950D01*
X571868Y245933D01*
X571807Y245916D01*
X571757Y245911D01*
X571718Y245905D01*
X571679D01*
X571601Y245911D01*
X571535Y245922D01*
X571474Y245938D01*
X571424Y245961D01*
X571379Y245977D01*
X571352Y245994D01*
X571329Y246005D01*
X571324Y246011D01*
X571274Y246055D01*
X571235Y246099D01*
X571202Y246149D01*
X571174Y246194D01*
X571157Y246238D01*
X571146Y246271D01*
X571135Y246294D01*
Y246299D01*
X571124Y246360D01*
X571119Y246432D01*
X571113Y246516D01*
Y246599D01*
X571107Y246677D01*
Y246738D01*
Y246765D01*
Y246782D01*
Y246793D01*
Y246799D01*
Y248347D01*
X570636D01*
Y246516D01*
X570641Y246421D01*
X570647Y246349D01*
X570652Y246283D01*
Y246238D01*
X570658Y246205D01*
X570663Y246183D01*
Y246177D01*
X570680Y246105D01*
X570702Y246038D01*
X570724Y245977D01*
X570752Y245927D01*
X570775Y245883D01*
X570791Y245855D01*
X570802Y245833D01*
X570808Y245827D01*
X570852Y245778D01*
X570902Y245733D01*
X570952Y245694D01*
X571008Y245661D01*
X571052Y245633D01*
X571091Y245611D01*
X571113Y245600D01*
X571124Y245594D01*
X571207Y245561D01*
X571285Y245539D01*
X571363Y245522D01*
X571435Y245511D01*
X571496Y245505D01*
X571546Y245500D01*
X571585D01*
X571685Y245505D01*
X571785Y245522D01*
X571873Y245544D01*
X571962Y245572D01*
X572040Y245611D01*
X572112Y245650D01*
X572179Y245689D01*
X572240Y245733D01*
X572295Y245778D01*
X572340Y245816D01*
X572378Y245861D01*
X572412Y245894D01*
X572439Y245922D01*
X572456Y245944D01*
X572467Y245961D01*
X572473Y245966D01*
Y245561D01*
X572895D01*
Y248347D01*
D02*
G37*
G36*
X568899Y248408D02*
X568838D01*
X568704Y248403D01*
X568588Y248392D01*
X568477Y248375D01*
X568388Y248358D01*
X568310Y248342D01*
X568255Y248325D01*
X568233Y248319D01*
X568216Y248314D01*
X568210Y248308D01*
X568205D01*
X568111Y248270D01*
X568027Y248219D01*
X567955Y248175D01*
X567894Y248131D01*
X567850Y248086D01*
X567816Y248053D01*
X567794Y248031D01*
X567789Y248025D01*
X567739Y247953D01*
X567694Y247875D01*
X567661Y247798D01*
X567633Y247726D01*
X567611Y247653D01*
X567594Y247604D01*
X567589Y247581D01*
Y247565D01*
X567583Y247559D01*
Y247553D01*
X568044Y247493D01*
X568077Y247592D01*
X568111Y247681D01*
X568149Y247753D01*
X568183Y247809D01*
X568216Y247853D01*
X568244Y247881D01*
X568266Y247898D01*
X568271Y247903D01*
X568338Y247942D01*
X568416Y247970D01*
X568499Y247992D01*
X568577Y248003D01*
X568654Y248014D01*
X568710Y248020D01*
X568765D01*
X568893Y248014D01*
X569004Y247997D01*
X569093Y247970D01*
X569171Y247942D01*
X569226Y247909D01*
X569270Y247886D01*
X569298Y247864D01*
X569304Y247859D01*
X569348Y247809D01*
X569382Y247748D01*
X569409Y247681D01*
X569426Y247615D01*
X569437Y247553D01*
X569443Y247498D01*
Y247465D01*
Y247459D01*
Y247454D01*
Y247443D01*
Y247420D01*
Y247381D01*
X569437Y247348D01*
Y247337D01*
Y247332D01*
X569382Y247315D01*
X569320Y247298D01*
X569193Y247265D01*
X569048Y247237D01*
X568915Y247209D01*
X568849Y247198D01*
X568788Y247193D01*
X568732Y247182D01*
X568688Y247176D01*
X568649Y247171D01*
X568621D01*
X568599Y247165D01*
X568593D01*
X568494Y247154D01*
X568410Y247137D01*
X568338Y247126D01*
X568283Y247115D01*
X568238Y247110D01*
X568205Y247098D01*
X568183Y247093D01*
X568177D01*
X568105Y247071D01*
X568044Y247048D01*
X567983Y247021D01*
X567933Y246999D01*
X567888Y246976D01*
X567861Y246954D01*
X567839Y246943D01*
X567833Y246937D01*
X567777Y246899D01*
X567733Y246854D01*
X567689Y246810D01*
X567655Y246765D01*
X567628Y246726D01*
X567605Y246693D01*
X567594Y246671D01*
X567589Y246666D01*
X567561Y246604D01*
X567539Y246538D01*
X567522Y246477D01*
X567511Y246416D01*
X567506Y246366D01*
X567500Y246327D01*
Y246294D01*
X567506Y246227D01*
X567511Y246171D01*
X567539Y246055D01*
X567578Y245961D01*
X567622Y245877D01*
X567666Y245811D01*
X567705Y245761D01*
X567733Y245733D01*
X567744Y245722D01*
X567844Y245650D01*
X567955Y245594D01*
X568077Y245555D01*
X568188Y245528D01*
X568288Y245511D01*
X568332Y245505D01*
X568371D01*
X568405Y245500D01*
X568449D01*
X568549Y245505D01*
X568649Y245517D01*
X568738Y245528D01*
X568815Y245544D01*
X568876Y245561D01*
X568926Y245578D01*
X568960Y245583D01*
X568971Y245589D01*
X569065Y245628D01*
X569154Y245678D01*
X569237Y245733D01*
X569320Y245783D01*
X569387Y245833D01*
X569437Y245872D01*
X569470Y245900D01*
X569476Y245911D01*
X569481D01*
X569492Y245838D01*
X569503Y245772D01*
X569515Y245711D01*
X569531Y245661D01*
X569548Y245617D01*
X569559Y245589D01*
X569565Y245567D01*
X569570Y245561D01*
X570064D01*
X570036Y245622D01*
X570009Y245683D01*
X569986Y245739D01*
X569975Y245789D01*
X569959Y245833D01*
X569953Y245866D01*
X569947Y245888D01*
Y245894D01*
X569942Y245933D01*
X569936Y245983D01*
Y246038D01*
X569931Y246099D01*
X569925Y246238D01*
Y246377D01*
X569920Y246510D01*
Y246571D01*
Y246621D01*
Y246666D01*
Y246699D01*
Y246721D01*
Y246726D01*
Y247359D01*
Y247465D01*
X569914Y247559D01*
X569909Y247631D01*
Y247692D01*
X569903Y247737D01*
X569898Y247770D01*
X569892Y247787D01*
Y247792D01*
X569875Y247864D01*
X569853Y247925D01*
X569831Y247975D01*
X569803Y248025D01*
X569781Y248059D01*
X569764Y248086D01*
X569753Y248103D01*
X569748Y248109D01*
X569703Y248153D01*
X569653Y248197D01*
X569598Y248231D01*
X569542Y248264D01*
X569492Y248286D01*
X569454Y248303D01*
X569426Y248314D01*
X569415Y248319D01*
X569326Y248347D01*
X569232Y248369D01*
X569137Y248386D01*
X569043Y248397D01*
X568960Y248403D01*
X568899Y248408D01*
D02*
G37*
%LPD*%
G36*
X569437Y246782D02*
X569431Y246671D01*
X569426Y246577D01*
X569415Y246499D01*
X569398Y246432D01*
X569382Y246382D01*
X569370Y246344D01*
X569365Y246321D01*
X569359Y246316D01*
X569315Y246244D01*
X569270Y246177D01*
X569215Y246122D01*
X569165Y246077D01*
X569121Y246038D01*
X569082Y246011D01*
X569060Y245994D01*
X569048Y245988D01*
X568965Y245950D01*
X568882Y245922D01*
X568804Y245900D01*
X568727Y245888D01*
X568666Y245877D01*
X568610Y245872D01*
X568566D01*
X568466Y245877D01*
X568382Y245888D01*
X568310Y245911D01*
X568249Y245933D01*
X568205Y245955D01*
X568172Y245977D01*
X568149Y245988D01*
X568144Y245994D01*
X568099Y246044D01*
X568066Y246099D01*
X568038Y246149D01*
X568022Y246199D01*
X568011Y246244D01*
X568005Y246277D01*
Y246305D01*
Y246310D01*
X568011Y246355D01*
X568016Y246399D01*
X568027Y246432D01*
X568038Y246466D01*
X568049Y246493D01*
X568055Y246516D01*
X568066Y246527D01*
Y246532D01*
X568122Y246599D01*
X568188Y246643D01*
X568210Y246660D01*
X568233Y246671D01*
X568249Y246682D01*
X568255D01*
X568310Y246704D01*
X568371Y246721D01*
X568438Y246738D01*
X568505Y246749D01*
X568566Y246760D01*
X568621Y246771D01*
X568654Y246777D01*
X568666D01*
X568760Y246793D01*
X568849Y246804D01*
X568926Y246821D01*
X569004Y246838D01*
X569076Y246854D01*
X569137Y246871D01*
X569198Y246882D01*
X569248Y246899D01*
X569293Y246910D01*
X569332Y246921D01*
X569365Y246932D01*
X569393Y246943D01*
X569415Y246949D01*
X569431Y246954D01*
X569437Y246960D01*
X569443D01*
X569437Y246782D01*
D02*
G37*
%LPC*%
G36*
X554872Y248474D02*
X554800D01*
X554656Y248468D01*
X554528Y248452D01*
X554406Y248429D01*
X554301Y248407D01*
X554217Y248385D01*
X554179Y248374D01*
X554151Y248363D01*
X554129Y248352D01*
X554112Y248346D01*
X554101Y248341D01*
X554095D01*
X553984Y248285D01*
X553885Y248224D01*
X553801Y248158D01*
X553735Y248096D01*
X553685Y248041D01*
X553646Y247996D01*
X553618Y247963D01*
X553613Y247958D01*
Y247952D01*
X553557Y247858D01*
X553518Y247763D01*
X553490Y247669D01*
X553474Y247586D01*
X553463Y247514D01*
X553452Y247458D01*
Y247436D01*
Y247419D01*
Y247414D01*
Y247408D01*
X553457Y247314D01*
X553474Y247225D01*
X553496Y247142D01*
X553518Y247070D01*
X553540Y247014D01*
X553563Y246970D01*
X553579Y246942D01*
X553585Y246931D01*
X553640Y246853D01*
X553707Y246781D01*
X553773Y246720D01*
X553840Y246670D01*
X553896Y246626D01*
X553946Y246598D01*
X553979Y246576D01*
X553984Y246570D01*
X553990D01*
X554034Y246548D01*
X554084Y246526D01*
X554195Y246487D01*
X554323Y246448D01*
X554445Y246409D01*
X554556Y246376D01*
X554606Y246365D01*
X554650Y246354D01*
X554684Y246343D01*
X554711Y246337D01*
X554728Y246332D01*
X554734D01*
X554828Y246309D01*
X554917Y246287D01*
X554994Y246265D01*
X555061Y246248D01*
X555128Y246232D01*
X555183Y246215D01*
X555233Y246204D01*
X555272Y246187D01*
X555311Y246176D01*
X555339Y246171D01*
X555383Y246154D01*
X555411Y246148D01*
X555416Y246143D01*
X555500Y246110D01*
X555572Y246071D01*
X555633Y246032D01*
X555677Y245999D01*
X555716Y245965D01*
X555738Y245943D01*
X555755Y245926D01*
X555760Y245921D01*
X555799Y245871D01*
X555827Y245815D01*
X555844Y245760D01*
X555860Y245715D01*
X555866Y245671D01*
X555871Y245638D01*
Y245610D01*
Y245604D01*
X555866Y245538D01*
X555855Y245477D01*
X555838Y245421D01*
X555816Y245377D01*
X555794Y245333D01*
X555777Y245305D01*
X555766Y245283D01*
X555760Y245277D01*
X555716Y245221D01*
X555660Y245177D01*
X555605Y245138D01*
X555555Y245099D01*
X555505Y245077D01*
X555466Y245055D01*
X555439Y245044D01*
X555427Y245038D01*
X555344Y245011D01*
X555255Y244988D01*
X555167Y244977D01*
X555089Y244966D01*
X555022Y244961D01*
X554967Y244955D01*
X554917D01*
X554795Y244961D01*
X554684Y244972D01*
X554584Y244988D01*
X554495Y245011D01*
X554423Y245033D01*
X554367Y245049D01*
X554351Y245055D01*
X554334Y245061D01*
X554328Y245066D01*
X554323D01*
X554234Y245111D01*
X554151Y245160D01*
X554090Y245210D01*
X554034Y245260D01*
X553990Y245299D01*
X553962Y245338D01*
X553946Y245360D01*
X553940Y245366D01*
X553901Y245438D01*
X553862Y245516D01*
X553840Y245599D01*
X553818Y245671D01*
X553801Y245743D01*
X553790Y245793D01*
Y245815D01*
X553785Y245832D01*
Y245838D01*
Y245843D01*
X553307Y245799D01*
X553318Y245660D01*
X553341Y245527D01*
X553374Y245410D01*
X553413Y245305D01*
X553452Y245221D01*
X553468Y245188D01*
X553479Y245160D01*
X553496Y245138D01*
X553502Y245122D01*
X553513Y245111D01*
Y245105D01*
X553596Y245000D01*
X553685Y244905D01*
X553779Y244827D01*
X553868Y244761D01*
X553946Y244711D01*
X554012Y244678D01*
X554034Y244667D01*
X554051Y244655D01*
X554062Y244650D01*
X554068D01*
X554206Y244600D01*
X554351Y244561D01*
X554495Y244539D01*
X554634Y244517D01*
X554700Y244511D01*
X554756Y244506D01*
X554806D01*
X554850Y244500D01*
X554939D01*
X555089Y244506D01*
X555228Y244522D01*
X555355Y244550D01*
X555461Y244578D01*
X555549Y244600D01*
X555588Y244617D01*
X555622Y244628D01*
X555644Y244639D01*
X555660Y244644D01*
X555672Y244650D01*
X555677D01*
X555794Y244711D01*
X555894Y244777D01*
X555982Y244850D01*
X556055Y244916D01*
X556110Y244972D01*
X556149Y245022D01*
X556177Y245055D01*
X556182Y245061D01*
Y245066D01*
X556243Y245171D01*
X556288Y245271D01*
X556315Y245366D01*
X556338Y245455D01*
X556349Y245532D01*
X556360Y245593D01*
Y245643D01*
X556354Y245754D01*
X556338Y245860D01*
X556310Y245954D01*
X556282Y246032D01*
X556249Y246098D01*
X556227Y246148D01*
X556204Y246176D01*
X556199Y246187D01*
X556132Y246270D01*
X556055Y246348D01*
X555971Y246415D01*
X555888Y246476D01*
X555816Y246520D01*
X555755Y246553D01*
X555733Y246565D01*
X555716Y246576D01*
X555705Y246581D01*
X555699D01*
X555655Y246603D01*
X555599Y246620D01*
X555538Y246642D01*
X555472Y246665D01*
X555333Y246703D01*
X555189Y246742D01*
X555122Y246759D01*
X555061Y246776D01*
X555000Y246792D01*
X554950Y246803D01*
X554911Y246814D01*
X554878Y246820D01*
X554856Y246826D01*
X554850D01*
X554739Y246853D01*
X554639Y246875D01*
X554551Y246903D01*
X554473Y246925D01*
X554401Y246953D01*
X554340Y246975D01*
X554284Y246997D01*
X554234Y247014D01*
X554195Y247036D01*
X554162Y247053D01*
X554140Y247064D01*
X554118Y247081D01*
X554090Y247097D01*
X554084Y247103D01*
X554034Y247158D01*
X554001Y247214D01*
X553973Y247270D01*
X553957Y247325D01*
X553946Y247369D01*
X553940Y247408D01*
Y247430D01*
Y247442D01*
X553951Y247530D01*
X553973Y247608D01*
X554007Y247675D01*
X554045Y247736D01*
X554079Y247780D01*
X554112Y247819D01*
X554134Y247841D01*
X554145Y247847D01*
X554190Y247874D01*
X554234Y247902D01*
X554340Y247947D01*
X554451Y247974D01*
X554562Y247996D01*
X554662Y248008D01*
X554706Y248013D01*
X554739Y248019D01*
X554817D01*
X554972Y248013D01*
X555111Y247991D01*
X555222Y247958D01*
X555316Y247924D01*
X555389Y247891D01*
X555444Y247858D01*
X555472Y247836D01*
X555483Y247830D01*
X555561Y247752D01*
X555622Y247669D01*
X555672Y247580D01*
X555705Y247491D01*
X555727Y247408D01*
X555744Y247347D01*
X555749Y247319D01*
X555755Y247303D01*
Y247292D01*
Y247286D01*
X556243Y247325D01*
X556232Y247447D01*
X556204Y247558D01*
X556177Y247663D01*
X556138Y247752D01*
X556105Y247824D01*
X556077Y247880D01*
X556066Y247897D01*
X556055Y247913D01*
X556049Y247919D01*
Y247924D01*
X555977Y248019D01*
X555899Y248102D01*
X555816Y248174D01*
X555733Y248230D01*
X555660Y248280D01*
X555605Y248307D01*
X555583Y248318D01*
X555566Y248329D01*
X555555Y248335D01*
X555549D01*
X555427Y248379D01*
X555294Y248413D01*
X555172Y248441D01*
X555056Y248457D01*
X554950Y248468D01*
X554911D01*
X554872Y248474D01*
D02*
G37*
G36*
X559235Y248407D02*
X558763D01*
Y247031D01*
X558713Y247092D01*
X558658Y247142D01*
X558607Y247192D01*
X558552Y247231D01*
X558508Y247258D01*
X558474Y247286D01*
X558452Y247297D01*
X558441Y247303D01*
X558369Y247342D01*
X558291Y247369D01*
X558214Y247386D01*
X558141Y247403D01*
X558080Y247408D01*
X558036Y247414D01*
X557992D01*
X557869Y247408D01*
X557753Y247386D01*
X557647Y247358D01*
X557559Y247325D01*
X557481Y247286D01*
X557425Y247258D01*
X557403Y247247D01*
X557386Y247236D01*
X557381Y247231D01*
X557375D01*
X557276Y247158D01*
X557192Y247070D01*
X557120Y246986D01*
X557065Y246903D01*
X557020Y246826D01*
X556987Y246764D01*
X556976Y246742D01*
X556965Y246726D01*
X556959Y246714D01*
Y246709D01*
X556915Y246581D01*
X556882Y246448D01*
X556854Y246320D01*
X556837Y246204D01*
X556826Y246104D01*
Y246059D01*
X556820Y246026D01*
Y245954D01*
X556826Y245799D01*
X556843Y245654D01*
X556870Y245527D01*
X556898Y245416D01*
X556909Y245366D01*
X556920Y245327D01*
X556937Y245288D01*
X556948Y245255D01*
X556959Y245233D01*
X556965Y245216D01*
X556970Y245205D01*
Y245199D01*
X557031Y245083D01*
X557103Y244983D01*
X557176Y244894D01*
X557248Y244822D01*
X557309Y244766D01*
X557359Y244722D01*
X557392Y244700D01*
X557398Y244689D01*
X557403D01*
X557509Y244628D01*
X557614Y244583D01*
X557720Y244550D01*
X557814Y244528D01*
X557892Y244517D01*
X557958Y244511D01*
X557980Y244506D01*
X558014D01*
X558108Y244511D01*
X558197Y244522D01*
X558280Y244544D01*
X558352Y244572D01*
X558424Y244600D01*
X558491Y244633D01*
X558546Y244672D01*
X558597Y244711D01*
X558646Y244750D01*
X558685Y244789D01*
X558718Y244822D01*
X558746Y244850D01*
X558769Y244877D01*
X558785Y244900D01*
X558791Y244911D01*
X558796Y244916D01*
Y244567D01*
X559235D01*
Y248407D01*
D02*
G37*
G36*
X553019D02*
X552502D01*
X551459Y245616D01*
X551415Y245499D01*
X551376Y245388D01*
X551343Y245283D01*
X551315Y245188D01*
X551287Y245105D01*
X551270Y245044D01*
X551265Y245022D01*
X551259Y245005D01*
X551254Y244994D01*
Y244988D01*
X551187Y245210D01*
X551154Y245316D01*
X551121Y245410D01*
X551093Y245493D01*
X551082Y245527D01*
X551076Y245560D01*
X551065Y245582D01*
X551060Y245599D01*
X551054Y245610D01*
Y245616D01*
X550055Y248407D01*
X549500D01*
X550987Y244567D01*
X551520D01*
X553019Y248407D01*
D02*
G37*
%LPD*%
G36*
X558103Y247020D02*
X558158Y247014D01*
X558263Y246981D01*
X558358Y246942D01*
X558435Y246892D01*
X558497Y246842D01*
X558546Y246798D01*
X558574Y246764D01*
X558585Y246759D01*
Y246753D01*
X558624Y246698D01*
X558658Y246642D01*
X558713Y246509D01*
X558752Y246370D01*
X558780Y246237D01*
X558791Y246171D01*
X558796Y246110D01*
X558802Y246054D01*
Y246010D01*
X558807Y245971D01*
Y245943D01*
Y245921D01*
Y245915D01*
Y245821D01*
X558796Y245732D01*
X558785Y245654D01*
X558774Y245577D01*
X558757Y245510D01*
X558735Y245444D01*
X558718Y245388D01*
X558696Y245338D01*
X558674Y245294D01*
X558658Y245249D01*
X558635Y245221D01*
X558619Y245194D01*
X558607Y245171D01*
X558597Y245155D01*
X558585Y245149D01*
Y245144D01*
X558546Y245099D01*
X558502Y245061D01*
X558413Y245000D01*
X558324Y244955D01*
X558241Y244927D01*
X558169Y244905D01*
X558108Y244900D01*
X558086Y244894D01*
X558058D01*
X558003Y244900D01*
X557947Y244905D01*
X557847Y244933D01*
X557753Y244977D01*
X557675Y245027D01*
X557614Y245072D01*
X557564Y245116D01*
X557536Y245144D01*
X557531Y245155D01*
X557525D01*
X557486Y245210D01*
X557453Y245266D01*
X557398Y245394D01*
X557359Y245527D01*
X557331Y245654D01*
X557314Y245771D01*
X557309Y245821D01*
Y245865D01*
X557303Y245904D01*
Y245932D01*
Y245949D01*
Y245954D01*
Y246054D01*
X557314Y246148D01*
X557326Y246237D01*
X557337Y246315D01*
X557353Y246387D01*
X557370Y246454D01*
X557386Y246515D01*
X557409Y246570D01*
X557431Y246615D01*
X557448Y246653D01*
X557464Y246687D01*
X557481Y246714D01*
X557498Y246737D01*
X557503Y246753D01*
X557514Y246759D01*
Y246764D01*
X557553Y246809D01*
X557597Y246853D01*
X557686Y246914D01*
X557775Y246964D01*
X557858Y246992D01*
X557931Y247014D01*
X557992Y247020D01*
X558014Y247025D01*
X558041D01*
X558103Y247020D01*
D02*
G37*
%LPC*%
G36*
X535019Y248402D02*
X534503D01*
X533459Y245610D01*
X533415Y245493D01*
X533376Y245382D01*
X533343Y245277D01*
X533315Y245183D01*
X533287Y245099D01*
X533270Y245038D01*
X533265Y245016D01*
X533259Y245000D01*
X533254Y244988D01*
Y244983D01*
X533187Y245205D01*
X533154Y245310D01*
X533121Y245405D01*
X533093Y245488D01*
X533082Y245521D01*
X533076Y245554D01*
X533065Y245577D01*
X533060Y245593D01*
X533054Y245604D01*
Y245610D01*
X532055Y248402D01*
X531500D01*
X532987Y244561D01*
X533520D01*
X535019Y248402D01*
D02*
G37*
G36*
X541246Y247347D02*
X540774D01*
Y245854D01*
X540768Y245726D01*
X540763Y245616D01*
X540752Y245521D01*
X540735Y245444D01*
X540719Y245382D01*
X540707Y245338D01*
X540702Y245316D01*
X540696Y245305D01*
X540663Y245238D01*
X540624Y245183D01*
X540580Y245133D01*
X540535Y245088D01*
X540497Y245055D01*
X540463Y245033D01*
X540441Y245016D01*
X540430Y245011D01*
X540358Y244977D01*
X540286Y244950D01*
X540219Y244933D01*
X540158Y244916D01*
X540108Y244911D01*
X540069Y244905D01*
X540030D01*
X539953Y244911D01*
X539886Y244922D01*
X539825Y244938D01*
X539775Y244961D01*
X539731Y244977D01*
X539703Y244994D01*
X539681Y245005D01*
X539675Y245011D01*
X539625Y245055D01*
X539586Y245099D01*
X539553Y245149D01*
X539525Y245194D01*
X539509Y245238D01*
X539498Y245271D01*
X539486Y245294D01*
Y245299D01*
X539475Y245360D01*
X539470Y245432D01*
X539464Y245516D01*
Y245599D01*
X539459Y245677D01*
Y245738D01*
Y245765D01*
Y245782D01*
Y245793D01*
Y245799D01*
Y247347D01*
X538987D01*
Y245516D01*
X538993Y245421D01*
X538998Y245349D01*
X539004Y245283D01*
Y245238D01*
X539009Y245205D01*
X539015Y245183D01*
Y245177D01*
X539031Y245105D01*
X539053Y245038D01*
X539076Y244977D01*
X539104Y244927D01*
X539126Y244883D01*
X539142Y244855D01*
X539153Y244833D01*
X539159Y244827D01*
X539203Y244777D01*
X539253Y244733D01*
X539303Y244694D01*
X539359Y244661D01*
X539403Y244633D01*
X539442Y244611D01*
X539464Y244600D01*
X539475Y244594D01*
X539559Y244561D01*
X539636Y244539D01*
X539714Y244522D01*
X539786Y244511D01*
X539847Y244506D01*
X539897Y244500D01*
X539936D01*
X540036Y244506D01*
X540136Y244522D01*
X540225Y244544D01*
X540313Y244572D01*
X540391Y244611D01*
X540463Y244650D01*
X540530Y244689D01*
X540591Y244733D01*
X540646Y244777D01*
X540691Y244816D01*
X540730Y244861D01*
X540763Y244894D01*
X540791Y244922D01*
X540807Y244944D01*
X540819Y244961D01*
X540824Y244966D01*
Y244561D01*
X541246D01*
Y247347D01*
D02*
G37*
G36*
X536967Y248402D02*
X535457D01*
Y244561D01*
X536922D01*
X537056Y244567D01*
X537172Y244572D01*
X537278Y244583D01*
X537366Y244594D01*
X537438Y244605D01*
X537494Y244611D01*
X537527Y244622D01*
X537538D01*
X537633Y244650D01*
X537711Y244678D01*
X537783Y244711D01*
X537844Y244744D01*
X537894Y244766D01*
X537932Y244789D01*
X537955Y244805D01*
X537960Y244811D01*
X538021Y244861D01*
X538077Y244922D01*
X538121Y244983D01*
X538166Y245038D01*
X538199Y245094D01*
X538221Y245133D01*
X538238Y245160D01*
X538243Y245171D01*
X538282Y245260D01*
X538310Y245349D01*
X538332Y245432D01*
X538343Y245510D01*
X538354Y245577D01*
X538360Y245632D01*
Y245677D01*
X538354Y245799D01*
X538332Y245910D01*
X538299Y246004D01*
X538265Y246093D01*
X538232Y246160D01*
X538199Y246209D01*
X538177Y246243D01*
X538171Y246254D01*
X538093Y246343D01*
X538010Y246415D01*
X537916Y246476D01*
X537832Y246526D01*
X537755Y246565D01*
X537688Y246587D01*
X537666Y246598D01*
X537649Y246603D01*
X537638Y246609D01*
X537633D01*
X537727Y246665D01*
X537810Y246720D01*
X537877Y246781D01*
X537932Y246836D01*
X537977Y246881D01*
X538010Y246925D01*
X538027Y246948D01*
X538032Y246959D01*
X538077Y247042D01*
X538110Y247120D01*
X538138Y247197D01*
X538154Y247270D01*
X538166Y247330D01*
X538171Y247380D01*
Y247408D01*
Y247419D01*
X538166Y247514D01*
X538149Y247608D01*
X538121Y247691D01*
X538093Y247769D01*
X538066Y247836D01*
X538038Y247880D01*
X538021Y247913D01*
X538016Y247924D01*
X537955Y248008D01*
X537888Y248085D01*
X537816Y248146D01*
X537749Y248196D01*
X537694Y248235D01*
X537644Y248263D01*
X537610Y248280D01*
X537605Y248285D01*
X537599D01*
X537494Y248324D01*
X537378Y248352D01*
X537261Y248374D01*
X537150Y248385D01*
X537050Y248396D01*
X537006D01*
X536967Y248402D01*
D02*
G37*
%LPD*%
G36*
X537000Y247935D02*
X537094Y247930D01*
X537178Y247919D01*
X537239Y247908D01*
X537278Y247902D01*
X537305Y247891D01*
X537311D01*
X537372Y247869D01*
X537427Y247836D01*
X537472Y247802D01*
X537511Y247769D01*
X537538Y247741D01*
X537561Y247713D01*
X537572Y247697D01*
X537577Y247691D01*
X537610Y247636D01*
X537633Y247580D01*
X537649Y247525D01*
X537661Y247469D01*
X537666Y247425D01*
X537672Y247392D01*
Y247369D01*
Y247358D01*
X537666Y247286D01*
X537655Y247219D01*
X537638Y247164D01*
X537622Y247120D01*
X537605Y247081D01*
X537588Y247047D01*
X537577Y247031D01*
X537572Y247025D01*
X537533Y246981D01*
X537483Y246936D01*
X537433Y246903D01*
X537389Y246881D01*
X537344Y246859D01*
X537311Y246842D01*
X537289Y246836D01*
X537278Y246831D01*
X537217Y246820D01*
X537139Y246809D01*
X537061Y246803D01*
X536983Y246798D01*
X536911Y246792D01*
X535968D01*
Y247947D01*
X536878D01*
X537000Y247935D01*
D02*
G37*
G36*
X537094Y246326D02*
X537189Y246315D01*
X537266Y246304D01*
X537327Y246293D01*
X537378Y246282D01*
X537400Y246276D01*
X537411Y246270D01*
X537483Y246243D01*
X537544Y246209D01*
X537599Y246171D01*
X537644Y246132D01*
X537677Y246098D01*
X537699Y246071D01*
X537716Y246048D01*
X537722Y246043D01*
X537760Y245982D01*
X537788Y245921D01*
X537810Y245860D01*
X537821Y245804D01*
X537832Y245754D01*
X537838Y245710D01*
Y245688D01*
Y245677D01*
X537832Y245610D01*
X537827Y245543D01*
X537816Y245488D01*
X537799Y245444D01*
X537783Y245405D01*
X537772Y245371D01*
X537766Y245355D01*
X537760Y245349D01*
X537727Y245299D01*
X537699Y245255D01*
X537661Y245221D01*
X537633Y245188D01*
X537605Y245166D01*
X537583Y245149D01*
X537566Y245138D01*
X537561Y245133D01*
X537466Y245088D01*
X537372Y245055D01*
X537333Y245044D01*
X537300Y245038D01*
X537278Y245033D01*
X537272D01*
X537228Y245027D01*
X537178Y245022D01*
X537061Y245016D01*
X535968D01*
Y246337D01*
X536978D01*
X537094Y246326D01*
D02*
G37*
%LPC*%
G36*
X517613Y248341D02*
X517097D01*
X516054Y245549D01*
X516009Y245432D01*
X515970Y245321D01*
X515937Y245216D01*
X515909Y245122D01*
X515882Y245038D01*
X515865Y244977D01*
X515859Y244955D01*
X515854Y244938D01*
X515848Y244927D01*
Y244922D01*
X515782Y245144D01*
X515748Y245249D01*
X515715Y245344D01*
X515687Y245427D01*
X515676Y245460D01*
X515671Y245493D01*
X515660Y245516D01*
X515654Y245532D01*
X515649Y245543D01*
Y245549D01*
X514649Y248341D01*
X514094D01*
X515582Y244500D01*
X516115D01*
X517613Y248341D01*
D02*
G37*
G36*
X522053D02*
X521581D01*
Y244500D01*
X522053D01*
Y248341D01*
D02*
G37*
G36*
X519672D02*
X519117D01*
X517652Y244500D01*
X518190D01*
X518607Y245666D01*
X520216D01*
X520666Y244500D01*
X521243D01*
X519672Y248341D01*
D02*
G37*
%LPD*%
G36*
X519422Y247813D02*
X519467Y247680D01*
X519511Y247547D01*
X519556Y247419D01*
X519578Y247364D01*
X519594Y247308D01*
X519611Y247258D01*
X519628Y247219D01*
X519639Y247186D01*
X519650Y247158D01*
X519656Y247142D01*
Y247136D01*
X520055Y246082D01*
X518756D01*
X519173Y247203D01*
X519223Y247342D01*
X519262Y247475D01*
X519300Y247597D01*
X519328Y247708D01*
X519350Y247802D01*
X519361Y247841D01*
X519367Y247880D01*
X519378Y247902D01*
Y247924D01*
X519384Y247935D01*
Y247941D01*
X519422Y247813D01*
D02*
G37*
%LPC*%
G36*
X499019Y248402D02*
X498502D01*
X497459Y245610D01*
X497415Y245493D01*
X497376Y245382D01*
X497343Y245277D01*
X497315Y245183D01*
X497287Y245099D01*
X497270Y245038D01*
X497265Y245016D01*
X497259Y245000D01*
X497254Y244988D01*
Y244983D01*
X497187Y245205D01*
X497154Y245310D01*
X497121Y245405D01*
X497093Y245488D01*
X497082Y245521D01*
X497076Y245554D01*
X497065Y245577D01*
X497060Y245593D01*
X497054Y245604D01*
Y245610D01*
X496055Y248402D01*
X495500D01*
X496987Y244561D01*
X497520D01*
X499019Y248402D01*
D02*
G37*
G36*
X504236Y247408D02*
X504175D01*
X504041Y247403D01*
X503925Y247392D01*
X503814Y247375D01*
X503725Y247358D01*
X503647Y247342D01*
X503592Y247325D01*
X503570Y247319D01*
X503553Y247314D01*
X503547Y247308D01*
X503542D01*
X503448Y247270D01*
X503364Y247219D01*
X503292Y247175D01*
X503231Y247131D01*
X503187Y247086D01*
X503153Y247053D01*
X503131Y247031D01*
X503126Y247025D01*
X503076Y246953D01*
X503031Y246875D01*
X502998Y246798D01*
X502970Y246726D01*
X502948Y246653D01*
X502931Y246603D01*
X502926Y246581D01*
Y246565D01*
X502920Y246559D01*
Y246553D01*
X503381Y246493D01*
X503414Y246592D01*
X503448Y246681D01*
X503486Y246753D01*
X503520Y246809D01*
X503553Y246853D01*
X503581Y246881D01*
X503603Y246898D01*
X503609Y246903D01*
X503675Y246942D01*
X503753Y246970D01*
X503836Y246992D01*
X503914Y247003D01*
X503992Y247014D01*
X504047Y247020D01*
X504103D01*
X504230Y247014D01*
X504341Y246997D01*
X504430Y246970D01*
X504508Y246942D01*
X504563Y246909D01*
X504607Y246886D01*
X504635Y246864D01*
X504641Y246859D01*
X504685Y246809D01*
X504718Y246748D01*
X504746Y246681D01*
X504763Y246615D01*
X504774Y246553D01*
X504780Y246498D01*
Y246465D01*
Y246459D01*
Y246454D01*
Y246443D01*
Y246420D01*
Y246381D01*
X504774Y246348D01*
Y246337D01*
Y246332D01*
X504718Y246315D01*
X504658Y246298D01*
X504530Y246265D01*
X504386Y246237D01*
X504252Y246209D01*
X504186Y246198D01*
X504125Y246193D01*
X504069Y246182D01*
X504025Y246176D01*
X503986Y246171D01*
X503958D01*
X503936Y246165D01*
X503931D01*
X503831Y246154D01*
X503747Y246137D01*
X503675Y246126D01*
X503620Y246115D01*
X503575Y246110D01*
X503542Y246098D01*
X503520Y246093D01*
X503514D01*
X503442Y246071D01*
X503381Y246048D01*
X503320Y246021D01*
X503270Y245999D01*
X503226Y245976D01*
X503198Y245954D01*
X503176Y245943D01*
X503170Y245937D01*
X503115Y245899D01*
X503070Y245854D01*
X503026Y245810D01*
X502992Y245765D01*
X502965Y245726D01*
X502943Y245693D01*
X502931Y245671D01*
X502926Y245666D01*
X502898Y245604D01*
X502876Y245538D01*
X502859Y245477D01*
X502848Y245416D01*
X502843Y245366D01*
X502837Y245327D01*
Y245294D01*
X502843Y245227D01*
X502848Y245171D01*
X502876Y245055D01*
X502915Y244961D01*
X502959Y244877D01*
X503004Y244811D01*
X503043Y244761D01*
X503070Y244733D01*
X503081Y244722D01*
X503181Y244650D01*
X503292Y244594D01*
X503414Y244555D01*
X503525Y244528D01*
X503625Y244511D01*
X503670Y244506D01*
X503708D01*
X503742Y244500D01*
X503786D01*
X503886Y244506D01*
X503986Y244517D01*
X504075Y244528D01*
X504152Y244544D01*
X504213Y244561D01*
X504263Y244578D01*
X504297Y244583D01*
X504308Y244589D01*
X504402Y244628D01*
X504491Y244678D01*
X504574Y244733D01*
X504658Y244783D01*
X504724Y244833D01*
X504774Y244872D01*
X504807Y244900D01*
X504813Y244911D01*
X504818D01*
X504830Y244839D01*
X504841Y244772D01*
X504852Y244711D01*
X504868Y244661D01*
X504885Y244617D01*
X504896Y244589D01*
X504902Y244567D01*
X504907Y244561D01*
X505401D01*
X505373Y244622D01*
X505346Y244683D01*
X505324Y244739D01*
X505312Y244789D01*
X505296Y244833D01*
X505290Y244866D01*
X505285Y244888D01*
Y244894D01*
X505279Y244933D01*
X505273Y244983D01*
Y245038D01*
X505268Y245099D01*
X505262Y245238D01*
Y245377D01*
X505257Y245510D01*
Y245571D01*
Y245621D01*
Y245666D01*
Y245699D01*
Y245721D01*
Y245726D01*
Y246359D01*
Y246465D01*
X505251Y246559D01*
X505246Y246631D01*
Y246692D01*
X505240Y246737D01*
X505235Y246770D01*
X505229Y246787D01*
Y246792D01*
X505212Y246864D01*
X505190Y246925D01*
X505168Y246975D01*
X505140Y247025D01*
X505118Y247059D01*
X505101Y247086D01*
X505090Y247103D01*
X505085Y247109D01*
X505040Y247153D01*
X504990Y247197D01*
X504935Y247231D01*
X504880Y247264D01*
X504830Y247286D01*
X504791Y247303D01*
X504763Y247314D01*
X504752Y247319D01*
X504663Y247347D01*
X504569Y247369D01*
X504474Y247386D01*
X504380Y247397D01*
X504297Y247403D01*
X504236Y247408D01*
D02*
G37*
G36*
X500967Y248402D02*
X499457D01*
Y244561D01*
X500922D01*
X501056Y244567D01*
X501172Y244572D01*
X501277Y244583D01*
X501366Y244594D01*
X501439Y244605D01*
X501494Y244611D01*
X501527Y244622D01*
X501538D01*
X501633Y244650D01*
X501711Y244678D01*
X501783Y244711D01*
X501844Y244744D01*
X501894Y244766D01*
X501932Y244789D01*
X501955Y244805D01*
X501960Y244811D01*
X502021Y244861D01*
X502077Y244922D01*
X502121Y244983D01*
X502166Y245038D01*
X502199Y245094D01*
X502221Y245133D01*
X502238Y245160D01*
X502243Y245171D01*
X502282Y245260D01*
X502310Y245349D01*
X502332Y245432D01*
X502343Y245510D01*
X502354Y245577D01*
X502360Y245632D01*
Y245677D01*
X502354Y245799D01*
X502332Y245910D01*
X502299Y246004D01*
X502265Y246093D01*
X502232Y246160D01*
X502199Y246209D01*
X502177Y246243D01*
X502171Y246254D01*
X502093Y246343D01*
X502010Y246415D01*
X501916Y246476D01*
X501832Y246526D01*
X501755Y246565D01*
X501688Y246587D01*
X501666Y246598D01*
X501649Y246603D01*
X501638Y246609D01*
X501633D01*
X501727Y246665D01*
X501810Y246720D01*
X501877Y246781D01*
X501932Y246836D01*
X501977Y246881D01*
X502010Y246925D01*
X502027Y246948D01*
X502032Y246959D01*
X502077Y247042D01*
X502110Y247120D01*
X502138Y247197D01*
X502154Y247270D01*
X502166Y247330D01*
X502171Y247380D01*
Y247408D01*
Y247419D01*
X502166Y247514D01*
X502149Y247608D01*
X502121Y247691D01*
X502093Y247769D01*
X502066Y247836D01*
X502038Y247880D01*
X502021Y247913D01*
X502016Y247924D01*
X501955Y248008D01*
X501888Y248085D01*
X501816Y248146D01*
X501749Y248196D01*
X501694Y248235D01*
X501644Y248263D01*
X501611Y248280D01*
X501605Y248285D01*
X501599D01*
X501494Y248324D01*
X501377Y248352D01*
X501261Y248374D01*
X501150Y248385D01*
X501050Y248396D01*
X501006D01*
X500967Y248402D01*
D02*
G37*
%LPD*%
G36*
X504774Y245782D02*
X504769Y245671D01*
X504763Y245577D01*
X504752Y245499D01*
X504735Y245432D01*
X504718Y245382D01*
X504707Y245344D01*
X504702Y245321D01*
X504696Y245316D01*
X504652Y245244D01*
X504607Y245177D01*
X504552Y245122D01*
X504502Y245077D01*
X504458Y245038D01*
X504419Y245011D01*
X504397Y244994D01*
X504386Y244988D01*
X504302Y244950D01*
X504219Y244922D01*
X504141Y244900D01*
X504064Y244888D01*
X504003Y244877D01*
X503947Y244872D01*
X503903D01*
X503803Y244877D01*
X503720Y244888D01*
X503647Y244911D01*
X503586Y244933D01*
X503542Y244955D01*
X503509Y244977D01*
X503486Y244988D01*
X503481Y244994D01*
X503437Y245044D01*
X503403Y245099D01*
X503375Y245149D01*
X503359Y245199D01*
X503348Y245244D01*
X503342Y245277D01*
Y245305D01*
Y245310D01*
X503348Y245355D01*
X503353Y245399D01*
X503364Y245432D01*
X503375Y245466D01*
X503386Y245493D01*
X503392Y245516D01*
X503403Y245527D01*
Y245532D01*
X503459Y245599D01*
X503525Y245643D01*
X503547Y245660D01*
X503570Y245671D01*
X503586Y245682D01*
X503592D01*
X503647Y245704D01*
X503708Y245721D01*
X503775Y245738D01*
X503842Y245749D01*
X503903Y245760D01*
X503958Y245771D01*
X503992Y245777D01*
X504003D01*
X504097Y245793D01*
X504186Y245804D01*
X504263Y245821D01*
X504341Y245838D01*
X504413Y245854D01*
X504474Y245871D01*
X504535Y245882D01*
X504585Y245899D01*
X504630Y245910D01*
X504669Y245921D01*
X504702Y245932D01*
X504730Y245943D01*
X504752Y245949D01*
X504769Y245954D01*
X504774Y245960D01*
X504780D01*
X504774Y245782D01*
D02*
G37*
G36*
X501000Y247935D02*
X501094Y247930D01*
X501178Y247919D01*
X501239Y247908D01*
X501277Y247902D01*
X501305Y247891D01*
X501311D01*
X501372Y247869D01*
X501427Y247836D01*
X501472Y247802D01*
X501511Y247769D01*
X501538Y247741D01*
X501561Y247713D01*
X501572Y247697D01*
X501577Y247691D01*
X501611Y247636D01*
X501633Y247580D01*
X501649Y247525D01*
X501660Y247469D01*
X501666Y247425D01*
X501672Y247392D01*
Y247369D01*
Y247358D01*
X501666Y247286D01*
X501655Y247219D01*
X501638Y247164D01*
X501622Y247120D01*
X501605Y247081D01*
X501588Y247047D01*
X501577Y247031D01*
X501572Y247025D01*
X501533Y246981D01*
X501483Y246936D01*
X501433Y246903D01*
X501389Y246881D01*
X501344Y246859D01*
X501311Y246842D01*
X501289Y246836D01*
X501277Y246831D01*
X501217Y246820D01*
X501139Y246809D01*
X501061Y246803D01*
X500983Y246798D01*
X500911Y246792D01*
X499968D01*
Y247947D01*
X500878D01*
X501000Y247935D01*
D02*
G37*
G36*
X501094Y246326D02*
X501189Y246315D01*
X501266Y246304D01*
X501328Y246293D01*
X501377Y246282D01*
X501400Y246276D01*
X501411Y246270D01*
X501483Y246243D01*
X501544Y246209D01*
X501599Y246171D01*
X501644Y246132D01*
X501677Y246098D01*
X501699Y246071D01*
X501716Y246048D01*
X501722Y246043D01*
X501760Y245982D01*
X501788Y245921D01*
X501810Y245860D01*
X501822Y245804D01*
X501832Y245754D01*
X501838Y245710D01*
Y245688D01*
Y245677D01*
X501832Y245610D01*
X501827Y245543D01*
X501816Y245488D01*
X501799Y245444D01*
X501783Y245405D01*
X501771Y245371D01*
X501766Y245355D01*
X501760Y245349D01*
X501727Y245299D01*
X501699Y245255D01*
X501660Y245221D01*
X501633Y245188D01*
X501605Y245166D01*
X501583Y245149D01*
X501566Y245138D01*
X501561Y245133D01*
X501466Y245088D01*
X501372Y245055D01*
X501333Y245044D01*
X501300Y245038D01*
X501277Y245033D01*
X501272D01*
X501228Y245027D01*
X501178Y245022D01*
X501061Y245016D01*
X499968D01*
Y246337D01*
X500978D01*
X501094Y246326D01*
D02*
G37*
%LPC*%
G36*
X343365Y181487D02*
X343293D01*
X343148Y181481D01*
X343021Y181465D01*
X342899Y181442D01*
X342793Y181420D01*
X342710Y181398D01*
X342671Y181387D01*
X342643Y181376D01*
X342621Y181365D01*
X342604Y181359D01*
X342593Y181354D01*
X342588D01*
X342477Y181298D01*
X342377Y181237D01*
X342294Y181171D01*
X342227Y181109D01*
X342177Y181054D01*
X342138Y181010D01*
X342110Y180976D01*
X342105Y180971D01*
Y180965D01*
X342049Y180871D01*
X342011Y180777D01*
X341983Y180682D01*
X341966Y180599D01*
X341955Y180527D01*
X341944Y180471D01*
Y180449D01*
Y180432D01*
Y180427D01*
Y180421D01*
X341950Y180327D01*
X341966Y180238D01*
X341988Y180155D01*
X342011Y180083D01*
X342033Y180027D01*
X342055Y179983D01*
X342072Y179955D01*
X342077Y179944D01*
X342133Y179866D01*
X342199Y179794D01*
X342266Y179733D01*
X342333Y179683D01*
X342388Y179639D01*
X342438Y179611D01*
X342471Y179589D01*
X342477Y179583D01*
X342482D01*
X342527Y179561D01*
X342577Y179539D01*
X342688Y179500D01*
X342815Y179461D01*
X342937Y179422D01*
X343048Y179389D01*
X343098Y179378D01*
X343143Y179367D01*
X343176Y179356D01*
X343204Y179350D01*
X343220Y179345D01*
X343226D01*
X343320Y179322D01*
X343409Y179300D01*
X343487Y179278D01*
X343553Y179261D01*
X343620Y179245D01*
X343676Y179228D01*
X343725Y179217D01*
X343764Y179200D01*
X343803Y179189D01*
X343831Y179184D01*
X343875Y179167D01*
X343903Y179161D01*
X343909Y179156D01*
X343992Y179123D01*
X344064Y179084D01*
X344125Y179045D01*
X344169Y179012D01*
X344208Y178978D01*
X344231Y178956D01*
X344247Y178939D01*
X344253Y178934D01*
X344292Y178884D01*
X344319Y178828D01*
X344336Y178773D01*
X344353Y178728D01*
X344358Y178684D01*
X344364Y178651D01*
Y178623D01*
Y178618D01*
X344358Y178551D01*
X344347Y178490D01*
X344331Y178434D01*
X344308Y178390D01*
X344286Y178346D01*
X344269Y178318D01*
X344258Y178296D01*
X344253Y178290D01*
X344208Y178235D01*
X344153Y178190D01*
X344097Y178151D01*
X344047Y178112D01*
X343997Y178090D01*
X343959Y178068D01*
X343931Y178057D01*
X343920Y178051D01*
X343836Y178024D01*
X343748Y178001D01*
X343659Y177990D01*
X343581Y177979D01*
X343515Y177974D01*
X343459Y177968D01*
X343409D01*
X343287Y177974D01*
X343176Y177985D01*
X343076Y178001D01*
X342987Y178024D01*
X342915Y178046D01*
X342860Y178063D01*
X342843Y178068D01*
X342826Y178074D01*
X342821Y178079D01*
X342815D01*
X342726Y178124D01*
X342643Y178174D01*
X342582Y178224D01*
X342527Y178273D01*
X342482Y178312D01*
X342455Y178351D01*
X342438Y178373D01*
X342432Y178379D01*
X342393Y178451D01*
X342355Y178529D01*
X342333Y178612D01*
X342310Y178684D01*
X342294Y178756D01*
X342283Y178806D01*
Y178828D01*
X342277Y178845D01*
Y178851D01*
Y178856D01*
X341800Y178812D01*
X341811Y178673D01*
X341833Y178540D01*
X341866Y178423D01*
X341905Y178318D01*
X341944Y178235D01*
X341961Y178201D01*
X341972Y178174D01*
X341988Y178151D01*
X341994Y178135D01*
X342005Y178124D01*
Y178118D01*
X342088Y178013D01*
X342177Y177918D01*
X342271Y177841D01*
X342360Y177774D01*
X342438Y177724D01*
X342505Y177691D01*
X342527Y177680D01*
X342543Y177668D01*
X342554Y177663D01*
X342560D01*
X342699Y177613D01*
X342843Y177574D01*
X342987Y177552D01*
X343126Y177530D01*
X343193Y177524D01*
X343248Y177519D01*
X343298D01*
X343342Y177513D01*
X343431D01*
X343581Y177519D01*
X343720Y177535D01*
X343848Y177563D01*
X343953Y177591D01*
X344042Y177613D01*
X344081Y177630D01*
X344114Y177641D01*
X344136Y177652D01*
X344153Y177657D01*
X344164Y177663D01*
X344169D01*
X344286Y177724D01*
X344386Y177791D01*
X344475Y177863D01*
X344547Y177929D01*
X344602Y177985D01*
X344641Y178035D01*
X344669Y178068D01*
X344674Y178074D01*
Y178079D01*
X344736Y178185D01*
X344780Y178285D01*
X344808Y178379D01*
X344830Y178468D01*
X344841Y178545D01*
X344852Y178606D01*
Y178656D01*
X344847Y178767D01*
X344830Y178873D01*
X344802Y178967D01*
X344774Y179045D01*
X344741Y179112D01*
X344719Y179161D01*
X344697Y179189D01*
X344691Y179200D01*
X344625Y179283D01*
X344547Y179361D01*
X344464Y179428D01*
X344380Y179489D01*
X344308Y179533D01*
X344247Y179567D01*
X344225Y179578D01*
X344208Y179589D01*
X344197Y179594D01*
X344192D01*
X344147Y179617D01*
X344092Y179633D01*
X344031Y179655D01*
X343964Y179678D01*
X343825Y179717D01*
X343681Y179755D01*
X343615Y179772D01*
X343553Y179789D01*
X343492Y179805D01*
X343443Y179816D01*
X343404Y179827D01*
X343370Y179833D01*
X343348Y179839D01*
X343342D01*
X343232Y179866D01*
X343132Y179888D01*
X343043Y179916D01*
X342965Y179938D01*
X342893Y179966D01*
X342832Y179988D01*
X342776Y180011D01*
X342726Y180027D01*
X342688Y180050D01*
X342654Y180066D01*
X342632Y180077D01*
X342610Y180094D01*
X342582Y180111D01*
X342577Y180116D01*
X342527Y180172D01*
X342493Y180227D01*
X342466Y180282D01*
X342449Y180338D01*
X342438Y180382D01*
X342432Y180421D01*
Y180444D01*
Y180455D01*
X342443Y180543D01*
X342466Y180621D01*
X342499Y180688D01*
X342538Y180749D01*
X342571Y180793D01*
X342604Y180832D01*
X342627Y180854D01*
X342638Y180860D01*
X342682Y180887D01*
X342726Y180915D01*
X342832Y180960D01*
X342943Y180987D01*
X343054Y181010D01*
X343154Y181021D01*
X343198Y181026D01*
X343232Y181032D01*
X343309D01*
X343465Y181026D01*
X343603Y181004D01*
X343714Y180971D01*
X343809Y180937D01*
X343881Y180904D01*
X343936Y180871D01*
X343964Y180849D01*
X343975Y180843D01*
X344053Y180765D01*
X344114Y180682D01*
X344164Y180593D01*
X344197Y180505D01*
X344219Y180421D01*
X344236Y180360D01*
X344242Y180333D01*
X344247Y180316D01*
Y180305D01*
Y180299D01*
X344736Y180338D01*
X344724Y180460D01*
X344697Y180571D01*
X344669Y180677D01*
X344630Y180765D01*
X344597Y180838D01*
X344569Y180893D01*
X344558Y180910D01*
X344547Y180926D01*
X344541Y180932D01*
Y180937D01*
X344469Y181032D01*
X344391Y181115D01*
X344308Y181187D01*
X344225Y181243D01*
X344153Y181293D01*
X344097Y181320D01*
X344075Y181332D01*
X344058Y181343D01*
X344047Y181348D01*
X344042D01*
X343920Y181393D01*
X343787Y181426D01*
X343664Y181454D01*
X343548Y181470D01*
X343443Y181481D01*
X343404D01*
X343365Y181487D01*
D02*
G37*
G36*
X350141Y181420D02*
X349625D01*
X349026Y178951D01*
X348981Y178779D01*
X348948Y178623D01*
X348915Y178479D01*
X348887Y178357D01*
X348870Y178301D01*
X348865Y178251D01*
X348854Y178212D01*
X348848Y178179D01*
X348837Y178151D01*
Y178129D01*
X348832Y178118D01*
Y178112D01*
X348793Y178357D01*
X348743Y178595D01*
X348693Y178823D01*
X348671Y178928D01*
X348643Y179034D01*
X348621Y179128D01*
X348598Y179211D01*
X348576Y179283D01*
X348559Y179350D01*
X348549Y179400D01*
X348537Y179439D01*
X348526Y179467D01*
Y179472D01*
X347982Y181420D01*
X347366D01*
X346639Y178823D01*
X346634Y178801D01*
X346623Y178767D01*
X346611Y178723D01*
X346600Y178673D01*
X346584Y178618D01*
X346573Y178557D01*
X346539Y178434D01*
X346512Y178312D01*
X346495Y178257D01*
X346484Y178212D01*
X346478Y178168D01*
X346467Y178140D01*
X346462Y178118D01*
Y178112D01*
X346434Y178257D01*
X346406Y178401D01*
X346378Y178534D01*
X346351Y178651D01*
X346340Y178706D01*
X346328Y178756D01*
X346317Y178795D01*
X346312Y178834D01*
X346306Y178862D01*
X346301Y178884D01*
X346295Y178895D01*
Y178901D01*
X345724Y181420D01*
X345196D01*
X346201Y177580D01*
X346734D01*
X347544Y180505D01*
X347566Y180577D01*
X347583Y180654D01*
X347605Y180732D01*
X347622Y180799D01*
X347638Y180860D01*
X347649Y180910D01*
X347655Y180943D01*
X347660Y180949D01*
Y180954D01*
X347666Y180937D01*
X347672Y180910D01*
X347688Y180849D01*
X347710Y180777D01*
X347733Y180699D01*
X347749Y180627D01*
X347766Y180566D01*
X347772Y180538D01*
X347777Y180521D01*
X347782Y180510D01*
Y180505D01*
X348587Y177580D01*
X349087D01*
X350141Y181420D01*
D02*
G37*
G36*
X352200Y181437D02*
X351895D01*
X351840Y181343D01*
X351779Y181254D01*
X351706Y181165D01*
X351640Y181087D01*
X351573Y181021D01*
X351523Y180965D01*
X351501Y180949D01*
X351484Y180932D01*
X351479Y180926D01*
X351473Y180921D01*
X351357Y180826D01*
X351240Y180738D01*
X351129Y180660D01*
X351018Y180599D01*
X350924Y180543D01*
X350885Y180521D01*
X350852Y180505D01*
X350824Y180488D01*
X350802Y180482D01*
X350791Y180471D01*
X350785D01*
Y180016D01*
X350868Y180050D01*
X350952Y180088D01*
X351035Y180127D01*
X351113Y180166D01*
X351179Y180199D01*
X351235Y180227D01*
X351268Y180249D01*
X351273Y180255D01*
X351279D01*
X351379Y180316D01*
X351468Y180377D01*
X351545Y180432D01*
X351606Y180482D01*
X351662Y180521D01*
X351695Y180554D01*
X351723Y180577D01*
X351729Y180582D01*
Y177580D01*
X352200D01*
Y181437D01*
D02*
G37*
%LPD*%
D10*
X389709Y142087D02*
G03*
X389709Y142087I-492J0D01*
G01*
X394492Y225661D02*
G03*
X394492Y225661I-492J0D01*
G01*
X126484Y188618D02*
G03*
X126484Y188618I-492J0D01*
G01*
X419476Y162807D02*
G03*
X419476Y162807I-492J0D01*
G01*
X365500Y142087D02*
G03*
X365500Y142087I-492J0D01*
G01*
X409362Y224240D02*
G03*
X409362Y224240I-492J0D01*
G01*
X444153Y208000D02*
G03*
X444153Y208000I-492J0D01*
G01*
X409362Y187240D02*
G03*
X409362Y187240I-492J0D01*
G01*
X448492Y248835D02*
G03*
X448492Y248835I-492J0D01*
G01*
X361347Y221437D02*
G03*
X361347Y221437I-492J0D01*
G01*
X340209Y142087D02*
G03*
X340209Y142087I-492J0D01*
G01*
X172913Y209413D02*
G03*
X172913Y209413I-492J0D01*
G01*
X143571Y223587D02*
G03*
X143571Y223587I-492J0D01*
G01*
X453995Y178740D02*
G03*
X453995Y178740I-492J0D01*
G01*
X346571Y222587D02*
G03*
X346571Y222587I-492J0D01*
G01*
X469992Y248988D02*
G03*
X469992Y248988I-492J0D01*
G01*
X426992Y248835D02*
G03*
X426992Y248835I-492J0D01*
G01*
X444158Y220468D02*
G03*
X444158Y220468I-492J0D01*
G01*
X126488Y218264D02*
G03*
X126488Y218264I-492J0D01*
G01*
X336579Y161421D02*
G03*
X336579Y161421I-492J0D01*
G01*
D11*
X365626Y202299D02*
G03*
X365626Y202299I-394J0D01*
G01*
X326000Y167000D02*
G03*
X326000Y167000I-394J0D01*
G01*
X143236Y210677D02*
G03*
X143236Y210677I-394J0D01*
G01*
X465193Y242032D02*
G03*
X465193Y242032I-394J0D01*
G01*
X691642Y174500D02*
G03*
X691642Y174500I-394J0D01*
G01*
X443693Y242032D02*
G03*
X443693Y242032I-394J0D01*
G01*
X422193D02*
G03*
X422193Y242032I-394J0D01*
G01*
X425925Y196201D02*
G03*
X425925Y196201I-394J0D01*
G01*
X470425Y215169D02*
G03*
X470425Y215169I-394J0D01*
G01*
Y202201D02*
G03*
X470425Y202201I-394J0D01*
G01*
X397445Y246724D02*
G03*
X397445Y246724I-394J0D01*
G01*
X392957Y149764D02*
X400043D01*
X406736Y152717D02*
Y167283D01*
X392957Y170236D02*
X400043D01*
X386264Y152717D02*
Y167283D01*
X402858Y183535D02*
Y224087D01*
X381992Y183535D02*
X402858D01*
X381992D02*
Y224087D01*
X402858D01*
X116347Y164012D02*
X122646D01*
X116347Y183697D02*
X122646D01*
X129142D02*
X129339D01*
X129142Y164012D02*
X129339D01*
X109653D02*
X109850D01*
X109653Y183697D02*
X109850D01*
X109653Y164012D02*
Y183697D01*
X129339Y164012D02*
Y183697D01*
X565378Y243713D02*
Y245287D01*
X562622Y243713D02*
Y245287D01*
X428532Y162512D02*
X432469D01*
X428532Y151488D02*
X432469D01*
X362055Y152717D02*
Y167283D01*
X368748Y170236D02*
X375835D01*
X382527Y152717D02*
Y167283D01*
X368748Y149764D02*
X375835D01*
X459713Y185878D02*
X461287D01*
X459713Y183122D02*
X461287D01*
X414988Y213610D02*
X426012D01*
X414988Y227390D02*
X426012D01*
X417878Y201213D02*
Y202787D01*
X415122Y201213D02*
Y202787D01*
X420122Y201213D02*
Y202787D01*
X422878Y201213D02*
Y202787D01*
X448091Y203374D02*
X459902D01*
X448091Y212626D02*
X459902D01*
X414988Y176610D02*
X426012D01*
X414988Y190390D02*
X426012D01*
X443374Y232594D02*
Y244406D01*
X452626Y232594D02*
Y244406D01*
X360713Y201378D02*
X362287D01*
X360713Y198622D02*
X362287D01*
X328847Y249606D02*
Y255118D01*
Y233740D02*
Y239567D01*
Y255118D02*
X367154D01*
Y249606D02*
Y255118D01*
Y233740D02*
Y239567D01*
X395713Y145122D02*
X397287D01*
X395713Y147878D02*
X397287D01*
X336764Y152717D02*
Y167283D01*
X343457Y170236D02*
X350543D01*
X357236Y152717D02*
Y167283D01*
X343457Y149764D02*
X350543D01*
X129500Y218500D02*
X139500D01*
X129500D02*
Y248500D01*
X139500D01*
Y218500D02*
Y248500D01*
X159378Y232213D02*
Y233787D01*
X156622Y232213D02*
Y233787D01*
X174378Y232213D02*
Y233787D01*
X171622Y232213D02*
Y233787D01*
X154378Y232213D02*
Y233787D01*
X151622Y232213D02*
Y233787D01*
X149378Y232213D02*
Y233787D01*
X146622Y232213D02*
Y233787D01*
X169378Y232213D02*
Y233787D01*
X166622Y232213D02*
Y233787D01*
X144378Y232213D02*
Y233787D01*
X141622Y232213D02*
Y233787D01*
X164378Y232213D02*
Y233787D01*
X161622Y232213D02*
Y233787D01*
X166319Y210398D02*
Y222602D01*
X168681Y210398D02*
Y222602D01*
X166319D02*
X168681D01*
X166319Y210398D02*
X168681D01*
X149181D02*
Y222602D01*
X146819Y210398D02*
Y222602D01*
Y210398D02*
X149181D01*
X146819Y222602D02*
X149181D01*
X495094Y240819D02*
Y243181D01*
X508622Y243713D02*
Y245287D01*
X511378Y243713D02*
Y245287D01*
X513095Y240819D02*
Y243181D01*
X526622Y243713D02*
Y245287D01*
X529378Y243713D02*
Y245287D01*
X531095Y240819D02*
Y243181D01*
X549094Y240819D02*
Y243181D01*
X544622Y243713D02*
Y245287D01*
X547378Y243713D02*
Y245287D01*
X567095Y240819D02*
Y243181D01*
X580622Y243713D02*
Y245287D01*
X583378Y243713D02*
Y245287D01*
X585094Y240819D02*
Y243181D01*
X598622Y243713D02*
Y245287D01*
X601378Y243713D02*
Y245287D01*
X603094Y240819D02*
Y243181D01*
X616622Y243713D02*
Y245287D01*
X619378Y243713D02*
Y245287D01*
X473906Y190319D02*
Y192681D01*
X449878Y163713D02*
Y165287D01*
X447122Y163713D02*
Y165287D01*
X442122Y163760D02*
Y165335D01*
X444878Y163760D02*
Y165335D01*
X434713Y168378D02*
X436287D01*
X434713Y165622D02*
X436287D01*
X462292Y180709D02*
X462708D01*
X462292Y169291D02*
Y180709D01*
Y169291D02*
X462708D01*
Y180709D01*
X362878Y217213D02*
Y218787D01*
X360122Y217213D02*
Y218787D01*
X334213Y219122D02*
X335787D01*
X334213Y221878D02*
X335787D01*
X337213Y212122D02*
X338787D01*
X337213Y214878D02*
X338787D01*
X337213Y207122D02*
X338787D01*
X337213Y209878D02*
X338787D01*
X349819Y221602D02*
X352181D01*
X349819Y209398D02*
X352181D01*
X349819D02*
Y221602D01*
X352181Y209398D02*
Y221602D01*
X474126Y232748D02*
Y244559D01*
X464874Y232748D02*
Y244559D01*
X458213Y235622D02*
X459787D01*
X458213Y238378D02*
X459787D01*
X497000Y152264D02*
Y182264D01*
X487000D02*
X497000D01*
X487000Y152264D02*
Y182264D01*
Y152264D02*
X497000D01*
X436665Y235622D02*
X438240D01*
X436665Y238378D02*
X438240D01*
X447378Y153213D02*
Y154787D01*
X444622Y153213D02*
Y154787D01*
X407622Y212165D02*
Y213740D01*
X410378Y212165D02*
Y213740D01*
X431126Y232594D02*
Y244406D01*
X421874Y232594D02*
Y244406D01*
X415213Y235622D02*
X416787D01*
X415213Y238378D02*
X416787D01*
X448095Y225095D02*
X459905D01*
X448095Y215843D02*
X459905D01*
X464122Y220181D02*
Y221756D01*
X466878Y220181D02*
Y221756D01*
X412213Y177378D02*
X413787D01*
X412213Y174622D02*
X413787D01*
X472122Y181213D02*
Y182787D01*
X474878Y181213D02*
Y182787D01*
X448595Y190319D02*
Y192681D01*
X455945Y153595D02*
X474055D01*
X455945Y165405D02*
X474055D01*
X464122Y207213D02*
Y208787D01*
X466878Y207213D02*
Y208787D01*
X346213Y147878D02*
X347787D01*
X346213Y145122D02*
X347787D01*
X371504Y147878D02*
X373079D01*
X371504Y145122D02*
X373079D01*
X360713Y203622D02*
X362287D01*
X360713Y206378D02*
X362287D01*
X344622Y195213D02*
Y196787D01*
X347378Y195213D02*
Y196787D01*
X340122Y195213D02*
Y196787D01*
X342878Y195213D02*
Y196787D01*
X363122Y185213D02*
Y186787D01*
X365878Y185213D02*
Y186787D01*
X374213Y184122D02*
X375787D01*
X374213Y186878D02*
X375787D01*
X129342Y193658D02*
Y213342D01*
X109658Y193658D02*
Y213342D01*
X109854D01*
X109658Y193658D02*
X109854D01*
X129146D02*
X129342D01*
X129146Y213342D02*
X129342D01*
X116350D02*
X122650D01*
X116350Y193658D02*
X122650D01*
X133213Y217878D02*
X134787D01*
X133213Y215122D02*
X134787D01*
X123213Y247878D02*
X124787D01*
X123213Y245122D02*
X124787D01*
X123213Y240122D02*
X124787D01*
X123213Y242878D02*
X124787D01*
X328213Y147878D02*
X329787D01*
X328213Y145122D02*
X329787D01*
X335102Y155319D02*
Y157681D01*
X322898Y155319D02*
Y157681D01*
X335102D01*
X322898Y155319D02*
X335102D01*
D12*
X477752Y238405D02*
X657673D01*
X477752Y138406D02*
Y238405D01*
Y138406D02*
X657673D01*
Y238405D01*
X372004Y188716D02*
X374996D01*
X372004Y203284D02*
X374996D01*
X250016Y137512D02*
X320882D01*
X250016D02*
Y163969D01*
X320882Y137512D02*
Y163969D01*
Y235032D02*
Y237906D01*
X315980D02*
X320882D01*
X250016Y235032D02*
Y237906D01*
X254917D01*
X187331Y144535D02*
Y208709D01*
X131228D02*
X187331D01*
X131228Y144535D02*
Y208709D01*
Y144535D02*
X187331D01*
X447500Y188000D02*
Y201500D01*
X475000D01*
Y188000D02*
Y201500D01*
X447500Y188000D02*
X475000D01*
X454415Y240900D02*
X455272D01*
X454415D02*
Y242130D01*
Y247100D02*
X455272D01*
X454415Y245870D02*
Y247100D01*
X658965Y165445D02*
X687311D01*
X658965Y213555D02*
X687311D01*
X658965Y165445D02*
Y213555D01*
X687311Y165445D02*
Y213555D01*
X432915Y240900D02*
X433772D01*
X432915D02*
Y242130D01*
Y247100D02*
X433772D01*
X432915Y245870D02*
Y247100D01*
X411415Y240900D02*
X412272D01*
X411415D02*
Y242130D01*
Y247100D02*
X412272D01*
X411415Y245870D02*
Y247100D01*
X424400Y205728D02*
Y206585D01*
X425630D01*
X430600Y205728D02*
Y206585D01*
X429370D02*
X430600D01*
X468900Y224697D02*
Y225553D01*
X470130D01*
X475100Y224697D02*
Y225553D01*
X473870D02*
X475100D01*
X468900Y211728D02*
Y212585D01*
X470130D01*
X475100Y211728D02*
Y212585D01*
X473870D02*
X475100D01*
X383095Y248772D02*
X394905D01*
X383095Y235228D02*
X394905D01*
D13*
X188698Y127188D02*
Y248480D01*
Y127188D02*
X244572D01*
X188698Y248480D02*
X244572D01*
Y127188D02*
Y248480D01*
X449000Y200248D02*
Y196312D01*
X450968D01*
X451624Y196968D01*
Y197624D01*
X450968Y198280D01*
X449000D01*
X450968D01*
X451624Y198936D01*
Y199592D01*
X450968Y200248D01*
X449000D01*
X453592Y198936D02*
X454904D01*
X455560Y198280D01*
Y196312D01*
X453592D01*
X452936Y196968D01*
X453592Y197624D01*
X455560D01*
X457527Y199592D02*
Y198936D01*
X456872D01*
X458183D01*
X457527D01*
Y196968D01*
X458183Y196312D01*
X460807Y199592D02*
Y198936D01*
X460151D01*
X461463D01*
X460807D01*
Y196968D01*
X461463Y196312D01*
X465399D02*
X464087D01*
X463431Y196968D01*
Y198280D01*
X464087Y198936D01*
X465399D01*
X466055Y198280D01*
Y197624D01*
X463431D01*
X467367Y198936D02*
Y196312D01*
Y197624D01*
X468023Y198280D01*
X468679Y198936D01*
X469335D01*
X471303D02*
Y196968D01*
X471958Y196312D01*
X473926D01*
Y195656D01*
X473270Y195000D01*
X472614D01*
X473926Y196312D02*
Y198936D01*
X316720Y243468D02*
Y240188D01*
X317376Y239532D01*
X318688D01*
X319344Y240188D01*
Y243468D01*
X320656D02*
X323280D01*
Y242812D01*
X320656Y240188D01*
Y239532D01*
X190876Y148968D02*
Y145688D01*
X191532Y145032D01*
X192844D01*
X193500Y145688D01*
Y148968D01*
X194812Y145032D02*
X196124D01*
X195468D01*
Y148968D01*
X194812Y148312D01*
X144968Y238252D02*
X141032D01*
Y240220D01*
X141688Y240876D01*
X143000D01*
X143656Y240220D01*
Y238252D01*
Y239564D02*
X144968Y240876D01*
X141032Y244812D02*
X141688Y243500D01*
X143000Y242188D01*
X144312D01*
X144968Y242844D01*
Y244156D01*
X144312Y244812D01*
X143656D01*
X143000Y244156D01*
Y242188D01*
X144968Y248748D02*
Y246124D01*
X142344Y248748D01*
X141688D01*
X141032Y248092D01*
Y246780D01*
X141688Y246124D01*
X181944Y207368D02*
X180632D01*
X181288D01*
Y204088D01*
X180632Y203432D01*
X179976D01*
X179320Y204088D01*
X185880Y207368D02*
X184568Y206712D01*
X183256Y205400D01*
Y204088D01*
X183912Y203432D01*
X185224D01*
X185880Y204088D01*
Y204744D01*
X185224Y205400D01*
X183256D01*
X388936Y233768D02*
Y230488D01*
X389592Y229832D01*
X390904D01*
X391560Y230488D01*
Y233768D01*
X392872Y229832D02*
X394184D01*
X393528D01*
Y233768D01*
X392872Y233112D01*
X396152Y229832D02*
X397464D01*
X396808D01*
Y233768D01*
X396152Y233112D01*
X111280Y203068D02*
Y199788D01*
X111936Y199132D01*
X113248D01*
X113904Y199788D01*
Y203068D01*
X115216Y199132D02*
X116528D01*
X115872D01*
Y203068D01*
X115216Y202412D01*
X118496D02*
X119152Y203068D01*
X120464D01*
X121120Y202412D01*
Y199788D01*
X120464Y199132D01*
X119152D01*
X118496Y199788D01*
Y202412D01*
X111720Y173468D02*
Y170188D01*
X112376Y169532D01*
X113688D01*
X114344Y170188D01*
Y173468D01*
X115656Y170188D02*
X116312Y169532D01*
X117624D01*
X118280Y170188D01*
Y172812D01*
X117624Y173468D01*
X116312D01*
X115656Y172812D01*
Y172156D01*
X116312Y171500D01*
X118280D01*
X371532Y192720D02*
X374812D01*
X375468Y193376D01*
Y194688D01*
X374812Y195344D01*
X371532D01*
X372188Y196656D02*
X371532Y197312D01*
Y198624D01*
X372188Y199280D01*
X372844D01*
X373500Y198624D01*
X374156Y199280D01*
X374812D01*
X375468Y198624D01*
Y197312D01*
X374812Y196656D01*
X374156D01*
X373500Y197312D01*
X372844Y196656D01*
X372188D01*
X373500Y197312D02*
Y198624D01*
X464120Y176968D02*
Y173688D01*
X464776Y173032D01*
X466088D01*
X466744Y173688D01*
Y176968D01*
X470680D02*
X469368Y176312D01*
X468056Y175000D01*
Y173688D01*
X468712Y173032D01*
X470024D01*
X470680Y173688D01*
Y174344D01*
X470024Y175000D01*
X468056D01*
X424220Y196468D02*
Y193188D01*
X424876Y192532D01*
X426188D01*
X426844Y193188D01*
Y196468D01*
X430780D02*
X428156D01*
Y194500D01*
X429468Y195156D01*
X430124D01*
X430780Y194500D01*
Y193188D01*
X430124Y192532D01*
X428812D01*
X428156Y193188D01*
X421420Y167768D02*
Y164488D01*
X422076Y163832D01*
X423388D01*
X424044Y164488D01*
Y167768D01*
X427324Y163832D02*
Y167768D01*
X425356Y165800D01*
X427980D01*
X432220Y212468D02*
Y209188D01*
X432876Y208532D01*
X434188D01*
X434844Y209188D01*
Y212468D01*
X436156Y211812D02*
X436812Y212468D01*
X438124D01*
X438780Y211812D01*
Y211156D01*
X438124Y210500D01*
X437468D01*
X438124D01*
X438780Y209844D01*
Y209188D01*
X438124Y208532D01*
X436812D01*
X436156Y209188D01*
X480220Y149468D02*
Y146188D01*
X480876Y145532D01*
X482188D01*
X482844Y146188D01*
Y149468D01*
X486780Y145532D02*
X484156D01*
X486780Y148156D01*
Y148812D01*
X486124Y149468D01*
X484812D01*
X484156Y148812D01*
X174968Y238252D02*
X171032D01*
Y240220D01*
X171688Y240876D01*
X173000D01*
X173656Y240220D01*
Y238252D01*
Y239564D02*
X174968Y240876D01*
X171032Y244812D02*
Y242188D01*
X173000D01*
X172344Y243500D01*
Y244156D01*
X173000Y244812D01*
X174312D01*
X174968Y244156D01*
Y242844D01*
X174312Y242188D01*
X171688Y246124D02*
X171032Y246780D01*
Y248092D01*
X171688Y248748D01*
X172344D01*
X173000Y248092D01*
X173656Y248748D01*
X174312D01*
X174968Y248092D01*
Y246780D01*
X174312Y246124D01*
X173656D01*
X173000Y246780D01*
X172344Y246124D01*
X171688D01*
X173000Y246780D02*
Y248092D01*
X169968Y238252D02*
X166032D01*
Y240220D01*
X166688Y240876D01*
X168000D01*
X168656Y240220D01*
Y238252D01*
Y239564D02*
X169968Y240876D01*
X166032Y244812D02*
Y242188D01*
X168000D01*
X167344Y243500D01*
Y244156D01*
X168000Y244812D01*
X169312D01*
X169968Y244156D01*
Y242844D01*
X169312Y242188D01*
X166032Y248748D02*
X166688Y247436D01*
X168000Y246124D01*
X169312D01*
X169968Y246780D01*
Y248092D01*
X169312Y248748D01*
X168656D01*
X168000Y248092D01*
Y246124D01*
X164968Y238252D02*
X161032D01*
Y240220D01*
X161688Y240876D01*
X163000D01*
X163656Y240220D01*
Y238252D01*
Y239564D02*
X164968Y240876D01*
X161032Y244812D02*
Y242188D01*
X163000D01*
X162344Y243500D01*
Y244156D01*
X163000Y244812D01*
X164312D01*
X164968Y244156D01*
Y242844D01*
X164312Y242188D01*
X164968Y248092D02*
X161032D01*
X163000Y246124D01*
Y248748D01*
X159968Y238252D02*
X156032D01*
Y240220D01*
X156688Y240876D01*
X158000D01*
X158656Y240220D01*
Y238252D01*
Y239564D02*
X159968Y240876D01*
X156032Y244812D02*
Y242188D01*
X158000D01*
X157344Y243500D01*
Y244156D01*
X158000Y244812D01*
X159312D01*
X159968Y244156D01*
Y242844D01*
X159312Y242188D01*
X159968Y248748D02*
Y246124D01*
X157344Y248748D01*
X156688D01*
X156032Y248092D01*
Y246780D01*
X156688Y246124D01*
X154968Y238252D02*
X151032D01*
Y240220D01*
X151688Y240876D01*
X153000D01*
X153656Y240220D01*
Y238252D01*
Y239564D02*
X154968Y240876D01*
X151032Y244812D02*
Y242188D01*
X153000D01*
X152344Y243500D01*
Y244156D01*
X153000Y244812D01*
X154312D01*
X154968Y244156D01*
Y242844D01*
X154312Y242188D01*
X151688Y246124D02*
X151032Y246780D01*
Y248092D01*
X151688Y248748D01*
X154312D01*
X154968Y248092D01*
Y246780D01*
X154312Y246124D01*
X151688D01*
X149968Y238252D02*
X146032D01*
Y240220D01*
X146688Y240876D01*
X148000D01*
X148656Y240220D01*
Y238252D01*
Y239564D02*
X149968Y240876D01*
Y244156D02*
X146032D01*
X148000Y242188D01*
Y244812D01*
X146688Y246124D02*
X146032Y246780D01*
Y248092D01*
X146688Y248748D01*
X147344D01*
X148000Y248092D01*
X148656Y248748D01*
X149312D01*
X149968Y248092D01*
Y246780D01*
X149312Y246124D01*
X148656D01*
X148000Y246780D01*
X147344Y246124D01*
X146688D01*
X148000Y246780D02*
Y248092D01*
X332368Y199852D02*
X328432D01*
Y201820D01*
X329088Y202476D01*
X330400D01*
X331056Y201820D01*
Y199852D01*
Y201164D02*
X332368Y202476D01*
Y205756D02*
X328432D01*
X330400Y203788D01*
Y206412D01*
X328432Y207724D02*
Y210348D01*
X329088D01*
X331712Y207724D01*
X332368D01*
X321852Y211632D02*
Y215568D01*
X323820D01*
X324476Y214912D01*
Y213600D01*
X323820Y212944D01*
X321852D01*
X323164D02*
X324476Y211632D01*
X327756D02*
Y215568D01*
X325788Y213600D01*
X328412D01*
X331692Y211632D02*
Y215568D01*
X329724Y213600D01*
X332348D01*
X327768Y218752D02*
X323832D01*
Y220720D01*
X324488Y221376D01*
X325800D01*
X326456Y220720D01*
Y218752D01*
Y220064D02*
X327768Y221376D01*
Y224656D02*
X323832D01*
X325800Y222688D01*
Y225312D01*
X327768Y229248D02*
Y226624D01*
X325144Y229248D01*
X324488D01*
X323832Y228592D01*
Y227280D01*
X324488Y226624D01*
X365252Y217532D02*
Y221468D01*
X367220D01*
X367876Y220812D01*
Y219500D01*
X367220Y218844D01*
X365252D01*
X366564D02*
X367876Y217532D01*
X371156D02*
Y221468D01*
X369188Y219500D01*
X371812D01*
X373124Y220812D02*
X373780Y221468D01*
X375092D01*
X375748Y220812D01*
Y218188D01*
X375092Y217532D01*
X373780D01*
X373124Y218188D01*
Y220812D01*
X338252Y156032D02*
Y159968D01*
X340220D01*
X340876Y159312D01*
Y158000D01*
X340220Y157344D01*
X338252D01*
X339564D02*
X340876Y156032D01*
X342188Y159312D02*
X342844Y159968D01*
X344156D01*
X344812Y159312D01*
Y158656D01*
X344156Y158000D01*
X343500D01*
X344156D01*
X344812Y157344D01*
Y156688D01*
X344156Y156032D01*
X342844D01*
X342188Y156688D01*
X346124D02*
X346780Y156032D01*
X348092D01*
X348748Y156688D01*
Y159312D01*
X348092Y159968D01*
X346780D01*
X346124Y159312D01*
Y158656D01*
X346780Y158000D01*
X348748D01*
X140852Y199932D02*
Y203868D01*
X142820D01*
X143476Y203212D01*
Y201900D01*
X142820Y201244D01*
X140852D01*
X142164D02*
X143476Y199932D01*
X144788Y203212D02*
X145444Y203868D01*
X146756D01*
X147412Y203212D01*
Y202556D01*
X146756Y201900D01*
X146100D01*
X146756D01*
X147412Y201244D01*
Y200588D01*
X146756Y199932D01*
X145444D01*
X144788Y200588D01*
X151348Y203868D02*
X150036Y203212D01*
X148724Y201900D01*
Y200588D01*
X149380Y199932D01*
X150692D01*
X151348Y200588D01*
Y201244D01*
X150692Y201900D01*
X148724D01*
X383252Y185032D02*
Y188968D01*
X385220D01*
X385876Y188312D01*
Y187000D01*
X385220Y186344D01*
X383252D01*
X384564D02*
X385876Y185032D01*
X387188Y188312D02*
X387844Y188968D01*
X389156D01*
X389812Y188312D01*
Y187656D01*
X389156Y187000D01*
X388500D01*
X389156D01*
X389812Y186344D01*
Y185688D01*
X389156Y185032D01*
X387844D01*
X387188Y185688D01*
X393748Y188968D02*
X391124D01*
Y187000D01*
X392436Y187656D01*
X393092D01*
X393748Y187000D01*
Y185688D01*
X393092Y185032D01*
X391780D01*
X391124Y185688D01*
X355252Y192232D02*
Y196168D01*
X357220D01*
X357876Y195512D01*
Y194200D01*
X357220Y193544D01*
X355252D01*
X356564D02*
X357876Y192232D01*
X359188Y195512D02*
X359844Y196168D01*
X361156D01*
X361812Y195512D01*
Y194856D01*
X361156Y194200D01*
X360500D01*
X361156D01*
X361812Y193544D01*
Y192888D01*
X361156Y192232D01*
X359844D01*
X359188Y192888D01*
X365092Y192232D02*
Y196168D01*
X363124Y194200D01*
X365748D01*
X361468Y180152D02*
X357532D01*
Y182120D01*
X358188Y182776D01*
X359500D01*
X360156Y182120D01*
Y180152D01*
Y181464D02*
X361468Y182776D01*
X358188Y184088D02*
X357532Y184744D01*
Y186056D01*
X358188Y186712D01*
X358844D01*
X359500Y186056D01*
Y185400D01*
Y186056D01*
X360156Y186712D01*
X360812D01*
X361468Y186056D01*
Y184744D01*
X360812Y184088D01*
X358188Y188024D02*
X357532Y188680D01*
Y189992D01*
X358188Y190648D01*
X358844D01*
X359500Y189992D01*
Y189336D01*
Y189992D01*
X360156Y190648D01*
X360812D01*
X361468Y189992D01*
Y188680D01*
X360812Y188024D01*
X359252Y208032D02*
Y211968D01*
X361220D01*
X361876Y211312D01*
Y210000D01*
X361220Y209344D01*
X359252D01*
X360564D02*
X361876Y208032D01*
X363188Y211312D02*
X363844Y211968D01*
X365156D01*
X365812Y211312D01*
Y210656D01*
X365156Y210000D01*
X364500D01*
X365156D01*
X365812Y209344D01*
Y208688D01*
X365156Y208032D01*
X363844D01*
X363188Y208688D01*
X369748Y208032D02*
X367124D01*
X369748Y210656D01*
Y211312D01*
X369092Y211968D01*
X367780D01*
X367124Y211312D01*
X446008Y183432D02*
Y187368D01*
X447976D01*
X448632Y186712D01*
Y185400D01*
X447976Y184744D01*
X446008D01*
X447320D02*
X448632Y183432D01*
X449944Y186712D02*
X450600Y187368D01*
X451912D01*
X452568Y186712D01*
Y186056D01*
X451912Y185400D01*
X451256D01*
X451912D01*
X452568Y184744D01*
Y184088D01*
X451912Y183432D01*
X450600D01*
X449944Y184088D01*
X453880Y183432D02*
X455192D01*
X454536D01*
Y187368D01*
X453880Y186712D01*
X483068Y201652D02*
X479132D01*
Y203620D01*
X479788Y204276D01*
X481100D01*
X481756Y203620D01*
Y201652D01*
Y202964D02*
X483068Y204276D01*
X479788Y205588D02*
X479132Y206244D01*
Y207556D01*
X479788Y208212D01*
X480444D01*
X481100Y207556D01*
Y206900D01*
Y207556D01*
X481756Y208212D01*
X482412D01*
X483068Y207556D01*
Y206244D01*
X482412Y205588D01*
X479788Y209524D02*
X479132Y210180D01*
Y211492D01*
X479788Y212148D01*
X482412D01*
X483068Y211492D01*
Y210180D01*
X482412Y209524D01*
X479788D01*
X408752Y168532D02*
Y172468D01*
X410720D01*
X411376Y171812D01*
Y170500D01*
X410720Y169844D01*
X408752D01*
X410064D02*
X411376Y168532D01*
X415312D02*
X412688D01*
X415312Y171156D01*
Y171812D01*
X414656Y172468D01*
X413344D01*
X412688Y171812D01*
X416624Y169188D02*
X417280Y168532D01*
X418592D01*
X419248Y169188D01*
Y171812D01*
X418592Y172468D01*
X417280D01*
X416624Y171812D01*
Y171156D01*
X417280Y170500D01*
X419248D01*
X482768Y176152D02*
X478832D01*
Y178120D01*
X479488Y178776D01*
X480800D01*
X481456Y178120D01*
Y176152D01*
Y177464D02*
X482768Y178776D01*
Y182712D02*
Y180088D01*
X480144Y182712D01*
X479488D01*
X478832Y182056D01*
Y180744D01*
X479488Y180088D01*
Y184024D02*
X478832Y184680D01*
Y185992D01*
X479488Y186648D01*
X480144D01*
X480800Y185992D01*
X481456Y186648D01*
X482112D01*
X482768Y185992D01*
Y184680D01*
X482112Y184024D01*
X481456D01*
X480800Y184680D01*
X480144Y184024D01*
X479488D01*
X480800Y184680D02*
Y185992D01*
X483168Y216752D02*
X479232D01*
Y218720D01*
X479888Y219376D01*
X481200D01*
X481856Y218720D01*
Y216752D01*
Y218064D02*
X483168Y219376D01*
Y223312D02*
Y220688D01*
X480544Y223312D01*
X479888D01*
X479232Y222656D01*
Y221344D01*
X479888Y220688D01*
X479232Y224624D02*
Y227248D01*
X479888D01*
X482512Y224624D01*
X483168D01*
X442668Y170152D02*
X438732D01*
Y172120D01*
X439388Y172776D01*
X440700D01*
X441356Y172120D01*
Y170152D01*
Y171464D02*
X442668Y172776D01*
Y176712D02*
Y174088D01*
X440044Y176712D01*
X439388D01*
X438732Y176056D01*
Y174744D01*
X439388Y174088D01*
X438732Y180648D02*
X439388Y179336D01*
X440700Y178024D01*
X442012D01*
X442668Y178680D01*
Y179992D01*
X442012Y180648D01*
X441356D01*
X440700Y179992D01*
Y178024D01*
X408368Y196552D02*
X404432D01*
Y198520D01*
X405088Y199176D01*
X406400D01*
X407056Y198520D01*
Y196552D01*
Y197864D02*
X408368Y199176D01*
Y203112D02*
Y200488D01*
X405744Y203112D01*
X405088D01*
X404432Y202456D01*
Y201144D01*
X405088Y200488D01*
X404432Y207048D02*
Y204424D01*
X406400D01*
X405744Y205736D01*
Y206392D01*
X406400Y207048D01*
X407712D01*
X408368Y206392D01*
Y205080D01*
X407712Y204424D01*
X399952Y233432D02*
Y237368D01*
X401920D01*
X402576Y236712D01*
Y235400D01*
X401920Y234744D01*
X399952D01*
X401264D02*
X402576Y233432D01*
X406512D02*
X403888D01*
X406512Y236056D01*
Y236712D01*
X405856Y237368D01*
X404544D01*
X403888Y236712D01*
X409792Y233432D02*
Y237368D01*
X407824Y235400D01*
X410448D01*
X453568Y148452D02*
X449632D01*
Y150420D01*
X450288Y151076D01*
X451600D01*
X452256Y150420D01*
Y148452D01*
Y149764D02*
X453568Y151076D01*
Y155012D02*
Y152388D01*
X450944Y155012D01*
X450288D01*
X449632Y154356D01*
Y153044D01*
X450288Y152388D01*
Y156324D02*
X449632Y156980D01*
Y158292D01*
X450288Y158948D01*
X450944D01*
X451600Y158292D01*
Y157636D01*
Y158292D01*
X452256Y158948D01*
X452912D01*
X453568Y158292D01*
Y156980D01*
X452912Y156324D01*
X413468Y196352D02*
X409532D01*
Y198320D01*
X410188Y198976D01*
X411500D01*
X412156Y198320D01*
Y196352D01*
Y197664D02*
X413468Y198976D01*
Y202912D02*
Y200288D01*
X410844Y202912D01*
X410188D01*
X409532Y202256D01*
Y200944D01*
X410188Y200288D01*
X413468Y206848D02*
Y204224D01*
X410844Y206848D01*
X410188D01*
X409532Y206192D01*
Y204880D01*
X410188Y204224D01*
X426208Y170732D02*
Y174668D01*
X428176D01*
X428832Y174012D01*
Y172700D01*
X428176Y172044D01*
X426208D01*
X427520D02*
X428832Y170732D01*
X432768D02*
X430144D01*
X432768Y173356D01*
Y174012D01*
X432112Y174668D01*
X430800D01*
X430144Y174012D01*
X434080Y170732D02*
X435392D01*
X434736D01*
Y174668D01*
X434080Y174012D01*
X401468Y207052D02*
X397532D01*
Y209020D01*
X398188Y209676D01*
X399500D01*
X400156Y209020D01*
Y207052D01*
Y208364D02*
X401468Y209676D01*
Y213612D02*
Y210988D01*
X398844Y213612D01*
X398188D01*
X397532Y212956D01*
Y211644D01*
X398188Y210988D01*
Y214924D02*
X397532Y215580D01*
Y216892D01*
X398188Y217548D01*
X400812D01*
X401468Y216892D01*
Y215580D01*
X400812Y214924D01*
X398188D01*
X437880Y144432D02*
Y148368D01*
X439848D01*
X440504Y147712D01*
Y146400D01*
X439848Y145744D01*
X437880D01*
X439192D02*
X440504Y144432D01*
X441816D02*
X443128D01*
X442472D01*
Y148368D01*
X441816Y147712D01*
X445096Y145088D02*
X445752Y144432D01*
X447064D01*
X447720Y145088D01*
Y147712D01*
X447064Y148368D01*
X445752D01*
X445096Y147712D01*
Y147056D01*
X445752Y146400D01*
X447720D01*
X432280Y230432D02*
Y234368D01*
X434248D01*
X434904Y233712D01*
Y232400D01*
X434248Y231744D01*
X432280D01*
X433592D02*
X434904Y230432D01*
X436216D02*
X437528D01*
X436872D01*
Y234368D01*
X436216Y233712D01*
X439496D02*
X440152Y234368D01*
X441464D01*
X442120Y233712D01*
Y233056D01*
X441464Y232400D01*
X442120Y231744D01*
Y231088D01*
X441464Y230432D01*
X440152D01*
X439496Y231088D01*
Y231744D01*
X440152Y232400D01*
X439496Y233056D01*
Y233712D01*
X440152Y232400D02*
X441464D01*
X615280Y233132D02*
Y237068D01*
X617248D01*
X617904Y236412D01*
Y235100D01*
X617248Y234444D01*
X615280D01*
X616592D02*
X617904Y233132D01*
X619216D02*
X620528D01*
X619872D01*
Y237068D01*
X619216Y236412D01*
X622496Y237068D02*
X625120D01*
Y236412D01*
X622496Y233788D01*
Y233132D01*
X598680Y233032D02*
Y236968D01*
X600648D01*
X601304Y236312D01*
Y235000D01*
X600648Y234344D01*
X598680D01*
X599992D02*
X601304Y233032D01*
X602616D02*
X603928D01*
X603272D01*
Y236968D01*
X602616Y236312D01*
X608520Y236968D02*
X607208Y236312D01*
X605896Y235000D01*
Y233688D01*
X606552Y233032D01*
X607864D01*
X608520Y233688D01*
Y234344D01*
X607864Y235000D01*
X605896D01*
X455780Y227732D02*
Y231668D01*
X457748D01*
X458404Y231012D01*
Y229700D01*
X457748Y229044D01*
X455780D01*
X457092D02*
X458404Y227732D01*
X459716D02*
X461028D01*
X460372D01*
Y231668D01*
X459716Y231012D01*
X465620Y231668D02*
X462996D01*
Y229700D01*
X464308Y230356D01*
X464964D01*
X465620Y229700D01*
Y228388D01*
X464964Y227732D01*
X463652D01*
X462996Y228388D01*
X580980Y233032D02*
Y236968D01*
X582948D01*
X583604Y236312D01*
Y235000D01*
X582948Y234344D01*
X580980D01*
X582292D02*
X583604Y233032D01*
X584916D02*
X586228D01*
X585572D01*
Y236968D01*
X584916Y236312D01*
X590164Y233032D02*
Y236968D01*
X588196Y235000D01*
X590820D01*
X562880Y233432D02*
Y237368D01*
X564848D01*
X565504Y236712D01*
Y235400D01*
X564848Y234744D01*
X562880D01*
X564192D02*
X565504Y233432D01*
X566816D02*
X568128D01*
X567472D01*
Y237368D01*
X566816Y236712D01*
X570096D02*
X570752Y237368D01*
X572064D01*
X572720Y236712D01*
Y236056D01*
X572064Y235400D01*
X571408D01*
X572064D01*
X572720Y234744D01*
Y234088D01*
X572064Y233432D01*
X570752D01*
X570096Y234088D01*
X391880Y152932D02*
Y156868D01*
X393848D01*
X394504Y156212D01*
Y154900D01*
X393848Y154244D01*
X391880D01*
X393192D02*
X394504Y152932D01*
X395816D02*
X397128D01*
X396472D01*
Y156868D01*
X395816Y156212D01*
X401720Y152932D02*
X399096D01*
X401720Y155556D01*
Y156212D01*
X401064Y156868D01*
X399752D01*
X399096Y156212D01*
X544436Y232932D02*
Y236868D01*
X546404D01*
X547060Y236212D01*
Y234900D01*
X546404Y234244D01*
X544436D01*
X545748D02*
X547060Y232932D01*
X548372D02*
X549684D01*
X549028D01*
Y236868D01*
X548372Y236212D01*
X551652Y232932D02*
X552964D01*
X552308D01*
Y236868D01*
X551652Y236212D01*
X526780Y233032D02*
Y236968D01*
X528748D01*
X529404Y236312D01*
Y235000D01*
X528748Y234344D01*
X526780D01*
X528092D02*
X529404Y233032D01*
X530716D02*
X532028D01*
X531372D01*
Y236968D01*
X530716Y236312D01*
X533996D02*
X534652Y236968D01*
X535964D01*
X536620Y236312D01*
Y233688D01*
X535964Y233032D01*
X534652D01*
X533996Y233688D01*
Y236312D01*
X508820Y233132D02*
Y237068D01*
X510788D01*
X511444Y236412D01*
Y235100D01*
X510788Y234444D01*
X508820D01*
X510132D02*
X511444Y233132D01*
X512756Y233788D02*
X513412Y233132D01*
X514724D01*
X515380Y233788D01*
Y236412D01*
X514724Y237068D01*
X513412D01*
X512756Y236412D01*
Y235756D01*
X513412Y235100D01*
X515380D01*
X369011Y151532D02*
Y155468D01*
X370979D01*
X371635Y154812D01*
Y153500D01*
X370979Y152844D01*
X369011D01*
X370323D02*
X371635Y151532D01*
X375571Y155468D02*
X374259Y154812D01*
X372947Y153500D01*
Y152188D01*
X373603Y151532D01*
X374915D01*
X375571Y152188D01*
Y152844D01*
X374915Y153500D01*
X372947D01*
X343720Y151032D02*
Y154968D01*
X345688D01*
X346344Y154312D01*
Y153000D01*
X345688Y152344D01*
X343720D01*
X345032D02*
X346344Y151032D01*
X347656Y154312D02*
X348312Y154968D01*
X349624D01*
X350280Y154312D01*
Y153656D01*
X349624Y153000D01*
X348968D01*
X349624D01*
X350280Y152344D01*
Y151688D01*
X349624Y151032D01*
X348312D01*
X347656Y151688D01*
X344620Y184932D02*
Y188868D01*
X346588D01*
X347244Y188212D01*
Y186900D01*
X346588Y186244D01*
X344620D01*
X345932D02*
X347244Y184932D01*
X351180D02*
X348556D01*
X351180Y187556D01*
Y188212D01*
X350524Y188868D01*
X349212D01*
X348556Y188212D01*
X335776Y201432D02*
Y205368D01*
X337744D01*
X338400Y204712D01*
Y203400D01*
X337744Y202744D01*
X335776D01*
X337088D02*
X338400Y201432D01*
X339712D02*
X341024D01*
X340368D01*
Y205368D01*
X339712Y204712D01*
X487812Y204844D02*
X485188D01*
X484532Y204188D01*
Y202876D01*
X485188Y202220D01*
X487812D01*
X488468Y202876D01*
Y204188D01*
X487156Y203532D02*
X488468Y204844D01*
Y204188D02*
X487812Y204844D01*
X484532Y208780D02*
X485188Y207468D01*
X486500Y206156D01*
X487812D01*
X488468Y206812D01*
Y208124D01*
X487812Y208780D01*
X487156D01*
X486500Y208124D01*
Y206156D01*
X487812Y219313D02*
X485188D01*
X484532Y218657D01*
Y217345D01*
X485188Y216689D01*
X487812D01*
X488468Y217345D01*
Y218657D01*
X487156Y218001D02*
X488468Y219313D01*
Y218657D02*
X487812Y219313D01*
X484532Y223248D02*
Y220624D01*
X486500D01*
X485844Y221936D01*
Y222592D01*
X486500Y223248D01*
X487812D01*
X488468Y222592D01*
Y221280D01*
X487812Y220624D01*
X435812Y199844D02*
X433188D01*
X432532Y199188D01*
Y197876D01*
X433188Y197220D01*
X435812D01*
X436468Y197876D01*
Y199188D01*
X435156Y198532D02*
X436468Y199844D01*
Y199188D02*
X435812Y199844D01*
X436468Y203124D02*
X432532D01*
X434500Y201156D01*
Y203780D01*
X402544Y245588D02*
Y248212D01*
X401888Y248868D01*
X400576D01*
X399920Y248212D01*
Y245588D01*
X400576Y244932D01*
X401888D01*
X401232Y246244D02*
X402544Y244932D01*
X401888D02*
X402544Y245588D01*
X403856Y248212D02*
X404512Y248868D01*
X405824D01*
X406480Y248212D01*
Y247556D01*
X405824Y246900D01*
X405168D01*
X405824D01*
X406480Y246244D01*
Y245588D01*
X405824Y244932D01*
X404512D01*
X403856Y245588D01*
X480012Y244144D02*
X477388D01*
X476732Y243488D01*
Y242176D01*
X477388Y241520D01*
X480012D01*
X480668Y242176D01*
Y243488D01*
X479356Y242832D02*
X480668Y244144D01*
Y243488D02*
X480012Y244144D01*
X480668Y248080D02*
Y245456D01*
X478044Y248080D01*
X477388D01*
X476732Y247424D01*
Y246112D01*
X477388Y245456D01*
X485312Y244200D02*
X482688D01*
X482032Y243544D01*
Y242232D01*
X482688Y241576D01*
X485312D01*
X485968Y242232D01*
Y243544D01*
X484656Y242888D02*
X485968Y244200D01*
Y243544D02*
X485312Y244200D01*
X485968Y245512D02*
Y246824D01*
Y246168D01*
X482032D01*
X482688Y245512D01*
X114668Y240920D02*
X110732D01*
Y242888D01*
X111388Y243544D01*
X112700D01*
X113356Y242888D01*
Y240920D01*
X114668Y247480D02*
Y244856D01*
X112044Y247480D01*
X111388D01*
X110732Y246824D01*
Y245512D01*
X111388Y244856D01*
X485968Y152061D02*
X482032D01*
Y154029D01*
X482688Y154685D01*
X484000D01*
X484656Y154029D01*
Y152061D01*
X485968Y155997D02*
Y157309D01*
Y156653D01*
X482032D01*
X482688Y155997D01*
X386344Y222268D02*
X385032D01*
X385688D01*
Y218988D01*
X385032Y218332D01*
X384376D01*
X383720Y218988D01*
X387656Y221612D02*
X388312Y222268D01*
X389624D01*
X390280Y221612D01*
Y220956D01*
X389624Y220300D01*
X388968D01*
X389624D01*
X390280Y219644D01*
Y218988D01*
X389624Y218332D01*
X388312D01*
X387656Y218988D01*
X339044Y247668D02*
X337732D01*
X338388D01*
Y244388D01*
X337732Y243732D01*
X337076D01*
X336420Y244388D01*
X342324Y243732D02*
Y247668D01*
X340356Y245700D01*
X342980D01*
X660101Y220100D02*
Y218101D01*
Y219101D01*
X665099D01*
X666099Y218101D01*
Y217101D01*
X665099Y216102D01*
X666099Y226098D02*
Y222100D01*
X662100Y226098D01*
X661101D01*
X660101Y225099D01*
Y223099D01*
X661101Y222100D01*
X154780Y227168D02*
Y223232D01*
X156748D01*
X157404Y223888D01*
Y226512D01*
X156748Y227168D01*
X154780D01*
X158716Y223232D02*
X160028D01*
X159372D01*
Y227168D01*
X158716Y226512D01*
X164620Y227168D02*
X163308Y226512D01*
X161996Y225200D01*
Y223888D01*
X162652Y223232D01*
X163964D01*
X164620Y223888D01*
Y224544D01*
X163964Y225200D01*
X161996D01*
X339680Y233468D02*
Y229532D01*
X341648D01*
X342304Y230188D01*
Y232812D01*
X341648Y233468D01*
X339680D01*
X343616Y229532D02*
X344928D01*
X344272D01*
Y233468D01*
X343616Y232812D01*
X349520Y233468D02*
X346896D01*
Y231500D01*
X348208Y232156D01*
X348864D01*
X349520Y231500D01*
Y230188D01*
X348864Y229532D01*
X347552D01*
X346896Y230188D01*
X174180Y226968D02*
Y223032D01*
X176148D01*
X176804Y223688D01*
Y226312D01*
X176148Y226968D01*
X174180D01*
X178116Y223032D02*
X179428D01*
X178772D01*
Y226968D01*
X178116Y226312D01*
X181396D02*
X182052Y226968D01*
X183364D01*
X184020Y226312D01*
Y225656D01*
X183364Y225000D01*
X182708D01*
X183364D01*
X184020Y224344D01*
Y223688D01*
X183364Y223032D01*
X182052D01*
X181396Y223688D01*
X338220Y165468D02*
Y161532D01*
X340188D01*
X340844Y162188D01*
Y164812D01*
X340188Y165468D01*
X338220D01*
X342156Y164812D02*
X342812Y165468D01*
X344124D01*
X344780Y164812D01*
Y164156D01*
X344124Y163500D01*
X344780Y162844D01*
Y162188D01*
X344124Y161532D01*
X342812D01*
X342156Y162188D01*
Y162844D01*
X342812Y163500D01*
X342156Y164156D01*
Y164812D01*
X342812Y163500D02*
X344124D01*
X455220Y151568D02*
Y147632D01*
X457188D01*
X457844Y148288D01*
Y150912D01*
X457188Y151568D01*
X455220D01*
X459156D02*
X461780D01*
Y150912D01*
X459156Y148288D01*
Y147632D01*
X441832Y195320D02*
X445768D01*
Y197288D01*
X445112Y197944D01*
X442488D01*
X441832Y197288D01*
Y195320D01*
Y201880D02*
X442488Y200568D01*
X443800Y199256D01*
X445112D01*
X445768Y199912D01*
Y201224D01*
X445112Y201880D01*
X444456D01*
X443800Y201224D01*
Y199256D01*
X446220Y216168D02*
Y212232D01*
X448188D01*
X448844Y212888D01*
Y215512D01*
X448188Y216168D01*
X446220D01*
X452780D02*
X450156D01*
Y214200D01*
X451468Y214856D01*
X452124D01*
X452780Y214200D01*
Y212888D01*
X452124Y212232D01*
X450812D01*
X450156Y212888D01*
X413620Y233168D02*
Y229232D01*
X415588D01*
X416244Y229888D01*
Y232512D01*
X415588Y233168D01*
X413620D01*
X419524Y229232D02*
Y233168D01*
X417556Y231200D01*
X420180D01*
X444720Y229368D02*
Y225432D01*
X446688D01*
X447344Y226088D01*
Y228712D01*
X446688Y229368D01*
X444720D01*
X448656Y228712D02*
X449312Y229368D01*
X450624D01*
X451280Y228712D01*
Y228056D01*
X450624Y227400D01*
X449968D01*
X450624D01*
X451280Y226744D01*
Y226088D01*
X450624Y225432D01*
X449312D01*
X448656Y226088D01*
X479032Y230320D02*
X482968D01*
Y232288D01*
X482312Y232944D01*
X479688D01*
X479032Y232288D01*
Y230320D01*
X482968Y236880D02*
Y234256D01*
X480344Y236880D01*
X479688D01*
X479032Y236224D01*
Y234912D01*
X479688Y234256D01*
X378304Y232912D02*
X377648Y233568D01*
X376336D01*
X375680Y232912D01*
Y230288D01*
X376336Y229632D01*
X377648D01*
X378304Y230288D01*
X379616Y229632D02*
X380928D01*
X380272D01*
Y233568D01*
X379616Y232912D01*
X382896Y233568D02*
X385520D01*
Y232912D01*
X382896Y230288D01*
Y229632D01*
X117704Y208112D02*
X117048Y208768D01*
X115736D01*
X115080Y208112D01*
Y205488D01*
X115736Y204832D01*
X117048D01*
X117704Y205488D01*
X119016Y204832D02*
X120328D01*
X119672D01*
Y208768D01*
X119016Y208112D01*
X124920Y208768D02*
X123608Y208112D01*
X122296Y206800D01*
Y205488D01*
X122952Y204832D01*
X124264D01*
X124920Y205488D01*
Y206144D01*
X124264Y206800D01*
X122296D01*
X114404Y178612D02*
X113748Y179268D01*
X112436D01*
X111780Y178612D01*
Y175988D01*
X112436Y175332D01*
X113748D01*
X114404Y175988D01*
X115716Y175332D02*
X117028D01*
X116372D01*
Y179268D01*
X115716Y178612D01*
X121620Y179268D02*
X118996D01*
Y177300D01*
X120308Y177956D01*
X120964D01*
X121620Y177300D01*
Y175988D01*
X120964Y175332D01*
X119652D01*
X118996Y175988D01*
X384188Y203604D02*
X383532Y202948D01*
Y201636D01*
X384188Y200980D01*
X386812D01*
X387468Y201636D01*
Y202948D01*
X386812Y203604D01*
X387468Y204916D02*
Y206228D01*
Y205572D01*
X383532D01*
X384188Y204916D01*
X387468Y210164D02*
X383532D01*
X385500Y208196D01*
Y210820D01*
X479688Y164704D02*
X479032Y164048D01*
Y162736D01*
X479688Y162080D01*
X482312D01*
X482968Y162736D01*
Y164048D01*
X482312Y164704D01*
X482968Y166016D02*
Y167328D01*
Y166672D01*
X479032D01*
X479688Y166016D01*
Y169296D02*
X479032Y169952D01*
Y171264D01*
X479688Y171920D01*
X480344D01*
X481000Y171264D01*
Y170608D01*
Y171264D01*
X481656Y171920D01*
X482312D01*
X482968Y171264D01*
Y169952D01*
X482312Y169296D01*
X444788Y174704D02*
X444132Y174048D01*
Y172736D01*
X444788Y172080D01*
X447412D01*
X448068Y172736D01*
Y174048D01*
X447412Y174704D01*
X448068Y176016D02*
Y177328D01*
Y176672D01*
X444132D01*
X444788Y176016D01*
X448068Y181920D02*
Y179296D01*
X445444Y181920D01*
X444788D01*
X444132Y181264D01*
Y179952D01*
X444788Y179296D01*
X436960Y190512D02*
X436304Y191168D01*
X434992D01*
X434336Y190512D01*
Y187888D01*
X434992Y187232D01*
X436304D01*
X436960Y187888D01*
X438272Y187232D02*
X439584D01*
X438928D01*
Y191168D01*
X438272Y190512D01*
X441552Y187232D02*
X442864D01*
X442208D01*
Y191168D01*
X441552Y190512D01*
X398388Y189904D02*
X397732Y189248D01*
Y187936D01*
X398388Y187280D01*
X401012D01*
X401668Y187936D01*
Y189248D01*
X401012Y189904D01*
X401668Y191216D02*
Y192528D01*
Y191872D01*
X397732D01*
X398388Y191216D01*
Y194496D02*
X397732Y195152D01*
Y196464D01*
X398388Y197120D01*
X401012D01*
X401668Y196464D01*
Y195152D01*
X401012Y194496D01*
X398388D01*
X428044Y148512D02*
X427388Y149168D01*
X426076D01*
X425420Y148512D01*
Y145888D01*
X426076Y145232D01*
X427388D01*
X428044Y145888D01*
X429356D02*
X430012Y145232D01*
X431324D01*
X431980Y145888D01*
Y148512D01*
X431324Y149168D01*
X430012D01*
X429356Y148512D01*
Y147856D01*
X430012Y147200D01*
X431980D01*
X395844Y168012D02*
X395188Y168668D01*
X393876D01*
X393220Y168012D01*
Y165388D01*
X393876Y164732D01*
X395188D01*
X395844Y165388D01*
X397156Y168012D02*
X397812Y168668D01*
X399124D01*
X399780Y168012D01*
Y167356D01*
X399124Y166700D01*
X399780Y166044D01*
Y165388D01*
X399124Y164732D01*
X397812D01*
X397156Y165388D01*
Y166044D01*
X397812Y166700D01*
X397156Y167356D01*
Y168012D01*
X397812Y166700D02*
X399124D01*
X409388Y147944D02*
X408732Y147288D01*
Y145976D01*
X409388Y145320D01*
X412012D01*
X412668Y145976D01*
Y147288D01*
X412012Y147944D01*
X408732Y149256D02*
Y151880D01*
X409388D01*
X412012Y149256D01*
X412668D01*
X377388Y162444D02*
X376732Y161788D01*
Y160476D01*
X377388Y159820D01*
X380012D01*
X380668Y160476D01*
Y161788D01*
X380012Y162444D01*
X376732Y166380D02*
X377388Y165068D01*
X378700Y163756D01*
X380012D01*
X380668Y164412D01*
Y165724D01*
X380012Y166380D01*
X379356D01*
X378700Y165724D01*
Y163756D01*
X435188Y220344D02*
X434532Y219688D01*
Y218376D01*
X435188Y217720D01*
X437812D01*
X438468Y218376D01*
Y219688D01*
X437812Y220344D01*
X434532Y224280D02*
Y221656D01*
X436500D01*
X435844Y222968D01*
Y223624D01*
X436500Y224280D01*
X437812D01*
X438468Y223624D01*
Y222312D01*
X437812Y221656D01*
X352288Y162544D02*
X351632Y161888D01*
Y160576D01*
X352288Y159920D01*
X354912D01*
X355568Y160576D01*
Y161888D01*
X354912Y162544D01*
X355568Y165824D02*
X351632D01*
X353600Y163856D01*
Y166480D01*
X401544Y229212D02*
X400888Y229868D01*
X399576D01*
X398920Y229212D01*
Y226588D01*
X399576Y225932D01*
X400888D01*
X401544Y226588D01*
X402856Y229212D02*
X403512Y229868D01*
X404824D01*
X405480Y229212D01*
Y228556D01*
X404824Y227900D01*
X404168D01*
X404824D01*
X405480Y227244D01*
Y226588D01*
X404824Y225932D01*
X403512D01*
X402856Y226588D01*
X330188Y178344D02*
X329532Y177688D01*
Y176376D01*
X330188Y175720D01*
X332812D01*
X333468Y176376D01*
Y177688D01*
X332812Y178344D01*
X333468Y182280D02*
Y179656D01*
X330844Y182280D01*
X330188D01*
X329532Y181624D01*
Y180312D01*
X330188Y179656D01*
X325188Y178500D02*
X324532Y177844D01*
Y176532D01*
X325188Y175876D01*
X327812D01*
X328468Y176532D01*
Y177844D01*
X327812Y178500D01*
X328468Y179812D02*
Y181124D01*
Y180468D01*
X324532D01*
X325188Y179812D01*
D14*
X477283Y153752D02*
Y165248D01*
M02*
