G04*
G04 #@! TF.GenerationSoftware,Altium Limited,Altium Designer,22.9.1 (49)*
G04*
G04 Layer_Color=16711935*
%FSLAX25Y25*%
%MOIN*%
G70*
G04*
G04 #@! TF.SameCoordinates,3F8A9F32-4B6F-401C-BF37-4CBD66F0855C*
G04*
G04*
G04 #@! TF.FilePolarity,Positive*
G04*
G01*
G75*
%ADD11C,0.00787*%
%ADD12C,0.00500*%
%ADD13C,0.01000*%
%ADD120C,0.00394*%
%ADD121R,0.02420X0.11496*%
D11*
X365626Y202299D02*
G03*
X365626Y202299I-394J0D01*
G01*
X326000Y167000D02*
G03*
X326000Y167000I-394J0D01*
G01*
X143236Y210677D02*
G03*
X143236Y210677I-394J0D01*
G01*
X465193Y242032D02*
G03*
X465193Y242032I-394J0D01*
G01*
X691642Y174500D02*
G03*
X691642Y174500I-394J0D01*
G01*
X443693Y242032D02*
G03*
X443693Y242032I-394J0D01*
G01*
X422193D02*
G03*
X422193Y242032I-394J0D01*
G01*
X425925Y196201D02*
G03*
X425925Y196201I-394J0D01*
G01*
X470425Y215169D02*
G03*
X470425Y215169I-394J0D01*
G01*
Y202201D02*
G03*
X470425Y202201I-394J0D01*
G01*
X397445Y246724D02*
G03*
X397445Y246724I-394J0D01*
G01*
X402858Y183535D02*
Y224087D01*
X381992Y183535D02*
X402858D01*
X381992D02*
Y224087D01*
X402858D01*
X422331Y162118D02*
X438669D01*
X422331Y151882D02*
Y162118D01*
Y151882D02*
X438669D01*
Y162118D01*
X417350Y226406D02*
X423650D01*
Y214595D02*
Y226406D01*
X417350Y214595D02*
X423650D01*
X417350D02*
Y226406D01*
X448091Y204201D02*
X459902D01*
X448091D02*
Y211799D01*
X459902D01*
Y204201D02*
Y211799D01*
X417350Y189406D02*
X423650D01*
Y177594D02*
Y189406D01*
X417350Y177594D02*
X423650D01*
X417350D02*
Y189406D01*
X444201Y232594D02*
Y244406D01*
X451799D01*
Y232594D02*
Y244406D01*
X444201Y232594D02*
X451799D01*
X328847Y224882D02*
X367154D01*
X328847D02*
Y255118D01*
X367154D01*
Y224882D02*
Y255118D01*
X459350Y180709D02*
X465650D01*
Y169291D02*
Y180709D01*
X459350Y169291D02*
X465650D01*
X459350D02*
Y180709D01*
X465701Y232748D02*
X473299D01*
Y244559D01*
X465701D02*
X473299D01*
X465701Y232748D02*
Y244559D01*
X422701Y232594D02*
X430299D01*
Y244406D01*
X422701D02*
X430299D01*
X422701Y232594D02*
Y244406D01*
X459905Y216669D02*
Y224268D01*
X448095D02*
X459905D01*
X448095Y216669D02*
Y224268D01*
Y216669D02*
X459905D01*
D12*
X477752Y238405D02*
X657673D01*
X477752Y138406D02*
Y238405D01*
Y138406D02*
X657673D01*
Y238405D01*
X368579Y203284D02*
X378421D01*
X368579Y188716D02*
Y203284D01*
Y188716D02*
X378421D01*
Y203284D01*
X250016Y137512D02*
X320882D01*
X250016D02*
Y161134D01*
Y237906D01*
X320882D01*
Y161134D02*
Y237906D01*
Y137512D02*
Y161134D01*
X250016D02*
X320882D01*
X187331Y144535D02*
Y208709D01*
X131228D02*
X187331D01*
X131228Y144535D02*
Y208709D01*
Y144535D02*
X187331D01*
X454415Y240900D02*
X462585D01*
X454415D02*
Y247100D01*
X462585D01*
Y240900D02*
Y247100D01*
X658965Y165445D02*
X687311D01*
X658965D02*
Y213555D01*
X687311D01*
Y165445D02*
Y213555D01*
X432915Y240900D02*
X441085D01*
X432915D02*
Y247100D01*
X441085D01*
Y240900D02*
Y247100D01*
X411415Y240900D02*
X419585D01*
X411415D02*
Y247100D01*
X419585D01*
Y240900D02*
Y247100D01*
X424400Y198415D02*
Y206585D01*
X430600D01*
Y198415D02*
Y206585D01*
X424400Y198415D02*
X430600D01*
X468900Y217384D02*
Y225553D01*
X475100D01*
Y217384D02*
Y225553D01*
X468900Y217384D02*
X475100D01*
X468900Y204415D02*
Y212585D01*
X475100D01*
Y204415D02*
Y212585D01*
X468900Y204415D02*
X475100D01*
X383095Y236094D02*
Y247905D01*
Y236094D02*
X394905D01*
Y247905D01*
X383095D02*
X394905D01*
D13*
X303165Y150307D02*
Y146975D01*
X301499Y145309D01*
X299833Y146975D01*
Y150307D01*
Y147808D01*
X303165D01*
X298167Y150307D02*
Y145309D01*
X294835Y150307D01*
Y145309D01*
X293169D02*
X289836D01*
X291502D01*
Y150307D01*
X284838Y145309D02*
X288170D01*
Y150307D01*
X284838D01*
X288170Y147808D02*
X286504D01*
X283172Y150307D02*
Y145309D01*
X279840Y150307D01*
Y145309D01*
X278173Y150307D02*
Y145309D01*
X274841Y150307D01*
Y145309D01*
X273175Y150307D02*
Y146975D01*
X271509Y145309D01*
X269843Y146975D01*
Y150307D01*
Y147808D01*
X273175D01*
D120*
X406736Y149764D02*
Y170236D01*
X386264D02*
X406736D01*
X386264Y149764D02*
X406736D01*
X386264D02*
Y170236D01*
X109653Y164012D02*
X129339D01*
X109653D02*
Y183697D01*
X129339Y164012D02*
Y183697D01*
X109653D02*
X129339D01*
X562130Y247847D02*
X565870D01*
X562130Y241154D02*
X565870D01*
Y247847D01*
X562130Y241154D02*
Y247847D01*
X343555Y175370D02*
X350445D01*
X343555Y171630D02*
X350445D01*
X343555D02*
Y175370D01*
X350445Y171630D02*
Y175370D01*
X362055Y149764D02*
Y170236D01*
Y149764D02*
X382527D01*
X362055Y170236D02*
X382527D01*
Y149764D02*
Y170236D01*
X457154Y186370D02*
X463846D01*
X457154Y182630D02*
X463846D01*
X457154D02*
Y186370D01*
X463846Y182630D02*
Y186370D01*
X418370Y198653D02*
Y205346D01*
X414630Y198653D02*
Y205346D01*
X418370D01*
X414630Y198653D02*
X418370D01*
X419630Y198653D02*
Y205346D01*
X423370Y198653D02*
Y205346D01*
X419630Y198653D02*
X423370D01*
X419630Y205346D02*
X423370D01*
X358154Y201870D02*
X364846D01*
X358154Y198130D02*
X364846D01*
X358154D02*
Y201870D01*
X364846Y198130D02*
Y201870D01*
X393055Y175370D02*
X399945D01*
X393055Y171630D02*
X399945D01*
X393055D02*
Y175370D01*
X399945Y171630D02*
Y175370D01*
X393154Y144630D02*
X399847D01*
X393154Y148370D02*
X399847D01*
Y144630D02*
Y148370D01*
X393154Y144630D02*
Y148370D01*
X336764Y149764D02*
Y170236D01*
Y149764D02*
X357236D01*
X336764Y170236D02*
X357236D01*
Y149764D02*
Y170236D01*
X116055Y186673D02*
X122945D01*
X116055Y190413D02*
X122945D01*
Y186673D02*
Y190413D01*
X116055Y186673D02*
Y190413D01*
X332870Y166055D02*
Y172945D01*
X329130Y166055D02*
Y172945D01*
X332870D01*
X329130Y166055D02*
X332870D01*
X327870D02*
Y172945D01*
X324130Y166055D02*
Y172945D01*
X327870D01*
X324130Y166055D02*
X327870D01*
X159870Y229654D02*
Y236347D01*
X156130Y229654D02*
Y236347D01*
X159870D01*
X156130Y229654D02*
X159870D01*
X174870D02*
Y236347D01*
X171130Y229654D02*
Y236347D01*
X174870D01*
X171130Y229654D02*
X174870D01*
X154870D02*
Y236347D01*
X151130Y229654D02*
Y236347D01*
X154870D01*
X151130Y229654D02*
X154870D01*
X149870D02*
Y236347D01*
X146130Y229654D02*
Y236347D01*
X149870D01*
X146130Y229654D02*
X149870D01*
X169870D02*
Y236347D01*
X166130Y229654D02*
Y236347D01*
X169870D01*
X166130Y229654D02*
X169870D01*
X144870D02*
Y236347D01*
X141130Y229654D02*
Y236347D01*
X144870D01*
X141130Y229654D02*
X144870D01*
X164870D02*
Y236347D01*
X161130Y229654D02*
Y236347D01*
X164870D01*
X161130Y229654D02*
X164870D01*
X164055Y222602D02*
X170945D01*
X164055Y210398D02*
X170945D01*
X164055D02*
Y222602D01*
X170945Y210398D02*
Y222602D01*
X144555Y210398D02*
X151445D01*
X144555Y222602D02*
X151445D01*
Y210398D02*
Y222602D01*
X144555Y210398D02*
Y222602D01*
X497653Y240228D02*
X504347D01*
X497653Y243772D02*
X504347D01*
Y240228D02*
Y243772D01*
X497653Y240228D02*
Y243772D01*
X508130Y241154D02*
Y247847D01*
X511870Y241154D02*
Y247847D01*
X508130Y241154D02*
X511870D01*
X508130Y247847D02*
X511870D01*
X515654Y240228D02*
X522346D01*
X515654Y243772D02*
X522346D01*
Y240228D02*
Y243772D01*
X515654Y240228D02*
Y243772D01*
X526130Y241154D02*
Y247847D01*
X529870Y241154D02*
Y247847D01*
X526130Y241154D02*
X529870D01*
X526130Y247847D02*
X529870D01*
X533653Y240228D02*
X540346D01*
X533653Y243772D02*
X540346D01*
Y240228D02*
Y243772D01*
X533653Y240228D02*
Y243772D01*
X551653Y240228D02*
X558347D01*
X551653Y243772D02*
X558347D01*
Y240228D02*
Y243772D01*
X551653Y240228D02*
Y243772D01*
X544130Y241154D02*
Y247847D01*
X547870Y241154D02*
Y247847D01*
X544130Y241154D02*
X547870D01*
X544130Y247847D02*
X547870D01*
X569654Y240228D02*
X576346D01*
X569654Y243772D02*
X576346D01*
Y240228D02*
Y243772D01*
X569654Y240228D02*
Y243772D01*
X580130Y241154D02*
Y247847D01*
X583870Y241154D02*
Y247847D01*
X580130Y241154D02*
X583870D01*
X580130Y247847D02*
X583870D01*
X587653Y240228D02*
X594347D01*
X587653Y243772D02*
X594347D01*
Y240228D02*
Y243772D01*
X587653Y240228D02*
Y243772D01*
X598130Y241154D02*
Y247847D01*
X601870Y241154D02*
Y247847D01*
X598130Y241154D02*
X601870D01*
X598130Y247847D02*
X601870D01*
X605653Y240228D02*
X612347D01*
X605653Y243772D02*
X612347D01*
Y240228D02*
Y243772D01*
X605653Y240228D02*
Y243772D01*
X616130Y241154D02*
Y247847D01*
X619870Y241154D02*
Y247847D01*
X616130Y241154D02*
X619870D01*
X616130Y247847D02*
X619870D01*
X464653Y193272D02*
X471347D01*
X464653Y189728D02*
X471347D01*
X464653D02*
Y193272D01*
X471347Y189728D02*
Y193272D01*
X450370Y161153D02*
Y167847D01*
X446630Y161153D02*
Y167847D01*
X450370D01*
X446630Y161153D02*
X450370D01*
X441630Y161201D02*
Y167894D01*
X445370Y161201D02*
Y167894D01*
X441630Y161201D02*
X445370D01*
X441630Y167894D02*
X445370D01*
X432154Y168870D02*
X438846D01*
X432154Y165130D02*
X438846D01*
X432154D02*
Y168870D01*
X438846Y165130D02*
Y168870D01*
X359630Y221346D02*
X363370D01*
X359630Y214653D02*
X363370D01*
Y221346D01*
X359630Y214653D02*
Y221346D01*
X338347Y218630D02*
Y222370D01*
X331653Y218630D02*
Y222370D01*
Y218630D02*
X338347D01*
X331653Y222370D02*
X338347D01*
X341347Y211630D02*
Y215370D01*
X334653Y211630D02*
Y215370D01*
Y211630D02*
X341347D01*
X334653Y215370D02*
X341347D01*
Y206630D02*
Y210370D01*
X334653Y206630D02*
Y210370D01*
Y206630D02*
X341347D01*
X334653Y210370D02*
X341347D01*
X347555Y209398D02*
Y221602D01*
X354445Y209398D02*
Y221602D01*
X347555D02*
X354445D01*
X347555Y209398D02*
X354445D01*
X462347Y235130D02*
Y238870D01*
X455653Y235130D02*
Y238870D01*
Y235130D02*
X462347D01*
X455653Y238870D02*
X462347D01*
X440799Y235130D02*
Y238870D01*
X434106Y235130D02*
Y238870D01*
Y235130D02*
X440799D01*
X434106Y238870D02*
X440799D01*
X429630Y217555D02*
X433370D01*
X429630Y224445D02*
X433370D01*
X429630Y217555D02*
Y224445D01*
X433370Y217555D02*
Y224445D01*
X407630Y230445D02*
X411370D01*
X407630Y223555D02*
X411370D01*
Y230445D01*
X407630Y223555D02*
Y230445D01*
X444130Y157346D02*
X447870D01*
X444130Y150654D02*
X447870D01*
Y157346D01*
X444130Y150654D02*
Y157346D01*
X407130Y209606D02*
X410870D01*
X407130Y216299D02*
X410870D01*
X407130Y209606D02*
Y216299D01*
X410870Y209606D02*
Y216299D01*
X412055Y152630D02*
Y156370D01*
X418945Y152630D02*
Y156370D01*
X412055D02*
X418945D01*
X412055Y152630D02*
X418945D01*
X416055Y145630D02*
Y149370D01*
X422945Y145630D02*
Y149370D01*
X416055D02*
X422945D01*
X416055Y145630D02*
X422945D01*
X419347Y235130D02*
Y238870D01*
X412653Y235130D02*
Y238870D01*
Y235130D02*
X419347D01*
X412653Y238870D02*
X419347D01*
X463630Y217622D02*
X467370D01*
X463630Y224315D02*
X467370D01*
X463630Y217622D02*
Y224315D01*
X467370Y217622D02*
Y224315D01*
X429130Y180555D02*
X432870D01*
X429130Y187445D02*
X432870D01*
X429130Y180555D02*
Y187445D01*
X432870Y180555D02*
Y187445D01*
X408130Y193445D02*
X411870D01*
X408130Y186555D02*
X411870D01*
Y193445D01*
X408130Y186555D02*
Y193445D01*
X409654Y174130D02*
Y177870D01*
X416347Y174130D02*
Y177870D01*
X409654D02*
X416347D01*
X409654Y174130D02*
X416347D01*
X471630Y178654D02*
X475370D01*
X471630Y185346D02*
X475370D01*
X471630Y178654D02*
Y185346D01*
X475370Y178654D02*
Y185346D01*
X449630Y177945D02*
X453370D01*
X449630Y171055D02*
X453370D01*
Y177945D01*
X449630Y171055D02*
Y177945D01*
X451154Y189728D02*
Y193272D01*
X457846Y189728D02*
Y193272D01*
X451154D02*
X457846D01*
X451154Y189728D02*
X457846D01*
X456004Y153752D02*
X473996D01*
X456004Y165248D02*
X473996D01*
Y153752D02*
Y165248D01*
X456004Y153752D02*
Y165248D01*
X471630Y175445D02*
X475370D01*
X471630Y168555D02*
X475370D01*
Y175445D01*
X471630Y168555D02*
Y175445D01*
X463630Y204654D02*
X467370D01*
X463630Y211347D02*
X467370D01*
X463630Y204654D02*
Y211347D01*
X467370Y204654D02*
Y211347D01*
X343653Y144630D02*
Y148370D01*
X350346Y144630D02*
Y148370D01*
X343653D02*
X350346D01*
X343653Y144630D02*
X350346D01*
X368945D02*
Y148370D01*
X375638Y144630D02*
Y148370D01*
X368945D02*
X375638D01*
X368945Y144630D02*
X375638D01*
X375736Y171630D02*
Y175370D01*
X368846Y171630D02*
Y175370D01*
Y171630D02*
X375736D01*
X368846Y175370D02*
X375736D01*
X364846Y203130D02*
Y206870D01*
X358154Y203130D02*
Y206870D01*
Y203130D02*
X364846D01*
X358154Y206870D02*
X364846D01*
X344130Y192654D02*
X347870D01*
X344130Y199346D02*
X347870D01*
X344130Y192654D02*
Y199346D01*
X347870Y192654D02*
Y199346D01*
X339630Y192654D02*
X343370D01*
X339630Y199346D02*
X343370D01*
X339630Y192654D02*
Y199346D01*
X343370Y192654D02*
Y199346D01*
X362630Y182653D02*
X366370D01*
X362630Y189347D02*
X366370D01*
X362630Y182653D02*
Y189347D01*
X366370Y182653D02*
Y189347D01*
X378445Y204630D02*
Y208370D01*
X371555Y204630D02*
Y208370D01*
Y204630D02*
X378445D01*
X371555Y208370D02*
X378445D01*
X378346Y183630D02*
Y187370D01*
X371654Y183630D02*
Y187370D01*
Y183630D02*
X378346D01*
X371654Y187370D02*
X378346D01*
X109658Y213342D02*
X129342D01*
Y193658D02*
Y213342D01*
X109658Y193658D02*
Y213342D01*
Y193658D02*
X129342D01*
X130654Y214630D02*
Y218370D01*
X137346Y214630D02*
Y218370D01*
X130654D02*
X137346D01*
X130654Y214630D02*
X137346D01*
X137445Y209130D02*
Y212870D01*
X130555Y209130D02*
Y212870D01*
Y209130D02*
X137445D01*
X130555Y212870D02*
X137445D01*
X378130Y243445D02*
X381870D01*
X378130Y236555D02*
X381870D01*
Y243445D01*
X378130Y236555D02*
Y243445D01*
X120653Y244630D02*
Y248370D01*
X127347Y244630D02*
Y248370D01*
X120653D02*
X127347D01*
X120653Y244630D02*
X127347D01*
X127347Y239630D02*
Y243370D01*
X120653Y239630D02*
Y243370D01*
Y239630D02*
X127347D01*
X120653Y243370D02*
X127347D01*
X325654Y144630D02*
Y148370D01*
X332347Y144630D02*
Y148370D01*
X325654D02*
X332347D01*
X325654Y144630D02*
X332347D01*
X322898Y159945D02*
X335102D01*
X322898Y153055D02*
X335102D01*
Y159945D01*
X322898Y153055D02*
Y159945D01*
D121*
X472786Y159500D02*
D03*
M02*
