G04*
G04 #@! TF.GenerationSoftware,Altium Limited,Altium Designer,22.9.1 (49)*
G04*
G04 Layer_Physical_Order=1*
G04 Layer_Color=255*
%FSLAX25Y25*%
%MOIN*%
G70*
G04*
G04 #@! TF.SameCoordinates,3F8A9F32-4B6F-401C-BF37-4CBD66F0855C*
G04*
G04*
G04 #@! TF.FilePolarity,Positive*
G04*
G01*
G75*
%ADD13C,0.01000*%
%ADD23R,0.04331X0.07087*%
%ADD24R,0.03543X0.05906*%
%ADD25R,0.03543X0.02756*%
%ADD26R,0.03150X0.03543*%
%ADD27R,0.02756X0.03543*%
%ADD28R,0.06721X0.02425*%
G04:AMPARAMS|DCode=29|XSize=67.21mil|YSize=24.25mil|CornerRadius=12.12mil|HoleSize=0mil|Usage=FLASHONLY|Rotation=0.000|XOffset=0mil|YOffset=0mil|HoleType=Round|Shape=RoundedRectangle|*
%AMROUNDEDRECTD29*
21,1,0.06721,0.00000,0,0,0.0*
21,1,0.04296,0.02425,0,0,0.0*
1,1,0.02425,0.02148,0.00000*
1,1,0.02425,-0.02148,0.00000*
1,1,0.02425,-0.02148,0.00000*
1,1,0.02425,0.02148,0.00000*
%
%ADD29ROUNDEDRECTD29*%
%ADD30R,0.04134X0.05906*%
%ADD31R,0.09449X0.05906*%
%ADD32R,0.05906X0.04134*%
%ADD33R,0.05906X0.09449*%
%ADD34R,0.03150X0.01968*%
%ADD35R,0.01181X0.04528*%
%ADD36R,0.02362X0.04528*%
%ADD37R,0.03543X0.03543*%
%ADD38R,0.05906X0.03543*%
%ADD39R,0.03543X0.05906*%
%ADD40R,0.07087X0.05512*%
%ADD41R,0.07087X0.04724*%
%ADD42R,0.03150X0.07087*%
%ADD43R,0.03543X0.03150*%
%ADD44R,0.06000X0.06000*%
%ADD45R,0.06000X0.06000*%
%ADD46R,0.04331X0.02362*%
%ADD47R,0.03150X0.03150*%
%ADD48R,0.05269X0.02275*%
G04:AMPARAMS|DCode=49|XSize=52.69mil|YSize=22.75mil|CornerRadius=11.38mil|HoleSize=0mil|Usage=FLASHONLY|Rotation=0.000|XOffset=0mil|YOffset=0mil|HoleType=Round|Shape=RoundedRectangle|*
%AMROUNDEDRECTD49*
21,1,0.05269,0.00000,0,0,0.0*
21,1,0.02993,0.02275,0,0,0.0*
1,1,0.02275,0.01497,0.00000*
1,1,0.02275,-0.01497,0.00000*
1,1,0.02275,-0.01497,0.00000*
1,1,0.02275,0.01497,0.00000*
%
%ADD49ROUNDEDRECTD49*%
%ADD50R,0.01968X0.01221*%
%ADD51R,0.02559X0.01221*%
%ADD52R,0.01221X0.01968*%
%ADD53R,0.01221X0.02559*%
%ADD54R,0.05000X0.08268*%
%ADD55R,0.01575X0.01575*%
%ADD56R,0.02362X0.04331*%
%ADD61C,0.06909*%
%ADD62C,0.00709*%
%ADD85R,0.05118X0.05118*%
%ADD86C,0.05118*%
G04:AMPARAMS|DCode=87|XSize=39.37mil|YSize=70.87mil|CornerRadius=19.68mil|HoleSize=0mil|Usage=FLASHONLY|Rotation=180.000|XOffset=0mil|YOffset=0mil|HoleType=Round|Shape=RoundedRectangle|*
%AMROUNDEDRECTD87*
21,1,0.03937,0.03150,0,0,180.0*
21,1,0.00000,0.07087,0,0,180.0*
1,1,0.03937,0.00000,0.01575*
1,1,0.03937,0.00000,0.01575*
1,1,0.03937,0.00000,-0.01575*
1,1,0.03937,0.00000,-0.01575*
%
%ADD87ROUNDEDRECTD87*%
G04:AMPARAMS|DCode=88|XSize=39.37mil|YSize=82.68mil|CornerRadius=19.68mil|HoleSize=0mil|Usage=FLASHONLY|Rotation=180.000|XOffset=0mil|YOffset=0mil|HoleType=Round|Shape=RoundedRectangle|*
%AMROUNDEDRECTD88*
21,1,0.03937,0.04331,0,0,180.0*
21,1,0.00000,0.08268,0,0,180.0*
1,1,0.03937,0.00000,0.02165*
1,1,0.03937,0.00000,0.02165*
1,1,0.03937,0.00000,-0.02165*
1,1,0.03937,0.00000,-0.02165*
%
%ADD88ROUNDEDRECTD88*%
%ADD89C,0.02559*%
%ADD93C,0.04921*%
%ADD94C,0.03937*%
%ADD99C,0.02362*%
%ADD101C,0.00800*%
%ADD102C,0.02000*%
%ADD103C,0.07323*%
%ADD104C,0.01575*%
%ADD105C,0.05906*%
%ADD106R,0.05906X0.05906*%
%ADD107C,0.15748*%
%ADD108R,0.08268X0.08268*%
%ADD109C,0.08268*%
%ADD110C,0.04000*%
%ADD111C,0.22047*%
G36*
X694000Y137518D02*
X627000D01*
Y137500D01*
X327000D01*
X321423Y143077D01*
Y161134D01*
X321400Y161190D01*
Y161700D01*
X249500D01*
Y161195D01*
X249475Y161134D01*
Y142974D01*
X244000Y137500D01*
X103000D01*
Y255500D01*
X626861D01*
Y255518D01*
X694000D01*
Y137518D01*
D02*
G37*
%LPC*%
G36*
X240728Y251988D02*
X238728D01*
Y249988D01*
X240728D01*
Y251988D01*
D02*
G37*
G36*
X234728D02*
X232728D01*
Y249988D01*
X234728D01*
Y251988D01*
D02*
G37*
G36*
X395512Y248512D02*
X394224D01*
Y247224D01*
X395512D01*
Y248512D01*
D02*
G37*
G36*
X393224D02*
X391937D01*
Y247224D01*
X393224D01*
Y248512D01*
D02*
G37*
G36*
X616334Y249681D02*
X615666D01*
X615048Y249425D01*
X614575Y248952D01*
X614319Y248334D01*
Y247666D01*
X614575Y247048D01*
X615048Y246575D01*
X615666Y246319D01*
X615728D01*
Y245575D01*
X620272D01*
Y249331D01*
X617047D01*
X616952Y249425D01*
X616334Y249681D01*
D02*
G37*
G36*
X598334D02*
X597666D01*
X597048Y249425D01*
X596575Y248952D01*
X596319Y248334D01*
Y247666D01*
X596575Y247048D01*
X597048Y246575D01*
X597666Y246319D01*
X597728D01*
Y245575D01*
X602272D01*
Y249331D01*
X599047D01*
X598952Y249425D01*
X598334Y249681D01*
D02*
G37*
G36*
X580334D02*
X579666D01*
X579048Y249425D01*
X578575Y248952D01*
X578319Y248334D01*
Y247666D01*
X578575Y247048D01*
X579048Y246575D01*
X579666Y246319D01*
X579728D01*
Y245575D01*
X584272D01*
Y249331D01*
X581047D01*
X580952Y249425D01*
X580334Y249681D01*
D02*
G37*
G36*
X562334D02*
X561666D01*
X561048Y249425D01*
X560575Y248952D01*
X560319Y248334D01*
Y247666D01*
X560575Y247048D01*
X561048Y246575D01*
X561666Y246319D01*
X561728D01*
Y245575D01*
X566272D01*
Y249331D01*
X563047D01*
X562952Y249425D01*
X562334Y249681D01*
D02*
G37*
G36*
X544334D02*
X543666D01*
X543048Y249425D01*
X542575Y248952D01*
X542319Y248334D01*
Y247666D01*
X542575Y247048D01*
X543048Y246575D01*
X543666Y246319D01*
X543728D01*
Y245575D01*
X548272D01*
Y249331D01*
X545047D01*
X544952Y249425D01*
X544334Y249681D01*
D02*
G37*
G36*
X526334D02*
X525666D01*
X525048Y249425D01*
X524575Y248952D01*
X524319Y248334D01*
Y247666D01*
X524575Y247048D01*
X525048Y246575D01*
X525666Y246319D01*
X525728D01*
Y245575D01*
X530272D01*
Y249331D01*
X527047D01*
X526952Y249425D01*
X526334Y249681D01*
D02*
G37*
G36*
X508334D02*
X507666D01*
X507048Y249425D01*
X506575Y248952D01*
X506319Y248334D01*
Y247666D01*
X506575Y247048D01*
X507048Y246575D01*
X507666Y246319D01*
X507728D01*
Y245575D01*
X512272D01*
Y249331D01*
X509047D01*
X508952Y249425D01*
X508334Y249681D01*
D02*
G37*
G36*
X365508Y249090D02*
Y245087D01*
X368002D01*
Y246161D01*
X367900Y246936D01*
X367601Y247658D01*
X367125Y248279D01*
X366505Y248754D01*
X365783Y249054D01*
X365508Y249090D01*
D02*
G37*
G36*
X331492Y249090D02*
Y245087D01*
X333986D01*
Y246161D01*
X333884Y246936D01*
X333585Y247658D01*
X333109Y248279D01*
X332489Y248754D01*
X331767Y249054D01*
X331492Y249090D01*
D02*
G37*
G36*
X330492Y249090D02*
X330217Y249054D01*
X329495Y248754D01*
X328875Y248279D01*
X328399Y247658D01*
X328100Y246936D01*
X327998Y246161D01*
Y245087D01*
X330492D01*
Y249090D01*
D02*
G37*
G36*
X364508Y249090D02*
X364233Y249054D01*
X363511Y248754D01*
X362891Y248279D01*
X362415Y247658D01*
X362116Y246936D01*
X362014Y246161D01*
Y245087D01*
X364508D01*
Y249090D01*
D02*
G37*
G36*
X232228Y251488D02*
X225228D01*
Y244488D01*
X225228D01*
X225152Y244020D01*
X224306D01*
X224230Y244488D01*
X224230D01*
Y251488D01*
X217230D01*
Y244488D01*
X217230D01*
X217155Y244020D01*
X216306D01*
X216230Y244488D01*
X216230D01*
Y251488D01*
X209230D01*
Y244488D01*
X209230D01*
X209155Y244020D01*
X208308D01*
X208232Y244488D01*
X208232D01*
Y251488D01*
X201232D01*
Y244488D01*
X201232D01*
X201156Y244020D01*
X200308D01*
X200232Y244488D01*
X200232D01*
Y251488D01*
X193232D01*
Y244488D01*
X193232D01*
X193222Y244427D01*
X192688Y244254D01*
X187721Y249221D01*
X187390Y249442D01*
X187000Y249520D01*
X143586D01*
X143196Y249442D01*
X142865Y249221D01*
X142279Y248635D01*
X142058Y248304D01*
X141980Y247914D01*
Y237831D01*
X140728D01*
Y234075D01*
X145272D01*
Y234075D01*
X145728D01*
Y234075D01*
X150272D01*
Y234075D01*
X150728D01*
Y234075D01*
X155272D01*
Y234075D01*
X155728D01*
Y234075D01*
X160272D01*
Y234075D01*
X160728D01*
Y234075D01*
X165272D01*
Y234075D01*
X165728D01*
Y234075D01*
X170272D01*
Y234075D01*
X170728D01*
Y234075D01*
X175272D01*
Y237831D01*
X174020D01*
Y238480D01*
X182850D01*
X188051Y233279D01*
X188382Y233058D01*
X188772Y232980D01*
X213464D01*
X213676Y232480D01*
X213558Y232304D01*
X213480Y231914D01*
Y214326D01*
X213075Y213921D01*
X212819Y213303D01*
Y212634D01*
X213075Y212016D01*
X213548Y211543D01*
X214166Y211287D01*
X214834D01*
X215452Y211543D01*
X215925Y212016D01*
X216181Y212634D01*
Y213303D01*
X215925Y213921D01*
X215520Y214326D01*
Y231480D01*
X247121D01*
X247547Y231182D01*
Y229772D01*
X247547Y229728D01*
Y229272D01*
X247547Y229228D01*
Y224772D01*
X247547Y224728D01*
Y224272D01*
X247547Y224228D01*
Y219772D01*
X247547Y219728D01*
Y219272D01*
X247547Y219228D01*
Y214772D01*
X247547Y214728D01*
Y214272D01*
X247547Y214228D01*
Y209772D01*
X247547Y209728D01*
Y209272D01*
X247547Y209228D01*
Y204772D01*
X247547Y204728D01*
Y204272D01*
X247547Y204228D01*
Y199772D01*
X247547Y199728D01*
Y199272D01*
X247547Y199228D01*
Y194772D01*
X247547Y194728D01*
Y194272D01*
X247547Y194228D01*
Y189772D01*
X247547Y189728D01*
Y189272D01*
X247547Y189228D01*
Y188020D01*
X247500D01*
X247110Y187942D01*
X246779Y187721D01*
X245078Y186020D01*
X236922D01*
X235221Y187721D01*
X235221Y187721D01*
X231847Y191095D01*
X231925Y191174D01*
X232181Y191792D01*
Y192460D01*
X231925Y193078D01*
X231452Y193551D01*
X230834Y193807D01*
X230166D01*
X229548Y193551D01*
X229075Y193078D01*
X228986Y192864D01*
X228430Y192710D01*
X228172Y192912D01*
Y198348D01*
X228094Y198738D01*
X227873Y199069D01*
X223563Y203379D01*
Y211516D01*
X223969Y211922D01*
X224224Y212540D01*
Y213208D01*
X223969Y213826D01*
X223496Y214299D01*
X222878Y214555D01*
X222209D01*
X221591Y214299D01*
X221118Y213826D01*
X220862Y213208D01*
Y212540D01*
X221118Y211922D01*
X221524Y211516D01*
Y202957D01*
X221601Y202567D01*
X221822Y202236D01*
X226132Y197926D01*
Y192227D01*
X226210Y191837D01*
X226431Y191506D01*
X231800Y186137D01*
X231486Y185746D01*
X231095Y185823D01*
X230979D01*
X230925Y185952D01*
X230452Y186425D01*
X229834Y186681D01*
X229166D01*
X228548Y186425D01*
X228075Y185952D01*
X227819Y185334D01*
Y184666D01*
X228075Y184048D01*
X228368Y183754D01*
X228492Y183431D01*
X228368Y183108D01*
X228075Y182815D01*
X227819Y182197D01*
Y181528D01*
X227357Y181520D01*
X217544D01*
X216520Y182544D01*
Y187811D01*
X216528Y187819D01*
X216897D01*
X217515Y188075D01*
X217988Y188548D01*
X218244Y189166D01*
Y189834D01*
X217988Y190452D01*
X217515Y190925D01*
X216897Y191181D01*
X216229D01*
X215611Y190925D01*
X215138Y190452D01*
X214882Y189834D01*
Y189396D01*
X214807Y189286D01*
X214782Y189281D01*
X214307Y189552D01*
Y189834D01*
X214051Y190452D01*
X213578Y190925D01*
X212960Y191181D01*
X212292D01*
X211674Y190925D01*
X211201Y190452D01*
X210945Y189834D01*
X210447Y189840D01*
Y191206D01*
X214165Y194923D01*
X214531Y195075D01*
X215004Y195548D01*
X215260Y196166D01*
Y196834D01*
X215004Y197452D01*
X214531Y197925D01*
X213913Y198181D01*
X213244D01*
X212627Y197925D01*
X212154Y197452D01*
X212002Y197086D01*
X207836Y192921D01*
X207505Y192424D01*
X207388Y191839D01*
Y179824D01*
X206799Y179234D01*
X206418Y178315D01*
Y177321D01*
X206799Y176402D01*
X207502Y175698D01*
X208421Y175318D01*
X209415D01*
X210334Y175698D01*
X211037Y176402D01*
X211418Y177321D01*
Y178315D01*
X211037Y179234D01*
X210447Y179824D01*
Y189160D01*
X210945Y189166D01*
X211201Y188548D01*
X211674Y188075D01*
X212292Y187819D01*
X212480D01*
Y182000D01*
X212558Y181610D01*
X212779Y181279D01*
X215779Y178279D01*
X216110Y178058D01*
X216500Y177980D01*
X230414D01*
X230804Y178058D01*
X231135Y178279D01*
X232402Y179546D01*
X232623Y179877D01*
X232701Y180267D01*
Y184218D01*
X232623Y184608D01*
X233014Y184922D01*
X235158Y182779D01*
X235489Y182558D01*
X235879Y182480D01*
X245578D01*
X246779Y181279D01*
X247110Y181058D01*
X247500Y180980D01*
X247547D01*
Y179772D01*
X247547Y179728D01*
Y179272D01*
X247547Y179228D01*
Y174969D01*
X247547Y174728D01*
X247155Y174469D01*
X240563D01*
Y167469D01*
X247047D01*
Y166469D01*
X240563D01*
Y159468D01*
X247563D01*
Y164228D01*
X250500D01*
Y167000D01*
X251000D01*
Y167500D01*
X254953D01*
Y169772D01*
X254453D01*
Y174228D01*
X254453Y174272D01*
Y174728D01*
X254453Y174772D01*
Y179228D01*
X254453Y179272D01*
Y179728D01*
X254453Y179772D01*
Y184272D01*
X254453D01*
Y184728D01*
X254453D01*
Y189228D01*
X254453Y189272D01*
Y189728D01*
X254453Y189772D01*
Y190980D01*
X256142D01*
X256548Y190575D01*
X257166Y190319D01*
X257834D01*
X258452Y190575D01*
X258925Y191048D01*
X259181Y191666D01*
Y192334D01*
X258925Y192952D01*
X258452Y193425D01*
X257834Y193681D01*
X257166D01*
X256548Y193425D01*
X256142Y193020D01*
X254453D01*
Y194228D01*
X254453Y194272D01*
Y194728D01*
X254453Y194772D01*
Y195980D01*
X256142D01*
X256548Y195575D01*
X257166Y195319D01*
X257834D01*
X258452Y195575D01*
X258925Y196048D01*
X259181Y196666D01*
Y197334D01*
X258925Y197952D01*
X258452Y198425D01*
X257834Y198681D01*
X257166D01*
X256548Y198425D01*
X256142Y198020D01*
X254453D01*
Y199228D01*
X254453Y199272D01*
Y199728D01*
X254453Y199772D01*
Y200980D01*
X256142D01*
X256548Y200575D01*
X257166Y200319D01*
X257834D01*
X258452Y200575D01*
X258925Y201048D01*
X259181Y201666D01*
Y202334D01*
X258925Y202952D01*
X258452Y203425D01*
X257834Y203681D01*
X257166D01*
X256548Y203425D01*
X256142Y203020D01*
X254453D01*
Y204228D01*
X254453Y204272D01*
Y204728D01*
X254453Y204772D01*
Y205980D01*
X256142D01*
X256548Y205575D01*
X257166Y205319D01*
X257834D01*
X258452Y205575D01*
X258925Y206048D01*
X259181Y206666D01*
Y207334D01*
X258925Y207952D01*
X258452Y208425D01*
X257834Y208681D01*
X257166D01*
X256548Y208425D01*
X256142Y208020D01*
X254453D01*
Y209228D01*
X254453Y209272D01*
Y209728D01*
X254453Y209772D01*
Y210980D01*
X256142D01*
X256548Y210575D01*
X257166Y210319D01*
X257834D01*
X258452Y210575D01*
X258925Y211048D01*
X259181Y211666D01*
Y212334D01*
X258925Y212952D01*
X258452Y213425D01*
X257834Y213681D01*
X257166D01*
X256548Y213425D01*
X256142Y213020D01*
X254453D01*
Y214228D01*
X254453Y214272D01*
Y214728D01*
X254453Y214772D01*
Y219228D01*
X254453Y219272D01*
Y219728D01*
X254453Y219772D01*
Y224228D01*
X254453Y224272D01*
Y224728D01*
X254453Y224772D01*
Y229228D01*
X254453Y229272D01*
Y229728D01*
X254453Y229772D01*
Y234272D01*
X248867D01*
X248675Y234734D01*
X254422Y240480D01*
X255221D01*
X255677Y240374D01*
X255677Y239980D01*
Y233469D01*
X256400D01*
X256575Y233048D01*
X257048Y232575D01*
X257666Y232319D01*
X258334D01*
X258952Y232575D01*
X259425Y233048D01*
X259599Y233469D01*
X260177D01*
X260221Y233469D01*
X260677D01*
X260720Y233469D01*
X261401D01*
X261575Y233048D01*
X262048Y232575D01*
X262666Y232319D01*
X263334D01*
X263952Y232575D01*
X264425Y233048D01*
X264599Y233469D01*
X265177D01*
X265220Y233469D01*
X265677D01*
X265721Y233469D01*
X266476D01*
X266575Y233229D01*
X267048Y232756D01*
X267666Y232500D01*
X268334D01*
X268952Y232756D01*
X269425Y233229D01*
X269524Y233469D01*
X270177D01*
X270220Y233469D01*
X270677D01*
X270721Y233469D01*
X271476D01*
X271575Y233229D01*
X272048Y232756D01*
X272666Y232500D01*
X273334D01*
X273952Y232756D01*
X274425Y233229D01*
X274524Y233469D01*
X275177D01*
X275220Y233469D01*
X275677D01*
X275721Y233469D01*
X280220D01*
Y233469D01*
X280677D01*
Y233469D01*
X285220D01*
Y233469D01*
X285677D01*
Y233469D01*
X290220D01*
Y233469D01*
X290677D01*
Y233469D01*
X295220D01*
Y233469D01*
X295677D01*
Y233469D01*
X300177D01*
X300220Y233469D01*
X300677D01*
X300721Y233469D01*
X305177D01*
X305221Y233469D01*
X305677D01*
X305720Y233469D01*
X306929D01*
Y232371D01*
X301279Y226721D01*
X301058Y226390D01*
X300980Y226000D01*
Y176000D01*
X301058Y175610D01*
X301279Y175279D01*
X313279Y163279D01*
X313610Y163058D01*
X314000Y162980D01*
X321878D01*
X321980Y162878D01*
Y158020D01*
X322058Y157630D01*
X322279Y157299D01*
X324240Y155338D01*
Y154244D01*
X323579D01*
Y148913D01*
X323728D01*
X324169Y148772D01*
Y144228D01*
X327925D01*
Y148772D01*
X328366Y148913D01*
X329633D01*
X330075Y148772D01*
Y144228D01*
X333831D01*
Y145480D01*
X334500D01*
X334890Y145558D01*
X335221Y145779D01*
X336221Y146779D01*
X336442Y147110D01*
X336520Y147500D01*
Y153078D01*
X337422Y153980D01*
X376500D01*
X376890Y154058D01*
X377221Y154279D01*
X389968Y167026D01*
X390189Y167357D01*
X390267Y167747D01*
Y168161D01*
X391882D01*
Y171228D01*
X395819D01*
Y175772D01*
X391882D01*
Y176248D01*
X386551D01*
Y168161D01*
X387566D01*
X387758Y167700D01*
X376078Y156020D01*
X359615D01*
X359423Y156482D01*
X365721Y162779D01*
X365942Y163110D01*
X366020Y163500D01*
Y168161D01*
X367673D01*
Y171228D01*
X371610D01*
Y175772D01*
X367673D01*
Y176248D01*
X362343D01*
Y168161D01*
X363980D01*
Y163922D01*
X357578Y157520D01*
X327488D01*
X327307Y157756D01*
X327554Y158256D01*
X328500D01*
Y161421D01*
X329500D01*
Y158256D01*
X331181D01*
Y158756D01*
X334421D01*
Y160480D01*
X335142D01*
X335548Y160075D01*
X336166Y159819D01*
X336834D01*
X337452Y160075D01*
X337925Y160548D01*
X338005Y160741D01*
X338761D01*
X339151Y160819D01*
X339482Y161040D01*
X340438Y161996D01*
X340658Y162326D01*
X340736Y162716D01*
Y168161D01*
X342382D01*
Y171228D01*
X346319D01*
Y175772D01*
X342382D01*
Y176248D01*
X337051D01*
Y168161D01*
X338697D01*
Y163139D01*
X338338Y162780D01*
X337597D01*
X337452Y162925D01*
X336834Y163181D01*
X336166D01*
X335548Y162925D01*
X335142Y162520D01*
X334421D01*
Y164087D01*
X334237D01*
X333772Y164169D01*
Y166244D01*
X331000D01*
Y166744D01*
X330500D01*
Y169319D01*
X326500D01*
Y166744D01*
X325500D01*
Y169319D01*
X324061D01*
X323964Y169528D01*
X323896Y169753D01*
X324176Y170181D01*
X328272D01*
Y170181D01*
X328728D01*
Y170181D01*
X333272D01*
Y174331D01*
X328728D01*
Y174331D01*
X328272D01*
Y174331D01*
X323728D01*
X323412Y174601D01*
X323350Y174778D01*
Y179228D01*
X323350Y179272D01*
Y179728D01*
X323350Y179772D01*
Y180980D01*
X330000D01*
X330390Y181058D01*
X330721Y181279D01*
X338075Y188633D01*
X338296Y188964D01*
X338374Y189354D01*
Y189542D01*
X338452Y189575D01*
X338925Y190048D01*
X339181Y190666D01*
Y190689D01*
X339228Y191169D01*
X344319D01*
Y191166D01*
X344575Y190548D01*
X345048Y190075D01*
X345666Y189819D01*
X346334D01*
X346952Y190075D01*
X347425Y190548D01*
X347681Y191166D01*
Y191169D01*
X348272D01*
Y192293D01*
X365765D01*
X365929Y192129D01*
X366259Y191908D01*
X366650Y191831D01*
X366741D01*
X367094Y191477D01*
Y191185D01*
X366772Y190831D01*
X362228D01*
Y187075D01*
X366772D01*
Y187850D01*
X367094Y188216D01*
X370036D01*
X370169Y187772D01*
X370169Y187716D01*
Y186915D01*
X369669Y186708D01*
X369452Y186925D01*
X368834Y187181D01*
X368166D01*
X367548Y186925D01*
X367075Y186452D01*
X366819Y185834D01*
Y185406D01*
X366794Y185152D01*
X366377Y184925D01*
X362228D01*
Y182850D01*
X361766Y182659D01*
X357704Y186721D01*
X357374Y186942D01*
X356983Y187020D01*
X339935D01*
X339545Y186942D01*
X339470Y186892D01*
X339217Y186997D01*
X338548D01*
X337930Y186741D01*
X337457Y186268D01*
X337201Y185650D01*
Y184981D01*
X337457Y184363D01*
X337930Y183890D01*
X338548Y183634D01*
X339217D01*
X339835Y183890D01*
X340307Y184363D01*
X340357Y184483D01*
X340417Y184488D01*
X340543Y184383D01*
X340819Y184023D01*
Y183484D01*
X341075Y182867D01*
X341548Y182394D01*
X342166Y182138D01*
X342834D01*
X343452Y182394D01*
X343925Y182867D01*
X344179Y183480D01*
X355940D01*
X357458Y181962D01*
X357267Y181500D01*
X357003D01*
X356084Y181119D01*
X355381Y180416D01*
X355000Y179497D01*
Y178503D01*
X355381Y177584D01*
X355716Y177248D01*
X355509Y176748D01*
X354783D01*
Y172705D01*
X357449D01*
Y176500D01*
X357997D01*
X358916Y176881D01*
X359619Y177584D01*
X360000Y178503D01*
Y178767D01*
X360462Y178958D01*
X361641Y177779D01*
X361972Y177558D01*
X362362Y177480D01*
X391000D01*
X391390Y177558D01*
X391721Y177779D01*
X402099Y188157D01*
X402523Y187873D01*
X402416Y187617D01*
Y186622D01*
X402797Y185703D01*
X403500Y185000D01*
X404419Y184619D01*
X405413D01*
X406332Y185000D01*
X407035Y185703D01*
X407228Y186169D01*
X407728Y186069D01*
Y185169D01*
X408494D01*
Y178272D01*
X408169D01*
Y173728D01*
X411925D01*
Y178272D01*
X411888D01*
X411727Y178717D01*
X412320Y178631D01*
X412391Y178525D01*
X412957Y178147D01*
X413625Y178014D01*
X414075D01*
Y176638D01*
X414040Y176585D01*
X413923Y176000D01*
X414040Y175415D01*
X414075Y175362D01*
Y173728D01*
X417831D01*
Y178014D01*
X417922D01*
X418590Y178147D01*
X419156Y178525D01*
X419535Y179092D01*
X419667Y179760D01*
X419535Y180428D01*
X419156Y180994D01*
X419105Y181029D01*
X419105Y181630D01*
X419517Y181905D01*
X420006Y182637D01*
X420078Y183000D01*
X415773D01*
Y184000D01*
X420078D01*
X420006Y184363D01*
X419561Y185028D01*
X419634Y185528D01*
X419634D01*
Y187305D01*
X419663Y187452D01*
Y188695D01*
X419939Y188971D01*
X421686D01*
X421844Y188475D01*
X421465Y187908D01*
X421333Y187240D01*
X421465Y186572D01*
X421844Y186006D01*
X422410Y185627D01*
X423078Y185494D01*
X427375D01*
X428043Y185627D01*
X428046Y185629D01*
X428728D01*
Y184681D01*
X433272D01*
Y185227D01*
X435138D01*
X437000Y183365D01*
Y182503D01*
X437381Y181584D01*
X438084Y180881D01*
X439003Y180500D01*
X439997D01*
X440916Y180881D01*
X441619Y181584D01*
X442000Y182503D01*
Y183497D01*
X441619Y184416D01*
X440916Y185119D01*
X439997Y185500D01*
X439190D01*
X436853Y187837D01*
X436357Y188169D01*
X435772Y188285D01*
X433272D01*
Y188831D01*
X433714Y188971D01*
X436828D01*
X437414Y189087D01*
X437910Y189419D01*
X439081Y190590D01*
X439413Y191086D01*
X439529Y191672D01*
Y214782D01*
X439991Y214973D01*
X440084Y214881D01*
X441003Y214500D01*
X441997D01*
X442916Y214881D01*
X443619Y215584D01*
X444000Y216503D01*
Y217497D01*
X443619Y218416D01*
X442916Y219119D01*
X441997Y219500D01*
X441003D01*
X440084Y219119D01*
X439991Y219027D01*
X439529Y219218D01*
Y224000D01*
X439413Y224585D01*
X439081Y225081D01*
X432701Y231462D01*
Y234228D01*
X434000D01*
Y237000D01*
Y239772D01*
X432122D01*
Y237269D01*
X431660Y237078D01*
X429953Y238785D01*
Y247071D01*
X424695D01*
X424547Y247100D01*
X423384D01*
X422963Y247381D01*
X422378Y247498D01*
X419043D01*
X418458Y247381D01*
X418047Y247107D01*
X417559Y247079D01*
D01*
X417499Y247093D01*
X417469Y247100D01*
X417080Y247100D01*
X413531D01*
X413149Y246942D01*
X412990Y246559D01*
Y245151D01*
X411365D01*
X411362Y245159D01*
X410659Y245862D01*
X409740Y246243D01*
X408745D01*
X407827Y245862D01*
X407123Y245159D01*
X406743Y244240D01*
Y243245D01*
X407123Y242326D01*
X407827Y241623D01*
X408745Y241243D01*
X409740D01*
X410659Y241623D01*
X411362Y242326D01*
X411578Y242849D01*
X412990D01*
Y241441D01*
X413149Y241058D01*
X413531Y240900D01*
X417469D01*
X417514Y240869D01*
Y239272D01*
X417075D01*
Y234728D01*
X418668D01*
X419215Y234181D01*
Y233685D01*
X419332Y233100D01*
X419663Y232604D01*
X420500Y231767D01*
Y231503D01*
X420881Y230584D01*
X421468Y229997D01*
X421383Y229525D01*
X421348Y229463D01*
X421096Y229413D01*
X420600Y229081D01*
X417471Y225952D01*
X411913D01*
X411772Y226319D01*
X407228D01*
Y222169D01*
X406870Y221826D01*
X406504Y221581D01*
X404929Y220006D01*
X404459Y219913D01*
X403963Y219581D01*
X403631Y219085D01*
X403515Y218500D01*
X403631Y217915D01*
X403963Y217419D01*
X404459Y217087D01*
X405044Y216971D01*
X405585D01*
X405915Y217036D01*
X406331Y216639D01*
X406301Y216520D01*
X406000D01*
X405610Y216442D01*
X405279Y216221D01*
X403279Y214221D01*
X403058Y213890D01*
X402980Y213500D01*
Y194044D01*
X391537Y182600D01*
X391148Y182828D01*
X391101Y182872D01*
Y183524D01*
X390845Y184142D01*
X390372Y184615D01*
X390065Y184742D01*
X390020Y184810D01*
Y191172D01*
X390520Y191238D01*
X390684Y190626D01*
X391152Y189815D01*
X391815Y189152D01*
X392626Y188683D01*
X393500Y188449D01*
Y192000D01*
Y195551D01*
X392626Y195317D01*
X391815Y194848D01*
X391152Y194185D01*
X390684Y193374D01*
X390520Y192762D01*
X390020Y192828D01*
Y202621D01*
X389942Y203011D01*
X389721Y203342D01*
X379290Y213773D01*
X379481Y214235D01*
X380755D01*
X381145Y214313D01*
X381476Y214534D01*
X390221Y223279D01*
X390442Y223610D01*
X390520Y224000D01*
Y236198D01*
X392437D01*
Y235988D01*
X395012D01*
Y238563D01*
X392437D01*
Y238238D01*
X390086D01*
X389837Y238188D01*
X389581Y238639D01*
X390348Y239406D01*
X392437D01*
Y239138D01*
X395012D01*
Y241713D01*
X392437D01*
Y241445D01*
X389925D01*
X389535Y241367D01*
X389204Y241146D01*
X387279Y239221D01*
X387058Y238890D01*
X386980Y238500D01*
Y225044D01*
X379711Y217775D01*
X377262D01*
X376880Y218157D01*
X376549Y218378D01*
X376158Y218456D01*
X374352D01*
X373961Y218378D01*
X373631Y218157D01*
X372279Y216806D01*
X372058Y216475D01*
X371980Y216085D01*
Y211490D01*
X372056Y211113D01*
X371940Y210834D01*
Y210166D01*
X372196Y209548D01*
X372472Y209272D01*
X372265Y208772D01*
X370169D01*
Y205670D01*
X369623Y205124D01*
X369513Y205135D01*
X368927Y205721D01*
X368597Y205942D01*
X368206Y206020D01*
X366331D01*
Y207272D01*
X362575D01*
Y202772D01*
X362575Y202728D01*
Y202272D01*
X362575Y202228D01*
Y197728D01*
X363000D01*
X363075Y197548D01*
X363548Y197075D01*
X364166Y196819D01*
X364834D01*
X365452Y197075D01*
X365925Y197548D01*
X366000Y197728D01*
X366331D01*
Y197913D01*
X366831Y198040D01*
X367094Y197776D01*
X367094Y197114D01*
X367000Y197020D01*
X366610Y196942D01*
X366279Y196721D01*
X365578Y196020D01*
X354892D01*
X354181Y196730D01*
Y197334D01*
X353925Y197952D01*
X353452Y198425D01*
X352834Y198681D01*
X352166D01*
X351548Y198425D01*
X351075Y197952D01*
X350819Y197334D01*
Y196666D01*
X351075Y196048D01*
X351548Y195575D01*
X352166Y195319D01*
X352709D01*
X353233Y194794D01*
X353042Y194333D01*
X348272D01*
Y194925D01*
X347020D01*
Y195000D01*
X346942Y195390D01*
X346721Y195721D01*
X345867Y196575D01*
X346074Y197075D01*
X348272D01*
Y200831D01*
X346775D01*
Y202154D01*
X346697Y202544D01*
X346476Y202874D01*
X345890Y203460D01*
X345560Y203681D01*
X345169Y203759D01*
X345005D01*
X344925Y203952D01*
X344452Y204425D01*
X343834Y204681D01*
X343166D01*
X342548Y204425D01*
X342075Y203952D01*
X342011Y203798D01*
X341930D01*
X341540Y203720D01*
X341209Y203500D01*
X340623Y202914D01*
X340402Y202583D01*
X340324Y202193D01*
Y200831D01*
X339228D01*
X339020Y201244D01*
Y205751D01*
X339075Y206228D01*
X342831D01*
Y207025D01*
X342952Y207075D01*
X343358Y207480D01*
X345493D01*
X345883Y207558D01*
X346214Y207779D01*
X346800Y208365D01*
X347021Y208696D01*
X347098Y209086D01*
Y210079D01*
X348744D01*
Y210740D01*
X349691D01*
X350081Y210818D01*
X350412Y211039D01*
X350997Y211625D01*
X351218Y211955D01*
X351296Y212346D01*
Y221791D01*
X351418Y221953D01*
X351757Y222172D01*
X352023Y222096D01*
X352060Y222067D01*
X352200Y221858D01*
X353256Y220802D01*
Y217643D01*
X353227Y217497D01*
X353063Y217139D01*
X352548Y216925D01*
X352075Y216452D01*
X351819Y215834D01*
Y215166D01*
X352075Y214548D01*
X352548Y214075D01*
X353063Y213861D01*
X353227Y213504D01*
X353256Y213357D01*
Y210079D01*
X358587D01*
Y212228D01*
X358728Y212669D01*
X359087Y212669D01*
X361000D01*
Y215047D01*
Y217425D01*
X359031D01*
X358696Y217526D01*
X358587Y217866D01*
Y220402D01*
X359228D01*
Y219075D01*
X363772D01*
Y222412D01*
X363772Y222722D01*
X364053Y223000D01*
X364053D01*
X364053Y223000D01*
X364508Y223033D01*
Y228130D01*
X365008D01*
Y228630D01*
X368002D01*
Y230295D01*
X367900Y231070D01*
X367690Y231578D01*
X367898Y232064D01*
X367971Y232131D01*
X368112Y232154D01*
X369500Y230766D01*
Y230003D01*
X369881Y229084D01*
X370584Y228381D01*
X371503Y228000D01*
X372497D01*
X373416Y228381D01*
X374119Y229084D01*
X374500Y230003D01*
Y230997D01*
X374119Y231916D01*
X373416Y232619D01*
X372497Y233000D01*
X371592D01*
X369510Y235081D01*
X369014Y235413D01*
X368429Y235529D01*
X360056D01*
X359471Y235413D01*
X358974Y235081D01*
X358933Y235020D01*
X344500D01*
X344110Y234942D01*
X343779Y234721D01*
X338902Y229843D01*
X338402Y230051D01*
Y230452D01*
X338131Y231106D01*
X337630Y231607D01*
X336976Y231878D01*
X336268D01*
X335614Y231607D01*
X335113Y231106D01*
X334842Y230452D01*
Y229745D01*
X334925Y229546D01*
X334647Y229130D01*
X333986D01*
Y230295D01*
X333884Y231070D01*
X333585Y231792D01*
X333109Y232412D01*
X332489Y232888D01*
X331767Y233187D01*
X331492Y233224D01*
Y228130D01*
X330492D01*
Y233224D01*
X330217Y233187D01*
X329495Y232888D01*
X329219Y232676D01*
X328719Y232923D01*
Y234301D01*
X328641Y234691D01*
X328420Y235022D01*
X325721Y237721D01*
X325390Y237942D01*
X325000Y238020D01*
X315220D01*
Y240374D01*
X310720D01*
X310677Y240374D01*
X310221D01*
X310177Y240374D01*
X305720D01*
X305677Y240374D01*
X305221D01*
X305177Y240374D01*
X304020D01*
Y246142D01*
X304425Y246548D01*
X304681Y247166D01*
Y247834D01*
X304425Y248452D01*
X303952Y248925D01*
X303334Y249181D01*
X302666D01*
X302048Y248925D01*
X301575Y248452D01*
X301319Y247834D01*
Y247166D01*
X301575Y246548D01*
X301980Y246142D01*
Y240374D01*
X300721D01*
X300677Y240374D01*
X300220D01*
X300177Y240374D01*
X299020D01*
Y246914D01*
X298942Y247304D01*
X298721Y247635D01*
X298135Y248221D01*
X297804Y248442D01*
X297414Y248520D01*
X251515D01*
X251125Y248442D01*
X250794Y248221D01*
X249601Y247028D01*
X249311Y247141D01*
X249139Y247273D01*
Y247877D01*
X248883Y248495D01*
X248410Y248967D01*
X247792Y249223D01*
X247123D01*
X246505Y248967D01*
X246264Y248726D01*
X245936Y248547D01*
X245610Y248726D01*
X245368Y248969D01*
X244750Y249224D01*
X244081D01*
X243463Y248969D01*
X242990Y248496D01*
X242734Y247878D01*
Y247209D01*
X242990Y246591D01*
X243396Y246185D01*
Y245338D01*
X242078Y244020D01*
X240728D01*
Y245988D01*
X236728D01*
Y247988D01*
D01*
Y245988D01*
X232728D01*
Y244528D01*
X232596Y244518D01*
X232228Y244857D01*
Y251488D01*
D02*
G37*
G36*
X379500Y245331D02*
X377228D01*
Y243256D01*
X379500D01*
Y245331D01*
D02*
G37*
G36*
X608425Y244575D02*
X606350D01*
Y242500D01*
X608425D01*
Y244575D01*
D02*
G37*
G36*
X590425D02*
X588350D01*
Y242500D01*
X590425D01*
Y244575D01*
D02*
G37*
G36*
X572425D02*
X570350D01*
Y242500D01*
X572425D01*
Y244575D01*
D02*
G37*
G36*
X554425D02*
X552350D01*
Y242500D01*
X554425D01*
Y244575D01*
D02*
G37*
G36*
X536425D02*
X534350D01*
Y242500D01*
X536425D01*
Y244575D01*
D02*
G37*
G36*
X518425D02*
X516350D01*
Y242500D01*
X518425D01*
Y244575D01*
D02*
G37*
G36*
X500425D02*
X498350D01*
Y242500D01*
X500425D01*
Y244575D01*
D02*
G37*
G36*
X605350D02*
X603276D01*
Y242500D01*
X605350D01*
Y244575D01*
D02*
G37*
G36*
X587350D02*
X585276D01*
Y242500D01*
X587350D01*
Y244575D01*
D02*
G37*
G36*
X569350D02*
X567276D01*
Y242500D01*
X569350D01*
Y244575D01*
D02*
G37*
G36*
X551350D02*
X549276D01*
Y242500D01*
X551350D01*
Y244575D01*
D02*
G37*
G36*
X533350D02*
X531276D01*
Y242500D01*
X533350D01*
Y244575D01*
D02*
G37*
G36*
X515350D02*
X513276D01*
Y242500D01*
X515350D01*
Y244575D01*
D02*
G37*
G36*
X497350D02*
X495276D01*
Y242500D01*
X497350D01*
Y244575D01*
D02*
G37*
G36*
X385563Y248012D02*
X382988D01*
Y245437D01*
X382519Y245362D01*
X382488D01*
Y245331D01*
X380500D01*
Y242756D01*
Y240181D01*
X382772D01*
X382988Y239771D01*
Y239138D01*
X383256D01*
Y238563D01*
X382988D01*
Y238264D01*
X382272D01*
Y239319D01*
X377728D01*
Y235169D01*
X382272D01*
Y236225D01*
X382988D01*
Y235988D01*
X385563D01*
Y238563D01*
X385295D01*
Y239138D01*
X385563D01*
Y240271D01*
X387512Y242220D01*
X387903D01*
X388048Y242075D01*
X388666Y241819D01*
X389334D01*
X389952Y242075D01*
X390395Y242518D01*
X392437D01*
Y242287D01*
X395012D01*
X395012Y244862D01*
X395481Y244937D01*
X395512D01*
Y246224D01*
X391937D01*
Y245057D01*
X391937Y244937D01*
X391647Y244557D01*
X390320D01*
X389952Y244925D01*
X389334Y245181D01*
X388666D01*
X388048Y244925D01*
X387903Y244780D01*
X387662D01*
X385563Y246879D01*
Y248012D01*
D02*
G37*
G36*
X379500Y242256D02*
X377228D01*
Y240181D01*
X379500D01*
Y242256D01*
D02*
G37*
G36*
X368002Y244087D02*
X365508D01*
Y240084D01*
X365783Y240120D01*
X366505Y240419D01*
X367125Y240895D01*
X367601Y241515D01*
X367900Y242237D01*
X368002Y243012D01*
Y244087D01*
D02*
G37*
G36*
X330492D02*
X327998D01*
Y243012D01*
X328100Y242237D01*
X328399Y241515D01*
X328875Y240895D01*
X329495Y240419D01*
X330217Y240120D01*
X330492Y240084D01*
Y244087D01*
D02*
G37*
G36*
X333986D02*
X331492D01*
Y240084D01*
X331767Y240120D01*
X332489Y240419D01*
X333109Y240895D01*
X333585Y241515D01*
X333884Y242237D01*
X333986Y243012D01*
Y244087D01*
D02*
G37*
G36*
X364508D02*
X362014D01*
Y243012D01*
X362116Y242237D01*
X362415Y241515D01*
X362891Y240895D01*
X363511Y240419D01*
X364233Y240120D01*
X364508Y240084D01*
Y244087D01*
D02*
G37*
G36*
X128831Y248772D02*
X125075D01*
Y244228D01*
X125075D01*
X125075Y243772D01*
X125075D01*
Y239228D01*
X128831D01*
Y243772D01*
X128831D01*
X128831Y244228D01*
X128831D01*
Y244971D01*
X130569D01*
X131161Y244379D01*
X131047Y243955D01*
Y243045D01*
X131282Y242167D01*
X131737Y241380D01*
X132380Y240737D01*
X133167Y240283D01*
X134045Y240047D01*
X134955D01*
X135833Y240283D01*
X136620Y240737D01*
X137263Y241380D01*
X137717Y242167D01*
X137953Y243045D01*
Y243955D01*
X137717Y244833D01*
X137263Y245620D01*
X136620Y246263D01*
X135833Y246718D01*
X134955Y246953D01*
X134045D01*
X133167Y246718D01*
X133155Y246710D01*
X132284Y247581D01*
X131788Y247913D01*
X131203Y248029D01*
X128831D01*
Y248772D01*
D02*
G37*
G36*
X614224Y244075D02*
X610075D01*
Y239925D01*
X614224D01*
Y240528D01*
X615728D01*
Y239669D01*
X620272D01*
Y243425D01*
X615728D01*
Y242567D01*
X614224D01*
Y244075D01*
D02*
G37*
G36*
X596224D02*
X592075D01*
Y239925D01*
X596224D01*
Y240528D01*
X597728D01*
Y239669D01*
X602272D01*
Y243425D01*
X597728D01*
Y242567D01*
X596224D01*
Y244075D01*
D02*
G37*
G36*
X578224D02*
X574075D01*
Y239925D01*
X578224D01*
Y240528D01*
X579728D01*
Y239669D01*
X584272D01*
Y243425D01*
X579728D01*
Y242567D01*
X578224D01*
Y244075D01*
D02*
G37*
G36*
X560224D02*
X556075D01*
Y239925D01*
X560224D01*
Y240528D01*
X561728D01*
Y239669D01*
X566272D01*
Y243425D01*
X561728D01*
Y242567D01*
X560224D01*
Y244075D01*
D02*
G37*
G36*
X542224D02*
X538075D01*
Y239925D01*
X542224D01*
Y240528D01*
X543728D01*
Y239669D01*
X548272D01*
Y243425D01*
X543728D01*
Y242567D01*
X542224D01*
Y244075D01*
D02*
G37*
G36*
X524224D02*
X520075D01*
Y239925D01*
X524224D01*
Y240528D01*
X525728D01*
Y239669D01*
X530272D01*
Y243425D01*
X525728D01*
Y242567D01*
X524224D01*
Y244075D01*
D02*
G37*
G36*
X506224D02*
X502075D01*
Y239925D01*
X506224D01*
Y240528D01*
X507728D01*
Y239669D01*
X512272D01*
Y243425D01*
X507728D01*
Y242567D01*
X506224D01*
Y244075D01*
D02*
G37*
G36*
X608425Y241500D02*
X606350D01*
Y239425D01*
X608425D01*
Y241500D01*
D02*
G37*
G36*
X605350D02*
X603276D01*
Y239425D01*
X605350D01*
Y241500D01*
D02*
G37*
G36*
X590425D02*
X588350D01*
Y239425D01*
X590425D01*
Y241500D01*
D02*
G37*
G36*
X587350D02*
X585276D01*
Y239425D01*
X587350D01*
Y241500D01*
D02*
G37*
G36*
X572425D02*
X570350D01*
Y239425D01*
X572425D01*
Y241500D01*
D02*
G37*
G36*
X569350D02*
X567276D01*
Y239425D01*
X569350D01*
Y241500D01*
D02*
G37*
G36*
X554425D02*
X552350D01*
Y239425D01*
X554425D01*
Y241500D01*
D02*
G37*
G36*
X551350D02*
X549276D01*
Y239425D01*
X551350D01*
Y241500D01*
D02*
G37*
G36*
X536425D02*
X534350D01*
Y239425D01*
X536425D01*
Y241500D01*
D02*
G37*
G36*
X533350D02*
X531276D01*
Y239425D01*
X533350D01*
Y241500D01*
D02*
G37*
G36*
X518425D02*
X516350D01*
Y239425D01*
X518425D01*
Y241500D01*
D02*
G37*
G36*
X515350D02*
X513276D01*
Y239425D01*
X515350D01*
Y241500D01*
D02*
G37*
G36*
X500425D02*
X498350D01*
Y239425D01*
X500425D01*
Y241500D01*
D02*
G37*
G36*
X497350D02*
X495276D01*
Y239425D01*
X497350D01*
Y241500D01*
D02*
G37*
G36*
X371772Y244225D02*
X370778D01*
X369859Y243844D01*
X369156Y243141D01*
X368775Y242222D01*
Y241228D01*
X369156Y240309D01*
X369859Y239605D01*
X370778Y239225D01*
X371772D01*
X372691Y239605D01*
X373394Y240309D01*
X373775Y241228D01*
Y242222D01*
X373394Y243141D01*
X372691Y243844D01*
X371772Y244225D01*
D02*
G37*
G36*
X118997Y249000D02*
X118003D01*
X117084Y248619D01*
X116381Y247916D01*
X116000Y246997D01*
Y246003D01*
X116381Y245084D01*
X117084Y244381D01*
X117399Y244250D01*
Y243750D01*
X117084Y243619D01*
X116381Y242916D01*
X116000Y241997D01*
Y241003D01*
X116381Y240084D01*
X117084Y239381D01*
X118003Y239000D01*
X118997D01*
X119549Y239228D01*
X122925D01*
Y243772D01*
X122925D01*
X122925Y244228D01*
X122925D01*
Y248772D01*
X119549D01*
X118997Y249000D01*
D02*
G37*
G36*
X458425Y239772D02*
X456547D01*
Y237500D01*
X458425D01*
Y239772D01*
D02*
G37*
G36*
X415425D02*
X413547D01*
Y237500D01*
X415425D01*
Y239772D01*
D02*
G37*
G36*
X455547D02*
X453669D01*
Y237500D01*
X455547D01*
Y239772D01*
D02*
G37*
G36*
X412547D02*
X410669D01*
Y237500D01*
X412547D01*
Y239772D01*
D02*
G37*
G36*
X436878Y239772D02*
X435000D01*
Y237500D01*
X436878D01*
Y239772D01*
D02*
G37*
G36*
X458997Y249500D02*
X458003D01*
X457084Y249119D01*
X456381Y248416D01*
X456000Y247497D01*
Y246583D01*
X455990Y246559D01*
Y245151D01*
X453972D01*
X453873Y245110D01*
X453472D01*
Y244710D01*
X453431Y244610D01*
Y243390D01*
X453472Y243290D01*
Y242890D01*
X453873D01*
X453972Y242849D01*
X455990D01*
Y241441D01*
X456149Y241058D01*
X456531Y240900D01*
X460468D01*
X460514Y240869D01*
Y239272D01*
X460075D01*
Y236047D01*
X459967Y236002D01*
X459263Y235299D01*
X458981Y234616D01*
X458925Y234483D01*
X458425Y234582D01*
X458425Y234711D01*
X458425Y234728D01*
Y236500D01*
X456547D01*
Y234228D01*
X458383D01*
X458425Y234228D01*
X458883Y234126D01*
X458883Y234003D01*
Y233385D01*
X459263Y232467D01*
X459967Y231763D01*
X460885Y231383D01*
X461880D01*
X462172Y231504D01*
X462572Y231237D01*
X463157Y231120D01*
X466047D01*
Y230083D01*
X467971D01*
Y229000D01*
X468087Y228415D01*
X468419Y227919D01*
X470471Y225867D01*
Y223978D01*
X469441D01*
X469058Y223820D01*
X468900Y223437D01*
Y219529D01*
X467772D01*
Y219894D01*
X463228D01*
Y219894D01*
X463067Y219848D01*
X462571Y220216D01*
Y221109D01*
X462728Y221543D01*
X463071Y221543D01*
X465000D01*
Y223921D01*
Y226299D01*
X462728D01*
Y226253D01*
X462228Y226153D01*
X462119Y226416D01*
X461416Y227119D01*
X460743Y227398D01*
X460699Y227464D01*
X454585Y233577D01*
X454360Y233728D01*
X454511Y234228D01*
X455547D01*
Y236500D01*
X453669D01*
Y234502D01*
X453555Y234173D01*
X453253Y234026D01*
X451453D01*
Y235063D01*
X444547D01*
Y234029D01*
X442633D01*
X442313Y234350D01*
Y236622D01*
X442283Y236770D01*
Y239272D01*
X442073D01*
Y242032D01*
X442028Y242258D01*
Y243142D01*
X441582D01*
X441129Y243444D01*
X440543Y243561D01*
X440010Y243455D01*
X439867Y243484D01*
X439510Y243675D01*
Y244325D01*
X439867Y244516D01*
X440010Y244545D01*
X440543Y244439D01*
X443423D01*
X443844Y244158D01*
X444429Y244041D01*
X444547D01*
Y236622D01*
X451453D01*
Y247071D01*
X446195D01*
X446047Y247100D01*
X445038D01*
X444617Y247381D01*
X444031Y247498D01*
X440543D01*
X439958Y247381D01*
X439885Y247332D01*
X439273Y247525D01*
X439042Y248082D01*
X438339Y248785D01*
X437420Y249166D01*
X436425D01*
X435506Y248785D01*
X434803Y248082D01*
X434423Y247163D01*
Y246169D01*
X434490Y246006D01*
Y245151D01*
X432472D01*
X432373Y245110D01*
X431972D01*
Y244710D01*
X431931Y244610D01*
Y243390D01*
X431972Y243290D01*
Y242890D01*
X432373D01*
X432472Y242849D01*
X434490D01*
Y241441D01*
X434649Y241058D01*
X435032Y240900D01*
X438969D01*
X439014Y240869D01*
Y239272D01*
X438527D01*
Y234728D01*
X439254D01*
Y233717D01*
X439370Y233131D01*
X439702Y232635D01*
X440919Y231419D01*
X441123Y231282D01*
X440886Y230839D01*
X440497Y231000D01*
X439503D01*
X438584Y230619D01*
X437881Y229916D01*
X437500Y228997D01*
Y228003D01*
X437881Y227084D01*
X438584Y226381D01*
X439503Y226000D01*
X440497D01*
X441416Y226381D01*
X442119Y227084D01*
X442500Y228003D01*
Y228997D01*
X442119Y229916D01*
X441469Y230566D01*
X441516Y230801D01*
X441648Y231041D01*
X442000Y230971D01*
X444547D01*
Y229929D01*
X451453D01*
Y230967D01*
X452870D01*
X457746Y226091D01*
X457500Y225497D01*
Y224503D01*
X457625Y224202D01*
X457437Y223921D01*
X457437D01*
Y218273D01*
X456975Y218081D01*
X455878Y219179D01*
Y223921D01*
X445429D01*
Y217016D01*
X453715D01*
X457312Y213419D01*
X457808Y213087D01*
X458394Y212971D01*
X462728D01*
Y211886D01*
X462567Y211453D01*
X457433D01*
Y204547D01*
X460000D01*
Y204503D01*
X460381Y203584D01*
X461084Y202881D01*
X462003Y202500D01*
X462997D01*
X463916Y202881D01*
X464205Y203169D01*
X467772D01*
Y203427D01*
X470031D01*
X470258Y203472D01*
X471142D01*
Y203918D01*
X471445Y204371D01*
X471561Y204957D01*
X471455Y205490D01*
X471484Y205633D01*
X471675Y205990D01*
X472325D01*
X472516Y205633D01*
X472545Y205490D01*
X472439Y204957D01*
Y201532D01*
X472539Y201029D01*
X472283Y200529D01*
X454134D01*
X452179Y202484D01*
Y204547D01*
X455874D01*
Y211453D01*
X445425D01*
Y204547D01*
X449120D01*
Y201850D01*
X449237Y201265D01*
X449568Y200769D01*
X451198Y199139D01*
X450629Y198571D01*
X450408Y198241D01*
X450331Y197850D01*
Y193575D01*
X449276D01*
Y189425D01*
X453425D01*
Y193575D01*
X452370D01*
Y197379D01*
X452762Y197689D01*
X452915Y197587D01*
X453500Y197471D01*
X475867D01*
X478471Y194867D01*
Y173634D01*
X476238Y171401D01*
X475772Y171319D01*
Y171319D01*
X471228D01*
Y171313D01*
X470766Y171122D01*
X469822Y172067D01*
X469572Y172441D01*
X469030Y172802D01*
X468391Y172930D01*
X465398D01*
X464759Y172802D01*
X464217Y172441D01*
X463855Y171899D01*
X463728Y171260D01*
X463855Y170621D01*
X464217Y170079D01*
X464759Y169717D01*
X465398Y169590D01*
X467973D01*
X469644Y167919D01*
X470140Y167587D01*
X470726Y167471D01*
X471228D01*
Y167169D01*
X471628D01*
Y164134D01*
X469815D01*
Y154866D01*
X475815D01*
Y164134D01*
X474687D01*
Y167169D01*
X475772D01*
Y167971D01*
X476500D01*
X477085Y168087D01*
X477581Y168419D01*
X481081Y171919D01*
X481413Y172415D01*
X481529Y173000D01*
Y195500D01*
X481413Y196085D01*
X481081Y196581D01*
X477581Y200081D01*
X475498Y202165D01*
Y204957D01*
X475382Y205542D01*
X475107Y205953D01*
X475079Y206441D01*
D01*
X475093Y206501D01*
X475100Y206532D01*
X475100Y206920D01*
Y210469D01*
X474942Y210851D01*
X474688Y210956D01*
X474497Y211472D01*
X475050Y212025D01*
X475382Y212521D01*
X475498Y213106D01*
Y216457D01*
X475382Y217042D01*
X475079Y217495D01*
Y219409D01*
X475079D01*
X475069Y219424D01*
X475100Y219500D01*
Y219971D01*
X480866D01*
X481415Y219422D01*
X490396Y210441D01*
Y197225D01*
X490319Y197205D01*
X489370Y196657D01*
X488595Y195882D01*
X488047Y194933D01*
X487764Y193875D01*
Y192779D01*
X488047Y191720D01*
X488595Y190772D01*
X489370Y189997D01*
X490319Y189449D01*
X491377Y189165D01*
X492473D01*
X493531Y189449D01*
X494480Y189997D01*
X495255Y190772D01*
X495803Y191720D01*
X496087Y192779D01*
Y193875D01*
X495803Y194933D01*
X495255Y195882D01*
X494480Y196657D01*
X493531Y197205D01*
X493455Y197225D01*
Y211075D01*
X493338Y211660D01*
X493007Y212156D01*
X483578Y221585D01*
X483578Y221585D01*
X482582Y222581D01*
X482085Y222913D01*
X481500Y223029D01*
X475100D01*
Y223437D01*
X474942Y223820D01*
X474559Y223978D01*
X473529D01*
Y226500D01*
X473413Y227085D01*
X473081Y227581D01*
X471080Y229583D01*
X471152Y230083D01*
X472953D01*
Y235216D01*
X466047D01*
Y234179D01*
X463883D01*
Y234380D01*
X463774Y234643D01*
X463831Y234728D01*
X463831D01*
Y239272D01*
X463573D01*
Y242032D01*
X463528Y242258D01*
Y243142D01*
X463082D01*
X462629Y243444D01*
X462043Y243561D01*
X461510Y243455D01*
X461367Y243484D01*
X461010Y243675D01*
Y244325D01*
X461367Y244516D01*
X461510Y244545D01*
X462043Y244439D01*
X464999D01*
X465190Y244311D01*
X465776Y244195D01*
X466047D01*
Y236776D01*
X472953D01*
Y242621D01*
X473839Y242988D01*
X474542Y243691D01*
X474923Y244610D01*
Y245604D01*
X474542Y246523D01*
X473839Y247226D01*
X472920Y247607D01*
X471925D01*
X471006Y247226D01*
X471005Y247224D01*
X467695D01*
X467547Y247254D01*
X466308D01*
X466117Y247381D01*
X465531Y247498D01*
X462043D01*
X461500Y247390D01*
X461424Y247398D01*
X460942Y247638D01*
X460619Y248416D01*
X459916Y249119D01*
X458997Y249500D01*
D02*
G37*
G36*
X415425Y236500D02*
X413547D01*
Y234228D01*
X415425D01*
Y236500D01*
D02*
G37*
G36*
X412547D02*
X410669D01*
Y234228D01*
X412547D01*
Y236500D01*
D02*
G37*
G36*
X436878Y236500D02*
X435000D01*
Y234228D01*
X436878D01*
Y236500D01*
D02*
G37*
G36*
X135020Y237453D02*
X135000D01*
Y234000D01*
X138453D01*
Y234020D01*
X138183Y235026D01*
X137663Y235927D01*
X136927Y236663D01*
X136026Y237183D01*
X135020Y237453D01*
D02*
G37*
G36*
X134000D02*
X133980D01*
X132974Y237183D01*
X132073Y236663D01*
X131337Y235927D01*
X130817Y235026D01*
X130547Y234020D01*
Y234000D01*
X134000D01*
Y237453D01*
D02*
G37*
G36*
X155272Y231925D02*
Y231925D01*
X150772D01*
X150728Y231925D01*
X150272D01*
X150228Y231925D01*
X145728D01*
Y231925D01*
X145272D01*
Y231925D01*
X140728D01*
Y228169D01*
X141980D01*
Y227500D01*
X142058Y227110D01*
X142279Y226779D01*
X145980Y223078D01*
Y222323D01*
X145744Y221921D01*
X144098D01*
Y222914D01*
X144021Y223304D01*
X143800Y223635D01*
X143214Y224221D01*
X142883Y224442D01*
X142493Y224520D01*
X137953D01*
Y226953D01*
X131047D01*
Y220047D01*
X137457D01*
X137664Y219547D01*
X137110Y218993D01*
X136962Y218772D01*
X135075D01*
Y214228D01*
X135075D01*
X134970Y213772D01*
X134181D01*
Y211500D01*
X136756D01*
Y211000D01*
X137256D01*
Y208228D01*
X138133D01*
X138324Y207766D01*
X132779Y202221D01*
X132558Y201890D01*
X132480Y201500D01*
Y193000D01*
X132558Y192610D01*
X132779Y192279D01*
X137279Y187779D01*
X137610Y187558D01*
X138000Y187480D01*
X146500D01*
X146890Y187558D01*
X147221Y187779D01*
X147894Y188452D01*
X148115Y188783D01*
X148193Y189173D01*
Y189351D01*
X148546Y189705D01*
X149248Y189705D01*
X149748Y189705D01*
X153260D01*
X153579Y189705D01*
X154034Y189705D01*
X154337Y189402D01*
X154337Y188872D01*
X153881Y188416D01*
X153500Y187497D01*
Y186503D01*
X153881Y185584D01*
X154584Y184881D01*
X155503Y184500D01*
X156497D01*
X157416Y184881D01*
X158119Y185584D01*
X158500Y186503D01*
Y187497D01*
X158119Y188416D01*
X157615Y188921D01*
Y189519D01*
X157800Y189705D01*
X158410Y189705D01*
X161921D01*
Y189205D01*
X163996D01*
Y193748D01*
Y198291D01*
X162115D01*
Y202905D01*
X162038Y203295D01*
X161817Y203625D01*
X158742Y206700D01*
X158934Y207161D01*
X163107D01*
X163497Y207239D01*
X163828Y207460D01*
X167221Y210853D01*
X167442Y211184D01*
X167520Y211574D01*
Y212885D01*
X167982Y213076D01*
X168779Y212279D01*
X169110Y212058D01*
X169500Y211980D01*
X169756D01*
Y211079D01*
X175087D01*
X175480Y210822D01*
Y205819D01*
X175339Y205378D01*
X171295D01*
Y201622D01*
X170795D01*
Y201122D01*
X166252D01*
Y198291D01*
X164996D01*
Y193748D01*
Y189205D01*
X167071D01*
Y189705D01*
X167807D01*
Y189173D01*
X167857Y188925D01*
X167819Y188834D01*
Y188166D01*
X168075Y187548D01*
X168548Y187075D01*
X169166Y186819D01*
X169834D01*
X170452Y187075D01*
X170858Y187480D01*
X175914D01*
X176304Y187558D01*
X176635Y187779D01*
X177221Y188365D01*
X177442Y188696D01*
X177520Y189086D01*
Y212414D01*
X177442Y212804D01*
X177221Y213135D01*
X176635Y213721D01*
X176304Y213942D01*
X175959Y214011D01*
X175587Y214319D01*
Y216000D01*
X172421D01*
Y217000D01*
X175587D01*
Y218681D01*
X175087D01*
Y221921D01*
X174020D01*
Y228169D01*
X175272D01*
Y231925D01*
X170728D01*
Y231925D01*
X170272D01*
Y231925D01*
X165728D01*
Y231925D01*
X165272D01*
Y231925D01*
X160728D01*
Y231925D01*
X160272D01*
Y231925D01*
X155728D01*
Y231925D01*
X155272D01*
D02*
G37*
G36*
X412272Y232331D02*
X410000D01*
Y230256D01*
X412272D01*
Y232331D01*
D02*
G37*
G36*
X409000D02*
X406728D01*
Y230256D01*
X409000D01*
Y232331D01*
D02*
G37*
G36*
X138453Y233000D02*
X135000D01*
Y229547D01*
X135020D01*
X136026Y229817D01*
X136927Y230337D01*
X137663Y231073D01*
X138183Y231974D01*
X138453Y232980D01*
Y233000D01*
D02*
G37*
G36*
X134000D02*
X130547D01*
Y232980D01*
X130817Y231974D01*
X131337Y231073D01*
X132073Y230337D01*
X132974Y229817D01*
X133980Y229547D01*
X134000D01*
Y233000D01*
D02*
G37*
G36*
X412272Y229256D02*
X410000D01*
Y227181D01*
X412272D01*
Y229256D01*
D02*
G37*
G36*
X409000D02*
X406728D01*
Y227181D01*
X409000D01*
Y229256D01*
D02*
G37*
G36*
X492539Y229484D02*
X492425D01*
Y225323D01*
X496587D01*
Y225436D01*
X496269Y226622D01*
X495655Y227685D01*
X494787Y228553D01*
X493724Y229167D01*
X492539Y229484D01*
D02*
G37*
G36*
X491425D02*
X491312D01*
X490126Y229167D01*
X489063Y228553D01*
X488195Y227685D01*
X487581Y226622D01*
X487264Y225436D01*
Y225323D01*
X491425D01*
Y229484D01*
D02*
G37*
G36*
X468272Y226299D02*
X466000D01*
Y224421D01*
X468272D01*
Y226299D01*
D02*
G37*
G36*
X368002Y227630D02*
X365508D01*
Y223036D01*
X365783Y223073D01*
X366505Y223372D01*
X367125Y223847D01*
X367601Y224467D01*
X367900Y225190D01*
X368002Y225965D01*
Y227630D01*
D02*
G37*
G36*
X276334Y225181D02*
X275666D01*
X275048Y224925D01*
X274575Y224452D01*
X274319Y223834D01*
Y223166D01*
X274575Y222548D01*
X275048Y222075D01*
X275666Y221819D01*
X276334D01*
X276952Y222075D01*
X277425Y222548D01*
X277681Y223166D01*
Y223834D01*
X277425Y224452D01*
X276952Y224925D01*
X276334Y225181D01*
D02*
G37*
G36*
X468272Y223421D02*
X466000D01*
Y221543D01*
X468272D01*
Y223421D01*
D02*
G37*
G36*
X496587Y224323D02*
X492425D01*
Y220161D01*
X492539D01*
X493724Y220479D01*
X494787Y221093D01*
X495655Y221961D01*
X496269Y223024D01*
X496587Y224209D01*
Y224323D01*
D02*
G37*
G36*
X491425D02*
X487264D01*
Y224209D01*
X487581Y223024D01*
X488195Y221961D01*
X489063Y221093D01*
X490126Y220479D01*
X491312Y220161D01*
X491425D01*
Y224323D01*
D02*
G37*
G36*
X364272Y217425D02*
X362000D01*
Y215547D01*
X364272D01*
Y217425D01*
D02*
G37*
G36*
X130169Y218791D02*
X123272D01*
X122881Y218714D01*
X122551Y218493D01*
X118223Y214165D01*
X115276D01*
Y216598D01*
X110732D01*
Y209693D01*
X115276D01*
Y212126D01*
X118646D01*
X119036Y212204D01*
X119367Y212425D01*
X123224Y216283D01*
X123724Y216075D01*
Y209693D01*
X125768D01*
Y209196D01*
X126148Y208277D01*
X126852Y207574D01*
X127770Y207193D01*
X128765D01*
X129684Y207574D01*
X130387Y208277D01*
X130574Y208728D01*
X133319D01*
Y213272D01*
X129169D01*
Y212463D01*
X128765Y212193D01*
X128268D01*
X128268Y216598D01*
X128704Y216752D01*
X129169D01*
Y214228D01*
X132925D01*
Y218772D01*
X130268D01*
X130169Y218791D01*
D02*
G37*
G36*
X271497Y219000D02*
X270503D01*
X269584Y218619D01*
X268881Y217916D01*
X268500Y216997D01*
Y216003D01*
X268881Y215084D01*
X269584Y214381D01*
X270503Y214000D01*
X271497D01*
X272416Y214381D01*
X273119Y215084D01*
X273500Y216003D01*
Y216997D01*
X273119Y217916D01*
X272416Y218619D01*
X271497Y219000D01*
D02*
G37*
G36*
X364272Y214547D02*
X362000D01*
Y212669D01*
X364272D01*
Y214547D01*
D02*
G37*
G36*
X397059Y218681D02*
X390941D01*
Y212563D01*
X397059D01*
Y218681D01*
D02*
G37*
G36*
X136256Y210500D02*
X134181D01*
Y208228D01*
X136256D01*
Y210500D01*
D02*
G37*
G36*
X546091Y210769D02*
X545109D01*
X544202Y210393D01*
X543507Y209698D01*
X543131Y208791D01*
Y207809D01*
X543507Y206902D01*
X544202Y206207D01*
X545109Y205832D01*
X546091D01*
X546998Y206207D01*
X547693Y206902D01*
X548069Y207809D01*
Y208791D01*
X547693Y209698D01*
X546998Y210393D01*
X546091Y210769D01*
D02*
G37*
G36*
X516659Y211261D02*
X515879D01*
X515127Y211059D01*
X514451Y210669D01*
X513900Y210118D01*
X513510Y209443D01*
X513309Y208690D01*
Y207910D01*
X513510Y207157D01*
X513900Y206482D01*
X514451Y205931D01*
X515127Y205541D01*
X515879Y205339D01*
X516659D01*
X517412Y205541D01*
X518087Y205931D01*
X518638Y206482D01*
X519028Y207157D01*
X519230Y207910D01*
Y208690D01*
X519028Y209443D01*
X518638Y210118D01*
X518087Y210669D01*
X517412Y211059D01*
X516659Y211261D01*
D02*
G37*
G36*
X503834Y208681D02*
X503166D01*
X502548Y208425D01*
X502075Y207952D01*
X501819Y207334D01*
Y206666D01*
X502075Y206048D01*
X502548Y205575D01*
X503166Y205319D01*
X503834D01*
X504452Y205575D01*
X504925Y206048D01*
X505181Y206666D01*
Y207334D01*
X504925Y207952D01*
X504452Y208425D01*
X503834Y208681D01*
D02*
G37*
G36*
X394403Y210807D02*
X393597D01*
X392819Y210599D01*
X392122Y210196D01*
X391552Y209626D01*
X391149Y208929D01*
X390941Y208151D01*
Y207345D01*
X391149Y206567D01*
X391552Y205870D01*
X392122Y205300D01*
X392819Y204897D01*
X393597Y204689D01*
X394403D01*
X395181Y204897D01*
X395878Y205300D01*
X396448Y205870D01*
X396851Y206567D01*
X397059Y207345D01*
Y208151D01*
X396851Y208929D01*
X396448Y209626D01*
X395878Y210196D01*
X395181Y210599D01*
X394403Y210807D01*
D02*
G37*
G36*
X275497Y209500D02*
X274503D01*
X273584Y209119D01*
X272881Y208416D01*
X272500Y207497D01*
Y206503D01*
X272881Y205584D01*
X273584Y204881D01*
X274503Y204500D01*
X275497D01*
X276416Y204881D01*
X277119Y205584D01*
X277500Y206503D01*
Y207497D01*
X277119Y208416D01*
X276416Y209119D01*
X275497Y209500D01*
D02*
G37*
G36*
X267497D02*
X266503D01*
X265584Y209119D01*
X264881Y208416D01*
X264500Y207497D01*
Y206503D01*
X264881Y205584D01*
X265584Y204881D01*
X266503Y204500D01*
X267497D01*
X268416Y204881D01*
X269119Y205584D01*
X269500Y206503D01*
Y207497D01*
X269119Y208416D01*
X268416Y209119D01*
X267497Y209500D01*
D02*
G37*
G36*
X299638Y205677D02*
X297366D01*
Y203405D01*
X299638D01*
Y205677D01*
D02*
G37*
G36*
X285343D02*
X283071D01*
Y203405D01*
X285343D01*
Y205677D01*
D02*
G37*
G36*
X296366D02*
X291854D01*
Y202906D01*
X290854D01*
Y205677D01*
X286343D01*
Y202906D01*
X285842D01*
Y202406D01*
X283071D01*
Y200134D01*
Y197894D01*
X285842D01*
Y196894D01*
X283071D01*
Y194622D01*
Y192382D01*
X285842D01*
Y191882D01*
X286343D01*
Y189110D01*
X290854D01*
Y191882D01*
X291854D01*
Y189110D01*
X296366D01*
Y191882D01*
X296866D01*
Y192382D01*
X299638D01*
Y194622D01*
Y196894D01*
X296866D01*
Y197894D01*
X299638D01*
Y200134D01*
Y202406D01*
X296866D01*
Y202906D01*
X296366D01*
Y205677D01*
D02*
G37*
G36*
X349997Y207500D02*
X349003D01*
X348084Y207119D01*
X347381Y206416D01*
X347000Y205497D01*
Y204503D01*
X347381Y203584D01*
X348084Y202881D01*
X349003Y202500D01*
X349997D01*
X350916Y202881D01*
X351619Y203584D01*
X352000Y204503D01*
Y205497D01*
X351619Y206416D01*
X350916Y207119D01*
X349997Y207500D01*
D02*
G37*
G36*
X170295Y205378D02*
X166252D01*
Y202122D01*
X170295D01*
Y205378D01*
D02*
G37*
G36*
X360425Y207272D02*
X356669D01*
Y204050D01*
X356367Y203925D01*
X355894Y203452D01*
X355638Y202834D01*
Y202166D01*
X355894Y201548D01*
X356367Y201075D01*
X356669Y200950D01*
Y197728D01*
X360425D01*
Y202272D01*
X360425D01*
Y202728D01*
X360425D01*
Y207272D01*
D02*
G37*
G36*
X394403Y202933D02*
X393597D01*
X392819Y202725D01*
X392122Y202322D01*
X391552Y201752D01*
X391149Y201055D01*
X390941Y200277D01*
Y199471D01*
X391149Y198693D01*
X391552Y197996D01*
X392122Y197426D01*
X392819Y197023D01*
X393597Y196815D01*
X394403D01*
X395181Y197023D01*
X395878Y197426D01*
X396448Y197996D01*
X396851Y198693D01*
X397059Y199471D01*
Y200277D01*
X396851Y201055D01*
X396448Y201752D01*
X395878Y202322D01*
X395181Y202725D01*
X394403Y202933D01*
D02*
G37*
G36*
X115776Y197807D02*
X113504D01*
Y194354D01*
X115776D01*
Y197807D01*
D02*
G37*
G36*
X112504D02*
X110232D01*
Y194354D01*
X112504D01*
Y197807D01*
D02*
G37*
G36*
X466925Y193575D02*
X462776D01*
Y192520D01*
X459724D01*
Y193575D01*
X455575D01*
Y189425D01*
X459724D01*
Y190480D01*
X460230D01*
Y189298D01*
X460308Y188908D01*
X460529Y188577D01*
X461757Y187349D01*
Y186772D01*
X461575D01*
Y182228D01*
X465331D01*
Y186772D01*
X463796D01*
Y187772D01*
X463719Y188162D01*
X463497Y188493D01*
X463065Y188925D01*
X463272Y189425D01*
X466925D01*
Y193575D01*
D02*
G37*
G36*
X394500Y195551D02*
Y192500D01*
X397551D01*
X397317Y193374D01*
X396848Y194185D01*
X396185Y194848D01*
X395374Y195317D01*
X394500Y195551D01*
D02*
G37*
G36*
X473724Y194075D02*
X471650D01*
Y192000D01*
X473724D01*
Y194075D01*
D02*
G37*
G36*
X470650D02*
X468575D01*
Y192000D01*
X470650D01*
Y194075D01*
D02*
G37*
G36*
X112504Y193354D02*
X110232D01*
Y189902D01*
X112504D01*
Y193354D01*
D02*
G37*
G36*
X299638Y191382D02*
X297366D01*
Y189110D01*
X299638D01*
Y191382D01*
D02*
G37*
G36*
X285343D02*
X283071D01*
Y189110D01*
X285343D01*
Y191382D01*
D02*
G37*
G36*
X115776Y193354D02*
X113504D01*
Y189902D01*
X114169D01*
Y189043D01*
X116244D01*
Y191315D01*
X115776D01*
Y193354D01*
D02*
G37*
G36*
X473724Y191000D02*
X471650D01*
Y188925D01*
X473724D01*
Y191000D01*
D02*
G37*
G36*
X470650D02*
X468575D01*
Y188925D01*
X470650D01*
Y191000D01*
D02*
G37*
G36*
X397551Y191500D02*
X394500D01*
Y188449D01*
X395374Y188683D01*
X396185Y189152D01*
X396848Y189815D01*
X397317Y190626D01*
X397551Y191500D01*
D02*
G37*
G36*
X220834Y191181D02*
X220166D01*
X219548Y190925D01*
X219075Y190452D01*
X218819Y189834D01*
Y189166D01*
X219075Y188548D01*
X219548Y188075D01*
X220166Y187819D01*
X220834D01*
X221452Y188075D01*
X221925Y188548D01*
X222181Y189166D01*
Y189834D01*
X221925Y190452D01*
X221452Y190925D01*
X220834Y191181D01*
D02*
G37*
G36*
X476272Y187331D02*
X474000D01*
Y185453D01*
X476272D01*
Y187331D01*
D02*
G37*
G36*
X473000D02*
X470728D01*
Y185453D01*
X473000D01*
Y187331D01*
D02*
G37*
G36*
X476272Y184453D02*
X474000D01*
Y182575D01*
X476272D01*
Y184453D01*
D02*
G37*
G36*
X473000D02*
X470728D01*
Y182575D01*
X473000D01*
Y184453D01*
D02*
G37*
G36*
X433772Y183819D02*
X431500D01*
Y181744D01*
X433772D01*
Y183819D01*
D02*
G37*
G36*
X430500D02*
X428228D01*
Y181804D01*
X427728Y181435D01*
X427375Y181506D01*
X423078D01*
X422410Y181373D01*
X421844Y180994D01*
X421465Y180428D01*
X421333Y179760D01*
X421465Y179092D01*
X421844Y178525D01*
X422410Y178147D01*
X423078Y178014D01*
X427375D01*
X428043Y178147D01*
X428609Y178525D01*
X428705Y178669D01*
X430500D01*
Y181244D01*
Y183819D01*
D02*
G37*
G36*
X475772Y180925D02*
X471228D01*
Y180322D01*
X468832D01*
X468391Y180410D01*
X465398D01*
X464759Y180283D01*
X464217Y179921D01*
X463855Y179379D01*
X463728Y178740D01*
X463855Y178101D01*
X464217Y177559D01*
X464759Y177198D01*
X465398Y177070D01*
X468391D01*
X469030Y177198D01*
X469129Y177263D01*
X470728D01*
Y175256D01*
X476272D01*
Y177331D01*
X475772D01*
Y180925D01*
D02*
G37*
G36*
X433772Y180744D02*
X431500D01*
Y178669D01*
X433772D01*
Y180744D01*
D02*
G37*
G36*
X492520Y181217D02*
X492500D01*
Y177764D01*
X495953D01*
Y177784D01*
X495683Y178789D01*
X495163Y179691D01*
X494427Y180427D01*
X493526Y180947D01*
X492520Y181217D01*
D02*
G37*
G36*
X491500D02*
X491480D01*
X490474Y180947D01*
X489573Y180427D01*
X488837Y179691D01*
X488317Y178789D01*
X488047Y177784D01*
Y177764D01*
X491500D01*
Y181217D01*
D02*
G37*
G36*
X454272Y179831D02*
X452000D01*
Y177756D01*
X454272D01*
Y179831D01*
D02*
G37*
G36*
X451000D02*
X448728D01*
Y177756D01*
X451000D01*
Y179831D01*
D02*
G37*
G36*
X128268Y197307D02*
X123724D01*
Y194520D01*
X121500D01*
X121110Y194442D01*
X120779Y194221D01*
X118779Y192221D01*
X118558Y191890D01*
X118480Y191500D01*
Y191315D01*
X117244D01*
Y188543D01*
X116744D01*
Y188043D01*
X114169D01*
Y186953D01*
X110728D01*
Y180047D01*
X115272D01*
Y182480D01*
X117500D01*
X117890Y182558D01*
X118221Y182779D01*
X120221Y184779D01*
X120442Y185110D01*
X120520Y185500D01*
Y186272D01*
X121236D01*
Y184744D01*
X121314Y184354D01*
X121535Y184023D01*
X122779Y182779D01*
X123110Y182558D01*
X123500Y182480D01*
X123721D01*
Y180529D01*
X123500Y179997D01*
Y179003D01*
X123881Y178084D01*
X124584Y177381D01*
X125503Y177000D01*
X126497D01*
X127416Y177381D01*
X128119Y178084D01*
X128500Y179003D01*
Y179997D01*
X128264Y180568D01*
Y186953D01*
X124331D01*
Y190402D01*
X128268D01*
Y197307D01*
D02*
G37*
G36*
X459425Y186772D02*
X455669D01*
Y182228D01*
X456018D01*
Y180378D01*
X454971D01*
Y177102D01*
X455008D01*
X455159Y176602D01*
X455068Y176541D01*
X454772Y176098D01*
X454272Y176250D01*
Y176756D01*
X452000D01*
Y174681D01*
X453983D01*
X454272Y174681D01*
X454568Y174304D01*
X454595Y174166D01*
X454857Y173774D01*
X454590Y173274D01*
X453772D01*
Y173819D01*
X449228D01*
Y170856D01*
X448728Y170649D01*
X448452Y170925D01*
X447834Y171181D01*
X447166D01*
X446548Y170925D01*
X446075Y170452D01*
X445837Y169878D01*
X444000D01*
Y167500D01*
Y165122D01*
X446272D01*
Y165575D01*
X450742D01*
Y163425D01*
X446228D01*
Y163425D01*
X445772Y163472D01*
Y163472D01*
X445748Y163472D01*
X441228D01*
Y159716D01*
X441480D01*
Y158922D01*
X441365Y158807D01*
X440598D01*
X440490Y158968D01*
Y159756D01*
X440336Y160150D01*
X440490Y160543D01*
Y161331D01*
X440332Y161713D01*
X439949Y161872D01*
X439472D01*
Y163095D01*
X439925Y163548D01*
X440181Y164166D01*
Y164728D01*
X440331D01*
Y164875D01*
X440728Y165122D01*
X443000D01*
Y167500D01*
Y169878D01*
X440728D01*
Y169519D01*
X440331Y169272D01*
X436575D01*
Y164728D01*
X436819D01*
Y164166D01*
X437075Y163548D01*
X437433Y163189D01*
Y161872D01*
X436918D01*
X436818Y161831D01*
X436711D01*
X436566Y161771D01*
X436490Y161695D01*
X436390Y161653D01*
X436364Y161627D01*
X435966Y161722D01*
X435864Y161780D01*
Y163496D01*
X435706Y163879D01*
X435323Y164037D01*
X434339D01*
X433956Y163879D01*
X433797Y163496D01*
Y161380D01*
X431366D01*
X431086Y161455D01*
X431000D01*
Y160839D01*
X434339D01*
Y163496D01*
X435323D01*
Y150504D01*
X434339D01*
Y153161D01*
X431000D01*
Y152545D01*
X431086D01*
X431366Y152620D01*
X433797D01*
Y150504D01*
X433956Y150121D01*
X434339Y149963D01*
X435323D01*
X435706Y150121D01*
X435864Y150504D01*
Y152220D01*
X435966Y152278D01*
X436364Y152373D01*
X436390Y152347D01*
X436490Y152305D01*
X436566Y152229D01*
X436711Y152169D01*
X436818D01*
X436918Y152128D01*
X437916D01*
X437927Y152121D01*
X438317Y152043D01*
X440531D01*
X442007Y150567D01*
X442338Y150346D01*
X442728Y150269D01*
X443728D01*
Y149169D01*
X448272D01*
Y150601D01*
X449077Y150934D01*
X449780Y151638D01*
X450118Y152455D01*
X450623Y152658D01*
X451190Y152090D01*
X451190Y152090D01*
X451641Y151639D01*
X448521Y148520D01*
X424331D01*
Y149772D01*
X423744D01*
Y152019D01*
X424227Y152169D01*
X424289D01*
X424434Y152229D01*
X424510Y152305D01*
X424610Y152347D01*
X424636Y152373D01*
X425034Y152278D01*
X425136Y152220D01*
Y150504D01*
X425294Y150121D01*
X425677Y149963D01*
X426661D01*
X427044Y150121D01*
X427203Y150504D01*
Y152620D01*
X429634D01*
X429914Y152545D01*
X430000D01*
Y153161D01*
X426661D01*
Y150504D01*
X425677D01*
Y163496D01*
X426661D01*
Y160839D01*
X430000D01*
Y161455D01*
X429914D01*
X429634Y161380D01*
X427203D01*
Y163496D01*
X427044Y163879D01*
X426661Y164037D01*
X425677D01*
X425294Y163879D01*
X425136Y163496D01*
Y161780D01*
X425034Y161722D01*
X424636Y161627D01*
X424610Y161653D01*
X424510Y161695D01*
X424434Y161771D01*
X424289Y161831D01*
X424182D01*
X424082Y161872D01*
X423084D01*
X423073Y161879D01*
X422683Y161957D01*
X420070D01*
X419624Y162402D01*
X419294Y162623D01*
X418903Y162701D01*
X417097D01*
X416706Y162623D01*
X416376Y162402D01*
X415155Y161181D01*
X414666D01*
X414048Y160925D01*
X413575Y160452D01*
X413319Y159834D01*
Y159166D01*
X413575Y158548D01*
X414048Y158075D01*
X414666Y157819D01*
X415334D01*
X415952Y158075D01*
X416173Y158296D01*
X416500Y158501D01*
X416827Y158296D01*
X417048Y158075D01*
X417666Y157819D01*
X418334D01*
X418952Y158075D01*
X419220Y158343D01*
X420402D01*
X420510Y158181D01*
Y157394D01*
X420604Y157153D01*
X420255Y156772D01*
X416181D01*
Y152228D01*
X420331D01*
X420331Y152228D01*
X420827Y152221D01*
X421051Y152128D01*
X421705D01*
Y149772D01*
X420181D01*
Y145228D01*
X424331D01*
Y146480D01*
X448943D01*
X449333Y146558D01*
X449664Y146779D01*
X453370Y150485D01*
X453443Y150471D01*
X476736D01*
X477321Y150587D01*
X477818Y150919D01*
X490887Y163988D01*
X491545Y163811D01*
X492455D01*
X493333Y164046D01*
X494120Y164501D01*
X494763Y165144D01*
X495218Y165931D01*
X495453Y166809D01*
Y167718D01*
X495218Y168596D01*
X494763Y169384D01*
X494120Y170027D01*
X493333Y170481D01*
X492455Y170717D01*
X491545D01*
X490667Y170481D01*
X489880Y170027D01*
X489237Y169384D01*
X488783Y168596D01*
X488547Y167718D01*
Y166809D01*
X488724Y166150D01*
X476103Y153529D01*
X454077D01*
X453801Y153805D01*
Y154366D01*
X456685D01*
Y159500D01*
Y164634D01*
X453801D01*
Y170215D01*
X455337D01*
X455428Y170079D01*
X455970Y169717D01*
X456609Y169590D01*
X459602D01*
X460241Y169717D01*
X460783Y170079D01*
X461145Y170621D01*
X461272Y171260D01*
X461145Y171899D01*
X460783Y172441D01*
X460617Y172551D01*
X460651Y173130D01*
X461143Y173459D01*
X461616Y174166D01*
X461682Y174500D01*
X458106D01*
Y175500D01*
X461682D01*
X461616Y175834D01*
X461143Y176541D01*
X461052Y176602D01*
X461203Y177102D01*
X461240D01*
Y180378D01*
X459077D01*
Y182228D01*
X459425D01*
Y186772D01*
D02*
G37*
G36*
X451000Y176756D02*
X448728D01*
Y174681D01*
X451000D01*
Y176756D01*
D02*
G37*
G36*
X398756Y176272D02*
X396681D01*
Y174000D01*
X398756D01*
Y176272D01*
D02*
G37*
G36*
X349256D02*
X347181D01*
Y174000D01*
X349256D01*
Y176272D01*
D02*
G37*
G36*
X374547D02*
X372472D01*
Y174000D01*
X374547D01*
Y176272D01*
D02*
G37*
G36*
X495953Y176764D02*
X492500D01*
Y173311D01*
X492520D01*
X493526Y173580D01*
X494427Y174101D01*
X495163Y174837D01*
X495683Y175738D01*
X495953Y176743D01*
Y176764D01*
D02*
G37*
G36*
X491500D02*
X488047D01*
Y176743D01*
X488317Y175738D01*
X488837Y174837D01*
X489573Y174101D01*
X490474Y173580D01*
X491480Y173311D01*
X491500D01*
Y176764D01*
D02*
G37*
G36*
X406949Y176748D02*
X404283D01*
Y172705D01*
X406949D01*
Y176748D01*
D02*
G37*
G36*
X382740D02*
X380075D01*
Y172705D01*
X382740D01*
Y176748D01*
D02*
G37*
G36*
X476272Y174256D02*
X474000D01*
Y172181D01*
X476272D01*
Y174256D01*
D02*
G37*
G36*
X473000D02*
X470728D01*
Y172181D01*
X473000D01*
Y174256D01*
D02*
G37*
G36*
X398756Y173000D02*
X396681D01*
Y170728D01*
X398756D01*
Y173000D01*
D02*
G37*
G36*
X374547Y173000D02*
X372472D01*
Y170728D01*
X374547D01*
Y173000D01*
D02*
G37*
G36*
X349256Y173000D02*
X347181D01*
Y170728D01*
X349256D01*
Y173000D01*
D02*
G37*
G36*
X406949Y171705D02*
X404283D01*
Y167661D01*
X406949D01*
Y171705D01*
D02*
G37*
G36*
X403283Y176748D02*
X400618D01*
Y176272D01*
X399756D01*
Y173500D01*
Y170728D01*
X400618D01*
Y167661D01*
X403283D01*
Y172205D01*
Y176748D01*
D02*
G37*
G36*
X382740Y171705D02*
X380075D01*
Y167661D01*
X382740D01*
Y171705D01*
D02*
G37*
G36*
X379075Y176748D02*
X376409D01*
Y176272D01*
X375547D01*
Y173500D01*
Y170728D01*
X376409D01*
Y167661D01*
X379075D01*
Y172205D01*
Y176748D01*
D02*
G37*
G36*
X357449Y171705D02*
X354783D01*
Y167661D01*
X357449D01*
Y171705D01*
D02*
G37*
G36*
X353783Y176748D02*
X351118D01*
Y176272D01*
X350256D01*
Y173500D01*
Y170728D01*
X351118D01*
Y167661D01*
X353783D01*
Y172205D01*
Y176748D01*
D02*
G37*
G36*
X333772Y169319D02*
X331500D01*
Y167244D01*
X333772D01*
Y169319D01*
D02*
G37*
G36*
X434425Y169272D02*
X430669D01*
Y168681D01*
X430166D01*
X429548Y168425D01*
X429075Y167952D01*
X428819Y167334D01*
Y166666D01*
X429075Y166048D01*
X429548Y165575D01*
X430166Y165319D01*
X430669D01*
Y164728D01*
X434425D01*
Y169272D01*
D02*
G37*
G36*
X115772Y168161D02*
X113500D01*
Y164709D01*
X115772D01*
Y168161D01*
D02*
G37*
G36*
X112500D02*
X110228D01*
Y164709D01*
X112500D01*
Y168161D01*
D02*
G37*
G36*
X254953Y166500D02*
X251500D01*
Y164228D01*
X254953D01*
Y166500D01*
D02*
G37*
G36*
X199497Y169000D02*
X198503D01*
X197584Y168619D01*
X196881Y167916D01*
X196500Y166997D01*
Y166003D01*
X196881Y165084D01*
X197584Y164381D01*
X198503Y164000D01*
X199497D01*
X200416Y164381D01*
X201119Y165084D01*
X201500Y166003D01*
Y166997D01*
X201119Y167916D01*
X200416Y168619D01*
X199497Y169000D01*
D02*
G37*
G36*
X176997D02*
X176003D01*
X175084Y168619D01*
X174381Y167916D01*
X174000Y166997D01*
Y166003D01*
X174381Y165084D01*
X175084Y164381D01*
X176003Y164000D01*
X176997D01*
X177916Y164381D01*
X178619Y165084D01*
X179000Y166003D01*
Y166997D01*
X178619Y167916D01*
X177916Y168619D01*
X176997Y169000D01*
D02*
G37*
G36*
X128264Y167661D02*
X123721D01*
Y160756D01*
X128264D01*
Y162319D01*
X128334D01*
X128952Y162575D01*
X129425Y163048D01*
X129681Y163666D01*
Y164334D01*
X129425Y164952D01*
X128952Y165425D01*
X128334Y165681D01*
X128264D01*
Y167661D01*
D02*
G37*
G36*
X347497Y165500D02*
X346503D01*
X345584Y165119D01*
X344881Y164416D01*
X344500Y163497D01*
Y162503D01*
X344881Y161584D01*
X345584Y160881D01*
X346503Y160500D01*
X347497D01*
X348416Y160881D01*
X349119Y161584D01*
X349500Y162503D01*
Y163497D01*
X349119Y164416D01*
X348416Y165119D01*
X347497Y165500D01*
D02*
G37*
G36*
X115772Y163709D02*
X113500D01*
Y160256D01*
X115772D01*
Y163709D01*
D02*
G37*
G36*
X112500D02*
X110228D01*
Y160256D01*
X112500D01*
Y163709D01*
D02*
G37*
G36*
X460685Y164634D02*
X457685D01*
Y160000D01*
X460685D01*
Y164634D01*
D02*
G37*
G36*
X415319Y157272D02*
X413244D01*
Y155000D01*
X415319D01*
Y157272D01*
D02*
G37*
G36*
X412244D02*
X410169D01*
Y155000D01*
X412244D01*
Y157272D01*
D02*
G37*
G36*
X460685Y159000D02*
X457685D01*
Y154366D01*
X460685D01*
Y159000D01*
D02*
G37*
G36*
X495453Y160716D02*
X488547D01*
Y153811D01*
X495453D01*
Y160716D01*
D02*
G37*
G36*
X415319Y154000D02*
X413244D01*
Y151728D01*
X415319D01*
Y154000D01*
D02*
G37*
G36*
X412244D02*
X410169D01*
Y151728D01*
X412244D01*
Y154000D01*
D02*
G37*
G36*
X247563Y158468D02*
X240563D01*
Y151469D01*
X247563D01*
Y158468D01*
D02*
G37*
G36*
X178488Y151638D02*
X174445D01*
Y148776D01*
X178488D01*
Y151638D01*
D02*
G37*
G36*
X149551D02*
X145508D01*
Y148776D01*
X149551D01*
Y151638D01*
D02*
G37*
G36*
X173445D02*
X169402D01*
Y148776D01*
X173445D01*
Y151638D01*
D02*
G37*
G36*
X144508D02*
X140465D01*
Y148776D01*
X144508D01*
Y151638D01*
D02*
G37*
G36*
X403283Y152339D02*
X400618D01*
Y148772D01*
X399681D01*
Y148834D01*
X399425Y149452D01*
X398952Y149925D01*
X398334Y150181D01*
X397666D01*
X397048Y149925D01*
X396575Y149452D01*
X396319Y148834D01*
Y148166D01*
X396575Y147548D01*
X397048Y147075D01*
X397575Y146856D01*
Y144228D01*
X400618D01*
Y143252D01*
X403283D01*
Y147795D01*
Y152339D01*
D02*
G37*
G36*
X379075D02*
X376409D01*
Y148772D01*
X375500D01*
X375425Y148952D01*
X374952Y149425D01*
X374334Y149681D01*
X373666D01*
X373048Y149425D01*
X372575Y148952D01*
X372319Y148334D01*
Y147666D01*
X372575Y147048D01*
X373048Y146575D01*
X373366Y146443D01*
Y144228D01*
X376409D01*
Y143252D01*
X379075D01*
Y147795D01*
Y152339D01*
D02*
G37*
G36*
X353783D02*
X351118D01*
Y148772D01*
X349940D01*
X349883Y148910D01*
X349410Y149383D01*
X348792Y149639D01*
X348123D01*
X347505Y149383D01*
X347033Y148910D01*
X346777Y148292D01*
Y147623D01*
X347033Y147005D01*
X347505Y146533D01*
X348075Y146297D01*
Y144228D01*
X351118D01*
Y143252D01*
X353783D01*
Y147795D01*
Y152339D01*
D02*
G37*
G36*
X406949D02*
X404283D01*
Y148295D01*
X406949D01*
Y152339D01*
D02*
G37*
G36*
X357449D02*
X354783D01*
Y148295D01*
X357449D01*
Y152339D01*
D02*
G37*
G36*
X382740D02*
X380075D01*
Y148295D01*
X382740D01*
Y152339D01*
D02*
G37*
G36*
X419319Y150272D02*
X417244D01*
Y148000D01*
X419319D01*
Y150272D01*
D02*
G37*
G36*
X416244D02*
X414169D01*
Y148000D01*
X416244D01*
Y150272D01*
D02*
G37*
G36*
X178488Y147776D02*
X174445D01*
Y144913D01*
X178488D01*
Y147776D01*
D02*
G37*
G36*
X173445D02*
X169402D01*
Y144913D01*
X173445D01*
Y147776D01*
D02*
G37*
G36*
X149551D02*
X145508D01*
Y144913D01*
X149551D01*
Y147776D01*
D02*
G37*
G36*
X144508D02*
X140465D01*
Y144913D01*
X144508D01*
Y147776D01*
D02*
G37*
G36*
X419319Y147000D02*
X417244D01*
Y144728D01*
X419319D01*
Y147000D01*
D02*
G37*
G36*
X416244D02*
X414169D01*
Y144728D01*
X416244D01*
Y147000D01*
D02*
G37*
G36*
X620700Y150618D02*
X602700D01*
Y144500D01*
X620700D01*
Y150618D01*
D02*
G37*
G36*
X391882Y151839D02*
X386551D01*
Y143752D01*
X391882D01*
Y144228D01*
X395425D01*
Y148772D01*
X391882D01*
Y151839D01*
D02*
G37*
G36*
X367673D02*
X362343D01*
Y143752D01*
X367673D01*
Y144228D01*
X371217D01*
Y148772D01*
X369500D01*
X369425Y148952D01*
X368952Y149425D01*
X368334Y149681D01*
X367673D01*
Y151839D01*
D02*
G37*
G36*
X342382D02*
X337051D01*
Y143752D01*
X342382D01*
Y144228D01*
X345925D01*
Y148772D01*
X342382D01*
Y151839D01*
D02*
G37*
G36*
X247563Y150469D02*
X240563D01*
Y143468D01*
X247563D01*
Y150469D01*
D02*
G37*
G36*
X683600Y249538D02*
X631500D01*
X631346Y249518D01*
X627000D01*
Y143518D01*
X631077D01*
X631500Y143462D01*
X666381D01*
X666804Y143518D01*
X687861D01*
Y163412D01*
X687887Y163473D01*
X688038Y164622D01*
Y186814D01*
X687887Y187962D01*
X687861Y188024D01*
Y190976D01*
X687887Y191038D01*
X688038Y192186D01*
Y201814D01*
X687887Y202962D01*
X687861Y203024D01*
Y205976D01*
X687887Y206038D01*
X688038Y207186D01*
Y212740D01*
X687887Y213889D01*
X687861Y213951D01*
Y242152D01*
X687887Y242214D01*
X688038Y243362D01*
Y245100D01*
X687887Y246249D01*
X687861Y246310D01*
Y249518D01*
X683754D01*
X683600Y249538D01*
D02*
G37*
G36*
X406949Y147295D02*
X404283D01*
Y143252D01*
X406949D01*
Y147295D01*
D02*
G37*
G36*
X382740Y147295D02*
X380075D01*
Y143252D01*
X382740D01*
Y147295D01*
D02*
G37*
G36*
X357449Y147295D02*
X354783D01*
Y143252D01*
X357449D01*
Y147295D01*
D02*
G37*
%LPD*%
G36*
X417469Y241441D02*
X413531D01*
Y243390D01*
X410972D01*
Y244610D01*
X413531D01*
Y246559D01*
X417469D01*
Y241441D01*
D02*
G37*
G36*
X147176Y246980D02*
X147058Y246804D01*
X146980Y246414D01*
Y237831D01*
X145728D01*
Y237831D01*
X145272D01*
Y237831D01*
X144020D01*
Y247480D01*
X146964D01*
X147176Y246980D01*
D02*
G37*
G36*
X419043Y244439D02*
X421769D01*
X422190Y244158D01*
X422776Y244041D01*
X423047D01*
Y236622D01*
X427790D01*
X428887Y235525D01*
X428696Y235063D01*
X423047D01*
Y234500D01*
X422503D01*
X422250Y234936D01*
X422158Y235399D01*
X421826Y235896D01*
X420831Y236891D01*
Y239272D01*
X420573D01*
Y242032D01*
X420528Y242258D01*
Y243142D01*
X420082D01*
X419629Y243444D01*
X419043Y243561D01*
X418510Y243455D01*
X418367Y243484D01*
X418010Y243675D01*
Y244325D01*
X418367Y244516D01*
X418510Y244545D01*
X419043Y244439D01*
D02*
G37*
G36*
X313257Y232968D02*
X313114Y232624D01*
Y231955D01*
X313370Y231337D01*
X313776Y230931D01*
Y223204D01*
X313854Y222814D01*
X314074Y222484D01*
X315279Y221279D01*
X315610Y221058D01*
X316000Y220980D01*
X316445D01*
Y219772D01*
X316445Y219728D01*
Y219272D01*
X316445Y219228D01*
Y214728D01*
X316445Y214728D01*
Y214272D01*
X316445D01*
X316445Y214228D01*
Y209772D01*
X316445Y209728D01*
Y209272D01*
X316445Y209228D01*
Y204772D01*
X316445Y204728D01*
Y204272D01*
X316445Y204228D01*
Y199772D01*
X316445Y199728D01*
Y199272D01*
X316445Y199228D01*
Y194772D01*
X316445Y194728D01*
Y194272D01*
X316445Y194228D01*
Y189772D01*
X316445Y189728D01*
Y189272D01*
X316445Y189228D01*
Y184772D01*
X316445Y184728D01*
Y184272D01*
X316445Y184228D01*
Y179772D01*
X316445Y179728D01*
Y179272D01*
X316007Y179077D01*
X315685D01*
X315067Y178822D01*
X314997Y178752D01*
X314497Y178959D01*
Y178997D01*
X314117Y179916D01*
X313413Y180619D01*
X312495Y181000D01*
X311500D01*
X310581Y180619D01*
X309878Y179916D01*
X309497Y178997D01*
Y178003D01*
X309878Y177084D01*
X310581Y176381D01*
X310851Y176269D01*
Y175454D01*
X310967Y174869D01*
X311298Y174372D01*
X314301Y171370D01*
X314797Y171039D01*
X315382Y170922D01*
X316445D01*
Y169772D01*
X315945D01*
Y167500D01*
X319898D01*
Y166500D01*
X315945D01*
Y165020D01*
X314422D01*
X303020Y176422D01*
Y225578D01*
X308670Y231228D01*
X308891Y231559D01*
X308968Y231949D01*
Y233469D01*
X310177D01*
X310221Y233469D01*
X310677D01*
X310720Y233469D01*
X312944D01*
X313257Y232968D01*
D02*
G37*
G36*
X357132Y232519D02*
X356047Y231433D01*
X355826Y231102D01*
X355748Y230712D01*
Y228630D01*
X349839D01*
X349836Y228647D01*
X349615Y228978D01*
X348742Y229851D01*
X348411Y230072D01*
X348021Y230150D01*
X346011D01*
X345621Y230072D01*
X345290Y229851D01*
X344417Y228978D01*
X344196Y228647D01*
X344192Y228630D01*
X341225D01*
X341034Y229092D01*
X344922Y232980D01*
X356941D01*
X357132Y232519D01*
D02*
G37*
G36*
X436471Y223366D02*
Y216881D01*
X427158Y207569D01*
X426890D01*
X426790Y207528D01*
X426390D01*
Y207277D01*
X422689D01*
X422104Y207161D01*
X421609Y206831D01*
X419272D01*
Y207331D01*
X417000D01*
Y204953D01*
Y202575D01*
X419272D01*
Y203075D01*
X423772D01*
Y204219D01*
X424400D01*
Y200917D01*
X424400Y200532D01*
X424421Y200441D01*
X424336Y199976D01*
X423772D01*
Y200925D01*
X419228D01*
Y200925D01*
X418772Y200925D01*
Y200925D01*
X414228D01*
Y200067D01*
X408547D01*
X408157Y199989D01*
X407826Y199768D01*
X405481Y197424D01*
X405020Y197615D01*
Y213078D01*
X406228Y214286D01*
X406728Y214079D01*
Y214028D01*
X411272D01*
Y215468D01*
X412477D01*
X412957Y215147D01*
X413625Y215014D01*
X417922D01*
X418590Y215147D01*
X419156Y215525D01*
X419535Y216092D01*
X419667Y216760D01*
X419535Y217428D01*
X419156Y217994D01*
X419105Y218029D01*
X419105Y218630D01*
X419517Y218905D01*
X420006Y219637D01*
X420078Y220000D01*
X415773D01*
Y221000D01*
X420078D01*
X420006Y221363D01*
X419561Y222028D01*
X419634Y222528D01*
X419634D01*
Y223790D01*
X421089Y225244D01*
X421477Y224925D01*
X421465Y224908D01*
X421333Y224240D01*
X421465Y223572D01*
X421844Y223006D01*
X422410Y222627D01*
X422433Y222623D01*
X422500Y222497D01*
Y221503D01*
X422881Y220584D01*
X423584Y219881D01*
X424503Y219500D01*
X425497D01*
X426416Y219881D01*
X427119Y220584D01*
X427500Y221503D01*
Y222497D01*
X427513Y222522D01*
X428043Y222627D01*
X428046Y222629D01*
X429228D01*
Y221681D01*
X433772D01*
Y225358D01*
X434272Y225566D01*
X436471Y223366D01*
D02*
G37*
G36*
X328425Y209512D02*
X328755Y209291D01*
X329146Y209214D01*
X330345D01*
X331779Y207779D01*
X332110Y207558D01*
X332500Y207480D01*
X333169D01*
Y206228D01*
X336925D01*
X336980Y205751D01*
Y196784D01*
X337058Y196394D01*
X337279Y196063D01*
X337988Y195354D01*
X338319Y195133D01*
X338709Y195055D01*
X338782D01*
X339228Y194925D01*
Y193966D01*
X339110Y193942D01*
X338779Y193721D01*
X337739Y192681D01*
X337166D01*
X336548Y192425D01*
X336075Y191952D01*
X335819Y191334D01*
Y190666D01*
X336075Y190048D01*
X336335Y189788D01*
Y189777D01*
X332651Y186093D01*
X332181Y186330D01*
Y186834D01*
X331925Y187452D01*
X331452Y187925D01*
X330834Y188181D01*
X330166D01*
X329729Y188000D01*
X329631Y188020D01*
X323350D01*
Y189228D01*
X323350Y189272D01*
Y189728D01*
X323350Y189772D01*
Y190980D01*
X328916D01*
X329109Y190513D01*
X329582Y190040D01*
X330200Y189784D01*
X330869D01*
X331487Y190040D01*
X331960Y190513D01*
X332216Y191131D01*
Y191800D01*
X331960Y192418D01*
X331487Y192891D01*
X330869Y193147D01*
X330200D01*
X329808Y192984D01*
X329631Y193020D01*
X323350D01*
Y194228D01*
X323350Y194272D01*
Y194728D01*
X323350Y194772D01*
Y195980D01*
X328896D01*
X329075Y195548D01*
X329548Y195075D01*
X330166Y194819D01*
X330834D01*
X331452Y195075D01*
X331925Y195548D01*
X332181Y196166D01*
Y196834D01*
X331925Y197452D01*
X331452Y197925D01*
X330834Y198181D01*
X330166D01*
X329729Y198000D01*
X329631Y198020D01*
X323350D01*
Y199228D01*
X323350Y199272D01*
Y199728D01*
X323350Y199772D01*
Y200980D01*
X323896D01*
X324075Y200548D01*
X324548Y200075D01*
X325166Y199819D01*
X325834D01*
X326452Y200075D01*
X326925Y200548D01*
X327181Y201166D01*
Y201834D01*
X326925Y202452D01*
X326452Y202925D01*
X325834Y203181D01*
X325166D01*
X324729Y203000D01*
X324631Y203020D01*
X323350D01*
Y204228D01*
X323350Y204272D01*
Y204728D01*
X323350Y204772D01*
Y205980D01*
X323896D01*
X324075Y205548D01*
X324548Y205075D01*
X325166Y204819D01*
X325834D01*
X326452Y205075D01*
X326925Y205548D01*
X327181Y206166D01*
Y206834D01*
X326925Y207452D01*
X326452Y207925D01*
X325834Y208181D01*
X325166D01*
X324729Y208000D01*
X324631Y208020D01*
X323350D01*
Y209228D01*
X323350Y209272D01*
Y209728D01*
X323350Y209772D01*
Y213899D01*
X323565Y214029D01*
X323850Y214086D01*
X328425Y209512D01*
D02*
G37*
G36*
X428110Y204468D02*
X430059D01*
Y200532D01*
X424941D01*
Y204468D01*
X426890D01*
Y207028D01*
X428110D01*
Y204468D01*
D02*
G37*
G36*
X375181Y208975D02*
Y207000D01*
X377756D01*
X380331D01*
Y207074D01*
X380793Y207265D01*
X386480Y201578D01*
Y194104D01*
X385980Y193897D01*
X385952Y193925D01*
X385334Y194181D01*
X384750D01*
X382210Y196721D01*
X381879Y196942D01*
X381489Y197020D01*
X380259D01*
X379906Y197373D01*
X379906Y197984D01*
Y200315D01*
X379906Y200634D01*
X379906Y201134D01*
Y203728D01*
X380331D01*
Y206000D01*
X377756D01*
X375181D01*
Y203728D01*
X375756D01*
Y201134D01*
X375756Y200815D01*
X375756Y200315D01*
Y197984D01*
X375756Y197665D01*
X375756Y197165D01*
Y194835D01*
X375256D01*
Y193350D01*
X377831D01*
X380405D01*
Y194835D01*
X380845Y194980D01*
X381067D01*
X383319Y192728D01*
Y192166D01*
X383575Y191548D01*
X384048Y191075D01*
X384666Y190819D01*
X385334D01*
X385952Y191075D01*
X385980Y191103D01*
X386480Y190896D01*
Y184879D01*
X386472Y184871D01*
X386224D01*
X385606Y184615D01*
X385133Y184142D01*
X384877Y183524D01*
Y182855D01*
X385133Y182238D01*
X385606Y181765D01*
X386224Y181509D01*
X386197Y181020D01*
X367210D01*
X366772Y181169D01*
Y181980D01*
X368037D01*
X368427Y182058D01*
X368758Y182279D01*
X369343Y182865D01*
X369565Y183196D01*
X369642Y183586D01*
Y183762D01*
X369669Y183780D01*
X370169Y183513D01*
Y183228D01*
X373925D01*
Y187772D01*
X371377D01*
X371244Y188216D01*
X371244Y188272D01*
Y190866D01*
X371244Y191185D01*
X371244Y191685D01*
Y194335D01*
X371244D01*
Y194516D01*
X371244D01*
Y197165D01*
X371244Y197484D01*
X371244Y197984D01*
Y200315D01*
X371244Y200634D01*
X371244Y201134D01*
Y203783D01*
X371244Y203783D01*
X371244D01*
X371532Y204149D01*
X371611Y204228D01*
X374319D01*
X374319Y208680D01*
X374549Y209037D01*
X374638Y209139D01*
X374681Y209182D01*
X375181Y208975D01*
D02*
G37*
G36*
X436471Y211902D02*
Y192305D01*
X436195Y192029D01*
X431636D01*
X431323Y192529D01*
X431466Y192874D01*
Y193543D01*
X431210Y194161D01*
X430737Y194634D01*
X430119Y194890D01*
X429450D01*
X428832Y194634D01*
X428359Y194161D01*
X428103Y193543D01*
Y192874D01*
X428246Y192529D01*
X427933Y192029D01*
X419306D01*
X418720Y191913D01*
X418224Y191581D01*
X417053Y190410D01*
X416721Y189914D01*
X416605Y189328D01*
Y188952D01*
X412272D01*
Y189319D01*
X407728D01*
Y188170D01*
X407228Y188070D01*
X407035Y188535D01*
X406332Y189239D01*
X405413Y189619D01*
X404419D01*
X404162Y189513D01*
X403879Y189937D01*
X406221Y192279D01*
X406442Y192610D01*
X406520Y193000D01*
Y195578D01*
X408970Y198028D01*
X414228D01*
Y197169D01*
X418757D01*
X419101Y196806D01*
X418881Y196585D01*
X418500Y195667D01*
Y194672D01*
X418881Y193753D01*
X419584Y193050D01*
X420503Y192669D01*
X421497D01*
X422416Y193050D01*
X423119Y193753D01*
X423205Y193959D01*
X426000D01*
X426585Y194075D01*
X427081Y194407D01*
X430147Y197472D01*
X430579D01*
Y197918D01*
X430882Y198371D01*
X430998Y198957D01*
X430882Y199542D01*
X430607Y199953D01*
X430579Y200441D01*
D01*
X430593Y200500D01*
X430600Y200532D01*
X430600Y200920D01*
Y204468D01*
X430442Y204851D01*
X430059Y205010D01*
X429578D01*
X429387Y205472D01*
X436009Y212094D01*
X436471Y211902D01*
D02*
G37*
%LPC*%
G36*
X308834Y225181D02*
X308166D01*
X307548Y224925D01*
X307075Y224452D01*
X306819Y223834D01*
Y223166D01*
X307075Y222548D01*
X307548Y222075D01*
X308166Y221819D01*
X308834D01*
X309452Y222075D01*
X309925Y222548D01*
X310181Y223166D01*
Y223834D01*
X309925Y224452D01*
X309452Y224925D01*
X308834Y225181D01*
D02*
G37*
G36*
X306997Y195000D02*
X306003D01*
X305084Y194619D01*
X304381Y193916D01*
X304000Y192997D01*
Y192003D01*
X304381Y191084D01*
X305084Y190381D01*
X306003Y190000D01*
X306997D01*
X307916Y190381D01*
X308619Y191084D01*
X309000Y192003D01*
Y192997D01*
X308619Y193916D01*
X307916Y194619D01*
X306997Y195000D01*
D02*
G37*
G36*
X434272Y220819D02*
X432000D01*
Y218744D01*
X434272D01*
Y220819D01*
D02*
G37*
G36*
X431000D02*
X428728D01*
Y218516D01*
X428228Y218249D01*
X428043Y218373D01*
X427375Y218506D01*
X423078D01*
X422410Y218373D01*
X421844Y217994D01*
X421465Y217428D01*
X421333Y216760D01*
X421465Y216092D01*
X421844Y215525D01*
X422410Y215147D01*
X423078Y215014D01*
X427375D01*
X428043Y215147D01*
X428375Y215369D01*
X428609Y215525D01*
X428651Y215575D01*
X428728Y215669D01*
X428728Y215669D01*
X431000D01*
Y218244D01*
Y220819D01*
D02*
G37*
G36*
X434272Y217744D02*
X432000D01*
Y215669D01*
X434272D01*
Y217744D01*
D02*
G37*
G36*
X411772Y212378D02*
X409500D01*
Y210500D01*
X411772D01*
Y212378D01*
D02*
G37*
G36*
X408500D02*
X406228D01*
Y210500D01*
X408500D01*
Y212378D01*
D02*
G37*
G36*
X420544Y214500D02*
X419550D01*
X418631Y214119D01*
X417928Y213416D01*
X417547Y212497D01*
Y211503D01*
X417928Y210584D01*
X418631Y209881D01*
X419550Y209500D01*
X420544D01*
X421463Y209881D01*
X422167Y210584D01*
X422547Y211503D01*
Y212497D01*
X422167Y213416D01*
X421463Y214119D01*
X420544Y214500D01*
D02*
G37*
G36*
X411772Y209500D02*
X409500D01*
Y207622D01*
X411772D01*
Y209500D01*
D02*
G37*
G36*
X408500D02*
X406228D01*
Y207622D01*
X408500D01*
Y209500D01*
D02*
G37*
G36*
X416000Y207331D02*
X413728D01*
Y205453D01*
X416000D01*
Y207331D01*
D02*
G37*
G36*
Y204453D02*
X413728D01*
Y202575D01*
X416000D01*
Y204453D01*
D02*
G37*
G36*
X380405Y192350D02*
X377831D01*
X375256D01*
Y190866D01*
X375756D01*
Y188216D01*
X375942D01*
X376075Y187772D01*
X376075D01*
Y183228D01*
X376500D01*
X376575Y183048D01*
X377048Y182575D01*
X377666Y182319D01*
X378334D01*
X378952Y182575D01*
X379425Y183048D01*
X379500Y183228D01*
X379831D01*
Y187772D01*
X379831D01*
X379906Y188217D01*
X379906Y188217D01*
X379906Y188241D01*
Y190866D01*
X380405D01*
Y192350D01*
D02*
G37*
G36*
X412772Y195331D02*
X410500D01*
Y193256D01*
X412772D01*
Y195331D01*
D02*
G37*
G36*
X409500D02*
X407228D01*
Y193256D01*
X409500D01*
Y195331D01*
D02*
G37*
G36*
X412772Y192256D02*
X410500D01*
Y190181D01*
X412772D01*
Y192256D01*
D02*
G37*
G36*
X409500D02*
X407228D01*
Y190181D01*
X409500D01*
Y192256D01*
D02*
G37*
%LPD*%
G36*
X460468Y241441D02*
X456531D01*
Y243390D01*
X453972D01*
Y244610D01*
X456531D01*
Y246559D01*
X460468D01*
Y241441D01*
D02*
G37*
G36*
X438969D02*
X435032D01*
Y243390D01*
X432472D01*
Y244610D01*
X435032D01*
Y246559D01*
X438969D01*
Y241441D01*
D02*
G37*
G36*
X472610Y223437D02*
X474559D01*
Y219500D01*
X469441D01*
Y223437D01*
X471390D01*
Y225996D01*
X472610D01*
Y223437D01*
D02*
G37*
G36*
Y210469D02*
X474559D01*
Y206532D01*
X469441D01*
Y210469D01*
X471390D01*
Y213028D01*
X472610D01*
Y210469D01*
D02*
G37*
G36*
X154603Y208980D02*
X154575Y208952D01*
X154319Y208334D01*
Y207666D01*
X154575Y207048D01*
X155048Y206575D01*
X155666Y206319D01*
X156239D01*
X160076Y202482D01*
Y197791D01*
X158410D01*
X158091Y197791D01*
X157590Y197791D01*
X154079D01*
X153760Y197791D01*
X153260Y197791D01*
X152524D01*
Y204996D01*
X152446Y205386D01*
X152225Y205717D01*
X150181Y207761D01*
Y207871D01*
X151791Y209480D01*
X154396D01*
X154603Y208980D01*
D02*
G37*
G36*
X145637Y210579D02*
X144739Y209681D01*
X144166D01*
X143548Y209425D01*
X143075Y208952D01*
X142819Y208334D01*
Y207666D01*
X143075Y207048D01*
X143548Y206575D01*
X144166Y206319D01*
X144834D01*
X145452Y206575D01*
X145925Y207048D01*
X146181Y207666D01*
Y207932D01*
X146319Y208017D01*
X146819Y207737D01*
Y207666D01*
X147075Y207048D01*
X147548Y206575D01*
X148166Y206319D01*
X148739D01*
X149218Y205840D01*
X149027Y205378D01*
X145705D01*
Y201622D01*
X145205D01*
Y201122D01*
X140661D01*
Y198247D01*
X140661Y197866D01*
X140768Y197410D01*
Y190020D01*
X140768Y189705D01*
X140344Y189520D01*
X138422D01*
X134520Y193422D01*
Y201078D01*
X140721Y207279D01*
X140942Y207610D01*
X141020Y208000D01*
Y210243D01*
X141855Y211079D01*
X145430D01*
X145637Y210579D01*
D02*
G37*
%LPC*%
G36*
X144705Y205378D02*
X140661D01*
Y202122D01*
X144705D01*
Y205378D01*
D02*
G37*
%LPD*%
G36*
X439949Y160543D02*
X436918D01*
X436773Y160603D01*
X436662Y160714D01*
X436602Y160859D01*
Y160937D01*
Y161015D01*
X436662Y161160D01*
X436773Y161271D01*
X436918Y161331D01*
X439949D01*
Y160543D01*
D02*
G37*
G36*
X424227Y161271D02*
X424338Y161160D01*
X424398Y161015D01*
Y160937D01*
Y160859D01*
X424338Y160714D01*
X424227Y160603D01*
X424082Y160543D01*
X421051D01*
Y161331D01*
X424082D01*
X424227Y161271D01*
D02*
G37*
G36*
X439949Y158968D02*
X436918D01*
X436773Y159028D01*
X436662Y159139D01*
X436602Y159284D01*
Y159362D01*
Y159441D01*
X436662Y159585D01*
X436773Y159696D01*
X436918Y159756D01*
X436996D01*
Y159756D01*
X439949D01*
Y158968D01*
D02*
G37*
G36*
X424004Y159756D02*
X424082D01*
X424227Y159696D01*
X424338Y159585D01*
X424398Y159441D01*
Y159362D01*
Y159284D01*
X424338Y159139D01*
X424227Y159028D01*
X424082Y158968D01*
X421051D01*
Y159756D01*
X424004Y159756D01*
D02*
G37*
G36*
X439949Y157394D02*
X436918D01*
X436773Y157454D01*
X436662Y157564D01*
X436602Y157709D01*
Y157787D01*
Y157866D01*
X436662Y158010D01*
X436773Y158121D01*
X436918Y158181D01*
X439949D01*
Y157394D01*
D02*
G37*
G36*
X424227Y158121D02*
X424338Y158010D01*
X424398Y157866D01*
Y157787D01*
Y157709D01*
X424338Y157564D01*
X424227Y157454D01*
X424082Y157394D01*
X421051D01*
Y158181D01*
X424082D01*
X424227Y158121D01*
D02*
G37*
G36*
X439949Y155819D02*
X436918D01*
X436773Y155879D01*
X436662Y155990D01*
X436602Y156134D01*
Y156213D01*
Y156291D01*
X436662Y156436D01*
X436773Y156546D01*
X436918Y156606D01*
X439949D01*
Y155819D01*
D02*
G37*
G36*
X424227Y156546D02*
X424338Y156436D01*
X424398Y156291D01*
Y156213D01*
Y156134D01*
X424338Y155990D01*
X424227Y155879D01*
X424082Y155819D01*
X421051D01*
Y156606D01*
X424082D01*
X424227Y156546D01*
D02*
G37*
G36*
X439949Y154244D02*
X436996Y154244D01*
X436918D01*
X436773Y154304D01*
X436662Y154415D01*
X436602Y154560D01*
Y154638D01*
Y154716D01*
X436662Y154861D01*
X436773Y154972D01*
X436918Y155032D01*
X439949D01*
Y154244D01*
D02*
G37*
G36*
X424227Y154972D02*
X424338Y154861D01*
X424398Y154716D01*
Y154638D01*
Y154560D01*
X424338Y154415D01*
X424227Y154304D01*
X424082Y154244D01*
X424004D01*
Y154244D01*
X421051D01*
Y155032D01*
X424082D01*
X424227Y154972D01*
D02*
G37*
G36*
X439949Y152669D02*
X436918D01*
X436773Y152729D01*
X436662Y152840D01*
X436602Y152985D01*
Y153063D01*
Y153141D01*
X436662Y153286D01*
X436773Y153397D01*
X436918Y153457D01*
X439949D01*
Y152669D01*
D02*
G37*
G36*
X424227Y153397D02*
X424338Y153286D01*
X424398Y153141D01*
Y153063D01*
Y152985D01*
X424338Y152840D01*
X424227Y152729D01*
X424082Y152669D01*
X421051D01*
Y153457D01*
X424082D01*
X424227Y153397D01*
D02*
G37*
G36*
X607428Y145000D02*
X606459D01*
Y148652D01*
X606451Y148645D01*
X606437Y148630D01*
X606408Y148609D01*
X606364Y148572D01*
X606313Y148528D01*
X606254Y148485D01*
X606182Y148434D01*
X606101Y148375D01*
X606014Y148317D01*
X605919Y148259D01*
X605817Y148193D01*
X605708Y148135D01*
X605475Y148025D01*
X605212Y147923D01*
Y148798D01*
X605219D01*
X605227Y148805D01*
X605248Y148813D01*
X605278Y148820D01*
X605351Y148856D01*
X605453Y148900D01*
X605577Y148959D01*
X605715Y149039D01*
X605868Y149141D01*
X606029Y149257D01*
X606036Y149265D01*
X606050Y149272D01*
X606072Y149294D01*
X606101Y149323D01*
X606182Y149396D01*
X606269Y149491D01*
X606371Y149607D01*
X606473Y149753D01*
X606568Y149906D01*
X606641Y150074D01*
X607428D01*
Y145000D01*
D02*
G37*
G36*
X604170D02*
X603200D01*
Y145970D01*
X604170D01*
Y145000D01*
D02*
G37*
D13*
X675500Y174500D02*
X680634D01*
X675500D02*
Y179634D01*
X670366Y174500D02*
X675500D01*
Y169366D02*
Y174500D01*
X323000Y158020D02*
Y163300D01*
X314000Y164000D02*
X322300D01*
X323000Y163300D01*
Y158020D02*
X325260Y155760D01*
X143000Y247914D02*
X143586Y248500D01*
X143000Y236453D02*
Y247914D01*
X143586Y248500D02*
X187000D01*
X161095Y194678D02*
Y202905D01*
X160165Y193748D02*
X161095Y194678D01*
X156500Y207500D02*
X161095Y202905D01*
X222543Y202957D02*
X227152Y198348D01*
Y192227D02*
Y198348D01*
X222543Y202957D02*
Y212874D01*
X227152Y192227D02*
X235879Y183500D01*
X234500Y187000D02*
Y187000D01*
X230761Y190739D02*
X234500Y187000D01*
X230500Y192126D02*
X230761Y191865D01*
Y190739D02*
Y191865D01*
X234500Y187000D02*
X236500Y185000D01*
X245500D01*
X247500Y187000D01*
X214500Y231914D02*
X215086Y232500D01*
X247121D01*
X214500Y212957D02*
Y231914D01*
X366303Y146500D02*
X369339D01*
X215500Y188233D02*
X216744Y189477D01*
X140000Y208000D02*
Y210665D01*
X142095Y212760D01*
X133500Y201500D02*
X140000Y208000D01*
X133500Y193000D02*
Y201500D01*
Y193000D02*
X138000Y188500D01*
X146500D01*
X142095Y212760D02*
X144063D01*
X143000Y230047D02*
X143745Y229302D01*
X140500Y216131D02*
Y216500D01*
X136756Y211000D02*
Y211197D01*
X139331Y213772D01*
Y214962D01*
X140500Y216131D01*
X365008Y227223D02*
Y228130D01*
X363651Y225866D02*
X365008Y227223D01*
X331520Y226695D02*
X332349Y225866D01*
X330992Y227223D02*
X331520Y226695D01*
X330992Y227223D02*
Y228130D01*
X331520Y221027D02*
X332047Y220500D01*
X344500Y234000D02*
X360056D01*
X302000Y176000D02*
Y226000D01*
Y176000D02*
X314000Y164000D01*
X302000Y226000D02*
X307949Y231949D01*
X380000Y237244D02*
X384244D01*
X384276Y237276D02*
Y240425D01*
X387090Y243239D01*
X388739Y243761D02*
X389000Y243500D01*
X387090Y243239D02*
X388739D01*
X389000Y243500D02*
X389037Y243537D01*
X388739Y243239D02*
X389000Y243500D01*
X393667Y237218D02*
X393724Y237276D01*
X388000Y224621D02*
Y238500D01*
X376245Y215255D02*
X380755D01*
X390086Y237218D02*
X393667D01*
X389925Y240425D02*
X393724D01*
X389500Y236632D02*
X390086Y237218D01*
X389500Y224000D02*
Y236632D01*
X388000Y238500D02*
X389925Y240425D01*
X362362Y178500D02*
X391000D01*
X405500Y193000D01*
Y196000D01*
X362983Y180000D02*
X390379D01*
X404000Y193621D02*
Y213500D01*
X390379Y180000D02*
X404000Y193621D01*
X339935Y186000D02*
X356983D01*
X362983Y180000D01*
X356362Y184500D02*
X362362Y178500D01*
X343550Y184500D02*
X356362D01*
X231095Y184804D02*
X231681Y184218D01*
X229696Y184804D02*
X231095D01*
X229500Y185000D02*
X229696Y184804D01*
X231681Y180267D02*
Y184218D01*
X338761Y161761D02*
X339717Y162716D01*
X336761Y161761D02*
X338761D01*
X336500Y161500D02*
X336761Y161761D01*
X332740Y161421D02*
X332819Y161500D01*
X336500D01*
X339717Y162716D02*
Y172205D01*
X404000Y213500D02*
X406000Y215500D01*
X405500Y196000D02*
X408547Y199047D01*
X416500D01*
X373621Y210500D02*
Y210869D01*
X373000Y211490D02*
X373621Y210869D01*
X152339Y213342D02*
X152921Y212760D01*
X144500Y208000D02*
X149842Y213342D01*
X152339D01*
X338882Y185316D02*
X339251D01*
X339935Y186000D01*
X251000Y212000D02*
X257500D01*
X251000Y202000D02*
X257500D01*
X384989Y192500D02*
X385000D01*
X381489Y196000D02*
X384989Y192500D01*
X376366Y215255D02*
X389000Y202621D01*
X389160Y183450D02*
Y184297D01*
Y183450D02*
X389420Y183190D01*
X386558Y183515D02*
X387500Y184457D01*
X389000D02*
Y202621D01*
Y184457D02*
X389160Y184297D01*
X377000Y212500D02*
X387500Y202000D01*
Y184457D02*
Y202000D01*
X386558Y183190D02*
Y183515D01*
X377831Y196000D02*
X381489D01*
X380819Y243575D02*
X384276D01*
X380000Y242756D02*
X380819Y243575D01*
X393687Y243537D02*
X393724Y243575D01*
X389037Y243537D02*
X393687D01*
X387239Y243761D02*
X388739D01*
X384276Y246724D02*
X387239Y243761D01*
X445806Y151241D02*
X446490Y151925D01*
X445806Y151241D02*
X445806Y151241D01*
X443354Y161571D02*
X448476D01*
X442500Y160716D02*
X443354Y161571D01*
X364453Y200000D02*
X365303Y199150D01*
X251000Y192000D02*
X257500D01*
X330166Y191465D02*
X330535D01*
X329631Y192000D02*
X330166Y191465D01*
X368623Y183586D02*
Y185377D01*
X247458Y245564D02*
Y247542D01*
X316000Y222000D02*
X319898D01*
X314795Y223204D02*
Y232289D01*
Y223204D02*
X316000Y222000D01*
X419648Y160937D02*
X422683D01*
X417097Y161681D02*
X418903D01*
X419648Y160937D01*
X415000Y159584D02*
X417097Y161681D01*
X418000Y159500D02*
X418138Y159362D01*
X422683D01*
X415000Y159500D02*
Y159584D01*
X375621Y212500D02*
X377000D01*
X376245Y215255D02*
X376366D01*
X373621Y210500D02*
X375621Y212500D01*
X375255Y215255D02*
X376245D01*
X373000Y216085D02*
X374352Y217436D01*
X373000Y211490D02*
Y216085D01*
X374352Y217436D02*
X376158D01*
X380134Y216755D02*
X388000Y224621D01*
X376840Y216755D02*
X380134D01*
X376158Y217436D02*
X376840Y216755D01*
X380755Y215255D02*
X389500Y224000D01*
X346000Y193047D02*
X347350D01*
X346000Y191500D02*
X347350Y192850D01*
X346000Y193047D02*
X346266Y193313D01*
X346000Y193047D02*
X346000Y193047D01*
X368500Y185500D02*
X372047D01*
X421591Y198957D02*
X425531D01*
X445806Y151241D02*
X446000Y151047D01*
X445759Y151288D02*
X445806Y151241D01*
X127268Y211000D02*
X131244D01*
X422683Y157787D02*
X426213D01*
X426500Y157500D01*
X438453Y161350D02*
Y167000D01*
Y161350D02*
X438472Y161331D01*
X409000Y215905D02*
X409582Y216487D01*
X415501D01*
X415773Y216760D01*
X406000Y215500D02*
X408595D01*
X409000Y215905D01*
X342869Y183819D02*
X343550Y184500D01*
X342500Y183819D02*
X342869D01*
X368500Y185500D02*
X368623Y185377D01*
X372047Y185500D02*
X372047Y185500D01*
X368037Y183000D02*
X368623Y183586D01*
X337354Y189354D02*
Y190854D01*
X341015Y193532D02*
X341500Y193047D01*
X319898Y182000D02*
X330000D01*
X337354Y189354D01*
X330131Y186500D02*
X330500D01*
X319898Y187000D02*
X329631D01*
X330131Y186500D01*
X337354Y190854D02*
X339500Y193000D01*
X364547Y183000D02*
X368037D01*
X364500Y183047D02*
X364547Y183000D01*
X447272Y152665D02*
X447661Y153054D01*
X447272Y151925D02*
Y152665D01*
X446490Y151925D02*
X447272D01*
X422256Y147500D02*
X422724D01*
X448943D01*
X319898Y192000D02*
X329631D01*
X251000Y207000D02*
X257500D01*
X251000Y197000D02*
X257500D01*
X247121Y232500D02*
X247133Y232512D01*
X250488D01*
X251000Y232000D01*
X187000Y248500D02*
X192500Y243000D01*
X191257Y240000D02*
X244015D01*
X251515Y247500D01*
X190015Y237000D02*
X245257D01*
X183893Y241000D02*
X189393Y235500D01*
X242500Y243000D02*
X244415Y244916D01*
X245257Y237000D02*
X252757Y244500D01*
X191879Y241500D02*
X243393D01*
X188772Y234000D02*
X246500D01*
X243393Y241500D02*
X247458Y245564D01*
X183272Y239500D02*
X188772Y234000D01*
X185136Y244000D02*
X190636Y238500D01*
X245879Y235500D02*
X253379Y243000D01*
X246500Y234000D02*
X254000Y241500D01*
X244636Y238500D02*
X252136Y246000D01*
X189393Y235500D02*
X245879D01*
X190636Y238500D02*
X244636D01*
X186379Y247000D02*
X191879Y241500D01*
X192500Y243000D02*
X242500D01*
X184515Y242500D02*
X190015Y237000D01*
X185757Y245500D02*
X191257Y240000D01*
X341012Y146500D02*
X344047D01*
X212626Y189131D02*
X213500Y188257D01*
Y182000D02*
Y188257D01*
Y182000D02*
X216500Y179000D01*
X215500Y182121D02*
Y188233D01*
X220500Y189500D02*
Y189767D01*
X215500Y182121D02*
X217121Y180500D01*
X156000Y208000D02*
X156500Y207500D01*
X156869D01*
X147000Y215661D02*
Y223500D01*
X143000Y227500D02*
X147000Y223500D01*
X143000Y227500D02*
Y230047D01*
X230414Y179000D02*
X231681Y180267D01*
X235879Y183500D02*
X246000D01*
X228233Y180500D02*
X229500Y181767D01*
X217121Y180500D02*
X228233D01*
X229500Y181767D02*
Y181862D01*
X216500Y179000D02*
X230414D01*
X246000Y183500D02*
X247500Y182000D01*
Y187000D02*
X251000D01*
X244415Y244916D02*
Y247543D01*
X376500Y155000D02*
X389247Y167747D01*
X337000Y155000D02*
X376500D01*
X326885Y156500D02*
X358000D01*
X335500Y153500D02*
X337000Y155000D01*
X325260Y158125D02*
Y161421D01*
Y158125D02*
X326885Y156500D01*
X325260Y151579D02*
Y155760D01*
X307949Y231949D02*
Y236921D01*
X334500Y146500D02*
X335500Y147500D01*
X331953Y146500D02*
X331953Y146500D01*
X335500Y147500D02*
Y153500D01*
X331953Y146500D02*
X334500D01*
X358000Y156500D02*
X365000Y163500D01*
X389216Y172205D02*
X389247Y172174D01*
Y167747D02*
Y172174D01*
X389216Y172205D02*
X390512Y173500D01*
X365000Y163500D02*
Y172197D01*
X365008Y172205D01*
X389000Y148012D02*
X389216Y147795D01*
X325654Y146894D02*
X326047Y146500D01*
X325260Y151579D02*
X325654Y151185D01*
Y146894D02*
Y151185D01*
X339717Y172205D02*
X341012Y173500D01*
X344244D01*
X339717Y147795D02*
X341012Y146500D01*
X365008Y147795D02*
X366303Y146500D01*
X390512D02*
X393547D01*
X389216Y147795D02*
X390512Y146500D01*
Y173500D02*
X393744D01*
X366303D02*
X369535D01*
X365008Y172205D02*
X366303Y173500D01*
X366187Y193313D02*
X366650Y192850D01*
X352500Y196969D02*
X354469Y195000D01*
X366000D02*
X367000Y196000D01*
X352500Y196969D02*
Y197000D01*
X354469Y195000D02*
X366000D01*
X346266Y193313D02*
X366187D01*
X367000Y196000D02*
X369169D01*
X366650Y192850D02*
X369169D01*
X329767Y211733D02*
X330595D01*
X332362Y213500D01*
X335047D01*
X326000Y215500D02*
X329767Y211733D01*
X329146Y210233D02*
X330767D01*
X324500Y214879D02*
X329146Y210233D01*
X330767D02*
X332500Y208500D01*
X324500Y214879D02*
Y226414D01*
X326000Y215500D02*
Y230000D01*
X332500Y208500D02*
X335047D01*
X330983Y217000D02*
X337414D01*
X329669Y218314D02*
X330983Y217000D01*
X327699Y220422D02*
Y234301D01*
Y220422D02*
X329669Y218452D01*
Y218314D02*
Y218452D01*
X356768Y228732D02*
Y230712D01*
X360056Y234000D01*
X339232Y228732D02*
X344500Y234000D01*
X356768Y226547D02*
X357449Y225866D01*
X356768Y226547D02*
Y228732D01*
X339232Y226547D02*
Y228732D01*
X338551Y225866D02*
X339232Y226547D01*
X345138Y228257D02*
X346011Y229130D01*
X345138Y225957D02*
Y228257D01*
X346011Y229130D02*
X348021D01*
X348894Y225957D02*
Y228257D01*
X348021Y229130D02*
X348894Y228257D01*
X416500Y199047D02*
X416500Y199047D01*
X421500D01*
X341453Y193000D02*
X341500Y193047D01*
X339500Y193000D02*
X341453D01*
X338709Y196075D02*
X344925D01*
X338000Y196784D02*
X338709Y196075D01*
X338000Y196784D02*
Y216414D01*
X344925Y196075D02*
X346000Y195000D01*
Y193047D02*
Y195000D01*
X345169Y202739D02*
X345755Y202154D01*
X343761Y202739D02*
X345169D01*
X345755Y199198D02*
Y202154D01*
X341344Y200120D02*
Y202193D01*
X343279Y202779D02*
X343500Y203000D01*
X341344Y202193D02*
X341930Y202779D01*
X343279D01*
X343500Y203000D02*
X343761Y202739D01*
X345755Y199198D02*
X346000Y198953D01*
X337414Y217000D02*
X338000Y216414D01*
X312949Y236921D02*
X313028Y237000D01*
X325000D01*
X327699Y234301D01*
X324000Y232000D02*
X326000Y230000D01*
X319898Y232000D02*
X324000D01*
X319898Y227000D02*
X323914D01*
X324500Y226414D01*
X345047Y219921D02*
Y225866D01*
X342768Y219240D02*
X345728D01*
X340905Y213500D02*
Y217378D01*
X342768Y219240D01*
X337953Y220500D02*
X340524D01*
X341110Y221086D01*
Y225866D01*
X337953Y220500D02*
X337953Y220500D01*
X340953Y208500D02*
X345493D01*
X346079Y209086D02*
Y211760D01*
X345493Y208500D02*
X346079Y209086D01*
Y211760D02*
X349691D01*
X329631Y197000D02*
X330131Y196500D01*
X330500D01*
X319898Y197000D02*
X329631D01*
X156869Y207500D02*
X157550Y208181D01*
X163107D01*
X151369Y210500D02*
X159335D01*
X161594Y212760D01*
X151504Y193748D02*
Y204996D01*
X176500Y189086D02*
Y212414D01*
X168827Y193748D02*
X169000Y193575D01*
X169500Y213000D02*
X175914D01*
X176500Y212414D01*
X175914Y188500D02*
X176500Y189086D01*
X169500Y188500D02*
X175914D01*
X168827Y189173D02*
X169500Y188500D01*
X168827Y189173D02*
Y193748D01*
X368206Y205000D02*
X368792Y204414D01*
X364453Y205000D02*
X368206D01*
X368792Y202676D02*
Y204414D01*
Y202851D02*
X372244Y206303D01*
X368792Y202676D02*
X369169Y202299D01*
X372244Y206303D02*
Y206500D01*
X365303Y199150D02*
X369169D01*
X377831Y189701D02*
X377953Y189579D01*
Y185500D02*
Y189579D01*
X364874Y189327D02*
X368795D01*
X369169Y189701D01*
X364500Y188953D02*
X364874Y189327D01*
X448943Y147500D02*
X453443Y152000D01*
X422256Y147500D02*
X422724Y147968D01*
Y153063D01*
X417500Y154744D02*
X417606Y154638D01*
X422724D01*
X442728Y151288D02*
X445759D01*
X438317Y153063D02*
X440954D01*
X442728Y151288D01*
X443291Y154638D02*
X445606Y156953D01*
X446000D01*
X438317Y154638D02*
X443291D01*
X442500Y158500D02*
Y160716D01*
X441787Y157787D02*
X442500Y158500D01*
X438276Y157787D02*
X441787D01*
X448476Y161571D02*
X448500Y161547D01*
X451350Y197850D02*
X452500Y199000D01*
X453500D01*
X451350Y191500D02*
Y197850D01*
X461250Y191500D02*
X464850D01*
X457650D02*
X461250D01*
Y189298D02*
Y191500D01*
X462777Y185176D02*
X463453Y184500D01*
X462777Y185176D02*
Y187772D01*
X461250Y189298D02*
X462777Y187772D01*
X148869Y208000D02*
X151369Y210500D01*
X148500Y208000D02*
X148869D01*
X325131Y206500D02*
X325500D01*
X319898Y207000D02*
X324631D01*
X325131Y206500D01*
X166500Y211574D02*
Y219414D01*
X168000Y214500D02*
X169500Y213000D01*
X163107Y208181D02*
X166500Y211574D01*
X162819Y220000D02*
X165914D01*
X166500Y219414D01*
X168000Y214500D02*
Y230547D01*
X162579Y220240D02*
X162819Y220000D01*
X504602Y241547D02*
X510000D01*
X504150Y242000D02*
X504602Y241547D01*
X522150Y242000D02*
X522602Y241547D01*
X528000D01*
X540602D02*
X546000D01*
X540150Y242000D02*
X540602Y241547D01*
X558150Y242000D02*
X558602Y241547D01*
X564000D01*
X576602D02*
X582000D01*
X576150Y242000D02*
X576602Y241547D01*
X594150Y242000D02*
X594602Y241547D01*
X600000D01*
X612150Y242000D02*
X612602Y241547D01*
X618000D01*
X152921Y212760D02*
X153507Y213346D01*
X156122D01*
X156708Y213931D01*
Y223292D01*
X158208Y213906D02*
Y230547D01*
X153000Y227000D02*
X156708Y223292D01*
X158794Y213320D02*
X161056D01*
X158208Y213906D02*
X158794Y213320D01*
X161056D02*
X161617Y212760D01*
X148500Y221500D02*
Y229547D01*
X148000Y230047D02*
X148500Y229547D01*
Y221500D02*
X149760Y220240D01*
X145658Y214319D02*
X147000Y215661D01*
X145622Y214319D02*
X145658D01*
X144063Y212760D02*
X145622Y214319D01*
X163586Y242500D02*
X184515D01*
X163000Y236453D02*
Y241914D01*
X163586Y242500D01*
X153000Y236453D02*
Y244914D01*
X153586Y245500D02*
X185757D01*
X153000Y244914D02*
X153586Y245500D01*
X148000Y236831D02*
X148000Y236831D01*
Y246414D02*
X148586Y247000D01*
X186379D01*
X148000Y236453D02*
Y236831D01*
X148000Y236831D02*
Y246414D01*
X134203Y243500D02*
X134500D01*
X126953Y241500D02*
X126953Y241500D01*
X134500Y223500D02*
X142493D01*
X143079Y220240D02*
Y222914D01*
X142493Y223500D02*
X143079Y222914D01*
X139799Y220240D02*
X143079D01*
X137831Y218272D02*
X139799Y220240D01*
X136953Y216500D02*
X137831Y217378D01*
Y218272D01*
X118646Y213146D02*
X123272Y217772D01*
X130169D01*
X113004Y213146D02*
X118646D01*
X131047Y216500D02*
Y216894D01*
X130169Y217772D02*
X131047Y216894D01*
X125996Y212272D02*
X127268Y211000D01*
X125996Y212272D02*
Y213146D01*
X113000Y183500D02*
X117500D01*
X119500Y185500D02*
Y191500D01*
X117500Y183500D02*
X119500Y185500D01*
X121500Y193500D02*
X125642D01*
X119500Y191500D02*
X121500Y193500D01*
X125642D02*
X125996Y193854D01*
X123500Y183500D02*
X125992D01*
X122256Y184744D02*
X123500Y183500D01*
X122256Y184744D02*
Y188543D01*
X163000Y220661D02*
Y230047D01*
X161594Y212760D02*
X161617D01*
X148500Y208000D02*
X151504Y204996D01*
X325131Y201500D02*
X325500D01*
X319898Y202000D02*
X324631D01*
X325131Y201500D01*
X349691Y211760D02*
X350276Y212346D01*
Y222500D01*
X350953Y223086D02*
Y225866D01*
X347692Y222500D02*
X350276D01*
X350862Y223086D01*
X347106D02*
Y225776D01*
Y223086D02*
X347692Y222500D01*
X347016Y225866D02*
X347106Y225776D01*
X348894Y225957D02*
X348984Y225866D01*
X345047D02*
X345138Y225957D01*
X354079Y221421D02*
X361032D01*
X352921Y222579D02*
Y225866D01*
Y222579D02*
X354079Y221421D01*
X345728Y219240D02*
X346079D01*
X345047Y219921D02*
X345728Y219240D01*
X361032Y221421D02*
X361500Y220953D01*
X253379Y243000D02*
X282414D01*
X292414Y246000D02*
X293000Y245414D01*
X283000Y237974D02*
Y242414D01*
X288000Y236687D02*
Y243914D01*
X277414Y241500D02*
X278000Y240914D01*
Y236884D02*
Y240914D01*
X251515Y247500D02*
X297414D01*
X282414Y243000D02*
X283000Y242414D01*
X252136Y246000D02*
X292414D01*
X254000Y241500D02*
X277414D01*
X297414Y247500D02*
X298000Y246914D01*
Y237305D02*
Y246914D01*
X293000Y237472D02*
Y245414D01*
X252757Y244500D02*
X287414D01*
X288000Y243914D01*
X303000Y236972D02*
Y247500D01*
X302949Y236921D02*
X303000Y236972D01*
X247500Y182000D02*
X251000D01*
X147173Y189173D02*
Y193748D01*
X146500Y188500D02*
X147173Y189173D01*
X172421Y220240D02*
X173000Y220819D01*
Y230547D01*
X168586Y241000D02*
X183893D01*
X168000Y240414D02*
X168586Y241000D01*
X173586Y239500D02*
X183272D01*
X168000Y236453D02*
Y240414D01*
X173000Y236453D02*
Y238914D01*
X173586Y239500D01*
X149760Y220240D02*
X152921D01*
X153000Y227000D02*
Y230547D01*
X162579Y220240D02*
X163000Y220661D01*
X161617Y212760D02*
X162579D01*
X158586Y244000D02*
X185136D01*
X158000Y243414D02*
X158586Y244000D01*
X158000Y236453D02*
X158000Y236453D01*
Y243414D01*
D23*
X389216Y147795D02*
D03*
Y172205D02*
D03*
X403784Y147795D02*
D03*
Y172205D02*
D03*
X379575D02*
D03*
Y147795D02*
D03*
X365008Y172205D02*
D03*
Y147795D02*
D03*
X354283Y172205D02*
D03*
Y147795D02*
D03*
X339717Y172205D02*
D03*
Y147795D02*
D03*
D24*
X125992Y164209D02*
D03*
X113000D02*
D03*
Y183500D02*
D03*
X125992D02*
D03*
X125996Y213146D02*
D03*
X113004D02*
D03*
Y193854D02*
D03*
X125996D02*
D03*
D25*
X564000Y247453D02*
D03*
Y241547D02*
D03*
X416500Y204953D02*
D03*
Y199047D02*
D03*
X421500Y199047D02*
D03*
Y204953D02*
D03*
X158000Y235953D02*
D03*
Y230047D02*
D03*
X173000Y235953D02*
D03*
Y230047D02*
D03*
X153000Y235953D02*
D03*
Y230047D02*
D03*
X148000Y235953D02*
D03*
Y230047D02*
D03*
X168000Y235953D02*
D03*
Y230047D02*
D03*
X143000Y235953D02*
D03*
Y230047D02*
D03*
X163000Y235953D02*
D03*
Y230047D02*
D03*
X510000Y241547D02*
D03*
Y247453D02*
D03*
X528000Y241547D02*
D03*
Y247453D02*
D03*
X546000Y241547D02*
D03*
Y247453D02*
D03*
X582000Y241547D02*
D03*
Y247453D02*
D03*
X600000Y241547D02*
D03*
Y247453D02*
D03*
X618000Y241547D02*
D03*
Y247453D02*
D03*
X448500Y167453D02*
D03*
Y161547D02*
D03*
X443500Y161594D02*
D03*
Y167500D02*
D03*
X361500Y220953D02*
D03*
Y215047D02*
D03*
X446000Y156953D02*
D03*
Y151047D02*
D03*
X409000Y210000D02*
D03*
Y215905D02*
D03*
X465500Y218016D02*
D03*
Y223921D02*
D03*
X473500Y179047D02*
D03*
Y184953D02*
D03*
X465500Y205047D02*
D03*
Y210953D02*
D03*
X346000Y193047D02*
D03*
Y198953D02*
D03*
X341500Y193047D02*
D03*
Y198953D02*
D03*
X364500Y183047D02*
D03*
Y188953D02*
D03*
D26*
X344244Y173500D02*
D03*
X349756D02*
D03*
X393744D02*
D03*
X399256D02*
D03*
X122256Y188543D02*
D03*
X116744D02*
D03*
X412744Y154500D02*
D03*
X418256D02*
D03*
X416744Y147500D02*
D03*
X422256D02*
D03*
X375047Y173500D02*
D03*
X369535D02*
D03*
X377756Y206500D02*
D03*
X372244D02*
D03*
X136756Y211000D02*
D03*
X131244D02*
D03*
D27*
X457547Y184500D02*
D03*
X463453D02*
D03*
X358547Y200000D02*
D03*
X364453D02*
D03*
X399453Y146500D02*
D03*
X393547D02*
D03*
X432547Y167000D02*
D03*
X438453D02*
D03*
X337953Y220500D02*
D03*
X332047D02*
D03*
X340953Y213500D02*
D03*
X335047D02*
D03*
X340953Y208500D02*
D03*
X335047D02*
D03*
X461953Y237000D02*
D03*
X456047D02*
D03*
X440406Y237000D02*
D03*
X434500D02*
D03*
X418953Y237000D02*
D03*
X413047D02*
D03*
X410047Y176000D02*
D03*
X415953D02*
D03*
X344047Y146500D02*
D03*
X349953D02*
D03*
X369339D02*
D03*
X375244D02*
D03*
X364453Y205000D02*
D03*
X358547D02*
D03*
X377953Y185500D02*
D03*
X372047D02*
D03*
X131047Y216500D02*
D03*
X136953D02*
D03*
X121047Y246500D02*
D03*
X126953D02*
D03*
X126953Y241500D02*
D03*
X121047D02*
D03*
X326047Y146500D02*
D03*
X331953D02*
D03*
D28*
X415773Y224240D02*
D03*
Y187240D02*
D03*
D29*
Y220500D02*
D03*
Y216760D02*
D03*
X425227D02*
D03*
Y224240D02*
D03*
X415773Y183500D02*
D03*
Y179760D02*
D03*
X425227D02*
D03*
Y187240D02*
D03*
D30*
X460000Y208000D02*
D03*
X460004Y220468D02*
D03*
D31*
X450650Y208000D02*
D03*
X450654Y220468D02*
D03*
D32*
X448000Y232496D02*
D03*
X469500Y232650D02*
D03*
X426500Y232496D02*
D03*
D33*
X448000Y241846D02*
D03*
X469500Y242000D02*
D03*
X426500Y241846D02*
D03*
D34*
X377831Y202299D02*
D03*
Y199150D02*
D03*
Y196000D02*
D03*
Y192850D02*
D03*
Y189701D02*
D03*
X369169D02*
D03*
Y192850D02*
D03*
Y196000D02*
D03*
Y199150D02*
D03*
Y202299D02*
D03*
D35*
X354890Y225866D02*
D03*
X352921D02*
D03*
X350953D02*
D03*
X348984D02*
D03*
X347016D02*
D03*
X345047D02*
D03*
X343079D02*
D03*
X341110D02*
D03*
D36*
X357449D02*
D03*
X338551D02*
D03*
X360598D02*
D03*
X335402D02*
D03*
D37*
X291354Y197394D02*
D03*
X296866D02*
D03*
X285842D02*
D03*
X296866Y202906D02*
D03*
X291354D02*
D03*
X285842D02*
D03*
X296866Y191882D02*
D03*
X291354D02*
D03*
X285842D02*
D03*
D38*
X319898Y167000D02*
D03*
Y172000D02*
D03*
Y177000D02*
D03*
Y182000D02*
D03*
Y187000D02*
D03*
Y192000D02*
D03*
Y197000D02*
D03*
Y202000D02*
D03*
Y207000D02*
D03*
Y212000D02*
D03*
Y217000D02*
D03*
Y222000D02*
D03*
Y227000D02*
D03*
Y232000D02*
D03*
X251000D02*
D03*
Y227000D02*
D03*
Y222000D02*
D03*
Y217000D02*
D03*
Y212000D02*
D03*
Y207000D02*
D03*
Y202000D02*
D03*
Y197000D02*
D03*
Y192000D02*
D03*
Y187000D02*
D03*
Y182000D02*
D03*
Y177000D02*
D03*
Y172000D02*
D03*
Y167000D02*
D03*
D39*
X312949Y236921D02*
D03*
X307949D02*
D03*
X302949D02*
D03*
X297949D02*
D03*
X292949D02*
D03*
X287949D02*
D03*
X282949D02*
D03*
X277949D02*
D03*
X272949D02*
D03*
X267949D02*
D03*
X262949D02*
D03*
X257949D02*
D03*
D40*
X170795Y201622D02*
D03*
X145205D02*
D03*
D41*
X173945Y148276D02*
D03*
X145008D02*
D03*
D42*
X173158Y193748D02*
D03*
X168827D02*
D03*
X164496D02*
D03*
X160165D02*
D03*
X155835D02*
D03*
X151504D02*
D03*
X147173D02*
D03*
X142842D02*
D03*
D43*
X331000Y172256D02*
D03*
Y166744D02*
D03*
X326000Y172256D02*
D03*
Y166744D02*
D03*
X431500Y218244D02*
D03*
Y223756D02*
D03*
X409500Y229756D02*
D03*
Y224244D02*
D03*
X431000Y181244D02*
D03*
Y186756D02*
D03*
X410000Y192756D02*
D03*
Y187244D02*
D03*
X451500Y177256D02*
D03*
Y171744D02*
D03*
X473500Y174756D02*
D03*
Y169244D02*
D03*
X380000Y242756D02*
D03*
Y237244D02*
D03*
D44*
X236728Y247988D02*
D03*
X228728D02*
D03*
X220730D02*
D03*
X212730D02*
D03*
X204732D02*
D03*
X196732D02*
D03*
D45*
X244063Y170968D02*
D03*
Y162969D02*
D03*
Y154969D02*
D03*
Y146968D02*
D03*
D46*
X162579Y212760D02*
D03*
Y216500D02*
D03*
Y220240D02*
D03*
X172421D02*
D03*
Y216500D02*
D03*
Y212760D02*
D03*
X152921Y220240D02*
D03*
Y216500D02*
D03*
Y212760D02*
D03*
X143079D02*
D03*
Y216500D02*
D03*
Y220240D02*
D03*
X346079Y219240D02*
D03*
Y215500D02*
D03*
Y211760D02*
D03*
X355921D02*
D03*
Y215500D02*
D03*
Y219240D02*
D03*
D47*
X504150Y242000D02*
D03*
X497850D02*
D03*
X522150D02*
D03*
X515850D02*
D03*
X540150D02*
D03*
X533850D02*
D03*
X558150D02*
D03*
X551850D02*
D03*
X576150D02*
D03*
X569850D02*
D03*
X594150D02*
D03*
X587850D02*
D03*
X612150D02*
D03*
X605850D02*
D03*
X464850Y191500D02*
D03*
X471150D02*
D03*
X451350D02*
D03*
X457650D02*
D03*
D48*
X458106Y178740D02*
D03*
D49*
Y175000D02*
D03*
Y171260D02*
D03*
X466894D02*
D03*
Y178740D02*
D03*
D50*
X462043Y242032D02*
D03*
Y245969D02*
D03*
X440543Y242032D02*
D03*
Y245969D02*
D03*
X419043Y242032D02*
D03*
Y245969D02*
D03*
D51*
X455252Y244000D02*
D03*
X433752D02*
D03*
X412252D02*
D03*
D52*
X425531Y198957D02*
D03*
X429468D02*
D03*
X470031Y217925D02*
D03*
X473969D02*
D03*
X470031Y204957D02*
D03*
X473969D02*
D03*
D53*
X427500Y205748D02*
D03*
X472000Y224716D02*
D03*
Y211748D02*
D03*
D54*
X472815Y159500D02*
D03*
X457185D02*
D03*
D55*
X393724Y246724D02*
D03*
Y243575D02*
D03*
Y240425D02*
D03*
Y237276D02*
D03*
X384276D02*
D03*
Y240425D02*
D03*
Y243575D02*
D03*
Y246724D02*
D03*
D56*
X332740Y161421D02*
D03*
X329000D02*
D03*
X325260D02*
D03*
Y151579D02*
D03*
X329000D02*
D03*
X332740D02*
D03*
D61*
X430500Y157000D02*
D03*
D62*
X438276Y160937D02*
D03*
Y159362D02*
D03*
Y157787D02*
D03*
X438317Y156213D02*
D03*
Y154638D02*
D03*
Y153063D02*
D03*
X422724D02*
D03*
Y154638D02*
D03*
Y156213D02*
D03*
X422683Y157787D02*
D03*
Y159362D02*
D03*
Y160937D02*
D03*
D85*
X394000Y215622D02*
D03*
D86*
Y207748D02*
D03*
Y199874D02*
D03*
Y192000D02*
D03*
D87*
X365008Y244587D02*
D03*
X330992D02*
D03*
D88*
X365008Y228130D02*
D03*
X330992D02*
D03*
D89*
X359378Y230098D02*
D03*
X336622D02*
D03*
D93*
X516269Y208300D02*
D03*
D94*
X545600D02*
D03*
D99*
X158914Y199154D02*
D03*
X145733Y246033D02*
D03*
X421833Y242633D02*
D03*
X503500Y207000D02*
D03*
X223421Y196500D02*
D03*
X230500Y192126D02*
D03*
X222543Y212874D02*
D03*
X214500Y212968D02*
D03*
X213579Y196500D02*
D03*
X290500Y232000D02*
D03*
X389000Y243500D02*
D03*
X316019Y177396D02*
D03*
X357319Y202500D02*
D03*
X354819Y189500D02*
D03*
X229500Y185000D02*
D03*
X336500Y161500D02*
D03*
X378000Y184000D02*
D03*
X368500Y185500D02*
D03*
X364500Y198500D02*
D03*
X373621Y210500D02*
D03*
X148500Y208000D02*
D03*
X144500D02*
D03*
X431333Y196333D02*
D03*
X315264Y198701D02*
D03*
X338882Y185316D02*
D03*
X257500Y202000D02*
D03*
Y212000D02*
D03*
X385000Y192500D02*
D03*
X446000Y161500D02*
D03*
X236451Y245181D02*
D03*
X204500D02*
D03*
X257500Y192000D02*
D03*
X330535Y191465D02*
D03*
X247458Y247542D02*
D03*
X314795Y232289D02*
D03*
X308500Y223500D02*
D03*
X418000Y159500D02*
D03*
X415000D02*
D03*
X386558Y183190D02*
D03*
X389420D02*
D03*
X375255Y215255D02*
D03*
X368000Y148000D02*
D03*
X398000Y148500D02*
D03*
X374000Y148000D02*
D03*
X508000Y248000D02*
D03*
X429785Y193209D02*
D03*
X228500Y245181D02*
D03*
X544000Y248000D02*
D03*
X526000D02*
D03*
X598000D02*
D03*
X616000D02*
D03*
X580000D02*
D03*
X562000D02*
D03*
X276000Y223500D02*
D03*
X152000Y222000D02*
D03*
X447500Y169500D02*
D03*
X426957Y155032D02*
D03*
X430500D02*
D03*
X434043D02*
D03*
X426957Y158968D02*
D03*
X430500D02*
D03*
X434043D02*
D03*
X438500Y164500D02*
D03*
X430500Y167000D02*
D03*
X342500Y183819D02*
D03*
X330500Y186500D02*
D03*
X335652Y194652D02*
D03*
X337500Y191000D02*
D03*
X348458Y147958D02*
D03*
X257500Y207000D02*
D03*
Y197000D02*
D03*
X220500Y245181D02*
D03*
X212500D02*
D03*
X212626Y189500D02*
D03*
X216563D02*
D03*
X220500D02*
D03*
X128000Y164000D02*
D03*
X156000Y208000D02*
D03*
X258000Y234000D02*
D03*
X229500Y181862D02*
D03*
X244415Y247543D02*
D03*
X329000Y154000D02*
D03*
Y159000D02*
D03*
X352500Y197000D02*
D03*
X346000Y191500D02*
D03*
X343500Y203000D02*
D03*
X342000Y208500D02*
D03*
X330500Y196500D02*
D03*
X372732Y197193D02*
D03*
X320000Y217500D02*
D03*
Y213181D02*
D03*
X169500Y188500D02*
D03*
X286181Y223500D02*
D03*
X299000D02*
D03*
X344500Y220500D02*
D03*
X325500Y206500D02*
D03*
X353500Y215500D02*
D03*
X348095D02*
D03*
X175000Y216500D02*
D03*
X140500D02*
D03*
X150000D02*
D03*
X164000D02*
D03*
X268000Y234181D02*
D03*
X263000Y234000D02*
D03*
X273000Y234181D02*
D03*
X325500Y201500D02*
D03*
X303000Y247500D02*
D03*
X171500Y222000D02*
D03*
D101*
X679571Y197000D02*
G03*
X683600Y201814I-4072J7500D01*
G01*
Y192186D02*
G03*
X679571Y197000I-8100J-2686D01*
G01*
X677791Y181279D02*
G03*
X683600Y186814I-2291J8221D01*
G01*
X673209Y181279D02*
G03*
X677791Y181279I2291J8221D01*
G01*
X671428Y197000D02*
G03*
X673209Y181279I4072J-7500D01*
G01*
D02*
G03*
X670963Y180034I2291J-6779D01*
G01*
X680037D02*
G03*
X677791Y181279I-4537J-5534D01*
G01*
X681034Y169963D02*
G03*
X682656Y174500I-5534J4537D01*
G01*
D02*
G03*
X681034Y179037I-7156J0D01*
G01*
X670963Y168966D02*
G03*
X680037Y168966I4537J5534D01*
G01*
X669966Y179037D02*
G03*
X669966Y169963I5534J-4537D01*
G01*
X683600Y243362D02*
G03*
X683600Y212740I-1860J-15311D01*
G01*
Y207186D02*
G03*
X671428Y197000I-8100J-2686D01*
G01*
X651561Y224823D02*
G03*
X651561Y224823I-8061J0D01*
G01*
X683600Y164622D02*
G03*
X666381Y147900I-1860J-15311D01*
G01*
X651561Y182500D02*
G03*
X651561Y182500I-8061J0D01*
G01*
X683250Y208074D02*
X683600Y208424D01*
Y243362D02*
Y245100D01*
Y192186D02*
Y201814D01*
Y207186D02*
Y212740D01*
X679796Y245100D02*
X681424Y243472D01*
X680251Y196589D02*
X683600Y199939D01*
X681778Y183720D02*
X683600Y181899D01*
X682641Y199828D02*
X683600Y198869D01*
X680665Y180034D02*
X683600Y182968D01*
X681034Y179037D02*
Y180034D01*
X680251Y196589D02*
X683600Y199939D01*
X677821Y213134D02*
X678445Y212510D01*
X674324Y241575D02*
X677849Y245100D01*
X678982Y212291D02*
X679484Y212793D01*
X671310Y245100D02*
X674658Y241753D01*
X676031Y180983D02*
X676980Y180034D01*
X672180D02*
X673380Y181234D01*
X680037Y180034D02*
X681034D01*
X670963D02*
X680037D01*
X669966D02*
X670963D01*
X669966Y179037D02*
Y180034D01*
X682581Y173464D02*
X683600Y174483D01*
X681034Y175979D02*
X682654Y174359D01*
X683600Y164622D02*
Y186814D01*
X681034Y169963D02*
Y179037D01*
X682654Y174359D02*
X683600Y173413D01*
X681034Y171917D02*
X682581Y173464D01*
X682326Y164724D02*
X683600Y165998D01*
X681034Y168966D02*
Y169963D01*
X680037Y168966D02*
X681034D01*
X679770Y168758D02*
X683600Y164928D01*
X669966Y169963D02*
Y179037D01*
X669617Y170425D02*
X669966Y170077D01*
X668622Y176476D02*
X669966Y177820D01*
X676536Y167420D02*
X678083Y168966D01*
X671077D02*
X671425Y168617D01*
X676300Y163743D01*
X669966Y168966D02*
X670963D01*
X669966D02*
Y169963D01*
X670963Y168966D02*
X680037D01*
X662825Y245100D02*
X669941Y237984D01*
X654340Y245100D02*
X666965Y232475D01*
X651262Y226998D02*
X669364Y245100D01*
X631500D02*
X683600D01*
X645855D02*
X666823Y224132D01*
X637369Y245100D02*
X670828Y211641D01*
X651278Y222706D02*
X667261Y206723D01*
X647629Y189424D02*
X673328Y215123D01*
X647611Y217888D02*
X669720Y195779D01*
X631500Y198751D02*
X668216Y235467D01*
X631500Y190265D02*
X666559Y225325D01*
X638565Y218449D02*
X666983Y190031D01*
X647564Y231785D02*
X660879Y245100D01*
X638119Y230825D02*
X652393Y245100D01*
X631500Y233999D02*
X636565Y228933D01*
X631500Y232692D02*
X643908Y245100D01*
X631500Y241177D02*
X635423Y245100D01*
X631500Y242484D02*
X641383Y232601D01*
X631500Y207236D02*
X641325Y217060D01*
X631500Y200058D02*
X641302Y190256D01*
X631500Y200058D02*
X641302Y190256D01*
X631500Y224206D02*
X637498Y230204D01*
X631500Y225513D02*
X637126Y219887D01*
X631500Y215721D02*
X636538Y220759D01*
X638687Y188967D02*
X669032Y219312D01*
X651285Y184594D02*
X667709Y201018D01*
X631561Y147900D02*
X668411Y184749D01*
X631561Y147900D02*
X668411Y184749D01*
X631500Y217028D02*
X669758Y178770D01*
X631500Y208543D02*
X669617Y170425D01*
X631500Y156324D02*
X667419Y192243D01*
X651256Y180302D02*
X671090Y160467D01*
X651256Y180302D02*
X671090Y160467D01*
X657017Y147900D02*
X676536Y167420D01*
X640046Y147900D02*
X668622Y176476D01*
X647545Y175527D02*
X667600Y155472D01*
X648532Y147900D02*
X669966Y169334D01*
X631500Y173295D02*
X636576Y178371D01*
X631500Y183087D02*
X666354Y148233D01*
X631500Y164810D02*
X641406Y174715D01*
X631500Y181780D02*
X637033Y187313D01*
X631500Y191572D02*
X636527Y186545D01*
X631500Y147900D02*
Y245100D01*
Y147900D02*
X666381D01*
X631500Y149146D02*
X632746Y147900D01*
X665502D02*
X666328Y148725D01*
X631500Y174602D02*
X658202Y147900D01*
X631500Y166116D02*
X649716Y147900D01*
X631500Y157631D02*
X641231Y147900D01*
D102*
X208918Y177818D02*
Y191839D01*
X213579Y196500D01*
X360598Y225866D02*
X363651D01*
X331520Y221027D02*
Y226695D01*
X332349Y225866D02*
X335402D01*
X294110Y191882D02*
X296866D01*
Y194638D01*
Y197394D01*
X294110Y202906D02*
X296866D01*
X285842D02*
X288598D01*
X285842Y191882D02*
X288598D01*
X285842Y200150D02*
Y202906D01*
Y197394D02*
Y200150D01*
Y194638D02*
Y197394D01*
Y191882D02*
Y194638D01*
X296866Y200150D02*
Y202906D01*
Y197394D02*
Y200150D01*
X291354Y197394D02*
Y200150D01*
Y194638D02*
Y197394D01*
X285842D02*
X288598D01*
X294110D02*
X296866D01*
X291354D02*
X294110D01*
X288598D02*
X291354D01*
X368429Y234000D02*
X371929Y230500D01*
X372000D01*
X426500Y241846D02*
Y243618D01*
Y240075D02*
Y241846D01*
X424547Y245571D02*
X426500Y243618D01*
X419043Y245969D02*
X422378D01*
X422776Y245571D02*
X424547D01*
X422378Y245969D02*
X422776Y245571D01*
X360056Y234000D02*
X368429D01*
X431000Y186756D02*
X435772D01*
X439500Y183028D01*
Y183000D02*
Y183028D01*
X421319Y195488D02*
X426000D01*
X421000Y195169D02*
X421319Y195488D01*
X316088Y177327D02*
X319570D01*
X319898Y177000D01*
X316019Y177396D02*
X316088Y177327D01*
X312380Y175454D02*
Y178117D01*
X315382Y172452D02*
X319446D01*
X319898Y172000D01*
X312380Y175454D02*
X315382Y172452D01*
X311997Y178500D02*
X312380Y178117D01*
X418134Y187452D02*
Y189328D01*
X419306Y190500D01*
X436828D01*
X417922Y187240D02*
X418134Y187452D01*
X405585Y218500D02*
X407585Y220500D01*
X405044Y218500D02*
X405585D01*
X407585Y220500D02*
X415773D01*
X426000Y195488D02*
X429468Y198957D01*
X438000Y216248D02*
Y224000D01*
Y191672D02*
Y216248D01*
X427500Y205748D02*
X438000Y216248D01*
X422689Y205748D02*
X427500D01*
X431172Y230828D02*
X438000Y224000D01*
X423000Y232248D02*
X426252D01*
X430400Y224159D02*
X431303Y223256D01*
X431500D01*
X436828Y190500D02*
X438000Y191672D01*
X330601Y172655D02*
X331000Y172256D01*
X320026Y172128D02*
X321743D01*
X326000D02*
X330872D01*
X321743D02*
X326000D01*
X460000Y208000D02*
Y208886D01*
Y207114D02*
X461936Y205178D01*
X460000Y207114D02*
Y208000D01*
X476500Y199000D02*
X480000Y195500D01*
X473969Y201532D02*
X476500Y199000D01*
X473969Y201532D02*
Y204957D01*
X421500Y199047D02*
X421591Y198957D01*
X461924Y233883D02*
X463157Y232650D01*
X461668Y236715D02*
X462043Y237090D01*
X463157Y232650D02*
X469500D01*
X461383Y233883D02*
X461924D01*
X461668Y234168D02*
Y236715D01*
X461383Y233883D02*
X461668Y234168D01*
X461936Y205178D02*
X465369D01*
X465500Y205047D02*
X465590Y204957D01*
X465369Y205178D02*
X465500Y205047D01*
X460000Y225000D02*
X460002Y224998D01*
X459617Y225383D02*
X460000Y225000D01*
X460002Y220470D02*
X460004Y220468D01*
X460002Y220470D02*
Y224998D01*
X453504Y232496D02*
X459617Y226383D01*
Y225383D02*
Y226383D01*
X448000Y232496D02*
X453504D01*
X446378Y156575D02*
X449089D01*
X451139Y154304D02*
X452272Y153172D01*
X451697Y171744D02*
X456050D01*
X451139Y154304D02*
Y154525D01*
X449089Y156575D02*
X451139Y154525D01*
X330872Y172128D02*
X331000Y172256D01*
X460004Y219000D02*
Y220468D01*
X465500Y218016D02*
X465516Y218000D01*
X465365Y218150D02*
X465500Y218016D01*
X422047Y232383D02*
X422617D01*
X418953Y236606D02*
Y237000D01*
Y236606D02*
X420745Y234814D01*
Y233685D02*
Y234814D01*
Y233685D02*
X422047Y232383D01*
X422617D02*
X423000Y232000D01*
X431172Y229172D02*
Y230828D01*
X430000Y228000D02*
X431172Y229172D01*
Y230828D02*
Y235403D01*
X415773Y187240D02*
X417922D01*
X452272Y153172D02*
Y171169D01*
Y153172D02*
Y153172D01*
X453443Y152000D02*
X476736D01*
X451697Y171744D02*
X452272Y171169D01*
X446000Y156953D02*
X446378Y156575D01*
X450650Y201850D02*
Y208000D01*
X472000Y224716D02*
Y226500D01*
Y223248D02*
Y224716D01*
X491925Y193327D02*
Y211075D01*
X481500Y221500D02*
X482497Y220503D01*
X491925Y211075D01*
X472000Y221500D02*
X481500D01*
X473969Y213106D02*
Y216457D01*
X472610Y211748D02*
X473969Y213106D01*
X155835Y193748D02*
X155917Y193665D01*
Y187083D02*
Y193665D01*
Y187083D02*
X156000Y187000D01*
X453500Y199000D02*
X476500D01*
X480000Y173000D02*
Y195500D01*
X473500Y169244D02*
X473756Y169500D01*
X473158Y168902D02*
X473500Y169244D01*
X470726Y169000D02*
X473158D01*
X473756Y169500D02*
X476500D01*
X480000Y173000D01*
X450650Y201850D02*
X453500Y199000D01*
X472815Y159500D02*
X473158Y159843D01*
Y168902D01*
X426252Y232248D02*
X426500Y232496D01*
X415773Y224240D02*
X417922D01*
X421681Y228000D01*
X430000D01*
X440543Y237138D02*
Y242032D01*
X440406Y237000D02*
X440543Y237138D01*
X452425Y220468D02*
X458394Y214500D01*
X468638D02*
X471390Y211748D01*
X458394Y214500D02*
X468638D01*
X450654Y220468D02*
X452425D01*
X469500Y229000D02*
X472000Y226500D01*
X469500Y229000D02*
Y232650D01*
X461877Y218516D02*
X462243Y218150D01*
X460488Y218516D02*
X461877D01*
X462243Y218150D02*
X465365D01*
X460004Y219000D02*
X460488Y218516D01*
X465516Y218000D02*
X469957D01*
X470031Y217925D01*
X426500Y240075D02*
X431172Y235403D01*
X409502Y224242D02*
X415771D01*
X409500Y224244D02*
X409502Y224242D01*
X415771D02*
X415773Y224240D01*
X421894Y204953D02*
X422689Y205748D01*
X421500Y204953D02*
X421894D01*
X410002Y187242D02*
X410024Y187221D01*
X410000Y187244D02*
X410002Y187242D01*
X410024Y176024D02*
Y187221D01*
Y176024D02*
X410047Y176000D01*
X415453D02*
X415613Y176160D01*
Y179599D02*
X415773Y179760D01*
X415613Y176160D02*
Y179599D01*
X415771Y187242D02*
X415773Y187240D01*
X410002Y187242D02*
X415771D01*
X465590Y204957D02*
X470031D01*
X456534Y171260D02*
X458106D01*
X456050Y171744D02*
X456534Y171260D01*
X452272Y153172D02*
X453443Y152000D01*
X451500Y171744D02*
X451697D01*
X476736Y152000D02*
X492000Y167264D01*
X457547Y178878D02*
X457685Y178740D01*
X458106D01*
X457547Y178878D02*
Y184500D01*
X473246Y178793D02*
X473500Y179047D01*
X466894Y178740D02*
X466947Y178793D01*
X473246D01*
X468466Y171260D02*
X470726Y169000D01*
X466894Y171260D02*
X468466D01*
X425227Y187240D02*
X425308Y187159D01*
X430400D01*
X425308Y224159D02*
X430400D01*
X442000Y232500D02*
X447996D01*
X448000Y232496D01*
X440784Y233717D02*
Y236622D01*
Y233717D02*
X442000Y232500D01*
X440406Y237000D02*
X440784Y236622D01*
X467547Y245724D02*
X469500Y243772D01*
X465776Y245724D02*
X467547D01*
X465531Y245969D02*
X465776Y245724D01*
X462043Y245969D02*
X465531D01*
X469500Y242000D02*
Y243772D01*
X462043Y237090D02*
Y242032D01*
X419043Y237591D02*
Y242032D01*
X448000Y241846D02*
Y243618D01*
X446047Y245571D02*
X448000Y243618D01*
X444429Y245571D02*
X446047D01*
X440543Y245969D02*
X444031D01*
X444429Y245571D01*
X131203Y246500D02*
X134203Y243500D01*
X126953Y246500D02*
X131203D01*
X126953Y241500D02*
Y246500D01*
D103*
X491925Y193327D02*
D03*
Y224823D02*
D03*
X643500Y182500D02*
D03*
Y224823D02*
D03*
D104*
X291354Y194638D02*
D03*
X296866D02*
D03*
X285842D02*
D03*
X296866Y200150D02*
D03*
X291354D02*
D03*
X285842D02*
D03*
X294110Y191882D02*
D03*
X288598D02*
D03*
X294110Y197394D02*
D03*
X288598D02*
D03*
X294110Y202906D02*
D03*
X288598D02*
D03*
D105*
X134500Y243500D02*
D03*
Y233500D02*
D03*
X492000Y167264D02*
D03*
Y177264D02*
D03*
D106*
X134500Y223500D02*
D03*
X492000Y157264D02*
D03*
D107*
X235205Y211000D02*
D03*
X198000D02*
D03*
D108*
X675500Y174500D02*
D03*
D109*
Y189500D02*
D03*
Y204500D02*
D03*
D110*
X409200Y204300D02*
D03*
X204000Y177818D02*
D03*
X208918D02*
D03*
X136500Y199500D02*
D03*
X353000Y231000D02*
D03*
X261500Y173000D02*
D03*
X181000Y232000D02*
D03*
X149000Y159500D02*
D03*
X176500Y166500D02*
D03*
X440000Y228500D02*
D03*
X372000Y230500D02*
D03*
X371275Y241725D02*
D03*
X425000Y222000D02*
D03*
X409243Y243743D02*
D03*
X461500Y175000D02*
D03*
X439500Y183000D02*
D03*
X417000Y183500D02*
D03*
X404916Y187119D02*
D03*
X421000Y195169D02*
D03*
X311997Y178500D02*
D03*
X357500Y179000D02*
D03*
X199000Y166500D02*
D03*
X405044Y218500D02*
D03*
X271000Y216500D02*
D03*
X441500Y217000D02*
D03*
X420047Y212000D02*
D03*
X306500Y192500D02*
D03*
X336500Y178500D02*
D03*
X263000Y218000D02*
D03*
X267000Y207000D02*
D03*
X275000D02*
D03*
X354500Y205000D02*
D03*
X349500D02*
D03*
X472423Y245107D02*
D03*
X347000Y163000D02*
D03*
X462500Y205000D02*
D03*
X466500Y209000D02*
D03*
X442000Y206000D02*
D03*
X461383Y233883D02*
D03*
X460000Y225000D02*
D03*
X458500Y247000D02*
D03*
X436923Y246666D02*
D03*
X126000Y179500D02*
D03*
X128268Y209693D02*
D03*
X447661Y153054D02*
D03*
X423000Y232000D02*
D03*
X118500Y246500D02*
D03*
X156000Y187000D02*
D03*
X196918Y246318D02*
D03*
X448000Y239500D02*
D03*
X118500Y241500D02*
D03*
D111*
X114811Y228051D02*
D03*
X681740Y149311D02*
D03*
Y228051D02*
D03*
X114811Y149311D02*
D03*
M02*
