G04*
G04 #@! TF.GenerationSoftware,Altium Limited,Altium Designer,22.9.1 (49)*
G04*
G04 Layer_Color=32896*
%FSLAX25Y25*%
%MOIN*%
G70*
G04*
G04 #@! TF.SameCoordinates,3F8A9F32-4B6F-401C-BF37-4CBD66F0855C*
G04*
G04*
G04 #@! TF.FilePolarity,Positive*
G04*
G01*
G75*
%ADD11C,0.00787*%
G36*
X534350Y213651D02*
X534288Y213614D01*
X534230Y213574D01*
X534172Y213527D01*
X534121Y213483D01*
X534077Y213440D01*
X534041Y213407D01*
X534030Y213392D01*
X534019Y213381D01*
X534015Y213378D01*
X534012Y213374D01*
X533950Y213298D01*
X533892Y213221D01*
X533841Y213148D01*
X533801Y213076D01*
X533764Y213014D01*
X533750Y212988D01*
X533739Y212966D01*
X533728Y212948D01*
X533724Y212934D01*
X533717Y212926D01*
Y212923D01*
X533418D01*
X533440Y212977D01*
X533466Y213032D01*
X533491Y213087D01*
X533517Y213138D01*
X533538Y213181D01*
X533557Y213218D01*
X533571Y213239D01*
X533575Y213243D01*
Y213247D01*
X533615Y213312D01*
X533655Y213370D01*
X533691Y213421D01*
X533724Y213461D01*
X533750Y213498D01*
X533772Y213520D01*
X533786Y213538D01*
X533790Y213542D01*
X531820D01*
Y213851D01*
X534350D01*
Y213651D01*
D02*
G37*
G36*
X534339Y210473D02*
X534041D01*
Y211303D01*
X531820D01*
Y211638D01*
X534041D01*
Y212468D01*
X534339D01*
Y210473D01*
D02*
G37*
G36*
X532632Y210200D02*
X532705Y210186D01*
X532767Y210164D01*
X532825Y210142D01*
X532869Y210120D01*
X532901Y210098D01*
X532923Y210084D01*
X532931Y210080D01*
X532989Y210029D01*
X533036Y209974D01*
X533076Y209912D01*
X533109Y209858D01*
X533135Y209807D01*
X533149Y209763D01*
X533156Y209749D01*
X533160Y209738D01*
X533164Y209731D01*
Y209727D01*
X533200Y209789D01*
X533236Y209843D01*
X533276Y209887D01*
X533313Y209923D01*
X533342Y209952D01*
X533371Y209974D01*
X533386Y209985D01*
X533393Y209989D01*
X533448Y210018D01*
X533498Y210040D01*
X533549Y210058D01*
X533597Y210069D01*
X533637Y210076D01*
X533670Y210080D01*
X533688D01*
X533695D01*
X533757Y210076D01*
X533819Y210065D01*
X533873Y210047D01*
X533924Y210029D01*
X533968Y210011D01*
X533997Y209993D01*
X534019Y209982D01*
X534026Y209978D01*
X534081Y209938D01*
X534132Y209894D01*
X534172Y209847D01*
X534205Y209803D01*
X534230Y209767D01*
X534248Y209734D01*
X534259Y209712D01*
X534263Y209709D01*
Y209705D01*
X534288Y209636D01*
X534306Y209559D01*
X534321Y209483D01*
X534328Y209410D01*
X534336Y209345D01*
Y209315D01*
X534339Y209290D01*
Y208300D01*
X531820D01*
Y209261D01*
X531824Y209348D01*
X531828Y209425D01*
X531835Y209494D01*
X531842Y209552D01*
X531849Y209599D01*
X531853Y209636D01*
X531860Y209658D01*
Y209665D01*
X531879Y209727D01*
X531897Y209778D01*
X531919Y209825D01*
X531941Y209865D01*
X531955Y209898D01*
X531970Y209923D01*
X531981Y209938D01*
X531984Y209942D01*
X532017Y209982D01*
X532057Y210018D01*
X532097Y210047D01*
X532133Y210076D01*
X532170Y210098D01*
X532195Y210113D01*
X532213Y210124D01*
X532221Y210127D01*
X532279Y210153D01*
X532337Y210171D01*
X532392Y210186D01*
X532443Y210193D01*
X532486Y210200D01*
X532523Y210204D01*
X532545D01*
X532548D01*
X532552D01*
X532632Y210200D01*
D02*
G37*
%LPC*%
G36*
X533677Y209752D02*
X533662D01*
X533655D01*
X533608Y209749D01*
X533564Y209741D01*
X533528Y209731D01*
X533498Y209719D01*
X533473Y209709D01*
X533451Y209698D01*
X533440Y209690D01*
X533437Y209687D01*
X533407Y209661D01*
X533378Y209629D01*
X533357Y209596D01*
X533342Y209567D01*
X533327Y209538D01*
X533316Y209516D01*
X533313Y209501D01*
X533309Y209494D01*
X533302Y209454D01*
X533295Y209403D01*
X533291Y209352D01*
X533287Y209301D01*
X533284Y209254D01*
Y208635D01*
X534041D01*
Y209232D01*
X534033Y209312D01*
X534030Y209374D01*
X534023Y209428D01*
X534015Y209468D01*
X534012Y209494D01*
X534004Y209512D01*
Y209516D01*
X533990Y209556D01*
X533968Y209592D01*
X533946Y209621D01*
X533924Y209647D01*
X533906Y209665D01*
X533888Y209680D01*
X533877Y209687D01*
X533873Y209690D01*
X533837Y209712D01*
X533801Y209727D01*
X533764Y209738D01*
X533728Y209745D01*
X533699Y209749D01*
X533677Y209752D01*
D02*
G37*
G36*
X532574Y209861D02*
X532559D01*
X532552D01*
X532508Y209858D01*
X532465Y209854D01*
X532428Y209847D01*
X532399Y209836D01*
X532374Y209825D01*
X532352Y209818D01*
X532341Y209814D01*
X532337Y209810D01*
X532304Y209789D01*
X532275Y209770D01*
X532254Y209745D01*
X532232Y209727D01*
X532217Y209709D01*
X532206Y209694D01*
X532199Y209683D01*
X532195Y209680D01*
X532166Y209618D01*
X532144Y209556D01*
X532137Y209530D01*
X532133Y209508D01*
X532130Y209494D01*
Y209490D01*
X532126Y209461D01*
X532123Y209428D01*
X532119Y209352D01*
Y208635D01*
X532985D01*
Y209297D01*
X532978Y209374D01*
X532971Y209436D01*
X532963Y209487D01*
X532956Y209527D01*
X532949Y209559D01*
X532945Y209574D01*
X532941Y209581D01*
X532923Y209629D01*
X532901Y209669D01*
X532876Y209705D01*
X532851Y209734D01*
X532829Y209756D01*
X532810Y209770D01*
X532796Y209781D01*
X532792Y209785D01*
X532752Y209810D01*
X532712Y209829D01*
X532672Y209843D01*
X532636Y209851D01*
X532603Y209858D01*
X532574Y209861D01*
D02*
G37*
%LPD*%
D11*
X573356Y178280D02*
Y238320D01*
X490285D02*
X573356D01*
X490285Y178280D02*
Y238320D01*
Y178280D02*
X573356D01*
M02*
