G04*
G04 #@! TF.GenerationSoftware,Altium Limited,Altium Designer,22.9.1 (49)*
G04*
G04 Layer_Color=255*
%FSLAX25Y25*%
%MOIN*%
G70*
G04*
G04 #@! TF.SameCoordinates,3F8A9F32-4B6F-401C-BF37-4CBD66F0855C*
G04*
G04*
G04 #@! TF.FilePolarity,Positive*
G04*
G01*
G75*
%ADD25R,0.03543X0.02756*%
%ADD27R,0.02756X0.03543*%
%ADD46R,0.04331X0.02362*%
%ADD56R,0.02362X0.04331*%
%ADD85R,0.05118X0.05118*%
%ADD86C,0.05118*%
G04:AMPARAMS|DCode=87|XSize=39.37mil|YSize=70.87mil|CornerRadius=19.68mil|HoleSize=0mil|Usage=FLASHONLY|Rotation=180.000|XOffset=0mil|YOffset=0mil|HoleType=Round|Shape=RoundedRectangle|*
%AMROUNDEDRECTD87*
21,1,0.03937,0.03150,0,0,180.0*
21,1,0.00000,0.07087,0,0,180.0*
1,1,0.03937,0.00000,0.01575*
1,1,0.03937,0.00000,0.01575*
1,1,0.03937,0.00000,-0.01575*
1,1,0.03937,0.00000,-0.01575*
%
%ADD87ROUNDEDRECTD87*%
G04:AMPARAMS|DCode=88|XSize=39.37mil|YSize=82.68mil|CornerRadius=19.68mil|HoleSize=0mil|Usage=FLASHONLY|Rotation=180.000|XOffset=0mil|YOffset=0mil|HoleType=Round|Shape=RoundedRectangle|*
%AMROUNDEDRECTD88*
21,1,0.03937,0.04331,0,0,180.0*
21,1,0.00000,0.08268,0,0,180.0*
1,1,0.03937,0.00000,0.02165*
1,1,0.03937,0.00000,0.02165*
1,1,0.03937,0.00000,-0.02165*
1,1,0.03937,0.00000,-0.02165*
%
%ADD88ROUNDEDRECTD88*%
%ADD89C,0.02559*%
%ADD93C,0.04921*%
%ADD94C,0.03937*%
%ADD103C,0.07323*%
%ADD104C,0.01575*%
%ADD105C,0.05906*%
%ADD106R,0.05906X0.05906*%
%ADD107C,0.15748*%
%ADD108R,0.08268X0.08268*%
%ADD109C,0.08268*%
%ADD112R,0.02362X0.07480*%
%ADD113R,0.08268X0.11024*%
%ADD114R,0.03150X0.03543*%
%ADD115R,0.17717X0.09055*%
D25*
X222543Y210906D02*
D03*
X230500Y200000D02*
D03*
Y194095D02*
D03*
X222543Y205000D02*
D03*
X206500Y200000D02*
D03*
Y194095D02*
D03*
X214500Y205095D02*
D03*
Y211000D02*
D03*
X426000Y181047D02*
D03*
Y186953D02*
D03*
X434000Y181047D02*
D03*
Y186953D02*
D03*
X263000Y236047D02*
D03*
Y241953D02*
D03*
X268000Y236047D02*
D03*
Y241953D02*
D03*
X273000Y232953D02*
D03*
Y227047D02*
D03*
D27*
X331953Y191500D02*
D03*
X326047D02*
D03*
X377547Y210500D02*
D03*
X383453D02*
D03*
X377547Y215500D02*
D03*
X383453D02*
D03*
X326047Y201500D02*
D03*
X331953D02*
D03*
X326000Y206500D02*
D03*
X331906D02*
D03*
X331953Y196500D02*
D03*
X326047D02*
D03*
X331953Y186500D02*
D03*
X326047D02*
D03*
D46*
X213579Y200240D02*
D03*
Y196500D02*
D03*
Y192760D02*
D03*
X223421D02*
D03*
Y196500D02*
D03*
Y200240D02*
D03*
X386421Y196260D02*
D03*
Y200000D02*
D03*
Y203740D02*
D03*
X376579D02*
D03*
Y200000D02*
D03*
Y196260D02*
D03*
X278579Y227240D02*
D03*
Y223500D02*
D03*
Y219760D02*
D03*
X288421D02*
D03*
Y223500D02*
D03*
Y227240D02*
D03*
X306842Y219760D02*
D03*
Y223500D02*
D03*
Y227240D02*
D03*
X297000D02*
D03*
Y223500D02*
D03*
Y219760D02*
D03*
D56*
X426260Y191079D02*
D03*
X430000D02*
D03*
X433740D02*
D03*
Y200921D02*
D03*
X430000D02*
D03*
X426260D02*
D03*
D85*
X394000Y215622D02*
D03*
D86*
Y207748D02*
D03*
Y199874D02*
D03*
Y192000D02*
D03*
D87*
X365008Y244587D02*
D03*
X330992D02*
D03*
D88*
X365008Y228130D02*
D03*
X330992D02*
D03*
D89*
X359378Y230098D02*
D03*
X336622D02*
D03*
D93*
X516269Y208300D02*
D03*
D94*
X545600D02*
D03*
D103*
X491925Y193327D02*
D03*
Y224823D02*
D03*
X643500Y182500D02*
D03*
Y224823D02*
D03*
D104*
X291354Y194638D02*
D03*
X296866D02*
D03*
X285842D02*
D03*
X296866Y200150D02*
D03*
X291354D02*
D03*
X285842D02*
D03*
X294110Y191882D02*
D03*
X288598D02*
D03*
X294110Y197394D02*
D03*
X288598D02*
D03*
X294110Y202906D02*
D03*
X288598D02*
D03*
D105*
X134500Y243500D02*
D03*
Y233500D02*
D03*
X492000Y167264D02*
D03*
Y177264D02*
D03*
D106*
X134500Y223500D02*
D03*
X492000Y157264D02*
D03*
D107*
X235205Y211000D02*
D03*
X198000D02*
D03*
D108*
X675500Y174500D02*
D03*
D109*
Y189500D02*
D03*
Y204500D02*
D03*
D112*
X279000Y212000D02*
D03*
X286874D02*
D03*
X298685D02*
D03*
X267189D02*
D03*
X306559D02*
D03*
X263252D02*
D03*
X302622D02*
D03*
X294748D02*
D03*
X290811D02*
D03*
X271126D02*
D03*
X275063D02*
D03*
X282937D02*
D03*
X341626Y209500D02*
D03*
X353437D02*
D03*
X349500D02*
D03*
X345563D02*
D03*
X349468Y177126D02*
D03*
X341595D02*
D03*
X357343D02*
D03*
X337657D02*
D03*
X353405D02*
D03*
X345532D02*
D03*
X148413Y203752D02*
D03*
X152350D02*
D03*
X156287D02*
D03*
X164161D02*
D03*
X140539D02*
D03*
X168098D02*
D03*
X144476D02*
D03*
X160224D02*
D03*
X427665Y209248D02*
D03*
X435539D02*
D03*
X419791D02*
D03*
X439476D02*
D03*
X423728D02*
D03*
X431602D02*
D03*
X216563Y183000D02*
D03*
X208689D02*
D03*
X224437D02*
D03*
X204752D02*
D03*
X220500D02*
D03*
X212626D02*
D03*
D113*
X250850Y202748D02*
D03*
X318961D02*
D03*
X365839Y218752D02*
D03*
X329224D02*
D03*
X325256Y167874D02*
D03*
X369744D02*
D03*
X180500Y194500D02*
D03*
X128138D02*
D03*
X451878Y218500D02*
D03*
X407390D02*
D03*
X192350Y173748D02*
D03*
X236839D02*
D03*
D114*
X355000Y197500D02*
D03*
X351260Y189626D02*
D03*
X358740D02*
D03*
X341500Y189563D02*
D03*
X345240Y197437D02*
D03*
X337760D02*
D03*
D115*
X499537Y208300D02*
D03*
X564104D02*
D03*
M02*
