G04*
G04 #@! TF.GenerationSoftware,Altium Limited,Altium Designer,22.9.1 (49)*
G04*
G04 Layer_Color=255*
%FSLAX25Y25*%
%MOIN*%
G70*
G04*
G04 #@! TF.SameCoordinates,3F8A9F32-4B6F-401C-BF37-4CBD66F0855C*
G04*
G04*
G04 #@! TF.FilePolarity,Positive*
G04*
G01*
G75*
%ADD23R,0.04331X0.07087*%
%ADD24R,0.03543X0.05906*%
%ADD25R,0.03543X0.02756*%
%ADD26R,0.03150X0.03543*%
%ADD27R,0.02756X0.03543*%
%ADD28R,0.06721X0.02425*%
G04:AMPARAMS|DCode=29|XSize=67.21mil|YSize=24.25mil|CornerRadius=12.12mil|HoleSize=0mil|Usage=FLASHONLY|Rotation=0.000|XOffset=0mil|YOffset=0mil|HoleType=Round|Shape=RoundedRectangle|*
%AMROUNDEDRECTD29*
21,1,0.06721,0.00000,0,0,0.0*
21,1,0.04296,0.02425,0,0,0.0*
1,1,0.02425,0.02148,0.00000*
1,1,0.02425,-0.02148,0.00000*
1,1,0.02425,-0.02148,0.00000*
1,1,0.02425,0.02148,0.00000*
%
%ADD29ROUNDEDRECTD29*%
%ADD30R,0.04134X0.05906*%
%ADD31R,0.09449X0.05906*%
%ADD32R,0.05906X0.04134*%
%ADD33R,0.05906X0.09449*%
%ADD34R,0.03150X0.01968*%
%ADD35R,0.01181X0.04528*%
%ADD36R,0.02362X0.04528*%
%ADD37R,0.03543X0.03543*%
%ADD38R,0.05906X0.03543*%
%ADD39R,0.03543X0.05906*%
%ADD40R,0.07087X0.05512*%
%ADD41R,0.07087X0.04724*%
%ADD42R,0.03150X0.07087*%
%ADD43R,0.03543X0.03150*%
%ADD44R,0.06000X0.06000*%
%ADD45R,0.06000X0.06000*%
%ADD46R,0.04331X0.02362*%
%ADD47R,0.03150X0.03150*%
%ADD48R,0.05269X0.02275*%
G04:AMPARAMS|DCode=49|XSize=52.69mil|YSize=22.75mil|CornerRadius=11.38mil|HoleSize=0mil|Usage=FLASHONLY|Rotation=0.000|XOffset=0mil|YOffset=0mil|HoleType=Round|Shape=RoundedRectangle|*
%AMROUNDEDRECTD49*
21,1,0.05269,0.00000,0,0,0.0*
21,1,0.02993,0.02275,0,0,0.0*
1,1,0.02275,0.01497,0.00000*
1,1,0.02275,-0.01497,0.00000*
1,1,0.02275,-0.01497,0.00000*
1,1,0.02275,0.01497,0.00000*
%
%ADD49ROUNDEDRECTD49*%
%ADD50R,0.01968X0.01221*%
%ADD51R,0.02559X0.01221*%
%ADD52R,0.01221X0.01968*%
%ADD53R,0.01221X0.02559*%
%ADD54R,0.05000X0.08268*%
%ADD55R,0.01575X0.01575*%
%ADD56R,0.02362X0.04331*%
%ADD61C,0.06909*%
%ADD62C,0.00709*%
%ADD85R,0.05118X0.05118*%
%ADD86C,0.05118*%
G04:AMPARAMS|DCode=87|XSize=39.37mil|YSize=70.87mil|CornerRadius=19.68mil|HoleSize=0mil|Usage=FLASHONLY|Rotation=180.000|XOffset=0mil|YOffset=0mil|HoleType=Round|Shape=RoundedRectangle|*
%AMROUNDEDRECTD87*
21,1,0.03937,0.03150,0,0,180.0*
21,1,0.00000,0.07087,0,0,180.0*
1,1,0.03937,0.00000,0.01575*
1,1,0.03937,0.00000,0.01575*
1,1,0.03937,0.00000,-0.01575*
1,1,0.03937,0.00000,-0.01575*
%
%ADD87ROUNDEDRECTD87*%
G04:AMPARAMS|DCode=88|XSize=39.37mil|YSize=82.68mil|CornerRadius=19.68mil|HoleSize=0mil|Usage=FLASHONLY|Rotation=180.000|XOffset=0mil|YOffset=0mil|HoleType=Round|Shape=RoundedRectangle|*
%AMROUNDEDRECTD88*
21,1,0.03937,0.04331,0,0,180.0*
21,1,0.00000,0.08268,0,0,180.0*
1,1,0.03937,0.00000,0.02165*
1,1,0.03937,0.00000,0.02165*
1,1,0.03937,0.00000,-0.02165*
1,1,0.03937,0.00000,-0.02165*
%
%ADD88ROUNDEDRECTD88*%
%ADD89C,0.02559*%
%ADD93C,0.04921*%
%ADD94C,0.03937*%
%ADD103C,0.07323*%
%ADD104C,0.01575*%
%ADD105C,0.05906*%
%ADD106R,0.05906X0.05906*%
%ADD107C,0.15748*%
%ADD108R,0.08268X0.08268*%
%ADD109C,0.08268*%
D23*
X389216Y147795D02*
D03*
Y172205D02*
D03*
X403784Y147795D02*
D03*
Y172205D02*
D03*
X379575D02*
D03*
Y147795D02*
D03*
X365008Y172205D02*
D03*
Y147795D02*
D03*
X354283Y172205D02*
D03*
Y147795D02*
D03*
X339717Y172205D02*
D03*
Y147795D02*
D03*
D24*
X125992Y164209D02*
D03*
X113000D02*
D03*
Y183500D02*
D03*
X125992D02*
D03*
X125996Y213146D02*
D03*
X113004D02*
D03*
Y193854D02*
D03*
X125996D02*
D03*
D25*
X564000Y247453D02*
D03*
Y241547D02*
D03*
X416500Y204953D02*
D03*
Y199047D02*
D03*
X421500Y199047D02*
D03*
Y204953D02*
D03*
X158000Y235953D02*
D03*
Y230047D02*
D03*
X173000Y235953D02*
D03*
Y230047D02*
D03*
X153000Y235953D02*
D03*
Y230047D02*
D03*
X148000Y235953D02*
D03*
Y230047D02*
D03*
X168000Y235953D02*
D03*
Y230047D02*
D03*
X143000Y235953D02*
D03*
Y230047D02*
D03*
X163000Y235953D02*
D03*
Y230047D02*
D03*
X510000Y241547D02*
D03*
Y247453D02*
D03*
X528000Y241547D02*
D03*
Y247453D02*
D03*
X546000Y241547D02*
D03*
Y247453D02*
D03*
X582000Y241547D02*
D03*
Y247453D02*
D03*
X600000Y241547D02*
D03*
Y247453D02*
D03*
X618000Y241547D02*
D03*
Y247453D02*
D03*
X448500Y167453D02*
D03*
Y161547D02*
D03*
X443500Y161594D02*
D03*
Y167500D02*
D03*
X361500Y220953D02*
D03*
Y215047D02*
D03*
X446000Y156953D02*
D03*
Y151047D02*
D03*
X409000Y210000D02*
D03*
Y215905D02*
D03*
X465500Y218016D02*
D03*
Y223921D02*
D03*
X473500Y179047D02*
D03*
Y184953D02*
D03*
X465500Y205047D02*
D03*
Y210953D02*
D03*
X346000Y193047D02*
D03*
Y198953D02*
D03*
X341500Y193047D02*
D03*
Y198953D02*
D03*
X364500Y183047D02*
D03*
Y188953D02*
D03*
D26*
X344244Y173500D02*
D03*
X349756D02*
D03*
X393744D02*
D03*
X399256D02*
D03*
X122256Y188543D02*
D03*
X116744D02*
D03*
X412744Y154500D02*
D03*
X418256D02*
D03*
X416744Y147500D02*
D03*
X422256D02*
D03*
X375047Y173500D02*
D03*
X369535D02*
D03*
X377756Y206500D02*
D03*
X372244D02*
D03*
X136756Y211000D02*
D03*
X131244D02*
D03*
D27*
X457547Y184500D02*
D03*
X463453D02*
D03*
X358547Y200000D02*
D03*
X364453D02*
D03*
X399453Y146500D02*
D03*
X393547D02*
D03*
X432547Y167000D02*
D03*
X438453D02*
D03*
X337953Y220500D02*
D03*
X332047D02*
D03*
X340953Y213500D02*
D03*
X335047D02*
D03*
X340953Y208500D02*
D03*
X335047D02*
D03*
X461953Y237000D02*
D03*
X456047D02*
D03*
X440406Y237000D02*
D03*
X434500D02*
D03*
X418953Y237000D02*
D03*
X413047D02*
D03*
X410047Y176000D02*
D03*
X415953D02*
D03*
X344047Y146500D02*
D03*
X349953D02*
D03*
X369339D02*
D03*
X375244D02*
D03*
X364453Y205000D02*
D03*
X358547D02*
D03*
X377953Y185500D02*
D03*
X372047D02*
D03*
X131047Y216500D02*
D03*
X136953D02*
D03*
X121047Y246500D02*
D03*
X126953D02*
D03*
X126953Y241500D02*
D03*
X121047D02*
D03*
X326047Y146500D02*
D03*
X331953D02*
D03*
D28*
X415773Y224240D02*
D03*
Y187240D02*
D03*
D29*
Y220500D02*
D03*
Y216760D02*
D03*
X425227D02*
D03*
Y224240D02*
D03*
X415773Y183500D02*
D03*
Y179760D02*
D03*
X425227D02*
D03*
Y187240D02*
D03*
D30*
X460000Y208000D02*
D03*
X460004Y220468D02*
D03*
D31*
X450650Y208000D02*
D03*
X450654Y220468D02*
D03*
D32*
X448000Y232496D02*
D03*
X469500Y232650D02*
D03*
X426500Y232496D02*
D03*
D33*
X448000Y241846D02*
D03*
X469500Y242000D02*
D03*
X426500Y241846D02*
D03*
D34*
X377831Y202299D02*
D03*
Y199150D02*
D03*
Y196000D02*
D03*
Y192850D02*
D03*
Y189701D02*
D03*
X369169D02*
D03*
Y192850D02*
D03*
Y196000D02*
D03*
Y199150D02*
D03*
Y202299D02*
D03*
D35*
X354890Y225866D02*
D03*
X352921D02*
D03*
X350953D02*
D03*
X348984D02*
D03*
X347016D02*
D03*
X345047D02*
D03*
X343079D02*
D03*
X341110D02*
D03*
D36*
X357449D02*
D03*
X338551D02*
D03*
X360598D02*
D03*
X335402D02*
D03*
D37*
X291354Y197394D02*
D03*
X296866D02*
D03*
X285842D02*
D03*
X296866Y202906D02*
D03*
X291354D02*
D03*
X285842D02*
D03*
X296866Y191882D02*
D03*
X291354D02*
D03*
X285842D02*
D03*
D38*
X319898Y167000D02*
D03*
Y172000D02*
D03*
Y177000D02*
D03*
Y182000D02*
D03*
Y187000D02*
D03*
Y192000D02*
D03*
Y197000D02*
D03*
Y202000D02*
D03*
Y207000D02*
D03*
Y212000D02*
D03*
Y217000D02*
D03*
Y222000D02*
D03*
Y227000D02*
D03*
Y232000D02*
D03*
X251000D02*
D03*
Y227000D02*
D03*
Y222000D02*
D03*
Y217000D02*
D03*
Y212000D02*
D03*
Y207000D02*
D03*
Y202000D02*
D03*
Y197000D02*
D03*
Y192000D02*
D03*
Y187000D02*
D03*
Y182000D02*
D03*
Y177000D02*
D03*
Y172000D02*
D03*
Y167000D02*
D03*
D39*
X312949Y236921D02*
D03*
X307949D02*
D03*
X302949D02*
D03*
X297949D02*
D03*
X292949D02*
D03*
X287949D02*
D03*
X282949D02*
D03*
X277949D02*
D03*
X272949D02*
D03*
X267949D02*
D03*
X262949D02*
D03*
X257949D02*
D03*
D40*
X170795Y201622D02*
D03*
X145205D02*
D03*
D41*
X173945Y148276D02*
D03*
X145008D02*
D03*
D42*
X173158Y193748D02*
D03*
X168827D02*
D03*
X164496D02*
D03*
X160165D02*
D03*
X155835D02*
D03*
X151504D02*
D03*
X147173D02*
D03*
X142842D02*
D03*
D43*
X331000Y172256D02*
D03*
Y166744D02*
D03*
X326000Y172256D02*
D03*
Y166744D02*
D03*
X431500Y218244D02*
D03*
Y223756D02*
D03*
X409500Y229756D02*
D03*
Y224244D02*
D03*
X431000Y181244D02*
D03*
Y186756D02*
D03*
X410000Y192756D02*
D03*
Y187244D02*
D03*
X451500Y177256D02*
D03*
Y171744D02*
D03*
X473500Y174756D02*
D03*
Y169244D02*
D03*
X380000Y242756D02*
D03*
Y237244D02*
D03*
D44*
X236728Y247988D02*
D03*
X228728D02*
D03*
X220730D02*
D03*
X212730D02*
D03*
X204732D02*
D03*
X196732D02*
D03*
D45*
X244063Y170968D02*
D03*
Y162969D02*
D03*
Y154969D02*
D03*
Y146968D02*
D03*
D46*
X162579Y212760D02*
D03*
Y216500D02*
D03*
Y220240D02*
D03*
X172421D02*
D03*
Y216500D02*
D03*
Y212760D02*
D03*
X152921Y220240D02*
D03*
Y216500D02*
D03*
Y212760D02*
D03*
X143079D02*
D03*
Y216500D02*
D03*
Y220240D02*
D03*
X346079Y219240D02*
D03*
Y215500D02*
D03*
Y211760D02*
D03*
X355921D02*
D03*
Y215500D02*
D03*
Y219240D02*
D03*
D47*
X504150Y242000D02*
D03*
X497850D02*
D03*
X522150D02*
D03*
X515850D02*
D03*
X540150D02*
D03*
X533850D02*
D03*
X558150D02*
D03*
X551850D02*
D03*
X576150D02*
D03*
X569850D02*
D03*
X594150D02*
D03*
X587850D02*
D03*
X612150D02*
D03*
X605850D02*
D03*
X464850Y191500D02*
D03*
X471150D02*
D03*
X451350D02*
D03*
X457650D02*
D03*
D48*
X458106Y178740D02*
D03*
D49*
Y175000D02*
D03*
Y171260D02*
D03*
X466894D02*
D03*
Y178740D02*
D03*
D50*
X462043Y242032D02*
D03*
Y245969D02*
D03*
X440543Y242032D02*
D03*
Y245969D02*
D03*
X419043Y242032D02*
D03*
Y245969D02*
D03*
D51*
X455252Y244000D02*
D03*
X433752D02*
D03*
X412252D02*
D03*
D52*
X425531Y198957D02*
D03*
X429468D02*
D03*
X470031Y217925D02*
D03*
X473969D02*
D03*
X470031Y204957D02*
D03*
X473969D02*
D03*
D53*
X427500Y205748D02*
D03*
X472000Y224716D02*
D03*
Y211748D02*
D03*
D54*
X472815Y159500D02*
D03*
X457185D02*
D03*
D55*
X393724Y246724D02*
D03*
Y243575D02*
D03*
Y240425D02*
D03*
Y237276D02*
D03*
X384276D02*
D03*
Y240425D02*
D03*
Y243575D02*
D03*
Y246724D02*
D03*
D56*
X332740Y161421D02*
D03*
X329000D02*
D03*
X325260D02*
D03*
Y151579D02*
D03*
X329000D02*
D03*
X332740D02*
D03*
D61*
X430500Y157000D02*
D03*
D62*
X438276Y160937D02*
D03*
Y159362D02*
D03*
Y157787D02*
D03*
X438317Y156213D02*
D03*
Y154638D02*
D03*
Y153063D02*
D03*
X422724D02*
D03*
Y154638D02*
D03*
Y156213D02*
D03*
X422683Y157787D02*
D03*
Y159362D02*
D03*
Y160937D02*
D03*
D85*
X394000Y215622D02*
D03*
D86*
Y207748D02*
D03*
Y199874D02*
D03*
Y192000D02*
D03*
D87*
X365008Y244587D02*
D03*
X330992D02*
D03*
D88*
X365008Y228130D02*
D03*
X330992D02*
D03*
D89*
X359378Y230098D02*
D03*
X336622D02*
D03*
D93*
X516269Y208300D02*
D03*
D94*
X545600D02*
D03*
D103*
X491925Y193327D02*
D03*
Y224823D02*
D03*
X643500Y182500D02*
D03*
Y224823D02*
D03*
D104*
X291354Y194638D02*
D03*
X296866D02*
D03*
X285842D02*
D03*
X296866Y200150D02*
D03*
X291354D02*
D03*
X285842D02*
D03*
X294110Y191882D02*
D03*
X288598D02*
D03*
X294110Y197394D02*
D03*
X288598D02*
D03*
X294110Y202906D02*
D03*
X288598D02*
D03*
D105*
X134500Y243500D02*
D03*
Y233500D02*
D03*
X492000Y167264D02*
D03*
Y177264D02*
D03*
D106*
X134500Y223500D02*
D03*
X492000Y157264D02*
D03*
D107*
X235205Y211000D02*
D03*
X198000D02*
D03*
D108*
X675500Y174500D02*
D03*
D109*
Y189500D02*
D03*
Y204500D02*
D03*
M02*
