M48
;Layer_Color=9474304
;FILE_FORMAT=2:5
INCH,TZ
;TYPE=PLATED
T1F00S00C0.01181
T2F00S00C0.02000
T4F00S00C0.03150
T5F00S00C0.03543
T6F00S00C0.04882
T7F00S00C0.05512
T8F00S00C0.08268
T9F00S00C0.12205
;TYPE=NON_PLATED
T10F00S00C0.02559
T11F00S00C0.03937
T12F00S00C0.04921
%
T01
X329000Y154000
X348458Y147958
X368000Y148000
X374000
X398000Y148500
X426957Y155032
X430500
X434043
X503500Y207000
X508000Y248000
X526000
X544000
X562000
X580000
X598000
X616000
X421833Y242633
X389000Y243500
X375255Y215255
X373621Y210500
X372732Y197193
X364500Y198500
X357319Y202500
X352500Y197000
X354819Y189500
X346000Y191500
X337500Y191000
X335652Y194652
X330500Y196500
X330535Y191465
X330500Y186500
X338882Y185316
X342500Y183819
X343500Y203000
X342000Y208500
X348095Y215500
X353500
X344500Y220500
X320000Y217500
Y213181
X325500Y206500
Y201500
X315264Y198701
X316019Y177396
X329000Y159000
X336500Y161500
X368500Y185500
X378000Y184000
X386558Y183190
X389420
X385000Y192500
X429785Y193209
X431333Y196333
X430500Y167000
Y158968
X426957
X434043
X438500Y164500
X446000Y161500
X447500Y169500
X418000Y159500
X415000
X314795Y232289
X308500Y223500
X299000
X286181
X276000
X273000Y234181
X268000
X263000Y234000
X258000
X257500Y212000
Y207000
Y202000
Y197000
Y192000
X230500Y192126
X229500Y185000
Y181862
X220500Y189500
X216563
X212626
X213579Y196500
X223421
X222543Y212874
X214500Y212968
X212500Y245181
X204500
X220500
X228500
X236451
X244415Y247543
X247458Y247542
X303000Y247500
X290500Y232000
X288598Y202906
X291354Y200150
X288598Y197394
X291354Y194638
X288598Y191882
X285842Y194638
Y200150
X296866
X294110Y197394
X296866Y194638
X294110Y191882
Y202906
X175000Y216500
X171500Y222000
X164000Y216500
X158914Y199154
X169500Y188500
X156000Y208000
X148500
X144500
X140500Y216500
X150000
X152000Y222000
X145733Y246033
X128000Y164000
T02
X447661Y153054
X472423Y245107
X458500Y247000
X461383Y233883
X460000Y225000
X462500Y205000
X466500Y209000
X442000Y206000
X441500Y217000
X440000Y228500
X448000Y239500
X436923Y246666
X423000Y232000
X425000Y222000
X420047Y212000
X421000Y195169
X417000Y183500
X404916Y187119
X409200Y204300
X405044Y218500
X409243Y243743
X371275Y241725
X372000Y230500
X353000Y231000
X354500Y205000
X349500
X357500Y179000
X336500Y178500
X347000Y163000
X439500Y183000
X461500Y175000
X311997Y178500
X306500Y192500
X275000Y207000
X267000
X271000Y216500
X263000Y218000
X261500Y173000
X208918Y177818
X204000
X199000Y166500
X176500
X181000Y232000
X196918Y246318
X118500Y246500
Y241500
X128268Y209693
X136500Y199500
X126000Y179500
X156000Y187000
X149000Y159500
T04
X394000Y192000
Y199874
Y207748
Y215622
T05
X492000Y157264
Y167264
Y177264
X134500Y223500
Y233500
Y243500
T06
X643500Y182500
Y224823
X491925
Y193327
T07
X675500Y174500
Y189500
Y204500
T08
X198000Y211000
X235205
T09
X114811Y149311
X681740
Y228051
X114811
T10
X336622Y230098
X359378
T11
X545600Y208300
T12
X516269Y208300
M30
